<?xml version="1.0" encoding="utf-8"?>
<svg version="1.1" xmlns="http://www.w3.org/2000/svg" xmlns:xlink="http://www.w3.org/1999/xlink" x="0px" y="0px"
	 width="885.8px" height="358.8px" viewBox="344 365.1 885.8 358.8" style="enable-background:new 344 365.1 885.8 358.8;"
	 xml:space="preserve">
<path style="fill:#004890;" d="M793.7,446c0-0.8-5.5-7.2-6.1-8c-4.8-5.8-9.2-11.9-13.7-18l-11.5-15.7c2.5-2.8,29.5-33,29.5-33.7
	c0.1-0.1,0.1-0.3,0.1-0.5c0-0.9-0.6-1-1.4-1H781c-0.4,0-0.8,0.2-1,0.5l-27.8,32.8h-2.5v-32c0-0.7-0.6-1.3-1.3-1.3h-8.7
	c-0.7,0-1.3,0.6-1.3,1.3v75.2c0,0.7,0.6,1.3,1.3,1.3h8.8c0.7,0,1.3-0.6,1.3-1.3v-36c0.9,0,2.1-0.1,3,0.1c0.4,0.4,0.6,0.8,0.9,1.2
	l26.2,35.3c0.2,0.3,0.7,0.6,1,0.6H792C792.6,446.8,793.7,446.6,793.7,446L793.7,446z"/>
<path style="fill:#004890;" d="M854.5,418c0-17.8-9.3-30.6-28.1-30.6c-18.5,0-28,13.1-28,30.7c0,17.7,9.8,30.7,28.3,30.7
	C845.3,448.8,854.5,435.5,854.5,418L854.5,418L854.5,418z M843.1,418c0,11.4-3,22.6-16.6,22.6s-16.7-11-16.7-22.4
	c0-11.7,2.8-22.7,16.6-22.7C840,395.5,843.1,406.4,843.1,418L843.1,418z"/>
<path style="fill:#004890;" d="M918.9,445.1v-37.7c0-12.6-8.2-20-20.5-20c-3.8,0-7.1,0.7-10.7,1.9c-2,0.6-4.2,2-6.2,2h-0.9
	c0-2,0.2-2.9-2.2-2.9h-5.7c-0.9,0-1.8,0.8-1.8,1.8v54.9c0,0.9,0.8,1.8,1.8,1.8h7.3c0.9,0,1.8-0.8,1.8-1.8V403c0-3.4,1.5-4.8,4.5-5.9
	c2.6-1.1,5.5-1.4,8.3-1.4c9.1,0,13.4,4.3,13.4,13.4v36c0,0.9,0.8,1.8,1.8,1.8h7.5C918.1,446.8,918.9,446,918.9,445.1L918.9,445.1
	L918.9,445.1z"/>
<path style="fill:#004890;" d="M969.2,396.7c0-5.9,1.4-8.3-5.1-8.3c-5,0-7.8,0.8-12.4,3c-1,0.6-1.7,0.8-3,0.8h-0.3
	c0-1.9,0.5-3.8-2-3.8h-5.9c-0.9,0-1.8,0.8-1.8,1.8v54.9c0,0.9,0.8,1.8,1.7,1.8h6.9c0.9,0,1.6-0.8,1.6-1.8v-40.6
	c0-6.2,4.1-6.9,9.3-6.9c2.7,0,5.4,0.4,7.9,0.8c0.5,0.1,0.9,0.2,1.4,0.2C968.7,398.6,969.2,397.7,969.2,396.7L969.2,396.7
	L969.2,396.7z"/>
<path style="fill:#004890;" d="M1022.9,445.1v-41.8c0-12-8.7-15.9-19.5-15.9c-4.8,0-17.8,1.4-21.6,4.2c-1.2,0.8-1.2,1.5-1.2,2.9v4.7
	c0,1,0.6,1.6,1.6,1.6c0.9,0,1.4-0.4,2.1-0.8c5-3,11.7-4.4,17.5-4.4c5.1,0,10,1.2,10,7.2v2.6c0,2.3-1.4,2.9-3.4,3.6
	c-8.3,2.8-17.3,5.2-24.7,10c-4.6,2.9-7.2,7.2-7.2,12.7c0,10.9,9.8,16,19.5,16c3.5,0,8.3-0.7,11.4-2.1c1.9-0.8,3.3-1.6,5.4-1.6h0.2
	c0,1.6,0.1,2.8,2.1,2.8h5.9C1022.1,446.8,1022.9,446,1022.9,445.1L1022.9,445.1L1022.9,445.1z M1011.9,431.9c0,3.2-0.5,4.4-3.4,5.8
	s-6.5,1.9-9.8,1.9c-5.6,0-10.7-1.8-10.7-8.3c0-7.5,5.7-9.3,11.9-11.4l12-4.2V431.9z"/>
<path style="fill:#004890;" d="M1091.2,445.1v-78.2c0-0.9-0.8-1.8-1.8-1.8h-7.3c-0.9,0-1.8,0.8-1.8,1.8v24.4c-0.2,0-0.6,0-0.8,0
	c-0.9,0-1.9-0.8-2.6-1.3c-2.9-2-7.5-2.6-10.8-2.6c-17.5,0-28.1,13.8-28.1,30.6c0,17.3,10.1,29.7,28,29.7c4.2,0,8.2-0.9,12-2.6
	c1.2-0.5,2-1.1,3.4-1.1h0.1c0,1.3,0.2,2.7,1.9,2.7h6.1C1090.4,446.8,1091.2,446,1091.2,445.1L1091.2,445.1L1091.2,445.1z
	 M1080.3,432.5c0,3.8-1.9,5.1-5.3,6.2c-2.1,0.7-4.4,0.9-6.6,0.9c-12.9,0-19-9.1-19-21.2c0-6.4,0.6-11.9,4.9-16.8
	c3.7-4.2,8.7-5.9,14.2-5.9c2.9,0,6.6,0.5,9.2,2.1c2.1,1.4,2.6,2.9,2.6,5.4V432.5L1080.3,432.5z"/>
<path style="fill:#004890;" d="M795.8,572c0-0.2,0-0.5-0.1-0.6l-0.3-1l-24.3-70.8c-1.3-3.8-1.6-5.1-5.9-5.1c-7.5,0-8-1.4-10.4,5.3
	l-25,70.8c-0.1,0.4-0.3,0.8-0.5,1.2c0,1.3,0.3,1.5,1.6,1.5h6.9c0.6,0,1-0.3,1.2-0.9l9-27.4h27.6l8.9,27.4c0.2,0.6,0.7,0.9,1.3,0.9
	h7.9C794.6,573.2,795.8,573.1,795.8,572L795.8,572L795.8,572z M773.3,537.5h-22.6l11.3-35L773.3,537.5z"/>
<path style="fill:#004890;" d="M855.5,571.4v-78.2c0-0.9-0.8-1.8-1.7-1.8h-7.3c-0.9,0-1.8,0.8-1.8,1.8v24.4c-0.2,0-0.6,0-0.8,0
	c-0.9,0-1.9-0.8-2.6-1.3c-2.9-2-7.5-2.6-10.8-2.6c-17.5,0-28.1,13.8-28.1,30.6c0,17.3,10.1,29.7,28,29.7c4.2,0,8.2-0.9,12-2.6
	c1.2-0.5,2-1,3.4-1h0.1c0,1.3,0.2,2.7,1.9,2.7h6.1C854.7,573.2,855.5,572.4,855.5,571.4L855.5,571.4L855.5,571.4z M844.6,558.8
	c0,3.8-1.9,5.1-5.2,6.2c-2.1,0.7-4.4,0.9-6.6,0.9c-12.9,0-19-9.1-19-21.2c0-6.4,0.6-11.9,4.9-16.8c3.7-4.2,8.7-5.9,14.2-5.9
	c2.9,0,6.6,0.5,9.2,2.1c2.1,1.4,2.6,2.9,2.6,5.4v29.3H844.6z"/>
<path style="fill:#004890;" d="M923.3,543.4v-3.1c0-15.3-9.3-26.5-25.1-26.5c-18.1,0-26.4,14.2-26.4,30.8
	c0,17.4,10.3,29.5,28.1,29.5c5.4,0,12.5-1.4,17.4-3.7c1.9-0.9,2.6-1,2.6-3.3c0-1.5,0.8-6.4-1.6-6.4c-0.9,0-1.6,0.6-2.5,0.9
	c-4.1,2-9.4,4.3-14.1,4.3c-11.9,0-19-8.5-19-20.1v-0.7h38.8C922.4,545.2,923.3,544.4,923.3,543.4L923.3,543.4L923.3,543.4z
	 M912.4,537h-29.7c0.1-8.6,6.3-15.2,15-15.2c8.4,0,14.7,5.4,14.7,14V537L912.4,537z"/>
<path style="fill:#004890;" d="M987.1,571.4v-37.7c0-12.6-8.2-20-20.5-20c-3.8,0-7.1,0.7-10.7,1.9c-2,0.6-4.2,2-6.2,2h-0.9
	c0-2,0.2-2.9-2.2-2.9h-5.7c-0.9,0-1.8,0.8-1.8,1.8v54.9c0,0.9,0.8,1.8,1.8,1.8h7.3c0.9,0,1.8-0.8,1.8-1.8v-42.1c0-3.4,1.5-4.8,4.6-6
	c2.6-1,5.5-1.4,8.3-1.4c9.1,0,13.4,4.3,13.4,13.4v36c0,0.9,0.8,1.8,1.7,1.8h7.5C986.2,573.2,987.1,572.4,987.1,571.4L987.1,571.4
	L987.1,571.4z"/>
<path style="fill:#004890;" d="M1048.5,571.4v-41.8c0-12-8.7-15.9-19.5-15.9c-4.8,0-17.8,1.4-21.6,4.2c-1.2,0.8-1.2,1.5-1.2,2.9v4.7
	c0,1,0.6,1.6,1.6,1.6c0.9,0,1.4-0.4,2.1-0.8c5-3,11.7-4.4,17.5-4.4c5.1,0,10,1.2,10,7.2v2.6c0,2.3-1.4,2.9-3.4,3.6
	c-8.3,2.8-17.3,5.3-24.7,10c-4.6,2.9-7.2,7.2-7.2,12.7c0,10.9,9.8,16,19.5,16c3.5,0,8.3-0.7,11.4-2.1c1.9-0.8,3.3-1.6,5.4-1.6h0.2
	c0,1.6,0.1,2.8,2.1,2.8h5.9C1047.7,573.2,1048.5,572.4,1048.5,571.4L1048.5,571.4L1048.5,571.4z M1037.6,558.2
	c0,3.1-0.5,4.4-3.4,5.8c-2.9,1.4-6.5,1.9-9.8,1.9c-5.6,0-10.7-1.7-10.7-8.3c0-7.5,5.7-9.3,11.9-11.4l12-4.2V558.2L1037.6,558.2z"/>
<path style="fill:#004890;" d="M1115.6,571.4v-54.9c0-0.9-0.8-1.8-1.8-1.8h-7.5c-0.9,0-1.8,0.8-1.8,1.8v42.7c0,3.7-2.2,4.8-5.5,5.7
	c-2.3,0.7-4.9,1-7.3,1c-3.4,0-6.9-0.8-9.6-2.8c-3.3-2.3-3.7-6.9-3.7-10.6v-36c0-0.9-0.8-1.8-1.8-1.8h-7.5c-0.9,0-1.8,0.8-1.8,1.8
	v39.4c0,12.2,8.6,18.2,20.2,18.2c4.1,0,7.3-0.5,11.2-1.9c2.4-0.9,4.3-1.9,6.9-1.9c0,1.3,0,2.8,1.8,2.8h6.3
	C1114.8,573.2,1115.6,572.4,1115.6,571.4L1115.6,571.4L1115.6,571.4z"/>
<path style="fill:#004890;" d="M1183.4,543.4v-3.1c0-15.3-9.3-26.5-25.1-26.5c-18.1,0-26.4,14.2-26.4,30.8
	c0,17.4,10.3,29.5,28.1,29.5c5.4,0,12.5-1.4,17.4-3.7c1.9-0.9,2.6-1,2.6-3.3c0-1.5,0.8-6.4-1.6-6.4c-0.9,0-1.6,0.6-2.4,0.9
	c-4.1,2-9.4,4.3-14.1,4.3c-11.9,0-19-8.5-19-20.1v-0.7h38.8C1182.6,545.2,1183.4,544.4,1183.4,543.4L1183.4,543.4L1183.4,543.4z
	 M1172.5,537h-29.7c0.1-8.6,6.3-15.2,15-15.2c8.4,0,14.7,5.4,14.7,14V537L1172.5,537z"/>
<path style="fill:#004890;" d="M1229.7,523c0-5.9,1.4-8.3-5.1-8.3c-5,0-7.8,0.8-12.4,3c-1,0.6-1.8,0.8-3,0.8h-0.4
	c0-1.9,0.5-3.8-2-3.8h-5.9c-0.9,0-1.8,0.8-1.8,1.8v54.9c0,0.9,0.8,1.8,1.8,1.8h6.9c0.9,0,1.6-0.8,1.6-1.8v-40.6
	c0-6.2,4.1-6.9,9.3-6.9c2.7,0,5.4,0.3,7.9,0.8c0.5,0.1,0.9,0.2,1.4,0.2C1229.2,525,1229.7,524.1,1229.7,523L1229.7,523z"/>
<path style="fill:#004890;" d="M779.8,678.7c0-9.1-4.9-14.2-12-19l-14.3-9.7c-3.8-2.6-6.4-5.1-6.4-10c0-7.6,6.2-10.9,13.1-10.9
	c5.4,0,10,1.5,14.5,4.6c0.6,0.3,1.2,0.9,1.9,0.9c1,0,1-0.9,1-1.8v-6.6c0-1.5-0.1-1.5-1.4-2.2c-4.4-2.2-11.7-3.2-16.6-3.2
	c-12.9,0-23.8,6.2-23.8,20.3c0,8.4,4,13.3,10.5,17.8l13.8,9.6c4.8,3.3,7.3,5.6,7.3,11.8c0,8.1-6.4,11.9-13.9,11.9
	c-5.4,0-11.2-1.6-15.7-4.6c-0.6-0.3-1.2-0.8-1.9-0.8c-0.8,0-1.3,0.6-1.3,1.4v7c0,1.6,1,1.9,2.3,2.4c4.5,2,12.1,2.8,17.1,2.8
	C767.7,700.5,779.8,693.6,779.8,678.7L779.8,678.7L779.8,678.7z"/>
<path style="fill:#004890;" d="M825.1,696v-4.2c0-0.9-0.5-1.9-1.5-1.9c-1.4,0-4.3,2.4-8.6,2.4c-6.2,0-8.4-3.3-8.4-9.2v-33.8h16.8
	c0.9,0,1.8-0.8,1.8-1.8v-4.7c0-0.9-0.8-1.8-1.8-1.8h-16.8v-13.8c0-0.9-0.8-1.8-1.8-1.8h-7.3c-0.9,0-1.8,0.8-1.8,1.8V641h-6.4
	c-0.9,0-1.8,0.8-1.8,1.8c0,8.1-0.5,6.4,8.2,6.4v36.4c0,9.9,6.4,14.9,16,14.9c3.5,0,9-0.8,12.1-2.4
	C824.9,697.5,825.1,697.1,825.1,696L825.1,696L825.1,696z"/>
<path style="fill:#004890;" d="M850.6,624.4c0-4.2-2.3-6.5-6.5-6.5c-4.1,0-6.6,2.3-6.6,6.4c0,4.3,2.2,6.6,6.5,6.6
	C848.2,631,850.6,628.9,850.6,624.4L850.6,624.4z M849.4,697.8v-54.9c0-0.9-0.8-1.8-1.8-1.8h-7.3c-0.9,0-1.8,0.8-1.8,1.8v54.9
	c0,0.9,0.8,1.8,1.8,1.8h7.3C848.6,699.6,849.4,698.8,849.4,697.8L849.4,697.8z"/>
<path style="fill:#004890;" d="M897.6,624.9v-4.8c0-2.9-5.9-3.1-7.8-3.1c-4.2,0-8.5,1.3-11.8,4c-6.3,5-5.1,12.9-5.1,20.2h-7.6
	c-0.9,0-1.7,0.8-1.7,1.8v4.7c0,0.9,0.8,1.8,1.7,1.8h7.6V698c0,0.9,0.8,1.8,1.8,1.8h7.3c0.9,0,1.8-0.8,1.8-1.8v-48.5h11.4
	c1,0,1.8-0.3,1.8-1.5v-4.9c0-0.9-0.8-1.8-1.8-1.8h-11.3c0-2.6-0.1-5.1-0.1-7.7c0-4.9,1.6-8.3,7-8.3c2.3,0,4.4,1.5,5.7,1.5
	C897.3,626.7,897.6,625.6,897.6,624.9L897.6,624.9z"/>
<path style="fill:#004890;" d="M942.8,696v-4.2c0-0.9-0.5-1.9-1.5-1.9c-1.4,0-4.3,2.4-8.6,2.4c-6.2,0-8.4-3.3-8.4-9.2v-33.8h16.8
	c0.9,0,1.8-0.8,1.8-1.8v-4.7c0-0.9-0.8-1.8-1.8-1.8h-16.8v-13.8c0-0.9-0.8-1.8-1.7-1.8h-7.3c-0.9,0-1.8,0.8-1.8,1.8V641H907
	c-0.9,0-1.8,0.8-1.8,1.8c0,8.1-0.5,6.4,8.2,6.4v36.4c0,9.9,6.4,14.9,16,14.9c3.5,0,9-0.8,12.1-2.4
	C942.6,697.5,942.8,697.1,942.8,696L942.8,696L942.8,696z"/>
<path style="fill:#004890;" d="M1003.5,697.8v-54.9c0-0.9-0.8-1.8-1.8-1.8h-7.5c-0.9,0-1.8,0.8-1.8,1.8v42.7c0,3.7-2.2,4.8-5.5,5.7
	c-2.3,0.7-4.9,1-7.3,1c-3.4,0-6.9-0.8-9.6-2.8c-3.3-2.3-3.7-6.9-3.7-10.6v-36c0-0.9-0.8-1.8-1.8-1.8H957c-0.9,0-1.8,0.8-1.8,1.8
	v39.4c0,12.2,8.6,18.2,20.2,18.2c4.1,0,7.3-0.5,11.2-1.9c2.5-0.9,4.3-1.9,6.9-1.9c0,1.3,0,2.8,1.8,2.8h6.3
	C1002.6,699.6,1003.5,698.8,1003.5,697.8L1003.5,697.8L1003.5,697.8z"/>
<path style="fill:#004890;" d="M1072.5,697.8v-37.7c0-12.6-8.2-20-20.5-20c-3.8,0-7.1,0.7-10.7,1.9c-2,0.6-4.2,2-6.2,2h-0.9
	c0-2,0.2-2.9-2.2-2.9h-5.7c-0.9,0-1.8,0.8-1.8,1.8v54.9c0,0.9,0.8,1.8,1.8,1.8h7.3c0.9,0,1.8-0.8,1.8-1.8v-42.1c0-3.4,1.5-4.8,4.5-6
	c2.6-1,5.5-1.4,8.3-1.4c9.1,0,13.4,4.3,13.4,13.4v36c0,0.9,0.8,1.8,1.8,1.8h7.5C1071.7,699.6,1072.5,698.8,1072.5,697.8
	L1072.5,697.8L1072.5,697.8z"/>
<path style="fill:#004890;" d="M1140.9,700.9v-58c0-0.9-0.8-1.8-1.8-1.8h-6.2c-1.9,0-1.8,1.5-1.8,2.8c-0.1,0-0.3,0.1-0.5,0.1
	c-1.6,0-3.1-1.5-4.7-2.2c-2.8-1.3-6.3-1.6-9.3-1.6c-17.6,0-29,12.9-29,30.2c0,16.8,10.5,29.2,27.8,29.2c4.7,0,8.4-1.2,12.6-3.1
	c0.7-0.4,1.2-0.6,2-0.6v5.6c0,4.1-0.5,8.4-4.1,10.9s-9,3.3-13.3,3.3c-5.6,0-12.5-1.4-17.5-4.1c-0.8-0.5-2.1-1.3-3-1.3
	c-1,0-1.5,1-1.5,2v4.9c0,2.1,1.4,2.6,3.1,3.3c5.4,2.3,13.6,3.4,19.5,3.4C1128.5,723.7,1140.9,717.9,1140.9,700.9L1140.9,700.9
	L1140.9,700.9z M1130,684.8c0,2.3-0.5,3.3-2.6,4.4c-2.7,1.5-6.8,2.2-9.8,2.2c-12.5,0-18.5-9.8-18.5-21.3c0-12.1,5.6-21.7,18.8-21.7
	c3.3,0,7.2,0.7,10,2.6c1.9,1.3,2.1,2,2.1,4.2V684.8L1130,684.8z"/>
<path style="fill:#004890;" d="M344,368.4v1.7v330.7v1.7h1.7h330.7h1.7v-1.7V370.2v-1.7h-1.7H345.7H344V368.4z M347.4,371.9h327.3
	v327.3h-77v-93.1H456.5l-68.7,93.1h-40.4V371.9z M597.7,411.2L495.7,550h102.1V411.2H597.7z M594.3,421.6v125h-91.9L594.3,421.6z
	 M458.2,609.5h136v89.7H392L458.2,609.5z"/>
</svg>
