<?xml version="1.0" encoding="utf-8"?>
<svg version="1.1" xmlns="http://www.w3.org/2000/svg" xmlns:xlink="http://www.w3.org/1999/xlink" x="0px" y="0px"
	 width="283.5px" height="71px" viewBox="0 0 283.5 71" enable-background="new 0 0 283.5 71" xml:space="preserve">
<path fill="#B12C1B" d="M110.9,57.5c0-0.6,0-1.2,0-1.8c0-30.6-24.9-55.6-55.4-55.6C24.9,0.1,0,25.2,0,55.7c0,0.6,0,1.2,0,1.8
	C1,27.9,25.5,5.8,55.5,5.8C85.2,5.8,109.9,27.9,110.9,57.5z"/>
<path d="M131,64.7c0,3.8,0.2,4.4,2.3,4.4c1.6,0,2.2,0.3,2.2,1.1c0,0.6-0.3,0.9-1.5,0.9h-10.1c-1.1,0-1.5-0.2-1.5-0.9
  c0-0.8,0.4-1,1.8-1.1c1.8-0.2,2-0.7,2-4.4v-32c0-4.1-0.1-4.4-1.7-4.5c-0.7-0.1-1-0.3-1-0.8c0-0.6,0.7-1.3,2.7-2.3
  c3.7-2,8-3.1,11.9-3.1c9.4,0,15.1,6.5,15.1,17.3c0,10.4-5.2,17.1-13.2,17.1c-3.5,0-7-1.6-7-3.2c0-0.6,0.5-1,1-1
  c0.4,0,0.6,0.1,1.5,0.6c1.3,0.7,2.5,1,3.9,1c5.6,0,8.9-5.6,8.9-15c0-9.2-3.7-14.7-9.8-14.7c-2.3,0-4.6,1-5.9,2.5
  c-1.1,1.3-1.5,2.6-1.5,6.2V64.7z"/>
<path d="M190.3,39c0,10.3-6.4,17.2-16.1,17.2c-9.7,0-16.2-6.9-16.2-17.2c0-10.4,6.4-17.2,16.4-17.2C183.9,21.9,190.3,28.9,190.3,39
  z M163.1,39c0,9,4.4,14.8,11.2,14.8c6.8,0,11-5.8,11-15c0-9.1-4.2-14.6-11-14.6C167.6,24.3,163.1,30.2,163.1,39z"/>
<path d="M201.5,25.7c2.9-2.7,6.1-3.9,10.2-3.9c3,0,5.5,0.7,7.1,2.2c1.9,1.6,2.5,3.4,2.5,7.5v17.6c0,3.7,0.3,4.4,2,4.4
  c1.4,0,1.8,0.2,1.8,1c0,0.7-0.3,1-1.5,1H214c-1.2,0-1.5-0.2-1.5-1c0-0.8,0.5-1,1.9-1c1.8,0,2.1-0.6,2.1-4.4V32.9
  c0-3.2-0.2-4.6-0.6-5.6c-0.7-1.6-2.7-2.7-5.2-2.7c-2.8,0-5.8,1.3-7.4,3.3c-1.4,1.7-1.9,3.9-1.9,8.5v12.8c0,3.7,0.3,4.4,2,4.4
  c1.4,0,1.9,0.2,1.9,1c0,0.7-0.3,1-1.5,1h-9.6c-1.1,0-1.5-0.2-1.5-1c0-0.8,0.5-1,1.9-1c1.7,0,2-0.6,2-4.4V30.2
  c0-3.1-0.2-3.3-2.4-3.5c-0.6-0.1-1-0.4-1-0.9c0-0.6,0.2-0.9,1-1.2l4.8-2.5c0.2-0.2,1-0.2,1.4-0.2c0.7,0,1,0.3,1,1.3V25.7z"/>
<path d="M240.3,22.7c0.9,0,1.3,0.3,1.3,1c0,0.8-0.3,1.2-1.1,1.3H238c-2.3,0-2.7,0.5-2.7,3.3v19.3c0,4.9,0.4,6,2.6,6
  c1,0,1.2-0.1,2.5-1.1c0.3-0.2,0.6-0.4,0.9-0.4c0.5,0,0.9,0.5,0.9,1c0,1.5-2.9,3.2-5.6,3.2c-2.5,0-4.6-1-5.5-2.7
  c-0.5-1-0.5-1.2-0.5-5.3V28.9c0-3.5-0.2-3.9-2.1-3.9h-1.2c-0.9,0-1.4-0.4-1.4-1.1c0-0.8,0.3-1.1,1.4-1.1h3.3V12.5
  c0-1.3,0.2-1.5,1.1-2.1l1.9-1c0.3-0.2,0.6-0.2,0.8-0.2c0.6,0,0.9,0.6,0.9,1.9v11.5H240.3z"/>
<path d="M254.8,49.1c0,3.7,0.3,4.4,2,4.4c1.4,0,1.9,0.3,1.9,1c0,0.7-0.3,1-1.5,1h-9.6c-1,0-1.4-0.2-1.4-1c0-0.8,0.5-1,1.8-1
  c1.8,0,2.1-0.6,2.1-4.4V29.8c0-2.5-0.4-3.1-2.1-3.1c-1,0.1-1.5-0.2-1.5-0.8c0-0.5,0.1-0.6,1-1l5.1-2.7c0.2-0.1,0.9-0.3,1.1-0.3
  c0.8,0,1,0.4,1,1.9V49.1z M255.5,10.3c0,1.9-1.5,3.3-3.3,3.3c-1.8,0-3.2-1.5-3.2-3.3c0-1.8,1.5-3.2,3.3-3.2
  C254,7.1,255.5,8.6,255.5,10.3z"/>
<path d="M282.1,27.8c0.2,0.6,0.2,0.8,0.2,1c0,0.4-0.3,0.7-0.7,0.7c-0.6,0-0.6,0-1.5-1.5c-1.7-2.7-4.3-4.2-7.3-4.2
  c-3.1,0-5.1,1.8-5.1,4.4c0,2.5,1.1,3.7,6.9,7.4c4.2,2.6,5.2,3.2,6.4,4.5c1.6,1.6,2.5,3.8,2.5,6.3c0,5.8-4.2,9.8-10.2,9.8
  c-1.5,0-3-0.2-5.1-0.8c-0.8-0.2-1.1-0.3-1.5-0.3c-0.4,0-0.7,0.2-1.1,0.6c-0.4,0.5-0.6,0.6-0.9,0.6c-0.6,0-0.8-0.4-1.1-1.8l-1.3-5.2
  c-0.2-0.6-0.2-0.9-0.2-1.1c0-0.5,0.3-0.8,0.9-0.8c0.5,0,0.8,0.2,1.2,1c2.4,4.1,4.9,5.8,8.5,5.8c3.9,0,6.7-2.5,6.7-6.2
  c0-2.1-0.8-3.6-2.5-5.1c-1.2-1-1.2-1-5.3-3.5c-6.1-3.7-8.1-6.1-8.1-9.8c0-4.5,3.8-7.9,8.9-7.9c1.5,0,3.6,0.3,5.2,0.8
  c0.3,0.1,0.5,0.2,0.6,0.2c0.3,0,0.7-0.2,1-0.6c0.3-0.3,0.4-0.4,0.7-0.4c0.6,0,0.9,0.4,1,1.4L282.1,27.8z"/>
<path fill="#B12C1B" d="M127,6.7v1.4c0.8-1.1,1.7-1.6,2.9-1.6c1.2,0,2.3,0.5,2.8,1.5c0.3,0.6,0.4,1.2,0.4,2.3v5.3h-1.1v-5.3
  c0-1.9-0.8-2.9-2.3-2.9c-1.7,0-2.7,1.2-2.7,3.4v4.8H126V8.8c0-0.2,0-1.1-0.1-1.6c0-0.2,0-0.2,0-0.4H127z"/>
<path fill="#B12C1B" d="M136.3,9c0.2-1.7,1.2-2.5,3.2-2.5c2.2,0,3.3,1,3.3,3v3.1c0,1.8,0,2.2,0.3,3H142c-0.1-0.6-0.2-0.8-0.2-1.4
  c-0.9,1.1-1.6,1.5-2.9,1.5c-1.8,0-3.1-1.1-3.1-2.6c0-1.5,1.1-2.4,3.1-2.8c0.6-0.1,1.1-0.1,2.9-0.2c0-1.1-0.1-1.6-0.2-2
  c-0.3-0.6-1-0.9-1.9-0.9c-1.3,0-2.1,0.6-2.1,1.6V9H136.3z M141,11.1c-2.8,0-4.1,0.6-4.1,2c0,1.1,0.9,1.8,2.1,1.8
  c1,0,1.8-0.4,2.3-1.2c0.3-0.5,0.4-1,0.4-2.1v-0.6H141z"/>
<path fill="#B12C1B" d="M153.5,15.6h-1.1v-1.7c-0.8,1.4-1.7,1.9-3.2,1.9c-2.3,0-3.6-1.6-3.6-4.5c0-2.9,1.4-4.7,3.8-4.7
  c1.3,0,2.3,0.5,3,1.8V2.8h1.1V15.6z M146.7,11.3c0,2.3,1,3.6,2.8,3.6c1.8,0,2.9-1.5,2.9-3.9c0-2.1-1.2-3.6-2.9-3.6
  C147.7,7.4,146.7,8.8,146.7,11.3z"/>
<path fill="#B12C1B" d="M156.6,9c0.2-1.7,1.2-2.5,3.2-2.5c2.2,0,3.3,1,3.3,3v3.1c0,1.8,0,2.2,0.3,3h-1.1c-0.1-0.6-0.2-0.8-0.2-1.4
  c-0.9,1.1-1.6,1.5-2.9,1.5c-1.8,0-3.1-1.1-3.1-2.6c0-1.5,1.1-2.4,3.1-2.8c0.6-0.1,1.1-0.1,2.9-0.2c0-1.1-0.1-1.6-0.2-2
  c-0.3-0.6-1-0.9-1.9-0.9c-1.3,0-2.1,0.6-2.1,1.6V9H156.6z M161.3,11.1c-2.8,0-4.1,0.6-4.1,2c0,1.1,0.9,1.8,2.1,1.8
  c1,0,1.8-0.4,2.3-1.2c0.3-0.5,0.4-1,0.4-2.1v-0.6H161.3z M160.4,5.5h-1.2l1.7-2.8h1.4L160.4,5.5z"/>
<path fill="#B12C1B" d="M173.4,12.9c-0.3,2-1.4,2.9-3.5,2.9c-2.5,0-4-1.8-4-4.7c0-2.7,1.7-4.5,4.2-4.5c1.9,0,3.2,1.1,3.4,2.9h-0.9
  c-0.4-1.5-1.1-2.1-2.5-2.1c-1.8,0-3,1.4-3,3.8c0,2.4,1.1,3.8,3,3.8c1.5,0,2.3-0.6,2.5-2.1H173.4z"/>
<path fill="#B12C1B" d="M177,15.6h-1.1V6.7h1.1V15.6z M177,4h-1.2V2.8h1.2V4z"/>
<path fill="#B12C1B" d="M180.1,9c0.2-1.7,1.2-2.5,3.2-2.5c2.2,0,3.3,1,3.3,3v3.1c0,1.8,0,2.2,0.3,3h-1.1c-0.1-0.6-0.2-0.8-0.2-1.4
  c-0.9,1.1-1.6,1.5-2.9,1.5c-1.8,0-3.1-1.1-3.1-2.6c0-1.5,1.1-2.4,3.1-2.8c0.6-0.1,1.1-0.1,2.9-0.2c0-1.1-0.1-1.6-0.2-2
  c-0.3-0.6-1-0.9-1.9-0.9c-1.3,0-2.1,0.6-2.1,1.6V9H180.1z M184.8,11.1c-2.8,0-4.1,0.6-4.1,2c0,1.1,0.9,1.8,2.1,1.8
  c1,0,1.8-0.4,2.3-1.2c0.3-0.5,0.4-1,0.4-2.1v-0.6H184.8z"/>
</svg>
