<?xml version="1.0" encoding="utf-8"?>
<svg version="1.1" xmlns="http://www.w3.org/2000/svg" xmlns:xlink="http://www.w3.org/1999/xlink" x="0px" y="0px"
	 width="732.8px" height="218.4px" viewBox="60 287.6 732.8 218.4" style="enable-background:new 60 287.6 732.8 218.4;"
	 xml:space="preserve">
<linearGradient id="SVGID_1_" gradientUnits="userSpaceOnUse" x1="156.7935" y1="332.7648" x2="171.6166" y2="366.0578" gradientTransform="matrix(1 0 0 1 0 3.4)">
	<stop  offset="0" style="stop-color:#4F6AB2"/>
	<stop  offset="0.2256" style="stop-color:#475D9E"/>
	<stop  offset="0.653" style="stop-color:#323F78"/>
	<stop  offset="1" style="stop-color:#1F245A"/>
</linearGradient>
<ellipse style="fill:url(#SVGID_1_);" cx="164.2" cy="352.8" rx="18.5" ry="18.2"/>
<linearGradient id="SVGID_2_" gradientUnits="userSpaceOnUse" x1="126.3306" y1="292.834" x2="215.1852" y2="492.4046" gradientTransform="matrix(1 0 0 1 0 3.4)">
	<stop  offset="0" style="stop-color:#4F6AB2"/>
	<stop  offset="0.2256" style="stop-color:#475D9E"/>
	<stop  offset="0.653" style="stop-color:#323F78"/>
	<stop  offset="1" style="stop-color:#1F245A"/>
</linearGradient>
<path style="fill:url(#SVGID_2_);" d="M243.2,313.2c-1.3-0.8-6.4-3.4-6.7-1.9c-0.6,2.8,16.4,12.7,16.9,26.3
	c0.2,6.4-5.7,26.7-40.9,38.1c-8.6,2.8-28.2,4.7-37.3,4.6c-11.1,0-31.5-3-42-6.6c-0.4-0.1-0.9-0.3-1.4-0.5
	c3.4-28.2,18.2-54.8,28.7-62.1c17-11.8,29.5-14.4,33.9-14.3c3.6,0,8.5,0.5,13.4,2c1.9,0.6,7.4,2.8,8.3,1.7c1.7-1.8-6.4-5.6-9-6.7
	c-7.6-3.2-22.7-6.2-38.2-6.2C108.7,287.6,60,336.5,60,396.8S108.8,506,168.9,506c60.2,0,109.7-48.7,109.7-109.1
	C278.5,362.7,269.6,329,243.2,313.2z M144.8,295.7c-5.4,3.2-10.8,7.2-13.8,10.1c-8.7,8.4-22.4,26.2-27.7,37.1
	c-1.9,3.8-4.2,9.2-6.5,15c-7.5-3.5-13.9-6.6-16.6-7.9C92.7,323.4,116.2,303.3,144.8,295.7z M71,383.9c3,5.2,8.9,10.2,15.8,14.7
	c-0.4,15.3,0.4,41,4.6,57c-13.1-17.1-20.9-38.7-20.9-62.1C70.5,390.3,70.7,387.1,71,383.9z M192.9,491.9c-2.2,0-4,0-6.5-0.9
	c-1.9-0.7-4.1-3.4-4.6-3.9c-9.3-11.8-11.9-27.7-12.8-30.8c-1.5-5.8-1.5-16.3-0.8-24.6c0-0.2-33.8-6-34.1-4.6
	c-0.9,6.1,0.3,18.2,1.7,24c1.6,6.8,5.2,17.9,8,25.1c2.4,6.2,7.2,12.8,11.8,17.4c-2.7-0.1-5.1-0.4-7.7-1.4
	c-4.7-1.9-10.2-10.2-11.6-12.2c-3.9-5.9-7.2-17.3-8.7-24.3c-1.8-8.1-4-26.4-3.1-34.6c0.2-1.5,0.4-3.1,0.6-4.7
	c17.5,4.8,51,8.7,67.3,6.3c28.7-4.4,49.7-17.7,61.4-28.3c4.5-4.1,13.3-19,13.4-24.1c1.4,7.2,2,14.9,2,23.4
	C269.1,442.2,237.7,480.7,192.9,491.9z"/>
<path style="fill:#3C4D89;" d="M324.3,313.9h34.2v5.2h-14.3v35.8h-5.9v-35.8h-14L324.3,313.9L324.3,313.9z"/>
<path style="fill:#3C4D89;" d="M364.2,354.8v-40.9h10.3c4.1,0,7.4,1,9.9,3.1s3.6,4.8,3.6,8.3c0,2.4-0.6,4.4-1.8,6.2
	c-1.2,1.7-2.9,3-5.1,3.9c1.3,0.9,2.6,2,3.8,3.5c1.2,1.5,3,4.1,5.3,7.8c1.4,2.3,2.6,4.1,3.4,5.2l2.2,2.9h-7l-1.8-2.7
	c-0.1-0.1-0.2-0.3-0.4-0.5l-1.1-1.6l-1.8-3l-2-3.2c-1.2-1.7-2.3-3-3.3-4s-1.9-1.7-2.7-2.1c-0.8-0.4-2.2-0.7-4.1-0.7h-1.5v17.8
	C370.1,354.8,364.2,354.8,364.2,354.8z M371.8,318.9H370v12.9h2.2c3,0,5-0.3,6.1-0.8s2-1.3,2.6-2.3s0.9-2.2,0.9-3.5s-0.3-2.5-1-3.5
	s-1.6-1.8-2.9-2.2C376.8,319.1,374.7,318.9,371.8,318.9z"/>
<path style="fill:#3C4D89;" d="M413.3,313.7h4.1l18.4,41.2h-6l-5.5-12.1h-17.5l-5.1,12.1h-6L413.3,313.7z M422,337.5l-6.6-14.8
	l-6.1,14.8H422z"/>
<path style="fill:#3C4D89;" d="M472.8,313.9h5.6v40.9h-5L446,323.3v31.5h-5.5v-40.9h4.7l27.6,31.8V313.9L472.8,313.9z"/>
<path style="fill:#3C4D89;" d="M497.3,337.7l-4.5-2.7c-2.8-1.7-4.8-3.4-6-5c-1.2-1.7-1.8-3.5-1.8-5.7c0-3.2,1.1-5.8,3.4-7.9
	c2.2-2,5.1-3,8.7-3c3.4,0,6.6,1,9.4,2.9v6.6c-2.9-2.8-6.1-4.3-9.5-4.3c-1.9,0-3.5,0.4-4.7,1.3s-1.8,2-1.8,3.4c0,1.2,0.5,2.4,1.4,3.4
	c0.9,1.1,2.4,2.2,4.4,3.4l4.5,2.6c5,3,7.5,6.8,7.5,11.4c0,3.3-1.1,5.9-3.3,8s-5.1,3.1-8.6,3.1c-4,0-7.7-1.2-11-3.7v-7.4
	c3.2,4,6.8,6,11,6c1.8,0,3.4-0.5,4.6-1.5s1.8-2.3,1.8-3.8C502.7,342.3,500.9,339.9,497.3,337.7z"/>
<path style="fill:#3C4D89;" d="M514.3,354.8v-40.9h13c3.9,0,7,1.1,9.3,3.2s3.5,4.9,3.5,8.5c0,2.4-0.6,4.5-1.8,6.3s-2.8,3.2-4.9,4
	c-2.1,0.8-5,1.2-8.9,1.2h-4.3v17.8h-5.9L514.3,354.8L514.3,354.8z M526.2,319.1h-6.1v12.8h6.4c2.4,0,4.2-0.6,5.5-1.7
	s1.9-2.7,1.9-4.8C534,321.2,531.4,319.1,526.2,319.1z"/>
<path style="fill:#3C4D89;" d="M553.5,313.7h4.1l18.4,41.2h-6l-5.5-12.1H547l-5.1,12.1h-6L553.5,313.7z M562.1,337.5l-6.6-14.8
	l-6.1,14.8H562.1z"/>
<path style="fill:#3C4D89;" d="M580.6,354.8v-40.9h10.3c4.1,0,7.4,1,9.9,3.1s3.6,4.8,3.6,8.3c0,2.4-0.6,4.4-1.8,6.2
	c-1.2,1.7-2.9,3-5.1,3.9c1.3,0.9,2.6,2,3.8,3.5s3,4.1,5.3,7.8c1.4,2.3,2.6,4.1,3.4,5.2l2.2,2.9h-7l-1.8-2.7
	c-0.1-0.1-0.2-0.3-0.4-0.5l-1.1-1.6l-1.8-3l-2-3.2c-1.2-1.7-2.3-3-3.3-4s-1.9-1.7-2.7-2.1s-2.2-0.7-4.1-0.7h-1.5v17.8
	C586.5,354.8,580.6,354.8,580.6,354.8z M588.2,318.9h-1.8v12.9h2.2c3,0,5-0.3,6.1-0.8s2-1.3,2.6-2.3s0.9-2.2,0.9-3.5s-0.3-2.5-1-3.5
	s-1.6-1.8-2.9-2.2C593.1,319.1,591.1,318.9,588.2,318.9z"/>
<path style="fill:#3C4D89;" d="M616.7,313.9h23.2v5.2h-17.3v12.5h16.8v5.3h-16.8v12.7h17.9v5.2h-23.8L616.7,313.9L616.7,313.9z"/>
<path style="fill:#3C4D89;" d="M679.2,313.9h5.6v40.9h-5l-27.4-31.5v31.5h-5.5v-40.9h4.7l27.6,31.8L679.2,313.9L679.2,313.9z"/>
<path style="fill:#3C4D89;" d="M728.8,345.4v6.4c-4.3,2.3-9.3,3.5-14.9,3.5c-4.6,0-8.4-0.9-11.6-2.8c-3.2-1.8-5.7-4.4-7.6-7.6
	c-1.9-3.2-2.8-6.7-2.8-10.5c0-6,2.1-11,6.4-15c4.2-4.1,9.5-6.1,15.7-6.1c4.3,0,9.1,1.1,14.3,3.4v6.3c-4.8-2.7-9.5-4.1-14-4.1
	c-4.7,0-8.6,1.5-11.7,4.4s-4.6,6.7-4.6,11.1c0,4.5,1.5,8.2,4.6,11.1c3,2.9,6.9,4.3,11.7,4.3C719.2,349.9,724.1,348.4,728.8,345.4z"
	/>
<path style="fill:#3C4D89;" d="M760.6,313.9h7.1l-15.1,19.3v21.7h-6v-21.7l-15.1-19.3h7.1l11,14.1L760.6,313.9z"/>
<path style="fill:#3C4D89;" d="M327.9,376.9h5.9v40.9h-5.9V376.9z"/>
<path style="fill:#3C4D89;" d="M375.3,376.9h5.6v40.9h-5l-27.4-31.5v31.5H343v-40.9h4.7l27.6,31.8L375.3,376.9L375.3,376.9z"/>
<path style="fill:#3C4D89;" d="M386.2,376.9h34.2v5.2h-14.3v35.8h-5.9v-35.8h-14L386.2,376.9L386.2,376.9z"/>
<path style="fill:#3C4D89;" d="M425.9,376.9h23.2v5.2h-17.3v12.5h16.8v5.2h-16.8v12.7h17.9v5.2h-23.8L425.9,376.9L425.9,376.9z"/>
<path style="fill:#3C4D89;" d="M456.1,417.8v-40.9h10.3c4.1,0,7.4,1,9.9,3.1s3.6,4.8,3.6,8.3c0,2.4-0.6,4.4-1.8,6.2
	c-1.2,1.7-2.9,3-5.1,3.9c1.3,0.9,2.6,2,3.8,3.5s3,4.1,5.3,7.8c1.4,2.3,2.6,4.1,3.4,5.2l2.2,2.9h-7l-1.8-2.7
	c-0.1-0.1-0.2-0.3-0.4-0.5l-1.1-1.6l-1.8-3l-2-3.2c-1.2-1.7-2.3-3-3.3-4s-1.9-1.7-2.7-2.1s-2.2-0.7-4.1-0.7H462v17.8L456.1,417.8
	L456.1,417.8z M463.7,381.9h-1.8v12.9h2.2c3,0,5-0.3,6.1-0.8s2-1.3,2.6-2.3s0.9-2.2,0.9-3.5s-0.3-2.5-1-3.5s-1.6-1.8-2.9-2.2
	C468.6,382.1,466.5,381.9,463.7,381.9z"/>
<path style="fill:#3C4D89;" d="M524.6,376.9h5.6v40.9h-5l-27.4-31.5v31.5h-5.5v-40.9h4.7l27.6,31.8L524.6,376.9L524.6,376.9z"/>
<path style="fill:#3C4D89;" d="M552,376.7h4.1l18.4,41.2h-6l-5.5-12.1h-17.5l-5.1,12.1h-6L552,376.7z M560.6,400.5l-6.6-14.8
	l-6.1,14.8H560.6z"/>
<path style="fill:#3C4D89;" d="M569.5,376.9h34.2v5.2h-14.3v35.8h-5.9v-35.8h-14V376.9z"/>
<path style="fill:#3C4D89;" d="M609.3,376.9h5.9v40.9h-5.9V376.9z"/>
<path style="fill:#3C4D89;" d="M644.3,376.3c6.3,0,11.6,2,15.8,6s6.3,9,6.3,15.1s-2.1,11-6.4,15s-9.6,5.9-16.1,5.9
	c-6.2,0-11.3-2-15.4-5.9c-4.1-4-6.2-8.9-6.2-14.9c0-6.1,2.1-11.2,6.2-15.2C632.7,378.3,638,376.3,644.3,376.3z M644.5,381.9
	c-4.7,0-8.5,1.5-11.5,4.4s-4.5,6.7-4.5,11.2c0,4.4,1.5,8.1,4.5,11s6.8,4.4,11.4,4.4c4.6,0,8.4-1.5,11.4-4.5s4.6-6.7,4.6-11.2
	c0-4.3-1.5-8-4.6-10.9S649,381.9,644.5,381.9z"/>
<path style="fill:#3C4D89;" d="M706.1,376.9h5.6v40.9h-5l-27.4-31.5v31.5h-5.5v-40.9h4.7l27.6,31.8L706.1,376.9L706.1,376.9z"/>
<path style="fill:#3C4D89;" d="M733.5,376.7h4.1l18.4,41.2h-6l-5.5-12.1H727l-5.1,12.1h-6L733.5,376.7z M742.1,400.5l-6.6-14.8
	l-6.1,14.8H742.1z"/>
<path style="fill:#3C4D89;" d="M760.5,376.9h5.9v35.6h18.4v5.3h-24.3L760.5,376.9L760.5,376.9z"/>
<path style="fill:#3C4D89;" d="M535.5,457.6l-3.7-2.3c-2.3-1.4-4-2.8-5-4.2s-1.5-3-1.5-4.7c0-2.7,0.9-4.9,2.8-6.5
	c1.9-1.7,4.3-2.5,7.3-2.5c2.8,0,5.5,0.8,7.8,2.4v5.5c-2.5-2.4-5.1-3.5-7.9-3.5c-1.6,0-2.9,0.4-3.9,1.1s-1.5,1.7-1.5,2.8
	c0,1,0.4,2,1.1,2.9c0.8,0.9,2,1.8,3.6,2.8l3.7,2.2c4.2,2.5,6.2,5.6,6.2,9.5c0,2.7-0.9,5-2.7,6.7s-4.2,2.6-7.1,2.6
	c-3.4,0-6.4-1-9.2-3.1v-6.4c2.6,3.3,5.7,5,9.2,5c1.5,0,2.8-0.4,3.8-1.3s1.5-1.9,1.5-3.2C540,461.4,538.5,459.4,535.5,457.6z"/>
<path style="fill:#3C4D89;" d="M550,437.7h4.9v29.7h15.4v4.4H550V437.7z"/>
<path style="fill:#3C4D89;" d="M591.2,437.2c5.3,0,9.7,1.7,13.2,5s5.3,7.5,5.3,12.5s-1.8,9.2-5.3,12.5s-8,4.9-13.4,4.9
	c-5.1,0-9.4-1.6-12.8-4.9s-5.2-7.3-5.2-12.3c0-5.1,1.7-9.3,5.2-12.6C581.6,438.9,586,437.2,591.2,437.2z M591.4,441.9
	c-3.9,0-7.1,1.2-9.6,3.7s-3.8,5.6-3.8,9.4c0,3.7,1.3,6.7,3.8,9.2s5.7,3.7,9.5,3.7s7-1.2,9.5-3.7s3.8-5.6,3.8-9.3
	c0-3.6-1.3-6.7-3.8-9.1C598.3,443.4,595.1,441.9,591.4,441.9z"/>
<path style="fill:#3C4D89;" d="M635.3,437.7h4.9L625.8,472h-1.1L610,437.7h4.9l10.3,24L635.3,437.7z"/>
<path style="fill:#3C4D89;" d="M643.9,437.7h19.3v4.3h-14.5v10.4h14v4.4h-14v10.6h14.9v4.3h-19.8L643.9,437.7L643.9,437.7z"/>
<path style="fill:#3C4D89;" d="M696,437.7h4.6v34.1h-4.2l-22.8-26.3v26.3H669v-34.1h4l23,26.5V437.7z"/>
<path style="fill:#3C4D89;" d="M716.3,457.6l-3.7-2.3c-2.3-1.4-4-2.8-5-4.2s-1.5-3-1.5-4.7c0-2.7,0.9-4.9,2.8-6.5
	c1.9-1.7,4.3-2.5,7.3-2.5c2.8,0,5.5,0.8,7.8,2.4v5.5c-2.5-2.4-5.1-3.5-7.9-3.5c-1.6,0-2.9,0.4-3.9,1.1s-1.5,1.7-1.5,2.8
	c0,1,0.4,2,1.1,2.9c0.8,0.9,2,1.8,3.6,2.8l3.7,2.2c4.2,2.5,6.2,5.6,6.2,9.5c0,2.7-0.9,5-2.7,6.7s-4.2,2.6-7.1,2.6
	c-3.4,0-6.4-1-9.2-3.1v-6.4c2.6,3.3,5.7,5,9.2,5c1.5,0,2.8-0.4,3.8-1.3s1.5-1.9,1.5-3.2C720.8,461.4,719.3,459.4,716.3,457.6z"/>
<path style="fill:#3C4D89;" d="M750.1,437.7h6.1l-14.8,16.2l18.4,17.9h-6.7L735.7,455v16.8h-4.9v-34.1h4.9v15.6L750.1,437.7z"/>
<path style="fill:#3C4D89;" d="M774.3,437.2c5.3,0,9.7,1.7,13.2,5s5.3,7.5,5.3,12.5s-1.8,9.2-5.3,12.5s-8,4.9-13.4,4.9
	c-5.1,0-9.4-1.6-12.8-4.9s-5.1-7.4-5.1-12.4c0-5.1,1.7-9.3,5.2-12.6C764.7,438.9,769,437.2,774.3,437.2z M774.5,441.9
	c-3.9,0-7.1,1.2-9.6,3.7s-3.8,5.6-3.8,9.4c0,3.7,1.3,6.7,3.8,9.2s5.7,3.7,9.5,3.7s7-1.2,9.5-3.7s3.8-5.6,3.8-9.3
	c0-3.6-1.3-6.7-3.8-9.1C781.4,443.4,778.2,441.9,774.5,441.9z"/>
</svg>
