<?xml version="1.0" encoding="utf-8"?>
<svg version="1.1" xmlns="http://www.w3.org/2000/svg" xmlns:xlink="http://www.w3.org/1999/xlink" x="0px" y="0px"
	 viewBox="264 207 1140 380" style="enable-background:new 264 207 1140 380;" xml:space="preserve">
<style type="text/css">
	.st0{fill:#FFFFFF;}
	.st1{clip-path:url(#SVGID_2_);}
	.st2{fill:#2CA4CA;stroke:#19325F;stroke-width:7.0405;stroke-linecap:round;stroke-linejoin:round;}
	.st3{clip-path:url(#SVGID_4_);}
	.st4{clip-path:url(#SVGID_6_);fill:#2CA4CA;}
	.st5{clip-path:url(#SVGID_8_);fill:#F5E1B9;stroke:#19325F;stroke-width:7.0405;}
	.st6{clip-path:url(#SVGID_10_);fill:#E7C292;stroke:#19325F;stroke-width:7.0405;}
	.st7{clip-path:url(#SVGID_12_);fill:#F5E1B9;stroke:#19325F;stroke-width:7.0405;}
	.st8{clip-path:url(#SVGID_14_);fill:#19325F;}
	.st9{clip-path:url(#SVGID_16_);fill:#19325F;}
	.st10{clip-path:url(#SVGID_18_);fill:#19325F;}
	.st11{clip-path:url(#SVGID_20_);fill:none;stroke:#19325F;stroke-width:7.0405;stroke-linecap:round;stroke-linejoin:round;}
	.st12{clip-path:url(#SVGID_22_);fill:#F16C4F;}
	.st13{clip-path:url(#SVGID_24_);fill:#FFFFFF;}
	.st14{clip-path:url(#SVGID_26_);fill:#19325F;}
	.st15{clip-path:url(#SVGID_28_);fill:#19325F;}
	.st16{clip-path:url(#SVGID_30_);fill:#FFFFFF;stroke:#19325F;stroke-width:8.2139;stroke-linecap:round;stroke-linejoin:round;}

		.st17{clip-path:url(#SVGID_32_);fill:none;stroke:#19325F;stroke-width:7.0405;stroke-linecap:round;stroke-linejoin:round;stroke-miterlimit:10;}

		.st18{clip-path:url(#SVGID_34_);fill:none;stroke:#19325F;stroke-width:7.0405;stroke-linecap:round;stroke-linejoin:round;stroke-miterlimit:10;}
	.st19{clip-path:url(#SVGID_36_);fill:#E7C292;}
	.st20{clip-path:url(#SVGID_38_);fill:#19325F;}
	.st21{clip-path:url(#SVGID_40_);fill:#19325F;}
	.st22{clip-path:url(#SVGID_42_);fill:none;stroke:#EAEFF0;stroke-width:7.0405;stroke-linecap:round;}
	.st23{clip-path:url(#SVGID_44_);fill:none;stroke:#EAEFF0;stroke-width:7.0405;stroke-linecap:round;}
	.st24{clip-path:url(#SVGID_46_);fill:#F16C4F;}

		.st25{clip-path:url(#SVGID_48_);fill:none;stroke:#19325F;stroke-width:7.0405;stroke-linecap:round;stroke-linejoin:round;stroke-miterlimit:10;}
	.st26{clip-path:url(#SVGID_50_);fill:#F5E1B9;stroke:#19325F;stroke-width:6.9848;stroke-linecap:round;}
	.st27{clip-path:url(#SVGID_52_);}
	.st28{fill:none;stroke:#E7C292;stroke-width:6.9848;stroke-linecap:round;}
	.st29{fill:#19325F;}
	.st30{clip-path:url(#SVGID_54_);fill:none;stroke:#19325F;stroke-width:6.9848;stroke-linecap:round;stroke-linejoin:round;}
	.st31{clip-path:url(#SVGID_56_);}
	.st32{fill:#EA9A8C;}
	.st33{fill:#F16C4F;}
	.st34{clip-path:url(#SVGID_58_);fill:#00AEEF;}
	.st35{clip-path:url(#SVGID_60_);}
	.st36{clip-path:url(#SVGID_62_);}
	.st37{clip-path:url(#SVGID_64_);}
	.st38{clip-path:url(#SVGID_66_);}
	.st39{clip-path:url(#SVGID_68_);}
	.st40{clip-path:url(#SVGID_70_);}
	.st41{clip-path:url(#SVGID_72_);}
	.st42{clip-path:url(#SVGID_74_);}
	.st43{clip-path:url(#SVGID_76_);}
	.st44{clip-path:url(#SVGID_78_);}
	.st45{clip-path:url(#SVGID_80_);}
	.st46{clip-path:url(#SVGID_82_);}
	.st47{clip-path:url(#SVGID_84_);}
	.st48{clip-path:url(#SVGID_86_);}
	.st49{clip-path:url(#SVGID_88_);}
	.st50{clip-path:url(#SVGID_90_);}
	.st51{clip-path:url(#SVGID_92_);}
	.st52{clip-path:url(#SVGID_94_);}
	.st53{clip-path:url(#SVGID_96_);}
	.st54{clip-path:url(#SVGID_98_);}
	.st55{clip-path:url(#SVGID_100_);}
	.st56{clip-path:url(#SVGID_102_);}
	.st57{clip-path:url(#SVGID_104_);}
	.st58{clip-path:url(#SVGID_106_);}
	.st59{clip-path:url(#SVGID_108_);}
	.st60{clip-path:url(#SVGID_110_);}
	.st61{clip-path:url(#SVGID_112_);}
	.st62{clip-path:url(#SVGID_114_);}
	.st63{clip-path:url(#SVGID_116_);}
	.st64{clip-path:url(#SVGID_118_);}
	.st65{fill:none;}
	.st66{clip-path:url(#SVGID_120_);fill:#FFFFFF;}
	.st67{clip-path:url(#SVGID_122_);fill:#FFFFFF;}
	.st68{clip-path:url(#SVGID_124_);fill:#FFFFFF;}
	.st69{clip-path:url(#SVGID_126_);fill:#FFFFFF;}
	.st70{clip-path:url(#SVGID_128_);fill:#FFFFFF;}
	.st71{clip-path:url(#SVGID_130_);fill:#FFFFFF;}
	.st72{clip-path:url(#SVGID_132_);fill:#FFFFFF;}
	.st73{clip-path:url(#SVGID_134_);fill:#FFFFFF;}
	.st74{clip-path:url(#SVGID_136_);fill:#FFFFFF;}
	.st75{clip-path:url(#SVGID_138_);fill:#FFFFFF;}
	.st76{clip-path:url(#SVGID_140_);fill:#FFFFFF;}
	.st77{clip-path:url(#SVGID_142_);fill:#FFFFFF;}
	.st78{clip-path:url(#SVGID_144_);fill:#FFFFFF;}
	.st79{clip-path:url(#SVGID_146_);fill:#FFFFFF;}
	.st80{clip-path:url(#SVGID_148_);fill:#FFFFFF;}
	.st81{clip-path:url(#SVGID_150_);fill:#FFFFFF;}
	.st82{clip-path:url(#SVGID_152_);fill:#FFFFFF;}
	.st83{clip-path:url(#SVGID_154_);fill:#FFFFFF;}
	.st84{clip-path:url(#SVGID_156_);fill:#FFFFFF;}
	.st85{clip-path:url(#SVGID_158_);fill:#FFFFFF;}
	.st86{clip-path:url(#SVGID_160_);fill:#FFFFFF;}
	.st87{clip-path:url(#SVGID_162_);fill:#FFFFFF;}
	.st88{clip-path:url(#SVGID_164_);fill:#FFFFFF;}
	.st89{clip-path:url(#SVGID_166_);fill:#FFFFFF;}
	.st90{clip-path:url(#SVGID_168_);fill:#FFFFFF;}
	.st91{clip-path:url(#SVGID_170_);fill:#FFFFFF;}
	.st92{clip-path:url(#SVGID_172_);fill:#FFFFFF;}
	.st93{clip-path:url(#SVGID_174_);fill:#FFFFFF;}
	.st94{clip-path:url(#SVGID_176_);fill:#FFFFFF;}
	.st95{clip-path:url(#SVGID_178_);fill:#FFFFFF;}
	.st96{clip-path:url(#SVGID_180_);fill:#FFFFFF;}
	.st97{clip-path:url(#SVGID_182_);fill:#FFFFFF;}
	.st98{clip-path:url(#SVGID_184_);fill:#FFFFFF;}
	.st99{clip-path:url(#SVGID_186_);fill:#FFFFFF;}
	.st100{clip-path:url(#SVGID_188_);fill:#FFFFFF;}
	.st101{clip-path:url(#SVGID_190_);fill:#FFFFFF;}
</style>
<rect x="264" y="206.5" class="st0" width="1140" height="380"/>
<g id="XMLID_6_">
	<g>
		<g>
			<g>
				<defs>
					<rect id="SVGID_1_" x="305.5" y="207.5" width="556.7" height="380"/>
				</defs>
				<clipPath id="SVGID_2_">
					<use xlink:href="#SVGID_1_"  style="overflow:visible;"/>
				</clipPath>
				<g id="XMLID_44_" class="st1">
					<path id="XMLID_156_" class="st2" d="M557.7,595h41.8l-3.1-6.9l-23.9-66.6c-4.2-10.5-16.2-15.6-26.7-11.4
						c-10.5,4.2-15.6,16.2-11.4,26.7L557.7,595z"/>
				</g>
			</g>
		</g>
	</g>
	<g>
		<g>
			<g>
				<defs>
					<rect id="SVGID_3_" x="305.5" y="207.5" width="556.7" height="380"/>
				</defs>
				<clipPath id="SVGID_4_">
					<use xlink:href="#SVGID_3_"  style="overflow:visible;"/>
				</clipPath>
				<g id="XMLID_42_" class="st3">
					<path id="XMLID_157_" class="st2" d="M415.8,595l22.6-56.5c4.2-10.5-0.9-22.5-11.4-26.7s-22.5,0.9-26.7,11.4l-23.8,66.6
						l-2.3,5.1h41.6L415.8,595L415.8,595z"/>
				</g>
			</g>
		</g>
	</g>
	<g>
		<g>
			<g>
				<defs>
					<rect id="SVGID_5_" x="305.5" y="207.5" width="556.7" height="380"/>
				</defs>
				<clipPath id="SVGID_6_">
					<use xlink:href="#SVGID_5_"  style="overflow:visible;"/>
				</clipPath>
				<path id="XMLID_150_" class="st4" d="M409.4,595h152.2c-0.3-4.7-1.2-10.2-2.7-16.7c0,0,0.5-24.8-5.9-58.6l-1.1-8.1
					c-13.5-13.1-32.9-21-60.6-22.2c-0.3,0-0.5,0-0.8,0c-0.6,0-1.2,0-1.8,0s-1.1,0-1.7,0c-0.2,0-0.4,0-0.7,0c-0.2,0-0.4,0-0.7,0h-0.1
					h-0.1c-0.2,0-0.5,0-0.7,0s-0.5,0-0.7,0c-0.6,0-1.1,0-1.7,0c-0.6,0-1.2,0-1.8,0c-0.3,0-0.5,0-0.8,0c-27.6,1.2-47,11.4-60.6,24.5
					c-0.1,0.7-0.3,1.3-0.4,2c-0.2,0.2-0.5,0.5-0.7,0.8v3c-6.4,33.8-5.9,58.6-5.9,58.6C410.6,584.9,409.8,590.4,409.4,595z"/>
			</g>
		</g>
	</g>
	<g>
		<g>
			<g>
				<defs>
					<rect id="SVGID_7_" x="305.5" y="207.5" width="556.7" height="380"/>
				</defs>
				<clipPath id="SVGID_8_">
					<use xlink:href="#SVGID_7_"  style="overflow:visible;"/>
				</clipPath>
				<path id="XMLID_40_" class="st5" d="M578.9,372c0,6.7-5.5,12.2-12.2,12.2s-12.2-5.5-12.2-12.2s5.4-12.2,12.2-12.2
					S578.9,365.3,578.9,372z"/>
			</g>
		</g>
	</g>
	<g>
		<g>
			<g>
				<defs>
					<rect id="SVGID_9_" x="305.5" y="207.5" width="556.7" height="380"/>
				</defs>
				<clipPath id="SVGID_10_">
					<use xlink:href="#SVGID_9_"  style="overflow:visible;"/>
				</clipPath>
				<polygon id="XMLID_39_" class="st6" points="501.2,494.5 501.2,457.3 471.4,457.3 471.4,494.5 486.9,579.7 				"/>
			</g>
		</g>
	</g>
	<g>
		<g>
			<g>
				<defs>
					<rect id="SVGID_11_" x="305.5" y="207.5" width="556.7" height="380"/>
				</defs>
				<clipPath id="SVGID_12_">
					<use xlink:href="#SVGID_11_"  style="overflow:visible;"/>
				</clipPath>
				<path id="XMLID_38_" class="st7" d="M566.7,325.1c0,0-6-72.5-76.2-75.6c-0.2,0-0.5,0-0.7,0c-0.5,0-1,0-1.5,0s-0.9,0-1.4,0
					c-0.2,0-0.4,0-0.6,0s-0.4,0-0.6,0c-0.5,0-0.9,0-1.4,0s-1,0-1.5,0c-0.2,0-0.5,0-0.7,0c-70.2,3.1-76.3,75.6-76.3,75.6v21
					c0,0,6.1,114.5,76.3,117.7c0.2,0,0.4,0,0.7,0c0.5,0,1,0,1.5,0s0.9,0,1.4,0c0.2,0,0.4,0,0.6,0s0.4,0,0.6,0c0.5,0,0.9,0,1.4,0
					s1,0,1.5,0c0.2,0,0.4,0,0.7,0c70.2-3.1,76.2-117.7,76.2-117.7V325.1z"/>
			</g>
		</g>
	</g>
	<g>
		<g>
			<g>
				<defs>
					<rect id="SVGID_13_" x="305.5" y="207.5" width="556.7" height="380"/>
				</defs>
				<clipPath id="SVGID_14_">
					<use xlink:href="#SVGID_13_"  style="overflow:visible;"/>
				</clipPath>
				<path id="XMLID_37_" class="st8" d="M412.2,352.2c0,0-27.3-77,65.2-113.8c0,0,13-10.7,29.6-15.4l-1.2,9.5l15.4-2.4l-7.1,8.3
					h20.2l-9.5,9.5l-10.6,16.6c0,0-1.2,10.7-4.7,11.9c-3.6,1.2-54.5,2.4-54.5,2.4l-23.7-2.4l-7.1,14.2L412.2,352.2z"/>
			</g>
		</g>
	</g>
	<g>
		<g>
			<g>
				<defs>
					<rect id="SVGID_15_" x="305.5" y="207.5" width="556.7" height="380"/>
				</defs>
				<clipPath id="SVGID_16_">
					<use xlink:href="#SVGID_15_"  style="overflow:visible;"/>
				</clipPath>
				<path id="XMLID_36_" class="st9" d="M399.9,387c0,0,2.9,6.8-1.9,15.6c0,0,7.1-2.3,7.8-6.8L399.9,387z"/>
			</g>
		</g>
	</g>
	<g>
		<g>
			<g>
				<defs>
					<rect id="SVGID_17_" x="305.5" y="207.5" width="556.7" height="380"/>
				</defs>
				<clipPath id="SVGID_18_">
					<use xlink:href="#SVGID_17_"  style="overflow:visible;"/>
				</clipPath>
				<path id="XMLID_35_" class="st10" d="M396.5,356c0,0-1,7.3-9.8,12.3c0,0,7.3,1.8,10.2-1.8L396.5,356z"/>
			</g>
		</g>
	</g>
	<g>
		<g>
			<g>
				<defs>
					<rect id="SVGID_19_" x="305.5" y="207.5" width="556.7" height="380"/>
				</defs>
				<clipPath id="SVGID_20_">
					<use xlink:href="#SVGID_19_"  style="overflow:visible;"/>
				</clipPath>
				<path id="XMLID_34_" class="st11" d="M472.2,290.8c0,0,21.7-1,21.9,22.4"/>
			</g>
		</g>
	</g>
	<g>
		<g>
			<g>
				<defs>
					<rect id="SVGID_21_" x="305.5" y="207.5" width="556.7" height="380"/>
				</defs>
				<clipPath id="SVGID_22_">
					<use xlink:href="#SVGID_21_"  style="overflow:visible;"/>
				</clipPath>
				<circle id="XMLID_33_" class="st12" cx="570.2" cy="396.6" r="5.9"/>
			</g>
		</g>
	</g>
	<g>
		<g>
			<g>
				<defs>
					<rect id="SVGID_23_" x="305.5" y="207.5" width="556.7" height="380"/>
				</defs>
				<clipPath id="SVGID_24_">
					<use xlink:href="#SVGID_23_"  style="overflow:visible;"/>
				</clipPath>
				<polygon id="XMLID_148_" class="st13" points="503.4,595 523.2,514.3 501.1,510.6 487.9,550.2 470.6,510.6 448.5,514.3
					470.6,595 				"/>
			</g>
		</g>
	</g>
	<g>
		<g>
			<g>
				<defs>
					<rect id="SVGID_25_" x="305.5" y="207.5" width="556.7" height="380"/>
				</defs>
				<clipPath id="SVGID_26_">
					<use xlink:href="#SVGID_25_"  style="overflow:visible;"/>
				</clipPath>
				<polygon id="XMLID_147_" class="st14" points="472.4,595 454,520.1 434.6,560.2 453.6,595 				"/>
			</g>
		</g>
	</g>
	<g>
		<g>
			<g>
				<defs>
					<rect id="SVGID_27_" x="305.5" y="207.5" width="556.7" height="380"/>
				</defs>
				<clipPath id="SVGID_28_">
					<use xlink:href="#SVGID_27_"  style="overflow:visible;"/>
				</clipPath>
				<polygon id="XMLID_145_" class="st15" points="522.1,595 541,560.2 521.6,520.1 503.2,595 				"/>
			</g>
		</g>
	</g>
	<g>
		<g>
			<g>
				<defs>
					<rect id="SVGID_29_" x="305.5" y="207.5" width="556.7" height="380"/>
				</defs>
				<clipPath id="SVGID_30_">
					<use xlink:href="#SVGID_29_"  style="overflow:visible;"/>
				</clipPath>
				<path id="XMLID_29_" class="st16" d="M486.8,574l-18.3-32.5l-5.1-18.2l-41.5-2.1c0,0,20.2-16.1,28.4-26.4
					c3.4-4.3,18.6-11.4,18.6-11.4l18.5,88l5.5-33l9.1-54.9c0,0,16.1,6.9,19.5,11.2c8.2,10.3,16.6,49.9,16.6,49.9l-29.7-21.4
					l-1.7,18.6L488,574H486.8z"/>
			</g>
		</g>
	</g>
	<g>
		<g>
			<g>
				<defs>
					<rect id="SVGID_31_" x="305.5" y="207.5" width="556.7" height="380"/>
				</defs>
				<clipPath id="SVGID_32_">
					<use xlink:href="#SVGID_31_"  style="overflow:visible;"/>
				</clipPath>
				<path id="XMLID_32_" class="st17" d="M409,578.6c-1,3.1-1.6,6.3-2,9.6"/>
			</g>
		</g>
	</g>
	<g>
		<g>
			<g>
				<defs>
					<rect id="SVGID_33_" x="305.5" y="207.5" width="556.7" height="380"/>
				</defs>
				<clipPath id="SVGID_34_">
					<use xlink:href="#SVGID_33_"  style="overflow:visible;"/>
				</clipPath>
				<path id="XMLID_30_" class="st18" d="M561.8,578.6c1,3.1,1.7,6.3,2.1,9.6"/>
			</g>
		</g>
	</g>
	<g>
		<g>
			<g>
				<defs>
					<rect id="SVGID_35_" x="305.5" y="207.5" width="556.7" height="380"/>
				</defs>
				<clipPath id="SVGID_36_">
					<use xlink:href="#SVGID_35_"  style="overflow:visible;"/>
				</clipPath>
				<path id="XMLID_26_" class="st19" d="M431,339.1c0,0-11.7,74.3,18.8,94.7s34.4,18.8,45.4,16.4c10.9-2.4,15.1,2.5,10.9,5.5
					c-2.7,2-8.3,4.6-23,4.6c0,0-22-0.3-39-17.3s-25.5-46.4-26.1-48.4s-4.7-49.3-4.7-49.3L431,339.1z"/>
			</g>
		</g>
	</g>
	<g>
		<g>
			<g>
				<defs>
					<rect id="SVGID_37_" x="305.5" y="207.5" width="556.7" height="380"/>
				</defs>
				<clipPath id="SVGID_38_">
					<use xlink:href="#SVGID_37_"  style="overflow:visible;"/>
				</clipPath>
				<path id="XMLID_25_" class="st20" d="M416.8,366.3c1.6-12.9,8.5-22.6,23.6-33.1s18-29.3,11.6-44.6l-0.6-4.5l2.1-1.1
					c0,0-10.1,14.1,46.4,11.5c56.5-2.5,56.3,47.1,56.3,50.5c0,0,6.4,17,6.4,28.9c0,0,20.9-58.6-6.2-103.6
					c-21.1-35.1-58.2-37.9-75.6-36.9c-4.9,0.3-12.6,2.1-12.6,2.1s-39.4,12.7-41,34c0,0-28.6,14.4-27.9,43.3c0.7,27-6.1,41.2,9,61.9
					C408.3,374.7,414.5,384.9,416.8,366.3z"/>
			</g>
		</g>
	</g>
	<g>
		<g>
			<g>
				<defs>
					<rect id="SVGID_39_" x="305.5" y="207.5" width="556.7" height="380"/>
				</defs>
				<clipPath id="SVGID_40_">
					<use xlink:href="#SVGID_39_"  style="overflow:visible;"/>
				</clipPath>
				<path id="XMLID_24_" class="st21" d="M420.1,410.6c2,7.5,4.6,14.1,4.4,15.4c-0.4,2.6,7.7,17.5,7.7,17.5
					c14.9,4,7.7,12.2,17.6,18.9c9.8,6.7,1.4,34.5-0.4,41.3c-1.7,6.8,2.4,12.8,2.4,12.8c-6.4,0.3-6.3-3.1-6.3-3.1
					c-5.5,17.2-20.9,23.9-19,21.2c2-2.7-0.2-5.7-0.2-5.7c-3.4,10.2-21.8,10.1-21.8,10.1c10.2-6.8,9-16.4,9-16.4l-6.2,0.9
					c10.3-5.1,5.1-13,5.1-13c-5.4,5.4-6.9,0.6-6.9,0.6c4.1-4.2,9.6-5.4,1.8-19.2s-0.9-29.4,7.8-41c7.9-10.4,3.3-20.5-5-41
					c0,0-11.5-18.4-12-24.8c-2.1-23.8-10.9-115.8,26.7-88.3l-2.4,49.2l-3,17.9c0,0-0.3,17.9,0,19.4
					C419.7,385.1,420.1,410.6,420.1,410.6z"/>
			</g>
		</g>
	</g>
	<g>
		<g>
			<g>
				<defs>
					<rect id="SVGID_41_" x="305.5" y="207.5" width="556.7" height="380"/>
				</defs>
				<clipPath id="SVGID_42_">
					<use xlink:href="#SVGID_41_"  style="overflow:visible;"/>
				</clipPath>
				<path id="XMLID_23_" class="st22" d="M529.4,256.9c0,0,16.6,10.5,21.5,28.8"/>
			</g>
		</g>
	</g>
	<g>
		<g>
			<g>
				<defs>
					<rect id="SVGID_43_" x="305.5" y="207.5" width="556.7" height="380"/>
				</defs>
				<clipPath id="SVGID_44_">
					<use xlink:href="#SVGID_43_"  style="overflow:visible;"/>
				</clipPath>
				<path id="XMLID_22_" class="st23" d="M417.1,487.5c0,0-5.6-7.6,1.4-20"/>
			</g>
		</g>
	</g>
	<g>
		<g>
			<g>
				<defs>
					<rect id="SVGID_45_" x="305.5" y="207.5" width="556.7" height="380"/>
				</defs>
				<clipPath id="SVGID_46_">
					<use xlink:href="#SVGID_45_"  style="overflow:visible;"/>
				</clipPath>
				<path id="XMLID_21_" class="st24" d="M422.3,423.4c-5,0.9-8.8,5.2-9.1,10.5c-0.3,6.2,4.5,11.3,10.7,11.6
					c3.9,0.2,7.4-1.7,9.5-4.6C429.3,435.8,425.6,430,422.3,423.4z"/>
			</g>
		</g>
	</g>
	<g>
		<g>
			<g>
				<defs>
					<rect id="SVGID_47_" x="305.5" y="207.5" width="556.7" height="380"/>
				</defs>
				<clipPath id="SVGID_48_">
					<use xlink:href="#SVGID_47_"  style="overflow:visible;"/>
				</clipPath>
				<path id="XMLID_20_" class="st25" d="M524.3,498c0,0,17.4,1,32.3,13.1"/>
			</g>
		</g>
	</g>
	<g>
		<g>
			<g>
				<defs>
					<rect id="SVGID_49_" x="305.5" y="207.5" width="556.7" height="380"/>
				</defs>
				<clipPath id="SVGID_50_">
					<use xlink:href="#SVGID_49_"  style="overflow:visible;"/>
				</clipPath>
				<path id="XMLID_19_" class="st26" d="M496.2,383.3c0-5.1-4.2-9.3-9.3-9.3s-9.3,4.2-9.3,9.3"/>
			</g>
		</g>
	</g>
	<g>
		<g>
			<g>
				<defs>
					<rect id="SVGID_51_" x="305.5" y="207.5" width="556.7" height="380"/>
				</defs>
				<clipPath id="SVGID_52_">
					<use xlink:href="#SVGID_51_"  style="overflow:visible;"/>
				</clipPath>
				<g id="XMLID_12_" class="st27">
					<g id="XMLID_16_">
						<path id="XMLID_18_" class="st28" d="M508.7,344.3c0,0,2.6-6.1,12.6-6.1h0.4c10,0,12.6,4.2,12.6,4.2"/>
						<circle id="XMLID_17_" class="st29" cx="521.5" cy="359.1" r="9.1"/>
					</g>
					<g id="XMLID_13_">
						<path id="XMLID_15_" class="st28" d="M439.4,342.5c0,0,2.6-4.2,12.5-4.2h0.4c10,0,12.6,6.1,12.6,6.1"/>
						<circle id="XMLID_14_" class="st29" cx="452.2" cy="359.4" r="9.1"/>
					</g>
				</g>
			</g>
		</g>
	</g>
	<g>
		<g>
			<g>
				<defs>
					<rect id="SVGID_53_" x="305.5" y="207.5" width="556.7" height="380"/>
				</defs>
				<clipPath id="SVGID_54_">
					<use xlink:href="#SVGID_53_"  style="overflow:visible;"/>
				</clipPath>
				<path id="XMLID_11_" class="st30" d="M468.5,410.4c0,9.5,8.9,14.8,18.3,14.8c9.5,0,18.3-5.4,18.3-14.8"/>
			</g>
		</g>
	</g>
	<g>
		<g>
			<g>
				<defs>
					<rect id="SVGID_55_" x="305.5" y="207.5" width="556.7" height="380"/>
				</defs>
				<clipPath id="SVGID_56_">
					<use xlink:href="#SVGID_55_"  style="overflow:visible;"/>
				</clipPath>
				<g id="XMLID_8_" class="st31">
					<circle id="XMLID_10_" class="st32" cx="444.4" cy="394.9" r="15.1"/>
					<circle id="XMLID_9_" class="st32" cx="529.3" cy="394.9" r="15.1"/>
				</g>
			</g>
		</g>
	</g>
</g>
<g id="XMLID_3_">
	<g id="XMLID_1168_">
		<path id="XMLID_1276_" class="st33" d="M735,327.5c0.9,0,1.6-0.1,2.2-0.2c0.6-0.1,1-0.3,1.4-0.6s0.6-0.6,0.7-0.9
			c0.1-0.3,0.2-0.7,0.2-1.2c0-0.9-0.4-1.7-1.3-2.3c-0.9-0.6-2.3-1.2-4.4-1.9c-0.9-0.3-1.8-0.7-2.7-1.1s-1.7-0.9-2.4-1.6
			c-0.7-0.6-1.3-1.4-1.8-2.3c-0.5-0.9-0.7-2-0.7-3.3s0.2-2.4,0.7-3.5c0.5-1,1.2-1.9,2-2.6c0.9-0.7,2-1.3,3.2-1.7
			c1.2-0.4,2.7-0.6,4.2-0.6c1.9,0,3.5,0.2,4.8,0.6c1.3,0.4,2.5,0.8,3.4,1.3l-1.8,4.9c-0.8-0.4-1.6-0.8-2.6-1.1s-2.1-0.5-3.4-0.5
			c-1.5,0-2.6,0.2-3.2,0.6c-0.6,0.4-1,1-1,1.9c0,0.5,0.1,0.9,0.4,1.3c0.2,0.4,0.6,0.7,1,0.9s1,0.5,1.5,0.8c0.6,0.2,1.2,0.5,1.9,0.7
			c1.4,0.5,2.7,1.1,3.8,1.6s2,1.1,2.7,1.8s1.2,1.5,1.6,2.4c0.4,0.9,0.5,2.1,0.5,3.4c0,2.6-0.9,4.6-2.7,6s-4.5,2.1-8.2,2.1
			c-1.2,0-2.3-0.1-3.3-0.2c-1-0.2-1.9-0.3-2.6-0.5c-0.7-0.2-1.4-0.4-2-0.7c-0.6-0.2-1-0.5-1.4-0.7l1.8-5c0.8,0.5,1.8,0.9,3.1,1.2
			C731.8,327.3,733.2,327.5,735,327.5z"/>
		<path id="XMLID_1274_" class="st33" d="M770.5,304.6v5.3h-8.4v22.4h-6.2v-22.4h-8.4v-5.3H770.5z"/>
		<path id="XMLID_1271_" class="st33" d="M789.8,332.3c-0.3-1-0.6-1.9-1-3c-0.3-1-0.7-2-1.1-3h-10.8c-0.3,1-0.7,2-1,3s-0.7,2-1,3
			h-6.5c1-3,2-5.8,3-8.3c0.9-2.5,1.8-4.9,2.8-7.2c0.9-2.2,1.8-4.4,2.7-6.4s1.8-4,2.7-5.9h5.9c0.9,1.9,1.8,3.9,2.7,5.9
			s1.8,4.1,2.7,6.4c0.9,2.2,1.8,4.6,2.8,7.2s1.9,5.3,3,8.3H789.8z M782.3,310.8c-0.1,0.4-0.3,0.9-0.6,1.6c-0.3,0.7-0.6,1.5-0.9,2.4
			s-0.7,1.9-1.2,3c-0.4,1.1-0.8,2.2-1.3,3.4h7.9c-0.4-1.2-0.8-2.4-1.2-3.5c-0.4-1.1-0.8-2.1-1.1-3c-0.4-0.9-0.7-1.7-0.9-2.4
			C782.7,311.8,782.5,311.2,782.3,310.8z"/>
		<path id="XMLID_1268_" class="st33" d="M818.6,332.3c-1.8-3.2-3.7-6.3-5.8-9.4c-2.1-3.1-4.3-6-6.6-8.8v18.2H800v-27.7h5.1
			c0.9,0.9,1.8,2,2.9,3.2s2.2,2.7,3.3,4.1c1.1,1.4,2.2,3,3.3,4.5c1.1,1.6,2.1,3.1,3.1,4.5v-16.4h6.2v27.7L818.6,332.3L818.6,332.3z
			 M805.2,296.9l2.2-2.6l4,3.1l4-3.1l2.3,2.6l-6.3,5.5L805.2,296.9z"/>
		<path id="XMLID_1266_" class="st33" d="M847.4,327.5c0.9,0,1.6-0.1,2.2-0.2c0.6-0.1,1-0.3,1.4-0.6s0.6-0.6,0.7-0.9
			s0.2-0.7,0.2-1.2c0-0.9-0.4-1.7-1.3-2.3c-0.8-0.6-2.3-1.2-4.4-1.9c-0.9-0.3-1.8-0.7-2.7-1.1c-0.9-0.4-1.7-0.9-2.4-1.6
			c-0.7-0.6-1.3-1.4-1.8-2.3c-0.5-0.9-0.7-2-0.7-3.3s0.2-2.4,0.7-3.5s1.2-1.9,2-2.6c0.9-0.7,2-1.3,3.2-1.7c1.2-0.4,2.7-0.6,4.2-0.6
			c1.9,0,3.5,0.2,4.8,0.6c1.4,0.4,2.5,0.8,3.4,1.3l-1.8,4.9c-0.8-0.4-1.6-0.8-2.6-1.1s-2.1-0.5-3.4-0.5c-1.5,0-2.6,0.2-3.2,0.6
			c-0.7,0.4-1,1-1,1.9c0,0.5,0.1,0.9,0.4,1.3c0.2,0.4,0.6,0.7,1,0.9s1,0.5,1.5,0.8s1.2,0.5,1.9,0.7c1.4,0.5,2.7,1.1,3.8,1.6
			s2,1.1,2.7,1.8s1.2,1.5,1.6,2.4s0.5,2.1,0.5,3.4c0,2.6-0.9,4.6-2.7,6s-4.5,2.1-8.2,2.1c-1.2,0-2.3-0.1-3.3-0.2
			c-1-0.2-1.9-0.3-2.6-0.5s-1.4-0.4-2-0.7c-0.5-0.2-1-0.5-1.4-0.7l1.8-5c0.8,0.5,1.8,0.9,3.1,1.2
			C844.2,327.3,845.7,327.5,847.4,327.5z"/>
		<path id="XMLID_1263_" class="st33" d="M881.8,332.3c-0.3-1-0.6-1.9-1-3c-0.4-1-0.7-2-1.1-3h-10.8c-0.3,1-0.7,2-1,3s-0.7,2-1,3
			h-6.5c1-3,2-5.8,3-8.3c0.9-2.5,1.8-4.9,2.8-7.2c0.9-2.2,1.8-4.4,2.7-6.4s1.8-4,2.7-5.9h5.9c0.9,1.9,1.8,3.9,2.7,5.9
			s1.8,4.1,2.7,6.4c0.9,2.2,1.8,4.6,2.8,7.2s1.9,5.3,3,8.3H881.8z M874.3,310.8c-0.1,0.4-0.3,0.9-0.6,1.6c-0.3,0.7-0.6,1.5-0.9,2.4
			s-0.7,1.9-1.2,3c-0.4,1.1-0.8,2.2-1.3,3.4h7.9c-0.4-1.2-0.8-2.4-1.2-3.5c-0.4-1.1-0.8-2.1-1.1-3c-0.4-0.9-0.7-1.7-0.9-2.4
			C874.6,311.8,874.4,311.2,874.3,310.8z"/>
		<path id="XMLID_1260_" class="st29" d="M920.2,332.3c-0.3-1-0.6-1.9-1-3c-0.4-1-0.7-2-1.1-3h-10.8c-0.3,1-0.7,2-1,3s-0.7,2-1,3
			h-6.5c1-3,2-5.8,3-8.3c0.9-2.5,1.8-4.9,2.8-7.2c0.9-2.2,1.8-4.4,2.7-6.4s1.8-4,2.7-5.9h5.9c0.9,1.9,1.8,3.9,2.7,5.9
			s1.8,4.1,2.7,6.4c0.9,2.2,1.8,4.6,2.8,7.2s1.9,5.3,3,8.3H920.2z M912.7,310.8c-0.1,0.4-0.3,0.9-0.6,1.6c-0.3,0.7-0.6,1.5-0.9,2.4
			s-0.7,1.9-1.2,3c-0.4,1.1-0.8,2.2-1.3,3.4h7.9c-0.4-1.2-0.8-2.4-1.2-3.5c-0.4-1.1-0.8-2.1-1.1-3c-0.4-0.9-0.7-1.7-0.9-2.4
			C913.1,311.8,912.9,311.2,912.7,310.8z"/>
		<path id="XMLID_1258_" class="st29" d="M946.9,323c0,1.4-0.2,2.6-0.5,3.8s-0.8,2.2-1.6,3.1c-0.8,0.9-1.8,1.6-3.1,2.1
			s-2.9,0.8-4.9,0.8c-1.8,0-3.4-0.2-4.7-0.7c-1.3-0.4-2.4-1-3.2-1.5l2.1-4.8c0.8,0.5,1.6,0.9,2.5,1.2s1.8,0.5,2.9,0.5
			c1.5,0,2.6-0.4,3.3-1.1c0.7-0.8,1-2,1-3.8v-18.1h6.2L946.9,323L946.9,323z"/>
		<path id="XMLID_1256_" class="st29" d="M983.1,304.6v5.3h-8.4v22.4h-6.2v-22.4h-8.4v-5.3H983.1z"/>
		<path id="XMLID_1254_" class="st29" d="M998.6,315.9c1.1-1.9,2.2-3.8,3.2-5.7s1.9-3.8,2.8-5.7h6.9c-1.5,3-3.1,5.9-4.7,8.7
			s-3.3,5.6-5.2,8.4v10.6h-6.2v-10.5c-1.8-2.8-3.5-5.6-5.2-8.5c-1.6-2.8-3.2-5.7-4.7-8.7h7.2c0.8,1.9,1.8,3.8,2.8,5.7
			C996.4,312.1,997.5,314,998.6,315.9z"/>
		<path id="XMLID_1252_" class="st33" d="M1041.2,304.6h6.2v27.7h-6.2v-11.8h-10.5v11.8h-6.2v-27.7h6.2v10.6h10.5V304.6z"/>
		<path id="XMLID_1250_" class="st33" d="M1072.3,326.9v5.4h-18.5v-27.7h6.2V327L1072.3,326.9L1072.3,326.9z"/>
		<path id="XMLID_1247_" class="st33" d="M1096.2,332.3c-0.3-1-0.6-1.9-1-3c-0.3-1-0.7-2-1.1-3h-10.8c-0.4,1-0.7,2-1.1,3
			c-0.3,1-0.7,2-1,3h-6.5c1-3,2-5.8,3-8.3s1.8-4.9,2.8-7.2c0.9-2.2,1.8-4.4,2.7-6.4c0.9-2,1.8-4,2.7-5.9h5.9
			c0.9,1.9,1.8,3.9,2.7,5.9c0.9,2,1.8,4.1,2.7,6.4c0.9,2.2,1.8,4.6,2.8,7.2s1.9,5.3,3,8.3H1096.2z M1088.7,310.8
			c-0.1,0.4-0.3,0.9-0.6,1.6c-0.3,0.7-0.6,1.5-0.9,2.4s-0.7,1.9-1.2,3c-0.4,1.1-0.8,2.2-1.3,3.4h7.9c-0.4-1.2-0.8-2.4-1.2-3.5
			c-0.4-1.1-0.8-2.1-1.1-3c-0.3-0.9-0.7-1.7-0.9-2.4S1088.9,311.2,1088.7,310.8z"/>
		<path id="XMLID_1245_" class="st33" d="M1114.8,327.5c0.9,0,1.6-0.1,2.2-0.2s1-0.3,1.4-0.6c0.3-0.2,0.6-0.6,0.7-0.9
			s0.2-0.7,0.2-1.2c0-0.9-0.4-1.7-1.3-2.3c-0.8-0.6-2.3-1.2-4.4-1.9c-0.9-0.3-1.8-0.7-2.7-1.1s-1.7-0.9-2.4-1.6
			c-0.7-0.6-1.3-1.4-1.8-2.3c-0.4-0.9-0.7-2-0.7-3.3s0.2-2.4,0.7-3.5s1.2-1.9,2-2.6c0.9-0.7,1.9-1.3,3.2-1.7
			c1.2-0.4,2.7-0.6,4.2-0.6c1.9,0,3.5,0.2,4.8,0.6c1.4,0.4,2.5,0.8,3.4,1.3l-1.8,4.9c-0.8-0.4-1.6-0.8-2.6-1.1s-2.1-0.5-3.4-0.5
			c-1.5,0-2.6,0.2-3.2,0.6c-0.6,0.4-1,1-1,1.9c0,0.5,0.1,0.9,0.4,1.3c0.2,0.4,0.6,0.7,1,0.9s0.9,0.5,1.5,0.8s1.2,0.5,1.9,0.7
			c1.4,0.5,2.7,1.1,3.8,1.6s2,1.1,2.7,1.8s1.2,1.5,1.6,2.4c0.3,0.9,0.5,2.1,0.5,3.4c0,2.6-0.9,4.6-2.7,6c-1.8,1.4-4.5,2.1-8.2,2.1
			c-1.2,0-2.3-0.1-3.3-0.2c-1-0.2-1.9-0.3-2.6-0.5s-1.4-0.4-2-0.7c-0.6-0.2-1-0.5-1.4-0.7l1.8-5c0.8,0.5,1.9,0.9,3.1,1.2
			C1111.5,327.3,1113,327.5,1114.8,327.5z"/>
		<path id="XMLID_1242_" class="st33" d="M1156.9,318.4c0,2.4-0.3,4.5-1.1,6.3c-0.7,1.8-1.7,3.3-2.9,4.5c-1.2,1.2-2.7,2.1-4.4,2.7
			c-1.7,0.6-3.5,0.9-5.5,0.9c-1.9,0-3.7-0.3-5.4-0.9c-1.7-0.6-3.2-1.5-4.4-2.7c-1.2-1.2-2.2-2.7-3-4.5c-0.7-1.8-1.1-3.9-1.1-6.3
			c0-2.4,0.4-4.5,1.1-6.3c0.8-1.8,1.8-3.3,3-4.5s2.7-2.1,4.4-2.8c1.7-0.7,3.4-0.9,5.3-0.9s3.7,0.3,5.4,0.9c1.7,0.6,3.2,1.5,4.4,2.8
			c1.2,1.3,2.2,2.7,3,4.5C1156.5,313.9,1156.9,316,1156.9,318.4z M1135.7,318.4c0,1.4,0.2,2.6,0.5,3.7c0.3,1.1,0.8,2,1.4,2.8
			s1.4,1.4,2.3,1.8c0.9,0.4,2,0.6,3.1,0.6s2.2-0.2,3.1-0.6c0.9-0.4,1.7-1,2.3-1.8c0.6-0.8,1.1-1.7,1.4-2.8s0.5-2.3,0.5-3.7
			s-0.2-2.6-0.5-3.7c-0.3-1.1-0.8-2.1-1.4-2.8c-0.6-0.8-1.4-1.4-2.3-1.8c-0.9-0.4-2-0.6-3.1-0.6c-1.2,0-2.2,0.2-3.1,0.7
			c-0.9,0.4-1.7,1.1-2.3,1.8c-0.6,0.8-1.1,1.7-1.4,2.8C1135.9,315.9,1135.7,317.1,1135.7,318.4z"/>
		<path id="XMLID_1240_" class="st33" d="M1169.4,304.6c0.5,0.9,1,2,1.7,3.3c0.6,1.3,1.3,2.7,2,4.2s1.4,3.1,2,4.6
			c0.7,1.6,1.3,3,1.9,4.4c0.6-1.4,1.2-2.9,1.9-4.4c0.7-1.6,1.3-3.1,2-4.6s1.3-2.9,2-4.2c0.6-1.3,1.2-2.4,1.7-3.3h5.7
			c0.3,1.8,0.5,3.9,0.7,6.2s0.4,4.7,0.6,7.1c0.2,2.5,0.3,4.9,0.5,7.4s0.3,4.8,0.4,7h-6.1c-0.1-2.7-0.2-5.6-0.3-8.8
			c-0.1-3.2-0.3-6.4-0.6-9.6c-0.5,1.1-1,2.4-1.6,3.7c-0.6,1.4-1.2,2.7-1.8,4.1c-0.6,1.4-1.1,2.7-1.7,3.9c-0.5,1.2-1,2.3-1.4,3.2
			h-4.4c-0.4-0.9-0.8-1.9-1.4-3.2c-0.5-1.2-1.1-2.5-1.7-3.9s-1.2-2.7-1.8-4.1c-0.6-1.4-1.1-2.6-1.6-3.7c-0.3,3.2-0.5,6.4-0.6,9.6
			c-0.1,3.2-0.2,6.1-0.3,8.8h-6.1c0.1-2.2,0.2-4.5,0.4-7s0.3-4.9,0.5-7.4s0.4-4.8,0.6-7.1s0.5-4.3,0.7-6.2H1169.4z"/>
		<path id="XMLID_1237_" class="st33" d="M753.8,366.4c0,2.4-0.3,4.5-1.1,6.3c-0.7,1.8-1.7,3.3-2.9,4.5s-2.7,2.1-4.4,2.7
			c-1.7,0.6-3.5,0.9-5.5,0.9c-1.9,0-3.7-0.3-5.4-0.9c-1.7-0.6-3.2-1.5-4.4-2.7s-2.2-2.7-3-4.5c-0.7-1.8-1.1-3.9-1.1-6.3
			c0-2.4,0.4-4.5,1.1-6.3c0.8-1.8,1.8-3.3,3-4.5c1.3-1.2,2.7-2.1,4.4-2.8c1.7-0.6,3.4-0.9,5.3-0.9c1.9,0,3.7,0.3,5.4,0.9
			c1.7,0.6,3.2,1.5,4.4,2.8s2.2,2.7,3,4.5C753.5,361.9,753.8,364,753.8,366.4z M732.7,366.4c0,1.4,0.2,2.6,0.5,3.7
			c0.3,1.1,0.8,2,1.4,2.8c0.6,0.8,1.4,1.4,2.3,1.8c0.9,0.4,2,0.6,3.1,0.6s2.2-0.2,3.1-0.6c0.9-0.4,1.7-1,2.3-1.8s1.1-1.7,1.4-2.8
			c0.3-1.1,0.5-2.3,0.5-3.7s-0.2-2.6-0.5-3.7c-0.3-1.1-0.8-2.1-1.4-2.8c-0.6-0.8-1.4-1.4-2.3-1.8c-0.9-0.4-2-0.6-3.1-0.6
			c-1.2,0-2.2,0.2-3.1,0.7s-1.7,1-2.3,1.8s-1.1,1.7-1.4,2.8C732.8,363.8,732.7,365.1,732.7,366.4z"/>
		<path id="XMLID_1234_" class="st33" d="M783.3,366.4c0,2.4-0.4,4.5-1.1,6.3s-1.8,3.3-3.2,4.4s-3,2-5,2.6s-4.2,0.9-6.6,0.9
			c-1.1,0-2.4-0.1-3.9-0.1s-3-0.3-4.4-0.6v-27c1.4-0.3,2.9-0.4,4.5-0.5s2.9-0.1,4-0.1c2.4,0,4.5,0.3,6.5,0.8s3.6,1.4,5,2.5
			c1.4,1.2,2.5,2.6,3.2,4.4C782.9,361.7,783.3,363.9,783.3,366.4z M765.3,375.2c0.3,0,0.6,0,1,0.1c0.4,0,0.8,0,1.4,0
			c3.1,0,5.4-0.8,6.9-2.4s2.3-3.8,2.3-6.5c0-2.9-0.7-5.1-2.2-6.6s-3.7-2.2-6.8-2.2c-0.4,0-0.9,0-1.3,0c-0.5,0-0.9,0.1-1.3,0.1V375.2
			L765.3,375.2z"/>
		<path id="XMLID_1232_" class="st33" d="M795.8,380.3c-1.1-2.3-2.2-4.7-3.3-7.2s-2.1-5-3.1-7.4s-1.8-4.8-2.7-7
			c-0.9-2.2-1.5-4.2-2.1-6h6.9c0.5,1.6,1.1,3.3,1.7,5.2s1.3,3.7,1.9,5.5c0.7,1.8,1.3,3.6,1.9,5.3s1.2,3.1,1.7,4.4
			c0.5-1.2,1.1-2.7,1.7-4.4s1.3-3.4,1.9-5.3c0.6-1.9,1.3-3.7,1.9-5.5s1.2-3.6,1.7-5.2h6.6c-0.6,1.8-1.3,3.8-2.1,6
			c-0.8,2.2-1.7,4.6-2.7,7c-1,2.5-2,4.9-3,7.4s-2.2,4.9-3.2,7.2H795.8z"/>
		<path id="XMLID_1228_" class="st33" d="M832.4,380.3c-0.3-1-0.6-1.9-1-3c-0.4-1-0.7-2-1.1-3h-10.8c-0.3,1-0.7,2-1,3s-0.7,2-1,3
			H811c1-3,2-5.8,3-8.3c0.9-2.5,1.8-4.9,2.8-7.2s1.8-4.4,2.7-6.4s1.8-4,2.7-5.9h5.9c0.9,1.9,1.8,3.9,2.7,5.9s1.8,4.1,2.7,6.4
			c0.9,2.2,1.8,4.6,2.8,7.2s1.9,5.3,3,8.3H832.4z M829.7,345.3l-6.6,5.6l-2.7-2.4l5.7-6.5L829.7,345.3z M824.9,358.8
			c-0.1,0.4-0.3,0.9-0.6,1.6c-0.3,0.7-0.6,1.5-0.9,2.4s-0.7,1.9-1.2,3c-0.4,1.1-0.8,2.2-1.3,3.4h7.9c-0.4-1.2-0.8-2.4-1.2-3.5
			c-0.4-1.1-0.8-2.1-1.1-3c-0.4-0.9-0.7-1.7-0.9-2.4C825.3,359.8,825.1,359.2,824.9,358.8z"/>
		<path id="XMLID_1225_" class="st33" d="M863.2,356.9c-0.8,0.9-1.9,2-3,3.4c-1.2,1.4-2.4,2.9-3.6,4.6c-1.2,1.6-2.5,3.4-3.7,5.1
			s-2.3,3.4-3.3,5h14.1v5.2h-21.8v-3.7c0.8-1.4,1.7-2.9,2.7-4.5c1.1-1.7,2.2-3.4,3.4-5c1.2-1.6,2.4-3.3,3.6-4.9
			c1.2-1.6,2.3-3,3.4-4.3h-12.4v-5.2h20.7L863.2,356.9L863.2,356.9L863.2,356.9z M846.6,344.9l2.2-2.6l4,3.1l4-3.1l2.3,2.6l-6.3,5.5
			L846.6,344.9z"/>
		<path id="XMLID_1223_" class="st33" d="M886.6,380.3c-1.8-3.2-3.7-6.3-5.8-9.4c-2.1-3.1-4.3-6-6.6-8.8v18.2H868v-27.7h5.1
			c0.9,0.9,1.8,2,2.9,3.2s2.2,2.6,3.3,4.1c1.1,1.5,2.2,3,3.3,4.5c1.1,1.6,2.1,3.1,3.1,4.5v-16.4h6.2v27.7L886.6,380.3L886.6,380.3z"
			/>
		<path id="XMLID_1221_" class="st33" d="M908.4,363.9c1.1-1.9,2.2-3.8,3.2-5.7s2-3.8,2.8-5.7h6.9c-1.5,3-3.1,5.9-4.7,8.7
			s-3.3,5.6-5.2,8.4v10.6h-6.2v-10.5c-1.8-2.8-3.5-5.7-5.2-8.5s-3.2-5.7-4.7-8.7h7.2c0.8,1.9,1.8,3.8,2.8,5.7
			C906.2,360.1,907.3,362,908.4,363.9z"/>
		<path id="XMLID_1219_" class="st33" d="M935.5,380.8c-4.5,0-7.9-1.2-10.3-3.8c-2.4-2.5-3.5-6.1-3.5-10.7c0-2.3,0.4-4.3,1.1-6.1
			s1.7-3.3,3-4.6s2.8-2.2,4.5-2.8s3.6-1,5.6-1c1.2,0,2.2,0.1,3.2,0.3s1.8,0.4,2.5,0.6c0.7,0.2,1.3,0.5,1.8,0.7s0.8,0.4,1,0.6l-1.8,5
			c-0.8-0.4-1.8-0.8-3-1.2s-2.4-0.5-3.9-0.5c-1,0-1.9,0.2-2.8,0.5s-1.7,0.8-2.4,1.5c-0.7,0.7-1.3,1.6-1.7,2.7s-0.6,2.5-0.6,4.1
			c0,1.3,0.1,2.5,0.4,3.6s0.7,2.1,1.4,2.9c0.7,0.8,1.5,1.4,2.5,1.9s2.2,0.7,3.7,0.7c0.9,0,1.7,0,2.4-0.2c0.7-0.1,1.4-0.2,1.9-0.4
			c0.6-0.2,1-0.3,1.5-0.5s0.8-0.4,1.2-0.5l1.7,5c-0.9,0.5-2.1,1-3.7,1.4C939.5,380.6,937.6,380.8,935.5,380.8z"/>
		<path id="XMLID_1217_" class="st33" d="M965.5,352.6h6.2v27.7h-6.2v-11.8H955v11.8h-6.2v-27.7h6.2v10.6h10.5V352.6z"/>
		<path id="XMLID_1215_" class="st29" d="M996,380.3c-1.1-2.3-2.2-4.7-3.3-7.2c-1.1-2.5-2.1-5-3.1-7.4s-1.8-4.8-2.7-7
			c-0.9-2.2-1.5-4.2-2.1-6h6.9c0.5,1.6,1.1,3.3,1.7,5.2s1.3,3.7,1.9,5.5c0.7,1.8,1.3,3.6,1.9,5.3s1.2,3.1,1.7,4.4
			c0.5-1.2,1.1-2.7,1.7-4.4s1.3-3.4,1.9-5.3c0.7-1.8,1.3-3.7,1.9-5.5c0.6-1.9,1.2-3.6,1.7-5.2h6.6c-0.6,1.8-1.3,3.8-2.1,6
			c-0.8,2.2-1.7,4.6-2.6,7c-1,2.5-2,4.9-3,7.4s-2.2,4.9-3.2,7.2H996z"/>
		<path id="XMLID_1211_" class="st29" d="M1035.5,380.6c-1.5,0-3-0.1-4.5-0.1s-3.1-0.3-4.7-0.7v-26.9c1.3-0.2,2.7-0.4,4.2-0.5
			s2.9-0.2,4.2-0.2c1.8,0,3.4,0.1,4.9,0.4s2.8,0.7,3.8,1.3s1.9,1.4,2.5,2.4s0.9,2.2,0.9,3.7c0,2.2-1.1,4-3.2,5.2
			c1.8,0.7,3,1.6,3.6,2.7c0.6,1.2,1,2.4,1,3.9c0,2.9-1.1,5.1-3.2,6.6C1042.8,379.9,1039.7,380.6,1035.5,380.6z M1032.3,363.4h3
			c1.9,0,3.3-0.2,4.1-0.7c0.8-0.5,1.2-1.3,1.2-2.4s-0.4-1.9-1.3-2.4c-0.8-0.4-2.1-0.7-3.8-0.7c-0.5,0-1.1,0-1.7,0s-1.2,0.1-1.6,0.1
			L1032.3,363.4L1032.3,363.4z M1032.3,368.2v7.2c0.4,0.1,0.9,0.1,1.5,0.1c0.5,0,1.1,0,1.8,0c1.9,0,3.4-0.3,4.5-0.8s1.7-1.5,1.7-3
			c0-1.3-0.5-2.2-1.4-2.7c-1-0.5-2.3-0.8-4.1-0.8H1032.3L1032.3,368.2z"/>
		<path id="XMLID_1208_" class="st29" d="M1079.5,366.4c0,2.4-0.3,4.5-1.1,6.3c-0.7,1.8-1.7,3.3-2.9,4.5c-1.2,1.2-2.7,2.1-4.4,2.7
			c-1.7,0.6-3.5,0.9-5.5,0.9c-1.9,0-3.7-0.3-5.4-0.9c-1.7-0.6-3.2-1.5-4.4-2.7c-1.2-1.2-2.2-2.7-3-4.5c-0.7-1.8-1.1-3.9-1.1-6.3
			c0-2.4,0.4-4.5,1.1-6.3c0.8-1.8,1.8-3.3,3-4.5s2.7-2.1,4.4-2.8c1.7-0.6,3.4-0.9,5.3-0.9s3.7,0.3,5.4,0.9c1.7,0.6,3.2,1.5,4.4,2.8
			c1.2,1.3,2.2,2.7,3,4.5C1079.2,361.9,1079.5,364,1079.5,366.4z M1058.4,366.4c0,1.4,0.2,2.6,0.5,3.7c0.3,1.1,0.8,2,1.4,2.8
			s1.4,1.4,2.3,1.8c0.9,0.4,2,0.6,3.1,0.6c1.2,0,2.2-0.2,3.1-0.6c0.9-0.4,1.7-1,2.3-1.8c0.6-0.8,1.1-1.7,1.4-2.8s0.5-2.3,0.5-3.7
			s-0.2-2.6-0.5-3.7c-0.3-1.1-0.8-2.1-1.4-2.8c-0.6-0.8-1.4-1.4-2.3-1.8c-0.9-0.4-2-0.6-3.1-0.6c-1.2,0-2.2,0.2-3.1,0.7
			s-1.7,1-2.3,1.8c-0.6,0.8-1.1,1.7-1.4,2.8C1058.5,363.8,1058.4,365.1,1058.4,366.4z"/>
		<path id="XMLID_1206_" class="st29" d="M1099,371c0,1.4-0.1,2.6-0.5,3.8c-0.3,1.2-0.8,2.2-1.6,3.1c-0.8,0.9-1.8,1.6-3.1,2.1
			c-1.3,0.5-2.9,0.8-4.9,0.8c-1.8,0-3.4-0.2-4.7-0.7c-1.3-0.4-2.4-1-3.2-1.5l2.1-4.8c0.8,0.5,1.6,0.9,2.5,1.2
			c0.9,0.4,1.8,0.5,2.9,0.5c1.5,0,2.6-0.4,3.3-1.1c0.7-0.8,1-2,1-3.8v-18.1h6.2L1099,371L1099,371z"/>
		<path id="XMLID_1204_" class="st29" d="M1105,352.6h6.2v27.7h-6.2V352.6z"/>
		<path id="XMLID_1201_" class="st29" d="M735.8,400.2c4.1,0,7.3,0.7,9.5,2.2s3.3,3.8,3.3,7.1s-1.1,5.7-3.4,7.2s-5.4,2.2-9.6,2.2h-2
			v9.3h-6.2v-27.3c1.4-0.3,2.8-0.4,4.3-0.6S734.6,400.2,735.8,400.2z M736.2,405.6c-0.5,0-0.9,0-1.3,0c-0.4,0-0.8,0.1-1.1,0.1v8h2
			c2.2,0,3.8-0.3,4.9-0.9c1.1-0.6,1.6-1.7,1.6-3.3c0-0.8-0.1-1.4-0.4-1.9c-0.3-0.5-0.7-0.9-1.2-1.2s-1.1-0.5-1.9-0.6
			C738,405.7,737.1,405.6,736.2,405.6z"/>
		<path id="XMLID_1198_" class="st29" d="M761.3,400.2c4.2,0,7.3,0.7,9.6,2.2c2.2,1.5,3.3,3.8,3.3,6.9c0,2-0.5,3.5-1.3,4.7
			s-2.2,2.2-3.9,2.9c0.6,0.7,1.2,1.5,1.8,2.4c0.6,0.9,1.2,1.8,1.8,2.8c0.6,1,1.2,2,1.7,3c0.6,1.1,1.1,2.1,1.6,3.1h-7
			c-0.5-0.9-1-1.8-1.5-2.8c-0.5-0.9-1.1-1.8-1.6-2.7s-1.1-1.7-1.6-2.5s-1.1-1.5-1.6-2.1h-3.1v10.1h-6.2v-27.3
			c1.4-0.3,2.8-0.5,4.2-0.6C758.9,400.3,760.2,400.2,761.3,400.2z M761.7,405.6c-0.5,0-0.9,0-1.2,0c-0.4,0-0.7,0.1-1,0.1v7.5h1.8
			c2.3,0,4-0.3,5-0.9c1-0.6,1.5-1.6,1.5-3s-0.5-2.3-1.5-2.9C765.2,405.8,763.7,405.6,761.7,405.6z"/>
		<path id="XMLID_1195_" class="st29" d="M805.6,414.4c0,2.4-0.3,4.5-1.1,6.3c-0.7,1.8-1.7,3.3-2.9,4.5c-1.2,1.2-2.7,2.1-4.4,2.7
			c-1.7,0.6-3.5,0.9-5.5,0.9c-1.9,0-3.7-0.3-5.4-0.9c-1.7-0.6-3.2-1.5-4.4-2.7c-1.2-1.2-2.2-2.7-3-4.5c-0.7-1.8-1.1-3.9-1.1-6.3
			c0-2.4,0.4-4.5,1.1-6.3c0.8-1.8,1.8-3.3,3-4.5s2.7-2.1,4.4-2.8c1.7-0.6,3.4-0.9,5.3-0.9s3.7,0.3,5.4,0.9c1.7,0.6,3.2,1.5,4.4,2.8
			c1.2,1.3,2.2,2.7,3,4.5C805.2,409.9,805.6,412,805.6,414.4z M784.4,414.4c0,1.4,0.2,2.6,0.5,3.7c0.3,1.1,0.8,2,1.4,2.8
			s1.4,1.4,2.3,1.8c0.9,0.4,2,0.6,3.1,0.6c1.2,0,2.2-0.2,3.1-0.6c0.9-0.4,1.7-1,2.3-1.8c0.6-0.8,1.1-1.7,1.4-2.8s0.5-2.3,0.5-3.7
			s-0.2-2.6-0.5-3.7c-0.3-1.1-0.8-2.1-1.4-2.8c-0.6-0.8-1.4-1.4-2.3-1.8c-0.9-0.4-2-0.6-3.1-0.6c-1.2,0-2.2,0.2-3.1,0.7
			s-1.7,1-2.3,1.8s-1.1,1.7-1.4,2.8C784.6,411.8,784.4,413.1,784.4,414.4z"/>
		<path id="XMLID_1193_" class="st29" d="M830.4,400.6v5.3H822v22.4h-6.2v-22.4h-8.4v-5.3H830.4z"/>
		<path id="XMLID_1191_" class="st29" d="M834.4,400.6h6.2v27.7h-6.2V400.6z"/>
		<path id="XMLID_1189_" class="st29" d="M873,428.3c-0.6-0.9-1.2-1.9-2-2.9s-1.6-2.1-2.5-3.2c-0.9-1.1-1.8-2.1-2.8-3.1
			s-1.9-1.8-2.9-2.6v11.7h-6.2v-27.7h6.2v10.4c1.6-1.7,3.2-3.4,4.9-5.3c1.7-1.8,3.2-3.5,4.6-5.1h7.4c-1.9,2.2-3.8,4.4-5.7,6.5
			c-1.9,2.1-3.9,4.2-6,6.3c2.2,1.9,4.4,4,6.4,6.6s4,5.3,5.9,8.4L873,428.3L873,428.3z"/>
		<path id="XMLID_1186_" class="st29" d="M908.2,414.4c0,2.4-0.3,4.5-1.1,6.3c-0.7,1.8-1.7,3.3-2.9,4.5c-1.2,1.2-2.7,2.1-4.4,2.7
			c-1.7,0.6-3.5,0.9-5.5,0.9c-1.9,0-3.7-0.3-5.4-0.9c-1.7-0.6-3.2-1.5-4.4-2.7c-1.2-1.2-2.2-2.7-3-4.5c-0.7-1.8-1.1-3.9-1.1-6.3
			c0-2.4,0.4-4.5,1.1-6.3c0.8-1.8,1.8-3.3,3-4.5s2.7-2.1,4.4-2.8c1.7-0.6,3.4-0.9,5.3-0.9s3.7,0.3,5.4,0.9c1.7,0.6,3.2,1.5,4.4,2.8
			c1.2,1.3,2.2,2.7,3,4.5S908.2,412,908.2,414.4z M887,414.4c0,1.4,0.2,2.6,0.5,3.7c0.3,1.1,0.8,2,1.4,2.8s1.4,1.4,2.3,1.8
			c0.9,0.4,2,0.6,3.1,0.6c1.2,0,2.2-0.2,3.1-0.6c0.9-0.4,1.7-1,2.3-1.8c0.6-0.8,1.1-1.7,1.4-2.8s0.5-2.3,0.5-3.7s-0.2-2.6-0.5-3.7
			c-0.3-1.1-0.8-2.1-1.4-2.8c-0.6-0.8-1.4-1.4-2.3-1.8c-0.9-0.4-2-0.6-3.1-0.6c-1.2,0-2.2,0.2-3.1,0.7s-1.7,1-2.3,1.8
			s-1.1,1.7-1.4,2.8C887.2,411.8,887,413.1,887,414.4z"/>
		<path id="XMLID_1183_" class="st29" d="M921.5,400.2c4.2,0,7.3,0.7,9.6,2.2c2.2,1.5,3.3,3.8,3.3,6.9c0,2-0.5,3.5-1.3,4.7
			s-2.2,2.2-3.9,2.9c0.6,0.7,1.2,1.5,1.8,2.4c0.6,0.9,1.2,1.8,1.8,2.8s1.2,2,1.7,3s1.1,2.1,1.6,3.1h-7c-0.5-0.9-1-1.8-1.5-2.8
			c-0.5-0.9-1.1-1.8-1.6-2.7s-1.1-1.7-1.6-2.5s-1.1-1.5-1.6-2.1h-3.1v10.1h-6.2v-27.3c1.4-0.3,2.8-0.5,4.2-0.6
			C919.1,400.2,920.4,400.2,921.5,400.2z M921.9,405.6c-0.5,0-0.9,0-1.2,0c-0.4,0-0.7,0.1-1,0.1v7.5h1.8c2.3,0,4-0.3,5-0.9
			c1-0.6,1.5-1.6,1.5-3s-0.5-2.3-1.5-2.9C925.4,405.8,923.9,405.6,921.9,405.6z"/>
		<path id="XMLID_1181_" class="st29" d="M950.6,428.8c-2,0-3.6-0.3-5-0.8s-2.6-1.3-3.5-2.3s-1.6-2.1-2-3.5s-0.7-2.8-0.7-4.5v-17.2
			h6.2v16.7c0,1.1,0.1,2.1,0.4,2.9c0.3,0.8,0.6,1.4,1,1.9s1,0.8,1.6,1.1c0.6,0.2,1.3,0.3,2.1,0.3c1.5,0,2.8-0.5,3.7-1.4
			c0.9-0.9,1.4-2.5,1.4-4.8v-16.7h6.2v17.2c0,1.6-0.2,3.1-0.7,4.5s-1.2,2.5-2.1,3.5s-2.1,1.7-3.6,2.3
			C954.3,428.6,952.6,428.8,950.6,428.8z"/>
		<path id="XMLID_1178_" class="st29" d="M976.4,400.2c4.1,0,7.3,0.7,9.5,2.2s3.3,3.8,3.3,7.1s-1.1,5.7-3.4,7.2s-5.4,2.2-9.6,2.2h-2
			v9.3H968v-27.3c1.4-0.3,2.8-0.4,4.3-0.6C973.9,400.3,975.2,400.2,976.4,400.2z M976.8,405.6c-0.5,0-0.9,0-1.3,0s-0.8,0.1-1.1,0.1
			v8h2c2.2,0,3.8-0.3,4.9-0.9c1.1-0.6,1.6-1.7,1.6-3.3c0-0.8-0.1-1.4-0.4-1.9s-0.7-0.9-1.2-1.2s-1.2-0.5-1.9-0.6
			C978.7,405.7,977.7,405.6,976.8,405.6z"/>
		<path id="XMLID_1176_" class="st29" d="M1006.4,428.8c-4.5,0-7.9-1.2-10.3-3.8c-2.4-2.5-3.5-6.1-3.5-10.7c0-2.3,0.4-4.3,1.1-6.1
			s1.7-3.3,3-4.6c1.2-1.2,2.8-2.2,4.5-2.8s3.6-1,5.6-1c1.2,0,2.2,0.1,3.2,0.3s1.8,0.4,2.5,0.6c0.7,0.2,1.3,0.5,1.8,0.7
			s0.8,0.4,1,0.6l-1.8,5c-0.8-0.4-1.8-0.8-3-1.2c-1.1-0.3-2.4-0.5-3.9-0.5c-1,0-1.9,0.2-2.8,0.5s-1.7,0.8-2.4,1.5
			c-0.7,0.7-1.3,1.6-1.7,2.7c-0.4,1.1-0.6,2.5-0.6,4.1c0,1.3,0.1,2.5,0.4,3.6s0.7,2.1,1.4,2.9c0.6,0.8,1.4,1.4,2.5,1.9
			s2.2,0.7,3.7,0.7c0.9,0,1.7,0,2.4-0.2c0.7-0.1,1.4-0.2,1.9-0.4c0.6-0.2,1-0.3,1.5-0.5c0.4-0.2,0.8-0.4,1.2-0.5l1.7,5
			c-0.9,0.5-2.1,1-3.7,1.4C1010.4,428.6,1008.5,428.8,1006.4,428.8z"/>
		<path id="XMLID_1174_" class="st29" d="M1019.7,400.6h6.2v27.7h-6.2V400.6z"/>
		<path id="XMLID_1172_" class="st29" d="M1032.4,400.6h6.2v27.7h-6.2V400.6z"/>
		<path id="XMLID_1169_" class="st29" d="M1051.2,425.1c0,1.2-0.4,2.1-1.1,2.7c-0.7,0.6-1.6,1-2.6,1s-1.8-0.3-2.6-1
			c-0.8-0.7-1.1-1.6-1.1-2.7c0-1.1,0.4-2.1,1.1-2.7c0.7-0.6,1.6-1,2.6-1s1.8,0.3,2.6,1C1050.9,423.1,1051.2,423.9,1051.2,425.1z
			 M1050.7,407.7c0,2.2-0.1,4.2-0.2,6s-0.4,3.8-0.6,5.7h-4.6c-0.3-1.9-0.5-3.8-0.7-5.7s-0.3-3.9-0.3-6v-7.2h6.4L1050.7,407.7
			L1050.7,407.7z"/>
	</g>
</g>
<g>
	<g>
		<g>
			<g>
				<g>
					<g>
						<defs>
							<rect id="SVGID_57_" x="709.1" y="482.1" width="694.9" height="104.6"/>
						</defs>
						<clipPath id="SVGID_58_">
							<use xlink:href="#SVGID_57_"  style="overflow:visible;"/>
						</clipPath>
						<rect x="709.1" y="482.1" class="st34" width="700.1" height="119.5"/>
					</g>
				</g>
			</g>
		</g>
	</g>
	<g>
		<g>
			<g>
				<g>
					<g>
						<defs>
							<rect id="SVGID_59_" x="264" y="208.3" width="1115" height="378.3"/>
						</defs>
						<clipPath id="SVGID_60_">
							<use xlink:href="#SVGID_59_"  style="overflow:visible;"/>
						</clipPath>
						<g class="st35">
							<path class="st0" d="M734.4,508c3,0,5.3,0.5,7,1.6c1.6,1.1,2.4,2.8,2.4,5.3c0,2.4-0.8,4.2-2.5,5.3c-1.6,1.1-4,1.6-7,1.6h-1.5
								v6.8h-4.7v-20c1.1-0.1,2-0.4,3.2-0.4C732.6,508,733.5,508,734.4,508z M734.7,511.9c-0.4,0-0.7,0-0.9,0s-0.7,0-0.8,0v5.8h1.5
								c1.6,0,2.8-0.3,3.6-0.7s1.2-1.2,1.2-2.4c0-0.5-0.1-1.1-0.3-1.5c-0.3-0.4-0.5-0.7-0.9-0.9c-0.4-0.3-0.8-0.4-1.5-0.5
								C736,511.9,735.3,511.9,734.7,511.9z"/>
						</g>
					</g>
				</g>
			</g>
		</g>
		<g>
			<g>
				<g>
					<g>
						<defs>
							<rect id="SVGID_61_" x="264" y="208.3" width="1115" height="378.3"/>
						</defs>
						<clipPath id="SVGID_62_">
							<use xlink:href="#SVGID_61_"  style="overflow:visible;"/>
						</clipPath>
						<g class="st36">
							<path class="st0" d="M753.7,508c3,0,5.4,0.5,7,1.6c1.6,1.1,2.4,2.8,2.4,5c0,1.5-0.3,2.7-0.9,3.4c-0.7,0.9-1.6,1.6-2.8,2.1
								c0.4,0.5,0.8,1.1,1.3,1.7c0.4,0.7,0.9,1.3,1.3,2s0.9,1.5,1.3,2.3s0.8,1.6,1.2,2.3h-5.2c-0.4-0.7-0.8-1.3-1.2-2
								s-0.8-1.3-1.2-2s-0.8-1.2-1.2-1.9c-0.4-0.5-0.8-1.1-1.2-1.6h-2.3v7.4h-4.7v-20c1.1-0.1,2-0.4,3-0.4
								C752,508,752.9,508,753.7,508z M753.9,511.9c-0.4,0-0.7,0-0.9,0s-0.5,0-0.8,0v5.6h1.3c1.7,0,2.9-0.3,3.7-0.7s1.1-1.2,1.1-2.3
								s-0.4-1.7-1.2-2.1C756.6,512.1,755.5,511.9,753.9,511.9z"/>
						</g>
					</g>
				</g>
			</g>
		</g>
		<g>
			<g>
				<g>
					<g>
						<defs>
							<rect id="SVGID_63_" x="264" y="208.3" width="1115" height="378.3"/>
						</defs>
						<clipPath id="SVGID_64_">
							<use xlink:href="#SVGID_63_"  style="overflow:visible;"/>
						</clipPath>
						<g class="st37">
							<path class="st0" d="M768,508.1h4.7v20.3H768V508.1z"/>
						</g>
					</g>
				</g>
			</g>
		</g>
		<g>
			<g>
				<g>
					<g>
						<defs>
							<rect id="SVGID_65_" x="264" y="208.3" width="1115" height="378.3"/>
						</defs>
						<clipPath id="SVGID_66_">
							<use xlink:href="#SVGID_65_"  style="overflow:visible;"/>
						</clipPath>
						<g class="st38">
							<path class="st0" d="M795.6,518.4c0,1.7-0.3,3.3-0.8,4.7c-0.5,1.3-1.3,2.4-2.4,3.3c-1.1,0.8-2.3,1.5-3.7,2
								c-1.5,0.4-3,0.7-4.9,0.7c-0.8,0-1.7,0-2.9-0.1c-1.1-0.1-2.1-0.3-3.2-0.4v-19.8c1.1-0.1,2.1-0.3,3.3-0.4
								c1.2-0.1,2.1-0.1,2.9-0.1c1.7,0,3.3,0.1,4.8,0.5s2.7,1.1,3.7,1.9c1,0.8,1.9,1.9,2.4,3.2C795.3,514.9,795.6,516.5,795.6,518.4
								z M782.3,524.9c0.3,0,0.5,0,0.8,0s0.7,0,1.1,0c2.3,0,4-0.5,5-1.7c1.1-1.2,1.7-2.8,1.7-4.8c0-2.1-0.5-3.7-1.6-4.9
								c-1.1-1.1-2.8-1.6-5-1.6c-0.3,0-0.7,0-0.9,0c-0.4,0-0.7,0-0.9,0.1v12.9H782.3z"/>
						</g>
					</g>
				</g>
			</g>
		</g>
		<g>
			<g>
				<g>
					<g>
						<defs>
							<rect id="SVGID_67_" x="264" y="208.3" width="1115" height="378.3"/>
						</defs>
						<clipPath id="SVGID_68_">
							<use xlink:href="#SVGID_67_"  style="overflow:visible;"/>
						</clipPath>
						<g class="st39">
							<path class="st0" d="M813.7,528.6c-0.3-0.7-0.5-1.5-0.8-2.1c-0.3-0.8-0.5-1.5-0.8-2.3h-8c-0.3,0.8-0.5,1.5-0.8,2.3
								s-0.5,1.5-0.7,2.1h-4.8c0.8-2.3,1.5-4.2,2.1-6.1s1.3-3.6,2-5.3c0.7-1.6,1.3-3.2,2-4.7s1.3-2.9,2-4.4h4.4
								c0.7,1.5,1.3,2.9,2,4.4s1.3,3,2,4.7c0.7,1.6,1.3,3.4,2,5.3s1.5,3.8,2.1,6.1H813.7z M808.2,512.8c-0.1,0.3-0.3,0.7-0.4,1.2
								s-0.4,1.1-0.7,1.7c-0.3,0.7-0.5,1.5-0.8,2.3s-0.7,1.6-0.9,2.5h5.8c-0.3-0.9-0.7-1.7-0.9-2.5c-0.3-0.8-0.5-1.6-0.8-2.3
								s-0.5-1.2-0.7-1.7C808.8,513.4,808.4,513.1,808.2,512.8z"/>
						</g>
					</g>
				</g>
			</g>
		</g>
		<g>
			<g>
				<g>
					<g>
						<defs>
							<rect id="SVGID_69_" x="264" y="208.3" width="1115" height="378.3"/>
						</defs>
						<clipPath id="SVGID_70_">
							<use xlink:href="#SVGID_69_"  style="overflow:visible;"/>
						</clipPath>
						<g class="st40">
							<path class="st0" d="M832.9,521.7c0,1.1-0.1,2-0.4,2.8s-0.7,1.6-1.2,2.3s-1.3,1.2-2.3,1.6s-2.1,0.5-3.6,0.5
								c-1.3,0-2.5-0.1-3.5-0.5c-0.9-0.3-1.7-0.7-2.4-1.2l1.6-3.6c0.5,0.4,1.2,0.7,1.9,0.9c0.7,0.3,1.3,0.4,2.1,0.4
								c1.1,0,1.9-0.3,2.4-0.8s0.8-1.5,0.8-2.8V508h4.7L832.9,521.7L832.9,521.7L832.9,521.7z"/>
						</g>
					</g>
				</g>
			</g>
		</g>
		<g>
			<g>
				<g>
					<g>
						<defs>
							<rect id="SVGID_71_" x="264" y="208.3" width="1115" height="378.3"/>
						</defs>
						<clipPath id="SVGID_72_">
							<use xlink:href="#SVGID_71_"  style="overflow:visible;"/>
						</clipPath>
						<g class="st41">
							<path class="st0" d="M853,508.1v3.9h-6.1v16.5h-4.7V512h-6.1v-3.9H853L853,508.1z"/>
						</g>
					</g>
				</g>
			</g>
		</g>
		<g>
			<g>
				<g>
					<g>
						<defs>
							<rect id="SVGID_73_" x="264" y="208.3" width="1115" height="378.3"/>
						</defs>
						<clipPath id="SVGID_74_">
							<use xlink:href="#SVGID_73_"  style="overflow:visible;"/>
						</clipPath>
						<g class="st42">
							<path class="st0" d="M856.5,528.6v-20.3h13.8v3.9h-9.2v4h8.1v3.7h-8.1v4.9h9.8v3.8L856.5,528.6L856.5,528.6z"/>
						</g>
					</g>
				</g>
			</g>
		</g>
		<g>
			<g>
				<g>
					<g>
						<defs>
							<rect id="SVGID_75_" x="264" y="208.3" width="1115" height="378.3"/>
						</defs>
						<clipPath id="SVGID_76_">
							<use xlink:href="#SVGID_75_"  style="overflow:visible;"/>
						</clipPath>
						<g class="st43">
							<path class="st0" d="M888.1,525c0.7,0,1.2,0,1.6-0.1s0.8-0.3,1.1-0.4c0.3-0.1,0.4-0.4,0.5-0.7s0.1-0.5,0.1-0.8
								c0-0.7-0.3-1.2-0.9-1.6s-1.7-0.9-3.2-1.5c-0.7-0.3-1.3-0.5-2-0.8s-1.3-0.7-1.7-1.2c-0.5-0.4-0.9-1.1-1.3-1.7
								c-0.4-0.7-0.5-1.5-0.5-2.4s0.1-1.7,0.5-2.5s0.8-1.5,1.5-1.9c0.7-0.5,1.5-0.9,2.4-1.2s2-0.4,3-0.4c1.3,0,2.5,0.1,3.6,0.4
								c1.1,0.3,1.9,0.7,2.5,0.9l-1.3,3.6c-0.5-0.3-1.2-0.5-1.9-0.8s-1.6-0.4-2.5-0.4c-1.1,0-1.9,0.1-2.4,0.4s-0.7,0.8-0.7,1.5
								c0,0.4,0.1,0.7,0.3,0.9c0.1,0.3,0.4,0.5,0.8,0.7c0.3,0.3,0.7,0.4,1.1,0.5s0.9,0.4,1.5,0.5c1.1,0.4,2,0.8,2.8,1.2
								s1.5,0.8,2,1.3s0.9,1.1,1.2,1.7c0.3,0.7,0.4,1.5,0.4,2.5c0,1.9-0.7,3.3-2,4.4c-1.3,1.1-3.3,1.6-6,1.6c-0.9,0-1.7,0-2.4-0.1
								c-0.7-0.1-1.3-0.3-1.9-0.4c-0.6-0.1-1.1-0.3-1.5-0.5c-0.4-0.1-0.8-0.4-1.1-0.5l1.3-3.6c0.7,0.4,1.3,0.7,2.3,0.9
								C885.8,524.9,886.8,525,888.1,525z"/>
						</g>
					</g>
				</g>
			</g>
		</g>
		<g>
			<g>
				<g>
					<g>
						<defs>
							<rect id="SVGID_77_" x="264" y="208.3" width="1115" height="378.3"/>
						</defs>
						<clipPath id="SVGID_78_">
							<use xlink:href="#SVGID_77_"  style="overflow:visible;"/>
						</clipPath>
						<g class="st44">
							<path class="st0" d="M913.9,528.6c-0.3-0.7-0.5-1.5-0.8-2.1c-0.3-0.7-0.5-1.5-0.8-2.3h-8c-0.3,0.8-0.5,1.5-0.8,2.3
								s-0.5,1.5-0.7,2.1H898c0.8-2.3,1.5-4.2,2.1-6.1c0.6-1.9,1.3-3.6,2-5.3s1.3-3.2,2-4.7s1.3-2.9,2-4.4h4.4
								c0.7,1.5,1.3,2.9,2,4.4s1.3,3,2,4.7c0.7,1.6,1.3,3.4,2,5.3c0.7,1.9,1.5,3.8,2.1,6.1H913.9z M908.3,512.8
								c-0.1,0.3-0.3,0.7-0.4,1.2s-0.4,1.1-0.7,1.7c-0.3,0.7-0.5,1.5-0.8,2.3s-0.7,1.6-0.9,2.5h5.8c-0.3-0.9-0.7-1.7-0.9-2.5
								c-0.3-0.8-0.5-1.6-0.8-2.3s-0.5-1.2-0.7-1.7C908.8,513.4,908.4,513.1,908.3,512.8z"/>
						</g>
					</g>
				</g>
			</g>
		</g>
		<g>
			<g>
				<g>
					<g>
						<defs>
							<rect id="SVGID_79_" x="264" y="208.3" width="1115" height="378.3"/>
						</defs>
						<clipPath id="SVGID_80_">
							<use xlink:href="#SVGID_79_"  style="overflow:visible;"/>
						</clipPath>
						<g class="st45">
							<path class="st0" d="M941.6,528.6c-0.4-0.7-0.9-1.3-1.5-2.1c-0.5-0.8-1.2-1.6-1.9-2.4c-0.7-0.8-1.3-1.6-2-2.3
								s-1.5-1.3-2.1-1.9v8.6h-4.7v-20.3h4.7v7.7c1.2-1.2,2.4-2.5,3.6-3.8s2.4-2.6,3.3-3.7h5.4c-1.3,1.6-2.8,3.2-4.2,4.8
								c-1.5,1.5-2.9,3-4.4,4.7c1.6,1.3,3.2,2.9,4.8,4.8c1.6,1.9,2.9,4,4.4,6.1h-5.4L941.6,528.6L941.6,528.6z"/>
						</g>
					</g>
				</g>
			</g>
		</g>
		<g>
			<g>
				<g>
					<g>
						<defs>
							<rect id="SVGID_81_" x="264" y="208.3" width="1115" height="378.3"/>
						</defs>
						<clipPath id="SVGID_82_">
							<use xlink:href="#SVGID_81_"  style="overflow:visible;"/>
						</clipPath>
						<g class="st46">
							<path class="st0" d="M964.7,528.8c-1.1,0-2.3,0-3.3-0.1s-2.3-0.3-3.5-0.5v-19.8c0.9-0.1,2-0.3,3-0.4c1-0.1,2.1-0.1,3-0.1
								c1.3,0,2.5,0.1,3.6,0.3c1.1,0.1,2,0.5,2.8,0.9s1.5,1.1,1.9,1.7c0.4,0.8,0.7,1.6,0.7,2.6c0,1.6-0.8,2.9-2.4,3.8
								c1.3,0.5,2.1,1.2,2.7,2c0.5,0.8,0.7,1.9,0.7,2.8c0,2.1-0.8,3.7-2.4,4.8C970,528.3,967.8,528.8,964.7,528.8z M962.3,516.2h2.3
								c1.5,0,2.4-0.1,3-0.5s0.9-0.9,0.9-1.7s-0.3-1.5-0.9-1.7c-0.7-0.4-1.6-0.5-2.8-0.5c-0.4,0-0.8,0-1.3,0s-0.8,0-1.2,0.1V516.2z
								 M962.3,519.7v5.3c0.4,0,0.7,0.1,1.1,0.1s0.8,0,1.3,0c1.3,0,2.5-0.1,3.3-0.5s1.3-1.1,1.3-2.1c0-0.9-0.4-1.6-1.1-2
								s-1.7-0.7-3-0.7L962.3,519.7L962.3,519.7L962.3,519.7z"/>
						</g>
					</g>
				</g>
			</g>
		</g>
		<g>
			<g>
				<g>
					<g>
						<defs>
							<rect id="SVGID_83_" x="264" y="208.3" width="1115" height="378.3"/>
						</defs>
						<clipPath id="SVGID_84_">
							<use xlink:href="#SVGID_83_"  style="overflow:visible;"/>
						</clipPath>
						<g class="st47">
							<path class="st0" d="M997.6,518.4c0,1.7-0.3,3.3-0.8,4.7c-0.5,1.3-1.2,2.4-2.1,3.3c-0.9,0.9-2,1.6-3.2,2s-2.5,0.7-4,0.7
								c-1.3,0-2.7-0.3-4-0.7s-2.3-1.1-3.2-2c-0.9-0.9-1.6-2-2.1-3.3s-0.8-2.9-0.8-4.7c0-1.7,0.3-3.3,0.8-4.7
								c0.5-1.3,1.3-2.4,2.3-3.3s2-1.6,3.2-2s2.5-0.7,3.8-0.7s2.7,0.3,4,0.7c1.2,0.4,2.3,1.1,3.2,2c0.9,0.9,1.6,2,2.1,3.3
								C997.4,515,997.6,516.6,997.6,518.4z M982,518.4c0,1.1,0.1,1.9,0.4,2.7s0.7,1.5,1.1,2.1c0.4,0.5,1.1,1.1,1.7,1.3
								c0.7,0.3,1.5,0.5,2.3,0.5s1.6-0.1,2.3-0.5c0.7-0.3,1.2-0.8,1.7-1.3c0.4-0.5,0.8-1.3,1.1-2.1s0.4-1.7,0.4-2.7
								c0-1.1-0.1-1.9-0.4-2.7s-0.7-1.5-1.1-2.1c-0.4-0.5-1.1-1.1-1.7-1.3c-0.7-0.3-1.5-0.5-2.3-0.5s-1.6,0.1-2.3,0.5
								c-0.7,0.3-1.2,0.8-1.7,1.3s-0.8,1.3-1.1,2.1C982.1,516.5,982,517.3,982,518.4z"/>
						</g>
					</g>
				</g>
			</g>
		</g>
		<g>
			<g>
				<g>
					<g>
						<defs>
							<rect id="SVGID_85_" x="264" y="208.3" width="1115" height="378.3"/>
						</defs>
						<clipPath id="SVGID_86_">
							<use xlink:href="#SVGID_85_"  style="overflow:visible;"/>
						</clipPath>
						<g class="st48">
							<path class="st0" d="M1013.2,521.7c0,1.1-0.1,2-0.4,2.8s-0.7,1.6-1.2,2.3s-1.3,1.2-2.3,1.6s-2.1,0.5-3.6,0.5
								c-1.3,0-2.5-0.1-3.5-0.5c-0.9-0.3-1.7-0.7-2.4-1.2l1.6-3.6c0.5,0.4,1.2,0.7,1.9,0.9c0.7,0.3,1.3,0.4,2.1,0.4
								c1.1,0,1.9-0.3,2.4-0.8s0.8-1.5,0.8-2.8V508h4.7L1013.2,521.7L1013.2,521.7L1013.2,521.7z"/>
						</g>
					</g>
				</g>
			</g>
		</g>
		<g>
			<g>
				<g>
					<g>
						<defs>
							<rect id="SVGID_87_" x="264" y="208.3" width="1115" height="378.3"/>
						</defs>
						<clipPath id="SVGID_88_">
							<use xlink:href="#SVGID_87_"  style="overflow:visible;"/>
						</clipPath>
						<g class="st49">
							<path class="st0" d="M1026.1,529c-1.5,0-2.7-0.3-3.7-0.7c-1.1-0.4-1.9-0.9-2.5-1.7c-0.7-0.7-1.2-1.6-1.5-2.5
								s-0.5-2.1-0.5-3.3v-12.6h4.7v12.3c0,0.8,0.1,1.5,0.3,2.1c0.1,0.5,0.4,1.1,0.8,1.5c0.3,0.4,0.7,0.7,1.2,0.8
								c0.4,0.1,0.9,0.3,1.5,0.3c1.1,0,2-0.4,2.7-1.1c0.7-0.7,1.1-1.9,1.1-3.4v-12.3h4.7V521c0,1.2-0.1,2.3-0.5,3.3
								c-0.4,1.1-0.8,1.9-1.6,2.5c-0.7,0.7-1.6,1.3-2.7,1.6C1028.7,528.6,1027.5,529,1026.1,529z"/>
						</g>
					</g>
				</g>
			</g>
		</g>
		<g>
			<g>
				<g>
					<g>
						<defs>
							<rect id="SVGID_89_" x="264" y="208.3" width="1115" height="378.3"/>
						</defs>
						<clipPath id="SVGID_90_">
							<use xlink:href="#SVGID_89_"  style="overflow:visible;"/>
						</clipPath>
						<g class="st50">
							<path class="st0" d="M742.7,544.2c-0.7,0.7-1.3,1.5-2.3,2.5c-0.8,1.1-1.7,2.1-2.7,3.3c-0.9,1.2-1.9,2.5-2.8,3.7
								c-0.9,1.3-1.7,2.5-2.4,3.7h10.3v3.8h-16.1v-2.8c0.5-1.1,1.2-2.1,2-3.3s1.6-2.5,2.5-3.7c0.8-1.2,1.7-2.4,2.7-3.6
								c0.9-1.2,1.7-2.3,2.5-3.2h-9.2v-3.8h15.3L742.7,544.2L742.7,544.2z"/>
						</g>
					</g>
				</g>
			</g>
		</g>
		<g>
			<g>
				<g>
					<g>
						<defs>
							<rect id="SVGID_91_" x="264" y="208.3" width="1115" height="378.3"/>
						</defs>
						<clipPath id="SVGID_92_">
							<use xlink:href="#SVGID_91_"  style="overflow:visible;"/>
						</clipPath>
						<g class="st51">
							<path class="st0" d="M760.4,561.4c-0.3-0.7-0.5-1.5-0.8-2.1c-0.3-0.8-0.5-1.5-0.8-2.3h-8c-0.3,0.8-0.5,1.5-0.8,2.3
								s-0.5,1.5-0.7,2.1h-4.8c0.8-2.3,1.5-4.2,2.1-6.1s1.3-3.6,2-5.3c0.7-1.6,1.3-3.2,2-4.7s1.3-2.9,2-4.4h4.4
								c0.7,1.5,1.3,2.9,2,4.4s1.3,3,2,4.7c0.7,1.6,1.3,3.4,2,5.3c0.7,1.9,1.5,3.8,2.1,6.1H760.4z M754.9,545.7
								c-0.1,0.3-0.3,0.7-0.4,1.2s-0.4,1.1-0.7,1.7c-0.3,0.7-0.5,1.5-0.8,2.3s-0.7,1.6-0.9,2.5h5.8c-0.3-0.9-0.7-1.7-0.9-2.5
								s-0.5-1.6-0.8-2.3s-0.5-1.2-0.7-1.7C755.4,546.4,755,546,754.9,545.7z"/>
						</g>
					</g>
				</g>
			</g>
		</g>
		<g>
			<g>
				<g>
					<g>
						<defs>
							<rect id="SVGID_93_" x="264" y="208.3" width="1115" height="378.3"/>
						</defs>
						<clipPath id="SVGID_94_">
							<use xlink:href="#SVGID_93_"  style="overflow:visible;"/>
						</clipPath>
						<g class="st52">
							<path class="st0" d="M781.7,557.9c0.7,0,1.2,0,1.6-0.1s0.8-0.3,1.1-0.4c0.3-0.1,0.4-0.4,0.5-0.7s0.1-0.5,0.1-0.8
								c0-0.7-0.3-1.2-0.9-1.6c-0.6-0.4-1.7-0.9-3.2-1.5c-0.7-0.3-1.3-0.5-2-0.8s-1.3-0.7-1.9-1.2c-0.5-0.4-0.9-1.1-1.3-1.7
								c-0.4-0.7-0.5-1.5-0.5-2.4s0.1-1.7,0.5-2.5s0.8-1.5,1.5-1.9c0.7-0.5,1.5-0.9,2.4-1.2s2-0.4,3-0.4c1.3,0,2.5,0.1,3.6,0.4
								c1.1,0.3,1.9,0.7,2.5,0.9l-1.3,3.6c-0.5-0.3-1.2-0.5-1.9-0.8s-1.6-0.4-2.5-0.4c-1.1,0-1.9,0.1-2.4,0.4s-0.7,0.8-0.7,1.5
								c0,0.4,0.1,0.7,0.3,0.9c0.1,0.3,0.4,0.5,0.8,0.7c0.3,0.3,0.7,0.4,1.1,0.5s0.9,0.4,1.5,0.5c1.1,0.4,2,0.8,2.8,1.2
								s1.5,0.8,2,1.3s0.9,1.1,1.2,1.7c0.3,0.7,0.4,1.5,0.4,2.5c0,1.9-0.7,3.3-2,4.4c-1.3,1.1-3.3,1.6-6,1.6c-0.9,0-1.7,0-2.4-0.1
								c-0.7-0.1-1.3-0.3-1.9-0.4c-0.5-0.1-1.1-0.3-1.5-0.5c-0.4-0.1-0.8-0.4-1.1-0.5l1.3-3.6c0.7,0.4,1.3,0.7,2.3,0.9
								C779.7,557.8,780.5,557.9,781.7,557.9z"/>
						</g>
					</g>
				</g>
			</g>
		</g>
		<g>
			<g>
				<g>
					<g>
						<defs>
							<rect id="SVGID_95_" x="264" y="208.3" width="1115" height="378.3"/>
						</defs>
						<clipPath id="SVGID_96_">
							<use xlink:href="#SVGID_95_"  style="overflow:visible;"/>
						</clipPath>
						<g class="st53">
							<path class="st0" d="M800,540.8c3,0,5.3,0.5,7,1.6c1.6,1.1,2.4,2.8,2.4,5.3c0,2.4-0.8,4.2-2.5,5.3c-1.6,1.1-4,1.6-7,1.6h-1.5
								v6.8h-4.7v-20c1.1-0.1,2-0.4,3.2-0.4C798.1,540.8,799.1,540.8,800,540.8z M800.3,544.6c-0.4,0-0.7,0-0.9,0
								c-0.2,0-0.7,0-0.8,0v5.8h1.5c1.6,0,2.8-0.3,3.6-0.7s1.2-1.2,1.2-2.4c0-0.5-0.1-1.1-0.3-1.5c-0.3-0.4-0.5-0.7-0.9-0.9
								c-0.4-0.3-0.8-0.4-1.5-0.5C801.5,544.8,800.9,544.6,800.3,544.6z"/>
						</g>
					</g>
				</g>
			</g>
		</g>
		<g>
			<g>
				<g>
					<g>
						<defs>
							<rect id="SVGID_97_" x="264" y="208.3" width="1115" height="378.3"/>
						</defs>
						<clipPath id="SVGID_98_">
							<use xlink:href="#SVGID_97_"  style="overflow:visible;"/>
						</clipPath>
						<g class="st54">
							<path class="st0" d="M819.2,540.8c3,0,5.4,0.5,7,1.6s2.4,2.8,2.4,5c0,1.5-0.3,2.7-0.9,3.4c-0.7,0.9-1.6,1.6-2.8,2.1
								c0.4,0.5,0.8,1.1,1.3,1.7c0.4,0.7,0.9,1.3,1.3,2s0.9,1.5,1.3,2.3s0.8,1.6,1.2,2.3h-5c-0.4-0.7-0.8-1.3-1.2-2
								c-0.4-0.7-0.8-1.3-1.2-2s-0.8-1.2-1.2-1.9c-0.4-0.5-0.8-1.1-1.2-1.6h-2.3v7.4h-4.7v-20c1.1-0.1,2-0.4,3-0.4
								C817.5,540.8,818.5,540.8,819.2,540.8z M819.5,544.6c-0.4,0-0.7,0-0.9,0s-0.5,0-0.8,0v5.6h1.3c1.7,0,2.9-0.3,3.7-0.7
								c0.8-0.4,1.1-1.2,1.1-2.3s-0.4-1.7-1.2-2.1C822.2,544.9,821,544.6,819.5,544.6z"/>
						</g>
					</g>
				</g>
			</g>
		</g>
		<g>
			<g>
				<g>
					<g>
						<defs>
							<rect id="SVGID_99_" x="264" y="208.3" width="1115" height="378.3"/>
						</defs>
						<clipPath id="SVGID_100_">
							<use xlink:href="#SVGID_99_"  style="overflow:visible;"/>
						</clipPath>
						<g class="st55">
							<path class="st0" d="M847.1,561.4c-0.3-0.7-0.5-1.5-0.8-2.1c-0.3-0.7-0.5-1.5-0.8-2.3h-8c-0.3,0.8-0.5,1.5-0.8,2.3
								s-0.5,1.5-0.7,2.1h-4.8c0.8-2.3,1.5-4.2,2.1-6.1c0.6-1.9,1.3-3.6,2-5.3c0.7-1.6,1.3-3.2,2-4.7s1.3-2.9,2-4.4h4.4
								c0.7,1.5,1.3,2.9,2,4.4s1.3,3,2,4.7c0.7,1.6,1.3,3.4,2,5.3c0.7,1.9,1.5,3.8,2.1,6.1H847.1z M841.7,545.7
								c-0.1,0.3-0.3,0.7-0.4,1.2s-0.4,1.1-0.7,1.7c-0.3,0.7-0.5,1.5-0.8,2.3s-0.7,1.6-0.9,2.5h5.8c-0.3-0.9-0.7-1.7-0.9-2.5
								s-0.5-1.6-0.8-2.3s-0.5-1.2-0.7-1.7C842.2,546.4,841.8,546,841.7,545.7z"/>
						</g>
					</g>
				</g>
			</g>
		</g>
		<g>
			<g>
				<g>
					<g>
						<defs>
							<rect id="SVGID_101_" x="264" y="208.3" width="1115" height="378.3"/>
						</defs>
						<clipPath id="SVGID_102_">
							<use xlink:href="#SVGID_101_"  style="overflow:visible;"/>
						</clipPath>
						<g class="st56">
							<path class="st0" d="M861.3,561.4c-0.8-1.7-1.6-3.4-2.4-5.3s-1.6-3.7-2.3-5.4s-1.3-3.6-2-5.2c-0.7-1.6-1.1-3.1-1.6-4.4h5
								c0.4,1.2,0.8,2.4,1.3,3.8c0.5,1.3,0.9,2.7,1.5,4.1c0.5,1.3,0.9,2.7,1.3,3.8c0.4,1.2,0.9,2.3,1.3,3.2c0.4-0.9,0.8-2,1.2-3.2
								s0.9-2.5,1.5-3.8s0.9-2.7,1.5-4.1c0.5-1.3,0.9-2.7,1.3-3.8h4.9c-0.4,1.3-0.9,2.8-1.6,4.4c-0.5,1.6-1.2,3.3-2,5.2
								c-0.7,1.9-1.5,3.6-2.3,5.4s-1.6,3.6-2.4,5.3H861.3z"/>
						</g>
					</g>
				</g>
			</g>
		</g>
		<g>
			<g>
				<g>
					<g>
						<defs>
							<rect id="SVGID_103_" x="264" y="208.3" width="1115" height="378.3"/>
						</defs>
						<clipPath id="SVGID_104_">
							<use xlink:href="#SVGID_103_"  style="overflow:visible;"/>
						</clipPath>
						<g class="st57">
							<path class="st0" d="M896.4,551.1c0,1.7-0.3,3.3-0.8,4.7c-0.5,1.3-1.2,2.4-2.1,3.3c-0.9,0.9-2,1.6-3.2,2s-2.5,0.7-4,0.7
								c-1.3,0-2.7-0.3-4-0.7s-2.3-1.1-3.2-2c-0.9-0.9-1.6-2-2.1-3.3s-0.8-2.9-0.8-4.7c0-1.7,0.3-3.3,0.8-4.7
								c0.5-1.3,1.3-2.4,2.3-3.3c0.9-0.9,2-1.6,3.2-2s2.5-0.7,3.8-0.7s2.7,0.3,4,0.7c1.2,0.4,2.3,1.1,3.2,2c0.9,0.9,1.6,2,2.1,3.3
								C896.1,547.8,896.4,549.4,896.4,551.1z M880.8,551.1c0,1.1,0.1,1.9,0.4,2.7s0.7,1.5,1.1,2.1c0.4,0.5,1.1,1.1,1.7,1.3
								c0.7,0.3,1.5,0.5,2.3,0.5s1.6-0.1,2.3-0.5c0.7-0.3,1.2-0.8,1.7-1.3c0.4-0.5,0.8-1.3,1.1-2.1c0.3-0.8,0.4-1.7,0.4-2.7
								c0-1.1-0.1-1.9-0.4-2.7s-0.7-1.5-1.1-2.1c-0.4-0.5-1.1-1.1-1.7-1.3c-0.7-0.3-1.5-0.5-2.3-0.5s-1.6,0.1-2.3,0.5
								c-0.7,0.3-1.2,0.8-1.7,1.3s-0.8,1.3-1.1,2.1C881,549.3,880.8,550.2,880.8,551.1z"/>
						</g>
					</g>
				</g>
			</g>
		</g>
		<g>
			<g>
				<g>
					<g>
						<defs>
							<rect id="SVGID_105_" x="264" y="208.3" width="1115" height="378.3"/>
						</defs>
						<clipPath id="SVGID_106_">
							<use xlink:href="#SVGID_105_"  style="overflow:visible;"/>
						</clipPath>
						<g class="st58">
							<path class="st0" d="M918.7,551.1c0,1.7-0.3,3.3-0.8,4.7c-0.5,1.3-1.3,2.4-2.4,3.3c-1.1,0.8-2.3,1.5-3.7,2
								c-1.5,0.4-3,0.7-4.9,0.7c-0.8,0-1.7,0-2.9-0.1c-1.1-0.1-2.1-0.3-3.2-0.4v-19.8c1.1-0.1,2.1-0.3,3.3-0.4
								c1.2-0.1,2.1-0.1,2.9-0.1c1.7,0,3.3,0.1,4.8,0.5s2.7,1.1,3.7,1.9c1.1,0.8,1.9,1.9,2.4,3.2
								C918.4,547.8,918.7,549.4,918.7,551.1z M905.4,557.7c0.3,0,0.4,0,0.8,0c0.3,0,0.7,0,1.1,0c2.3,0,4-0.5,5-1.7s1.6-2.8,1.6-4.8
								c0-2.1-0.5-3.7-1.6-4.9c-1.1-1.1-2.8-1.6-5-1.6c-0.3,0-0.7,0-0.9,0c-0.4,0-0.7,0-0.9,0.1L905.4,557.7L905.4,557.7z"/>
						</g>
					</g>
				</g>
			</g>
		</g>
		<g>
			<g>
				<g>
					<g>
						<defs>
							<rect id="SVGID_107_" x="264" y="208.3" width="1115" height="378.3"/>
						</defs>
						<clipPath id="SVGID_108_">
							<use xlink:href="#SVGID_107_"  style="overflow:visible;"/>
						</clipPath>
						<g class="st59">
							<path class="st0" d="M936.6,557.5v4H923v-20.3h4.7v16.5h8.9V557.5L936.6,557.5z"/>
						</g>
					</g>
				</g>
			</g>
		</g>
		<g>
			<g>
				<g>
					<g>
						<defs>
							<rect id="SVGID_109_" x="264" y="208.3" width="1115" height="378.3"/>
						</defs>
						<clipPath id="SVGID_110_">
							<use xlink:href="#SVGID_109_"  style="overflow:visible;"/>
						</clipPath>
						<g class="st60">
							<path class="st0" d="M940.2,541.1h4.7v20.3h-4.7V541.1L940.2,541.1z"/>
						</g>
					</g>
				</g>
			</g>
		</g>
		<g>
			<g>
				<g>
					<g>
						<defs>
							<rect id="SVGID_111_" x="264" y="208.3" width="1115" height="378.3"/>
						</defs>
						<clipPath id="SVGID_112_">
							<use xlink:href="#SVGID_111_"  style="overflow:visible;"/>
						</clipPath>
						<g class="st61">
							<path class="st0" d="M956.1,561.4c-0.8-1.7-1.6-3.4-2.4-5.3s-1.6-3.7-2.3-5.4c-0.7-1.7-1.3-3.6-2-5.2
								c-0.7-1.6-1.1-3.1-1.6-4.4h5c0.4,1.2,0.8,2.4,1.3,3.8c0.5,1.3,0.9,2.7,1.5,4.1c0.5,1.3,0.9,2.7,1.3,3.8s0.9,2.3,1.3,3.2
								c0.4-0.9,0.8-2,1.2-3.2c0.4-1.2,0.9-2.5,1.5-3.8c0.5-1.3,0.9-2.7,1.5-4.1c0.5-1.3,0.9-2.7,1.3-3.8h4.9
								c-0.4,1.3-0.9,2.8-1.6,4.4c-0.5,1.6-1.2,3.3-2,5.2c-0.7,1.9-1.5,3.6-2.3,5.4c-0.8,1.8-1.6,3.6-2.4,5.3H956.1z"/>
						</g>
					</g>
				</g>
			</g>
		</g>
		<g>
			<g>
				<g>
					<g>
						<defs>
							<rect id="SVGID_113_" x="264" y="208.3" width="1115" height="378.3"/>
						</defs>
						<clipPath id="SVGID_114_">
							<use xlink:href="#SVGID_113_"  style="overflow:visible;"/>
						</clipPath>
						<g class="st62">
							<path class="st0" d="M991.1,551.1c0,1.7-0.3,3.3-0.8,4.7c-0.5,1.3-1.2,2.4-2.1,3.3c-0.9,0.9-2,1.6-3.2,2s-2.5,0.7-4,0.7
								c-1.3,0-2.7-0.3-4-0.7s-2.3-1.1-3.2-2c-0.9-0.9-1.6-2-2.1-3.3s-0.8-2.9-0.8-4.7c0-1.7,0.3-3.3,0.8-4.7
								c0.5-1.3,1.3-2.4,2.3-3.3c0.9-0.9,2-1.6,3.2-2s2.5-0.7,3.8-0.7s2.7,0.3,4,0.7c1.2,0.4,2.3,1.1,3.2,2c0.9,0.9,1.6,2,2.1,3.3
								C990.9,547.8,991.1,549.4,991.1,551.1z M975.6,551.1c0,1.1,0.1,1.9,0.4,2.7s0.7,1.5,1.1,2.1c0.4,0.5,1.1,1.1,1.7,1.3
								s1.5,0.5,2.3,0.5s1.6-0.1,2.3-0.5c0.7-0.3,1.2-0.8,1.7-1.3c0.4-0.5,0.8-1.3,1.1-2.1s0.4-1.7,0.4-2.7c0-1.1-0.1-1.9-0.4-2.7
								s-0.7-1.5-1.1-2.1c-0.4-0.5-1.1-1.1-1.7-1.3c-0.7-0.3-1.5-0.5-2.3-0.5s-1.6,0.1-2.3,0.5c-0.7,0.3-1.2,0.8-1.7,1.3
								s-0.8,1.3-1.1,2.1C975.7,549.3,975.6,550.2,975.6,551.1z"/>
						</g>
					</g>
				</g>
			</g>
		</g>
		<g>
			<g>
				<g>
					<g>
						<defs>
							<rect id="SVGID_115_" x="264" y="208.3" width="1115" height="378.3"/>
						</defs>
						<clipPath id="SVGID_116_">
							<use xlink:href="#SVGID_115_"  style="overflow:visible;"/>
						</clipPath>
						<g class="st63">
							<path class="st0" d="M1001.1,557.9c0.7,0,1.2,0,1.6-0.1s0.8-0.3,1.1-0.4c0.3-0.1,0.4-0.4,0.5-0.7s0.1-0.5,0.1-0.8
								c0-0.7-0.3-1.2-0.9-1.6s-1.7-0.9-3.2-1.5c-0.7-0.3-1.3-0.5-2-0.8s-1.3-0.7-1.7-1.2c-0.5-0.4-0.9-1.1-1.3-1.7
								c-0.4-0.7-0.5-1.5-0.5-2.4s0.1-1.7,0.5-2.5s0.8-1.5,1.5-1.9c0.7-0.5,1.5-0.9,2.4-1.2s2-0.4,3-0.4c1.3,0,2.5,0.1,3.6,0.4
								c1.1,0.3,1.9,0.7,2.5,0.9l-1.3,3.6c-0.5-0.3-1.2-0.5-1.9-0.8s-1.6-0.4-2.5-0.4c-1.1,0-1.9,0.1-2.4,0.4s-0.7,0.8-0.7,1.5
								c0,0.4,0.1,0.7,0.3,0.9c0.1,0.3,0.4,0.5,0.8,0.7c0.3,0.3,0.7,0.4,1.1,0.5s0.9,0.4,1.5,0.5c1.1,0.4,2,0.8,2.8,1.2
								s1.5,0.8,2,1.3s0.9,1.1,1.2,1.7c0.3,0.7,0.4,1.5,0.4,2.5c0,1.9-0.7,3.3-2,4.4c-1.3,1.1-3.3,1.6-6,1.6c-0.9,0-1.7,0-2.4-0.1
								c-0.7-0.1-1.3-0.3-1.9-0.4c-0.5-0.1-1.1-0.3-1.5-0.5c-0.4-0.1-0.8-0.4-1.1-0.5l1.3-3.6c0.7,0.4,1.3,0.7,2.3,0.9
								C998.7,557.8,999.9,557.9,1001.1,557.9z"/>
						</g>
					</g>
				</g>
			</g>
		</g>
		<g>
			<g>
				<g>
					<g>
						<defs>
							<rect id="SVGID_117_" x="264" y="208.3" width="1115" height="378.3"/>
						</defs>
						<clipPath id="SVGID_118_">
							<use xlink:href="#SVGID_117_"  style="overflow:visible;"/>
						</clipPath>
						<g class="st64">
							<path class="st0" d="M1028.3,541.1v3.8h-6.1v16.5h-4.7v-16.5h-6.1v-3.8H1028.3L1028.3,541.1z M1015.3,535.5l1.6-2l2.9,2.3
								l2.9-2.3l1.7,2l-4.7,4L1015.3,535.5z"/>
						</g>
					</g>
				</g>
			</g>
		</g>
	</g>
	<rect x="276.5" y="208.9" class="st65" width="1115" height="378.3"/>
	<g>
		<g>
			<g>
				<g>
					<defs>
						<rect id="SVGID_119_" x="281" y="207.9" width="1115" height="378.3"/>
					</defs>
					<clipPath id="SVGID_120_">
						<use xlink:href="#SVGID_119_"  style="overflow:visible;"/>
					</clipPath>
					<path class="st66" d="M1228.4,551.6c0.3,0.3,0.7,0.4,1.1,0.7c0.4,0.1,0.8,0.3,1.1,0.3c0.7,0,1.1-0.1,1.5-0.5s0.5-0.8,0.5-1.3
						s-0.1-0.9-0.5-1.2c-0.3-0.3-0.8-0.5-1.6-0.8c-0.5-0.3-0.9-0.4-1.2-0.5s-0.7-0.4-0.9-0.7c-0.3-0.3-0.5-0.7-0.7-1.1
						s-0.3-0.9-0.3-1.5s0.1-1.1,0.3-1.5c0.1-0.4,0.5-0.8,0.8-1.2c0.4-0.4,0.8-0.7,1.3-0.8s1.1-0.3,1.7-0.3c0.5,0,1.2,0.1,1.7,0.3
						c0.5,0.1,1.2,0.4,1.7,0.8l-0.9,1.7l-0.1-0.1c-0.4-0.3-0.8-0.4-1.2-0.5c-0.3-0.1-0.7-0.1-1.1-0.1c-0.5,0-1.1,0.1-1.5,0.4
						s-0.5,0.7-0.5,1.3c0,0.5,0.1,0.9,0.5,1.2s0.9,0.5,1.6,0.9c0.5,0.3,0.9,0.4,1.2,0.7c0.3,0.1,0.7,0.4,0.9,0.7
						c0.3,0.3,0.5,0.7,0.7,1.1s0.3,0.9,0.3,1.5s-0.1,1.1-0.3,1.5c-0.1,0.5-0.5,0.9-0.8,1.2c-0.4,0.4-0.8,0.7-1.3,0.8
						s-1.1,0.3-1.6,0.3c-1.2,0-2.3-0.3-3.3-0.9L1228.4,551.6z"/>
				</g>
			</g>
		</g>
	</g>
	<g>
		<g>
			<g>
				<g>
					<defs>
						<rect id="SVGID_121_" x="281" y="207.9" width="1115" height="378.3"/>
					</defs>
					<clipPath id="SVGID_122_">
						<use xlink:href="#SVGID_121_"  style="overflow:visible;"/>
					</clipPath>
					<path class="st67" d="M1237.4,541.4h2.3l-0.1,10.8h4.9v2h-7.2L1237.4,541.4z"/>
				</g>
			</g>
		</g>
	</g>
	<g>
		<g>
			<g>
				<g>
					<defs>
						<rect id="SVGID_123_" x="281" y="207.9" width="1115" height="378.3"/>
					</defs>
					<clipPath id="SVGID_124_">
						<use xlink:href="#SVGID_123_"  style="overflow:visible;"/>
					</clipPath>
					<path class="st68" d="M1246,545.1c0.4-0.8,0.8-1.5,1.5-2.1c0.7-0.7,1.3-1.1,2.1-1.5s1.7-0.5,2.5-0.5c0.9,0,1.9,0.1,2.7,0.5
						s1.5,0.8,2.1,1.5c0.5,0.7,1.1,1.3,1.3,2.1c0.3,0.8,0.5,1.7,0.5,2.7c0,0.9-0.1,1.7-0.5,2.7c-0.3,0.8-0.8,1.5-1.5,2.1
						c-0.7,0.7-1.3,1.1-2.1,1.5c-0.8,0.4-1.7,0.5-2.7,0.5s-1.9-0.1-2.7-0.5c-0.8-0.3-1.5-0.8-2.1-1.3s-1.1-1.3-1.5-2.1
						s-0.5-1.7-0.5-2.7C1245.5,546.9,1245.8,545.9,1246,545.1z M1248.3,549.7c0.3,0.5,0.5,1.1,0.8,1.5c0.4,0.4,0.8,0.8,1.3,0.9
						c0.5,0.3,1.1,0.4,1.7,0.4s1.2-0.1,1.7-0.4c0.5-0.3,0.9-0.5,1.3-1.1c0.4-0.4,0.7-0.9,0.9-1.5s0.3-1.2,0.3-1.9s-0.1-1.3-0.3-1.9
						c-0.3-0.5-0.5-1.1-0.9-1.5s-0.8-0.8-1.3-0.9c-0.5-0.3-1.1-0.4-1.7-0.4c-0.5,0-1.1,0.1-1.6,0.3c-0.5,0.3-0.9,0.5-1.3,0.9
						s-0.8,0.9-0.9,1.5c-0.3,0.5-0.4,1.2-0.4,2C1248,548.4,1248,549.1,1248.3,549.7z"/>
				</g>
			</g>
		</g>
	</g>
	<g>
		<g>
			<g>
				<g>
					<defs>
						<rect id="SVGID_125_" x="281" y="207.9" width="1115" height="378.3"/>
					</defs>
					<clipPath id="SVGID_126_">
						<use xlink:href="#SVGID_125_"  style="overflow:visible;"/>
					</clipPath>
					<path class="st69" d="M1259.3,541.9l2.3-0.8l3.2,10.1l0,0l3.6-10.1l2.3,0.8l-4.8,12.3h-2.1L1259.3,541.9z"/>
				</g>
			</g>
		</g>
	</g>
	<g>
		<g>
			<g>
				<g>
					<defs>
						<rect id="SVGID_127_" x="281" y="207.9" width="1115" height="378.3"/>
					</defs>
					<clipPath id="SVGID_128_">
						<use xlink:href="#SVGID_127_"  style="overflow:visible;"/>
					</clipPath>
					<path class="st70" d="M1272.4,541.4h6.6v2h-4.4v3.3h4.2v1.9h-4.4v3.5h4.4v2h-6.8L1272.4,541.4z"/>
				</g>
			</g>
		</g>
	</g>
	<g>
		<g>
			<g>
				<g>
					<defs>
						<rect id="SVGID_129_" x="281" y="207.9" width="1115" height="378.3"/>
					</defs>
					<clipPath id="SVGID_130_">
						<use xlink:href="#SVGID_129_"  style="overflow:visible;"/>
					</clipPath>
					<path class="st71" d="M1281.3,541.8l2.1-0.7l5.8,9.8l0,0l-0.1-9.6h2.3l-0.1,12.3l-2.3,0.7l-5.7-9.7l0,0l0.1,9.4h-2.3
						L1281.3,541.8z"/>
				</g>
			</g>
		</g>
	</g>
	<g>
		<g>
			<g>
				<g>
					<defs>
						<rect id="SVGID_131_" x="281" y="207.9" width="1115" height="378.3"/>
					</defs>
					<clipPath id="SVGID_132_">
						<use xlink:href="#SVGID_131_"  style="overflow:visible;"/>
					</clipPath>
					<path class="st72" d="M1294.5,551.6c0.3,0.3,0.7,0.4,1.1,0.7c0.4,0.1,0.8,0.3,1.1,0.3c0.7,0,1.1-0.1,1.5-0.5s0.5-0.8,0.5-1.3
						s-0.1-0.9-0.5-1.2c-0.3-0.3-0.8-0.5-1.6-0.8c-0.5-0.3-0.9-0.4-1.2-0.5s-0.7-0.4-0.9-0.7c-0.3-0.3-0.5-0.7-0.7-1.1
						s-0.3-0.9-0.3-1.5s0.1-1.1,0.3-1.5c0.1-0.4,0.5-0.8,0.8-1.2c0.4-0.4,0.8-0.7,1.3-0.8s1.1-0.3,1.7-0.3c0.5,0,1.2,0.1,1.7,0.3
						c0.5,0.1,1.2,0.4,1.7,0.8l-0.9,1.7l-0.1-0.1c-0.4-0.3-0.8-0.4-1.2-0.5c-0.3-0.1-0.7-0.1-1.1-0.1c-0.5,0-1.1,0.1-1.5,0.4
						s-0.5,0.7-0.5,1.3c0,0.5,0.1,0.9,0.5,1.2s0.9,0.5,1.6,0.9c0.5,0.3,0.9,0.4,1.2,0.7c0.3,0.1,0.7,0.4,0.9,0.7
						c0.3,0.3,0.5,0.7,0.7,1.1s0.3,0.9,0.3,1.5s-0.1,1.1-0.3,1.5c-0.1,0.5-0.5,0.9-0.8,1.2c-0.4,0.4-0.8,0.7-1.3,0.8
						s-1.1,0.3-1.6,0.3c-1.2,0-2.3-0.3-3.3-0.9L1294.5,551.6z"/>
				</g>
			</g>
		</g>
	</g>
	<g>
		<g>
			<g>
				<g>
					<defs>
						<rect id="SVGID_133_" x="281" y="207.9" width="1115" height="378.3"/>
					</defs>
					<clipPath id="SVGID_134_">
						<use xlink:href="#SVGID_133_"  style="overflow:visible;"/>
					</clipPath>
					<path class="st73" d="M1303.2,541.4h2.3v6h0.1l5-6.2l1.7,1.5l-4.4,5l4.4,5.4l-1.9,1.3l-4.9-6.4l0,0v6.1h-2.3L1303.2,541.4z"/>
				</g>
			</g>
		</g>
	</g>
	<g>
		<g>
			<g>
				<g>
					<defs>
						<rect id="SVGID_135_" x="281" y="207.9" width="1115" height="378.3"/>
					</defs>
					<clipPath id="SVGID_136_">
						<use xlink:href="#SVGID_135_"  style="overflow:visible;"/>
					</clipPath>
					<path class="st74" d="M1312.8,545.1c0.4-0.8,0.8-1.5,1.5-2.1c0.7-0.7,1.3-1.1,2.1-1.5s1.7-0.5,2.5-0.5c0.9,0,1.9,0.1,2.7,0.5
						s1.5,0.8,2.1,1.5c0.5,0.7,1.1,1.3,1.3,2.1c0.3,0.8,0.5,1.7,0.5,2.7c0,0.9-0.1,1.7-0.5,2.7c-0.4,0.8-0.8,1.5-1.5,2.1
						c-0.7,0.7-1.3,1.1-2.1,1.5c-0.8,0.4-1.7,0.5-2.7,0.5s-1.9-0.1-2.7-0.5c-0.8-0.3-1.5-0.8-2.1-1.3s-1.1-1.3-1.5-2.1
						s-0.5-1.7-0.5-2.7C1312.3,546.9,1312.5,545.9,1312.8,545.1z M1315,549.7c0.3,0.5,0.5,1.1,0.9,1.5s0.8,0.8,1.3,0.9
						c0.5,0.3,1.1,0.4,1.7,0.4s1.2-0.1,1.7-0.4c0.5-0.3,0.9-0.5,1.3-1.1c0.4-0.4,0.7-0.9,0.9-1.5s0.3-1.2,0.3-1.9s-0.1-1.3-0.3-1.9
						c-0.3-0.5-0.5-1.1-0.8-1.5c-0.4-0.4-0.8-0.8-1.3-0.9c-0.5-0.3-1.1-0.4-1.7-0.4c-0.5,0-1.1,0.1-1.6,0.3s-0.9,0.5-1.3,0.9
						s-0.8,0.9-0.9,1.5c-0.3,0.5-0.4,1.2-0.4,2C1314.6,548.4,1314.8,549.1,1315,549.7z"/>
				</g>
			</g>
		</g>
	</g>
	<g>
		<g>
			<g>
				<g>
					<defs>
						<rect id="SVGID_137_" x="281" y="207.9" width="1115" height="378.3"/>
					</defs>
					<clipPath id="SVGID_138_">
						<use xlink:href="#SVGID_137_"  style="overflow:visible;"/>
					</clipPath>
					<path class="st75" d="M1229.7,510.2h-3.6v-2h9.2v2h-3.4l-0.1,10.7h-2.3L1229.7,510.2z"/>
				</g>
			</g>
		</g>
	</g>
	<g>
		<g>
			<g>
				<g>
					<defs>
						<rect id="SVGID_139_" x="281" y="207.9" width="1115" height="378.3"/>
					</defs>
					<clipPath id="SVGID_140_">
						<use xlink:href="#SVGID_139_"  style="overflow:visible;"/>
					</clipPath>
					<path class="st76" d="M1237.9,508.2h4c0.8,0,1.3,0.1,1.9,0.3c0.5,0.1,0.9,0.4,1.3,0.8s0.5,0.7,0.8,1.2c0.1,0.4,0.3,0.9,0.3,1.5
						c0,0.8-0.3,1.5-0.7,2.1c-0.4,0.5-1.1,1.1-1.7,1.3l3.6,4.8l-2,1.2l-3.4-4.9c-0.3-0.3-0.5-0.4-0.8-0.4h-0.7v5.2h-2.4
						L1237.9,508.2z M1241.6,513.9c0.3,0,0.4,0,0.7-0.1c0.3,0,0.4-0.1,0.7-0.3c0.3-0.1,0.4-0.4,0.5-0.7s0.3-0.5,0.3-0.9
						c0-0.5-0.1-1.1-0.5-1.3s-0.9-0.5-1.5-0.5h-1.3v3.8H1241.6L1241.6,513.9z"/>
				</g>
			</g>
		</g>
	</g>
	<g>
		<g>
			<g>
				<g>
					<defs>
						<rect id="SVGID_141_" x="281" y="207.9" width="1115" height="378.3"/>
					</defs>
					<clipPath id="SVGID_142_">
						<use xlink:href="#SVGID_141_"  style="overflow:visible;"/>
					</clipPath>
					<path class="st77" d="M1250.5,521.2l-2.1-0.7l4.8-12.3h2.1l4.4,12.3l-2.3,0.7l-1.2-3.7h-4.4L1250.5,521.2z M1254.1,510.8
						L1254.1,510.8l-1.6,5h3.1L1254.1,510.8z"/>
				</g>
			</g>
		</g>
	</g>
	<g>
		<g>
			<g>
				<g>
					<defs>
						<rect id="SVGID_143_" x="281" y="207.9" width="1115" height="378.3"/>
					</defs>
					<clipPath id="SVGID_144_">
						<use xlink:href="#SVGID_143_"  style="overflow:visible;"/>
					</clipPath>
					<path class="st78" d="M1261.8,508.6l2.1-0.7l5.8,9.8l0,0l-0.1-9.6h2.3l-0.1,12.3l-2.3,0.7l-5.7-9.7l0,0l0.1,9.4h-2.3
						L1261.8,508.6z"/>
				</g>
			</g>
		</g>
	</g>
	<g>
		<g>
			<g>
				<g>
					<defs>
						<rect id="SVGID_145_" x="281" y="207.9" width="1115" height="378.3"/>
					</defs>
					<clipPath id="SVGID_146_">
						<use xlink:href="#SVGID_145_"  style="overflow:visible;"/>
					</clipPath>
					<path class="st79" d="M1275.5,518.5c0.3,0.3,0.7,0.4,1.1,0.7c0.4,0.1,0.8,0.3,1.1,0.3c0.7,0,1.1-0.1,1.5-0.5s0.5-0.8,0.5-1.3
						s-0.1-0.9-0.5-1.2c-0.3-0.3-0.8-0.5-1.6-0.8c-0.5-0.3-0.9-0.4-1.2-0.5s-0.7-0.4-0.9-0.7c-0.3-0.3-0.5-0.7-0.7-1.1
						s-0.3-0.9-0.3-1.5s0.1-1.1,0.3-1.5c0.1-0.4,0.5-0.8,0.8-1.2c0.4-0.4,0.8-0.7,1.3-0.8s1.1-0.3,1.7-0.3c0.5,0,1.2,0.1,1.7,0.3
						c0.5,0.1,1.2,0.4,1.7,0.8l-0.9,1.7l-0.1-0.1c-0.4-0.3-0.8-0.4-1.2-0.5c-0.3-0.1-0.7-0.1-1.1-0.1c-0.5,0-1.1,0.1-1.5,0.4
						c-0.4,0.3-0.5,0.7-0.5,1.3c0,0.5,0.1,0.9,0.5,1.2s0.9,0.5,1.6,0.9c0.4,0.3,0.9,0.4,1.2,0.7c0.3,0.1,0.7,0.4,0.9,0.7
						c0.3,0.3,0.5,0.7,0.7,1.1s0.3,0.9,0.3,1.5s-0.1,1.1-0.3,1.5c-0.3,0.5-0.5,0.9-0.8,1.2c-0.4,0.4-0.8,0.7-1.3,0.8
						s-1.1,0.3-1.6,0.3c-1.2,0-2.3-0.3-3.3-0.9L1275.5,518.5z"/>
				</g>
			</g>
		</g>
	</g>
	<g>
		<g>
			<g>
				<g>
					<defs>
						<rect id="SVGID_147_" x="281" y="207.9" width="1115" height="378.3"/>
					</defs>
					<clipPath id="SVGID_148_">
						<use xlink:href="#SVGID_147_"  style="overflow:visible;"/>
					</clipPath>
					<path class="st80" d="M1285,508.2h3.4c1.6,0,2.7,0.4,3.4,1.1c0.7,0.7,1.1,1.6,1.1,2.9c0,0.7-0.1,1.2-0.4,1.7s-0.5,0.9-0.9,1.2
						s-0.9,0.5-1.5,0.7c-0.5,0.1-1.1,0.3-1.7,0.3h-1.3v5h-2.4L1285,508.2z M1288.5,514.1c0.7,0,1.2-0.1,1.6-0.5s0.7-0.8,0.7-1.5
						c0-0.3,0-0.4-0.1-0.7c0-0.3-0.1-0.4-0.4-0.7c-0.1-0.1-0.4-0.4-0.7-0.5c-0.3-0.1-0.7-0.1-1.1-0.1h-1.2v4H1288.5L1288.5,514.1z"
						/>
				</g>
			</g>
		</g>
	</g>
	<g>
		<g>
			<g>
				<g>
					<defs>
						<rect id="SVGID_149_" x="281" y="207.9" width="1115" height="378.3"/>
					</defs>
					<clipPath id="SVGID_150_">
						<use xlink:href="#SVGID_149_"  style="overflow:visible;"/>
					</clipPath>
					<path class="st81" d="M1295.3,521.2l-2.1-0.7l4.8-12.3h2.1l4.4,12.3l-2.3,0.7l-1.2-3.7h-4.4L1295.3,521.2z M1299,510.8
						L1299,510.8l-1.6,5h3.1L1299,510.8z"/>
				</g>
			</g>
		</g>
	</g>
	<g>
		<g>
			<g>
				<g>
					<defs>
						<rect id="SVGID_151_" x="281" y="207.9" width="1115" height="378.3"/>
					</defs>
					<clipPath id="SVGID_152_">
						<use xlink:href="#SVGID_151_"  style="overflow:visible;"/>
					</clipPath>
					<path class="st82" d="M1307.2,508.2h4c0.8,0,1.3,0.1,1.9,0.3c0.5,0.1,0.9,0.4,1.3,0.8s0.5,0.7,0.8,1.2c0.1,0.4,0.3,0.9,0.3,1.5
						c0,0.8-0.3,1.5-0.7,2.1c-0.4,0.5-1.1,1.1-1.7,1.3l3.6,4.8l-2,1.2l-3.4-4.9c-0.3-0.3-0.5-0.4-0.8-0.4h-0.7v5.2h-2.7
						L1307.2,508.2z M1310.9,513.9c0.3,0,0.4,0,0.7-0.1c0.3,0,0.4-0.1,0.7-0.3c0.3-0.1,0.4-0.4,0.5-0.7s0.3-0.5,0.3-0.9
						c0-0.5-0.3-1.1-0.5-1.3c-0.4-0.3-0.9-0.5-1.5-0.5h-1.3v3.8H1310.9L1310.9,513.9z"/>
				</g>
			</g>
		</g>
	</g>
	<g>
		<g>
			<g>
				<g>
					<defs>
						<rect id="SVGID_153_" x="281" y="207.9" width="1115" height="378.3"/>
					</defs>
					<clipPath id="SVGID_154_">
						<use xlink:href="#SVGID_153_"  style="overflow:visible;"/>
					</clipPath>
					<path class="st83" d="M1319.4,508.2h6.6v2h-4.4v3.3h4.2v1.9h-4.2v3.4h4.4v2h-6.8L1319.4,508.2z"/>
				</g>
			</g>
		</g>
	</g>
	<g>
		<g>
			<g>
				<g>
					<defs>
						<rect id="SVGID_155_" x="281" y="207.9" width="1115" height="378.3"/>
					</defs>
					<clipPath id="SVGID_156_">
						<use xlink:href="#SVGID_155_"  style="overflow:visible;"/>
					</clipPath>
					<path class="st84" d="M1329.1,508.6l2.1-0.7l5.8,9.8l0,0l-0.1-9.6h2.3l-0.1,12.3l-2.3,0.7l-5.7-9.7l0,0l0.1,9.4h-2.3
						L1329.1,508.6z"/>
				</g>
			</g>
		</g>
	</g>
	<g>
		<g>
			<g>
				<g>
					<defs>
						<rect id="SVGID_157_" x="281" y="207.9" width="1115" height="378.3"/>
					</defs>
					<clipPath id="SVGID_158_">
						<use xlink:href="#SVGID_157_"  style="overflow:visible;"/>
					</clipPath>
					<path class="st85" d="M1352.5,520.1c-0.5,0.4-1.2,0.7-1.9,0.9c-0.7,0.3-1.3,0.3-2.1,0.3c-0.9,0-1.7-0.1-2.5-0.5
						c-0.8-0.3-1.5-0.8-2.1-1.3c-0.5-0.5-1.1-1.3-1.3-2.1c-0.3-0.8-0.5-1.7-0.5-2.7c0-0.9,0.1-1.9,0.5-2.7c0.3-0.8,0.8-1.6,1.3-2.1
						s1.2-1.1,2-1.3s1.6-0.5,2.5-0.5c0.8,0,1.5,0.1,2.1,0.4s1.3,0.7,1.9,1.1l-1.1,1.6c-0.4-0.4-0.8-0.5-1.3-0.8
						c-0.5-0.1-1.1-0.3-1.6-0.3c-0.7,0-1.2,0.1-1.6,0.4c-0.5,0.3-0.9,0.5-1.3,0.9s-0.7,0.9-0.8,1.5c-0.1,0.5-0.3,1.2-0.3,1.9
						s0.1,1.2,0.3,1.7c0.1,0.5,0.5,1.1,0.8,1.5c0.4,0.4,0.8,0.8,1.3,1.1s1.1,0.4,1.6,0.4c0.7,0,1.3-0.1,1.7-0.3
						c0.4-0.1,0.9-0.4,1.3-0.7L1352.5,520.1z"/>
				</g>
			</g>
		</g>
	</g>
	<g>
		<g>
			<g>
				<g>
					<defs>
						<rect id="SVGID_159_" x="281" y="207.9" width="1115" height="378.3"/>
					</defs>
					<clipPath id="SVGID_160_">
						<use xlink:href="#SVGID_159_"  style="overflow:visible;"/>
					</clipPath>
					<path class="st86" d="M1357.9,515.7l-4.1-6.5l2.1-1.2l3.2,5.4l3.3-5.4l2,1.2l-4.2,6.5l-0.1,5.4h-2.4L1357.9,515.7z"/>
				</g>
			</g>
		</g>
	</g>
	<g>
		<g>
			<g>
				<g>
					<defs>
						<rect id="SVGID_161_" x="281" y="207.9" width="1115" height="378.3"/>
					</defs>
					<clipPath id="SVGID_162_">
						<use xlink:href="#SVGID_161_"  style="overflow:visible;"/>
					</clipPath>
					<path class="st87" d="M1229.3,524.6h2.3l-0.1,12.7h-2.3L1229.3,524.6z"/>
				</g>
			</g>
		</g>
	</g>
	<g>
		<g>
			<g>
				<g>
					<defs>
						<rect id="SVGID_163_" x="281" y="207.9" width="1115" height="378.3"/>
					</defs>
					<clipPath id="SVGID_164_">
						<use xlink:href="#SVGID_163_"  style="overflow:visible;"/>
					</clipPath>
					<path class="st88" d="M1234.3,525l2.1-0.7l5.8,9.8l0,0l-0.1-9.6h2.3l-0.1,12.3l-2.3,0.7l-5.7-9.7l0,0l0.1,9.4h-2.3L1234.3,525z
						"/>
				</g>
			</g>
		</g>
	</g>
	<g>
		<g>
			<g>
				<g>
					<defs>
						<rect id="SVGID_165_" x="281" y="207.9" width="1115" height="378.3"/>
					</defs>
					<clipPath id="SVGID_166_">
						<use xlink:href="#SVGID_165_"  style="overflow:visible;"/>
					</clipPath>
					<path class="st89" d="M1249.7,526.6h-3.4v-2h9.2v2h-3.4l-0.1,10.8h-2.3L1249.7,526.6z"/>
				</g>
			</g>
		</g>
	</g>
	<g>
		<g>
			<g>
				<g>
					<defs>
						<rect id="SVGID_167_" x="281" y="207.9" width="1115" height="378.3"/>
					</defs>
					<clipPath id="SVGID_168_">
						<use xlink:href="#SVGID_167_"  style="overflow:visible;"/>
					</clipPath>
					<path class="st90" d="M1257.3,524.6h6.6v2h-4.4v3.3h4.2v1.9h-4.4v3.5h4.4v2h-6.8L1257.3,524.6z"/>
				</g>
			</g>
		</g>
	</g>
	<g>
		<g>
			<g>
				<g>
					<defs>
						<rect id="SVGID_169_" x="281" y="207.9" width="1115" height="378.3"/>
					</defs>
					<clipPath id="SVGID_170_">
						<use xlink:href="#SVGID_169_"  style="overflow:visible;"/>
					</clipPath>
					<path class="st91" d="M1267,524.6h4c0.8,0,1.3,0.1,1.9,0.3s0.9,0.4,1.3,0.8c0.4,0.4,0.5,0.7,0.8,1.2c0.1,0.4,0.3,0.9,0.3,1.5
						c0,0.8-0.3,1.5-0.7,2.1c-0.4,0.5-1.1,1.1-1.7,1.3l3.6,4.8l-2,1.2l-3.4-4.9c-0.3-0.3-0.5-0.4-0.8-0.4h-0.7v5.2h-2.4L1267,524.6z
						 M1270.7,530.3c0.3,0,0.4,0,0.7-0.1c0.3,0,0.4-0.1,0.7-0.3s0.4-0.4,0.5-0.7s0.3-0.5,0.3-0.9c0-0.5-0.3-1.1-0.5-1.3
						c-0.4-0.3-0.9-0.5-1.5-0.5h-1.3v3.8H1270.7L1270.7,530.3z"/>
				</g>
			</g>
		</g>
	</g>
	<g>
		<g>
			<g>
				<g>
					<defs>
						<rect id="SVGID_171_" x="281" y="207.9" width="1115" height="378.3"/>
					</defs>
					<clipPath id="SVGID_172_">
						<use xlink:href="#SVGID_171_"  style="overflow:visible;"/>
					</clipPath>
					<path class="st92" d="M1278.5,525l2.1-0.7l5.8,9.8l0,0l-0.1-9.6h2.3l-0.1,12.3l-2.3,0.7l-5.7-9.7l0,0l0.1,9.4h-2.3L1278.5,525z
						"/>
				</g>
			</g>
		</g>
	</g>
	<g>
		<g>
			<g>
				<g>
					<defs>
						<rect id="SVGID_173_" x="281" y="207.9" width="1115" height="378.3"/>
					</defs>
					<clipPath id="SVGID_174_">
						<use xlink:href="#SVGID_173_"  style="overflow:visible;"/>
					</clipPath>
					<path class="st93" d="M1292.5,537.6l-2.1-0.7l4.8-12.3h2.1l4.4,12.3l-2.3,0.7l-1.2-3.7h-4.4L1292.5,537.6z M1296.1,527.1
						L1296.1,527.1l-1.6,5h3.1L1296.1,527.1z"/>
				</g>
			</g>
		</g>
	</g>
	<g>
		<g>
			<g>
				<g>
					<defs>
						<rect id="SVGID_175_" x="281" y="207.9" width="1115" height="378.3"/>
					</defs>
					<clipPath id="SVGID_176_">
						<use xlink:href="#SVGID_175_"  style="overflow:visible;"/>
					</clipPath>
					<path class="st94" d="M1304.7,526.6h-3.4v-2h9.2v2h-3.4l-0.1,10.8h-2.3L1304.7,526.6z"/>
				</g>
			</g>
		</g>
	</g>
	<g>
		<g>
			<g>
				<g>
					<defs>
						<rect id="SVGID_177_" x="281" y="207.9" width="1115" height="378.3"/>
					</defs>
					<clipPath id="SVGID_178_">
						<use xlink:href="#SVGID_177_"  style="overflow:visible;"/>
					</clipPath>
					<path class="st95" d="M1312.3,524.6h2.3l-0.1,12.7h-2.3L1312.3,524.6z"/>
				</g>
			</g>
		</g>
	</g>
	<g>
		<g>
			<g>
				<g>
					<defs>
						<rect id="SVGID_179_" x="281" y="207.9" width="1115" height="378.3"/>
					</defs>
					<clipPath id="SVGID_180_">
						<use xlink:href="#SVGID_179_"  style="overflow:visible;"/>
					</clipPath>
					<path class="st96" d="M1317.2,528.4c0.4-0.8,0.8-1.5,1.5-2.1c0.7-0.7,1.3-1.1,2.1-1.5c0.8-0.4,1.7-0.5,2.5-0.5
						c0.9,0,1.9,0.1,2.7,0.5c0.8,0.4,1.5,0.8,2.1,1.5c0.5,0.7,1.1,1.3,1.3,2.1c0.3,0.8,0.5,1.7,0.5,2.7c0,0.9-0.1,1.7-0.5,2.7
						c-0.4,0.8-0.8,1.5-1.5,2.1c-0.7,0.7-1.3,1.1-2.1,1.5c-0.8,0.4-1.7,0.5-2.7,0.5s-1.9-0.1-2.7-0.5c-0.8-0.3-1.5-0.8-2.1-1.3
						s-1.1-1.3-1.5-2.1c-0.3-0.8-0.5-1.7-0.5-2.7C1316.6,530,1316.8,529.2,1317.2,528.4z M1319.3,532.9c0.3,0.5,0.5,1.1,0.9,1.5
						s0.8,0.8,1.3,0.9c0.5,0.3,1.1,0.4,1.7,0.4c0.7,0,1.2-0.1,1.7-0.4c0.5-0.3,0.9-0.5,1.3-1.1c0.4-0.4,0.7-0.9,0.9-1.5
						s0.3-1.2,0.3-1.9s-0.1-1.3-0.3-1.9c-0.3-0.5-0.5-1.1-0.8-1.5s-0.8-0.8-1.3-0.9c-0.5-0.3-1.1-0.4-1.7-0.4
						c-0.5,0-1.1,0.1-1.6,0.3c-0.5,0.3-0.9,0.5-1.3,0.9s-0.8,0.9-0.9,1.5c-0.3,0.5-0.4,1.2-0.4,2
						C1319,531.6,1319.2,532.3,1319.3,532.9z"/>
				</g>
			</g>
		</g>
	</g>
	<g>
		<g>
			<g>
				<g>
					<defs>
						<rect id="SVGID_181_" x="281" y="207.9" width="1115" height="378.3"/>
					</defs>
					<clipPath id="SVGID_182_">
						<use xlink:href="#SVGID_181_"  style="overflow:visible;"/>
					</clipPath>
					<path class="st97" d="M1332.2,525l2.1-0.7l5.8,9.8l0,0l-0.1-9.6h2.3l-0.1,12.3l-2.3,0.7l-5.7-9.7l0,0l0.1,9.4h-2.3L1332.2,525z
						"/>
				</g>
			</g>
		</g>
	</g>
	<g>
		<g>
			<g>
				<g>
					<defs>
						<rect id="SVGID_183_" x="281" y="207.9" width="1115" height="378.3"/>
					</defs>
					<clipPath id="SVGID_184_">
						<use xlink:href="#SVGID_183_"  style="overflow:visible;"/>
					</clipPath>
					<path class="st98" d="M1346.2,537.6l-2.1-0.7l4.8-12.3h2.1l4.4,12.3l-2.3,0.7l-1.2-3.7h-4.4L1346.2,537.6z M1349.8,527.1
						L1349.8,527.1l-1.6,5h3.1L1349.8,527.1z"/>
				</g>
			</g>
		</g>
	</g>
	<g>
		<g>
			<g>
				<g>
					<defs>
						<rect id="SVGID_185_" x="281" y="207.9" width="1115" height="378.3"/>
					</defs>
					<clipPath id="SVGID_186_">
						<use xlink:href="#SVGID_185_"  style="overflow:visible;"/>
					</clipPath>
					<path class="st99" d="M1357.2,524.6h2.3l-0.1,10.8h4.9v2h-7.2L1357.2,524.6z"/>
				</g>
			</g>
		</g>
	</g>
	<g>
		<g>
			<g>
				<g>
					<defs>
						<rect id="SVGID_187_" x="281" y="207.9" width="1115" height="378.3"/>
					</defs>
					<clipPath id="SVGID_188_">
						<use xlink:href="#SVGID_187_"  style="overflow:visible;"/>
					</clipPath>
					<path class="st100" d="M1188.4,521.9c0,2.1,1.7,3.8,3.8,3.8s3.8-1.7,3.8-3.8s-1.7-3.8-3.8-3.8S1188.4,519.8,1188.4,521.9z"/>
				</g>
			</g>
		</g>
	</g>
	<g>
		<g>
			<g>
				<g>
					<defs>
						<rect id="SVGID_189_" x="281" y="207.9" width="1115" height="378.3"/>
					</defs>
					<clipPath id="SVGID_190_">
						<use xlink:href="#SVGID_189_"  style="overflow:visible;"/>
					</clipPath>
					<path class="st101" d="M1172.9,530.5c0-0.7,0-1.3,0.1-2c0.7,1.1,1.9,2.1,3.3,3.2c-0.1,3.3,0.1,8.8,0.9,12.1
						C1174.5,540.1,1172.9,535.4,1172.9,530.5 M1198.1,536.6c6-0.9,10.2-3.7,12.6-6c0.9-0.9,2.8-4,2.8-5.2c0.3,1.5,0.4,3.2,0.4,4.9
						c0,10.3-6.5,18.6-15.8,20.8c-0.4,0-0.8,0-1.3-0.1c-0.4-0.1-0.8-0.7-0.9-0.8c-1.9-2.5-2.5-5.8-2.7-6.5c-0.3-1.2-0.3-3.5-0.1-5.2
						c0,0-7-1.3-7-0.9c-0.1,1.3,0,3.8,0.4,5c0.4,1.5,1.1,3.8,1.6,5.3c0.5,1.3,1.5,2.8,2.4,3.7c-0.5,0-1.1-0.1-1.6-0.3
						c-0.9-0.4-2.1-2.1-2.4-2.7c-0.8-1.2-1.5-3.7-1.9-5.2c-0.4-1.7-0.8-5.6-0.7-7.3c0-0.3,0.1-0.7,0.1-1.1c2.8,0.8,7.7,1.5,11.3,1.5
						C1196.5,536.9,1197.3,536.8,1198.1,536.6 M1174.9,521.2c2.5-5.7,7.4-10,13.4-11.5c-1.1,0.7-2.3,1.6-2.8,2.1
						c-1.9,1.9-4.7,5.6-5.7,7.8c-0.4,0.8-0.9,2-1.3,3.2C1176.7,522.2,1175.5,521.5,1174.9,521.2 M1170.8,531.2
						c0,12.9,10.1,23.2,22.6,23.2s22.7-10.3,22.7-23.2c0-7.3-1.9-14.5-7.3-17.8c-0.3-0.1-1.3-0.7-1.3-0.4c-0.1,0.5,3.4,2.7,3.4,5.6
						c0,1.3-1.2,5.7-8.5,8.1c-1.7,0.5-5.8,0.9-7.7,0.9c-2.3,0-6.5-0.7-8.6-1.5c-0.1,0-0.1,0-0.3-0.1c0.7-6,3.7-11.7,6-13.1
						c3.4-2.5,6.1-3,7-3c0.8,0,1.7,0.1,2.8,0.4c0.4,0.1,1.5,0.5,1.7,0.4c0.4-0.4-1.3-1.2-1.9-1.5c-1.6-0.7-4.7-1.3-7.8-1.3
						C1180.8,508,1170.8,518.3,1170.8,531.2"/>
				</g>
			</g>
		</g>
	</g>
</g>
</svg>
