<?xml version="1.0" encoding="utf-8"?>
<!-- Generator: Adobe Illustrator 19.0.0, SVG Export Plug-In . SVG Version: 6.00 Build 0)  -->
<svg version="1.1" id="Layer_1" xmlns="http://www.w3.org/2000/svg" xmlns:xlink="http://www.w3.org/1999/xlink" x="0px" y="0px"
	 viewBox="0 0 656.64 218.88" style="enable-background:new 0 0 656.64 218.88;" xml:space="preserve">
<style type="text/css">
	.st0{fill:#1b325f;}
	.st1{fill:#f16c4f;}
	.st2{fill-rule:evenodd;clip-rule:evenodd;fill:#00aeef;}
	.st3{fill:#00aeef;}
	.st4{fill-rule:evenodd;clip-rule:evenodd;fill:#fff;}
	.st5{fill:#fff;}
	.st6{fill-rule:evenodd;clip-rule:evenodd;fill:#00aeef;}
</style>
<rect x="0" y="0" class="st5" width="656.64" height="218.88"/>
<polygon class="st0" points="121.99,48.61 121.99,55.25 111.54,55.25 111.54,83.23 103.75,83.23 103.75,55.25 93.31,55.25
	93.31,48.61 "/>
<path class="st0" d="M137.12,48.21c5.2,0,9.17,0.92,11.94,2.77c2.76,1.85,4.15,4.72,4.15,8.62c0,2.43-0.56,4.4-1.67,5.92
	c-1.12,1.52-2.72,2.71-4.82,3.57c0.7,0.87,1.43,1.86,2.2,2.97c0.77,1.12,1.52,2.28,2.27,3.5c0.75,1.22,1.47,2.48,2.17,3.8
	c0.7,1.32,1.35,2.61,1.95,3.87h-8.71c-0.64-1.13-1.28-2.28-1.93-3.45c-0.65-1.16-1.32-2.3-2.01-3.4c-0.69-1.1-1.36-2.14-2.03-3.12
	c-0.67-0.98-1.34-1.87-2.01-2.67h-3.85v12.64h-7.79V49.11c1.7-0.33,3.45-0.57,5.27-0.7C134.07,48.28,135.69,48.21,137.12,48.21
	 M137.57,54.85c-0.57,0-1.07,0.02-1.52,0.05c-0.45,0.03-0.87,0.07-1.27,0.1v9.39h2.2c2.93,0,5.03-0.37,6.3-1.1
	c1.26-0.73,1.9-1.98,1.9-3.75c0-1.7-0.64-2.91-1.92-3.62C141.96,55.21,140.07,54.85,137.57,54.85z"/>
<path class="st0" d="M185.07,83.23c-0.38-1.2-0.8-2.44-1.24-3.71c-0.44-1.27-0.89-2.53-1.32-3.79h-13.52
	c-0.44,1.26-0.88,2.53-1.31,3.8c-0.44,1.27-0.85,2.5-1.23,3.7h-8.09c1.3-3.73,2.54-7.18,3.71-10.34c1.17-3.16,2.31-6.14,3.43-8.94
	c1.12-2.8,2.22-5.45,3.31-7.97c1.09-2.51,2.21-4.97,3.38-7.37h7.39c1.14,2.4,2.26,4.85,3.36,7.37c1.1,2.52,2.22,5.17,3.34,7.97
	c1.12,2.8,2.27,5.78,3.44,8.94c1.17,3.17,2.41,6.61,3.71,10.34H185.07z M175.71,56.45c-0.17,0.5-0.43,1.19-0.76,2.05
	c-0.33,0.86-0.72,1.87-1.14,3c-0.43,1.13-0.91,2.38-1.44,3.75c-0.53,1.36-1.07,2.79-1.61,4.29h9.9c-0.53-1.5-1.04-2.94-1.54-4.3
	c-0.5-1.37-0.97-2.62-1.41-3.75c-0.45-1.13-0.84-2.13-1.18-3C176.19,57.62,175.92,56.94,175.71,56.45z"/>
<path class="st0" d="M221.1,83.23c-2.23-3.96-4.65-7.88-7.24-11.74c-2.6-3.86-5.36-7.51-8.29-10.94v22.68h-7.69V48.61h6.34
	c1.1,1.1,2.31,2.45,3.65,4.05c1.33,1.6,2.69,3.31,4.07,5.12c1.38,1.81,2.75,3.7,4.12,5.65c1.36,1.95,2.65,3.82,3.85,5.62V48.61h7.74
	v34.62H221.1z"/>
<path class="st0" d="M245.07,77.28c1.1,0,2.01-0.09,2.72-0.28c0.72-0.18,1.29-0.43,1.72-0.75c0.43-0.32,0.73-0.69,0.9-1.12
	c0.17-0.43,0.25-0.92,0.25-1.45c0-1.13-0.53-2.07-1.6-2.82c-1.07-0.75-2.9-1.56-5.49-2.42c-1.13-0.4-2.27-0.86-3.4-1.37
	c-1.13-0.52-2.15-1.16-3.05-1.95c-0.9-0.78-1.63-1.73-2.2-2.85c-0.57-1.12-0.85-2.48-0.85-4.07c0-1.6,0.3-3.04,0.9-4.32
	c0.6-1.28,1.45-2.37,2.55-3.27c1.1-0.9,2.43-1.59,4-2.07c1.57-0.48,3.33-0.72,5.3-0.72c2.33,0,4.35,0.25,6.04,0.75
	c1.7,0.5,3.1,1.05,4.2,1.65l-2.25,6.14c-0.97-0.5-2.04-0.94-3.22-1.32c-1.18-0.38-2.61-0.58-4.27-0.58c-1.87,0-3.2,0.26-4.02,0.77
	c-0.82,0.52-1.22,1.31-1.22,2.37c0,0.63,0.15,1.17,0.45,1.6c0.3,0.43,0.73,0.82,1.27,1.17c0.55,0.35,1.18,0.67,1.9,0.95
	c0.72,0.28,1.51,0.57,2.37,0.87c1.8,0.67,3.36,1.32,4.7,1.97c1.33,0.65,2.44,1.41,3.32,2.27c0.88,0.87,1.54,1.88,1.97,3.05
	c0.43,1.16,0.65,2.58,0.65,4.25c0,3.23-1.13,5.74-3.4,7.52c-2.27,1.78-5.68,2.67-10.24,2.67c-1.53,0-2.91-0.09-4.15-0.28
	c-1.23-0.18-2.32-0.41-3.27-0.67c-0.95-0.27-1.77-0.55-2.45-0.85c-0.68-0.3-1.26-0.58-1.72-0.85l2.2-6.19
	c1.03,0.57,2.31,1.07,3.82,1.52C241.02,77.06,242.88,77.28,245.07,77.28"/>
<path class="st0" d="M275.1,48.21c5.16,0,9.12,0.91,11.89,2.72c2.76,1.82,4.15,4.79,4.15,8.92c0,4.16-1.4,7.17-4.2,9.02
	c-2.8,1.85-6.79,2.77-11.99,2.77h-2.45v11.59h-7.79V49.11c1.7-0.33,3.5-0.57,5.4-0.7C272,48.28,273.67,48.21,275.1,48.21
	 M275.6,54.85c-0.57,0-1.12,0.02-1.67,0.05c-0.55,0.03-1.02,0.07-1.42,0.1v9.99h2.45c2.7,0,4.73-0.37,6.1-1.1
	c1.37-0.73,2.05-2.1,2.05-4.1c0-0.97-0.17-1.76-0.52-2.4c-0.35-0.63-0.85-1.14-1.5-1.52c-0.65-0.38-1.44-0.65-2.37-0.8
	C277.76,54.93,276.73,54.85,275.6,54.85z"/>
<path class="st0" d="M316.71,83.23c-0.38-1.2-0.8-2.44-1.24-3.71c-0.44-1.27-0.89-2.53-1.33-3.79h-13.52
	c-0.44,1.26-0.88,2.53-1.31,3.8c-0.44,1.27-0.85,2.5-1.23,3.7h-8.09c1.3-3.73,2.54-7.18,3.71-10.34c1.17-3.16,2.31-6.14,3.43-8.94
	c1.12-2.8,2.22-5.45,3.31-7.97c1.08-2.51,2.21-4.97,3.38-7.37h7.39c1.14,2.4,2.26,4.85,3.36,7.37c1.1,2.52,2.22,5.17,3.34,7.97
	c1.12,2.8,2.27,5.78,3.44,8.94c1.17,3.17,2.41,6.61,3.71,10.34H316.71z M307.34,56.45c-0.17,0.5-0.43,1.19-0.76,2.05
	c-0.33,0.86-0.72,1.87-1.14,3c-0.43,1.13-0.91,2.38-1.44,3.75c-0.53,1.36-1.07,2.79-1.61,4.29h9.9c-0.53-1.5-1.04-2.94-1.54-4.3
	c-0.5-1.37-0.97-2.62-1.41-3.75c-0.45-1.13-0.84-2.13-1.18-3C307.82,57.62,307.55,56.94,307.34,56.45z"/>
<path class="st0" d="M339.64,48.21c5.2,0,9.17,0.92,11.94,2.77c2.76,1.85,4.15,4.72,4.15,8.62c0,2.43-0.56,4.4-1.67,5.92
	c-1.12,1.52-2.72,2.71-4.82,3.57c0.7,0.87,1.43,1.86,2.2,2.97c0.76,1.12,1.52,2.28,2.27,3.5c0.75,1.22,1.47,2.48,2.18,3.8
	c0.7,1.32,1.35,2.61,1.95,3.87h-8.71c-0.64-1.13-1.28-2.28-1.93-3.45c-0.65-1.16-1.32-2.3-2-3.4c-0.69-1.1-1.36-2.14-2.03-3.12
	c-0.67-0.98-1.34-1.87-2.01-2.67h-3.85v12.64h-7.79V49.11c1.7-0.33,3.45-0.57,5.27-0.7C336.58,48.28,338.21,48.21,339.64,48.21
	 M340.09,54.85c-0.57,0-1.07,0.02-1.52,0.05c-0.45,0.03-0.87,0.07-1.27,0.1v9.39h2.2c2.93,0,5.03-0.37,6.29-1.1
	c1.26-0.73,1.9-1.98,1.9-3.75c0-1.7-0.64-2.91-1.93-3.62C344.48,55.21,342.59,54.85,340.09,54.85z"/>
<polygon class="st0" points="362.82,83.23 362.82,48.61 386.2,48.61 386.2,55.15 370.61,55.15 370.61,61.94 384.45,61.94
	384.45,68.34 370.61,68.34 370.61,76.68 387.35,76.68 387.35,83.23 "/>
<path class="st0" d="M416.32,83.23c-2.23-3.96-4.65-7.88-7.24-11.74c-2.6-3.86-5.36-7.51-8.29-10.94v22.68h-7.69V48.61h6.34
	c1.1,1.1,2.31,2.45,3.65,4.05c1.33,1.6,2.69,3.31,4.07,5.12c1.38,1.81,2.75,3.7,4.12,5.65c1.36,1.95,2.65,3.82,3.85,5.62V48.61h7.74
	v34.62H416.32z"/>
<path class="st0" d="M446.64,83.93c-5.63,0-9.92-1.57-12.86-4.7c-2.95-3.13-4.42-7.58-4.42-13.34c0-2.87,0.45-5.42,1.35-7.67
	c0.9-2.25,2.13-4.15,3.7-5.7c1.56-1.55,3.43-2.72,5.59-3.52c2.17-0.8,4.51-1.2,7.04-1.2c1.47,0,2.8,0.11,4,0.33
	c1.2,0.22,2.25,0.47,3.15,0.75c0.9,0.28,1.65,0.58,2.25,0.87c0.6,0.3,1.03,0.53,1.3,0.7l-2.25,6.3c-1.07-0.57-2.31-1.05-3.72-1.45
	c-1.42-0.4-3.02-0.6-4.82-0.6c-1.2,0-2.37,0.2-3.52,0.6c-1.15,0.4-2.17,1.04-3.05,1.92c-0.88,0.88-1.59,2.02-2.12,3.42
	c-0.53,1.4-0.8,3.1-0.8,5.09c0,1.6,0.18,3.09,0.52,4.47c0.35,1.38,0.92,2.57,1.7,3.57c0.78,1,1.81,1.79,3.07,2.37
	c1.27,0.58,2.8,0.87,4.6,0.87c1.13,0,2.15-0.07,3.05-0.2c0.9-0.13,1.7-0.29,2.4-0.47c0.7-0.18,1.32-0.39,1.85-0.62
	c0.53-0.23,1.02-0.45,1.45-0.65l2.15,6.24c-1.1,0.67-2.65,1.27-4.64,1.8C451.59,83.66,449.27,83.93,446.64,83.93"/>
<path class="st0" d="M477.1,62.81c1.4-2.36,2.74-4.72,4-7.07c1.27-2.36,2.43-4.73,3.5-7.13h8.59c-1.9,3.73-3.86,7.34-5.9,10.84
	c-2.03,3.5-4.18,7.01-6.44,10.54v13.24h-7.79V70.09c-2.26-3.53-4.42-7.06-6.47-10.59c-2.05-3.53-4.02-7.16-5.92-10.89h9.04
	c1.06,2.39,2.21,4.77,3.44,7.13C474.39,58.09,475.71,60.45,477.1,62.81"/>
<path class="st1" d="M369.28,110.09c-2.87,8.49-10.42,16.63-14.11,16.71c-2.39,0.06-4.75-1.48-5.3-5.22
	c-2.12,4.26-4.93,5.46-6.92,5.51c-10.12,0.24-8.99-24.19,3.06-24.47c2.9-0.07,5.49,1.12,6.9,3.36c2.35-3.98,6.43-4.82,8.58-0.32
	c-1.79,3.91-5.23,12.35-3.38,13.33c2.02,1.09,5.87-4.29,8.59-9.59C367.76,108.3,369.82,108.77,369.28,110.09 M350.45,114.57
	c-0.17-0.11-0.52-0.44-0.75-0.66c1.93-2.43,1.91-5.96-0.77-5.9c-5.17,0.12-7.05,11.99-3.24,12.3
	C347.57,120.44,349.23,118.35,350.45,114.57z"/>
<path class="st1" d="M396.11,109.46c-2.72,7.57-9.45,16.6-14.56,16.72c-4.04,0.09-7.17-5.12-8.82-10.09
	c-0.51,2.46-1.33,6.4-1.38,9.02c-0.44,0.52-1.73,1.35-3.32,1.39c-4.55,0.11-4.1-4.96-3.65-7.65c0.56-2.97,3.79-17.72,1.58-22.22
	c1.72-1.92,4.57-3.86,6.67-3.91c3.3-0.08,4.44,2.46,4.11,5.31c-0.27,3.13-1.83,9.03-3.18,14.63c3.85-0.77,7.92-6.44,7.86-9.23
	c1.17-1.22,2.63-1.88,3.99-1.91c1.82-0.04,3.1,1.12,2.87,3.63c-0.32,3.53-5.51,7.47-9.12,8.92c0.9,1.86,2.67,4.54,6.02,4.46
	c2.5-0.06,5.7-4.51,8.36-9.75C394.65,107.67,396.65,108.08,396.11,109.46"/>
<path class="st1" d="M424.25,108.79c-2.87,8.49-10.42,16.62-14.11,16.71c-2.39,0.06-4.75-1.48-5.3-5.22
	c-2.12,4.26-4.93,5.46-6.92,5.51c-10.12,0.24-8.99-24.18,3.06-24.47c2.9-0.07,5.49,1.12,6.91,3.36c2.35-3.98,6.43-4.82,8.58-0.32
	c-1.79,3.91-5.23,12.35-3.38,13.33c2.02,1.09,5.87-4.29,8.59-9.59C422.73,107.01,424.78,107.47,424.25,108.79 M405.42,113.28
	c-0.17-0.11-0.52-0.44-0.76-0.66c1.93-2.43,1.91-5.96-0.76-5.9c-5.17,0.12-7.05,11.99-3.24,12.3
	C402.54,119.15,404.2,117.06,405.42,113.28z"/>
<path class="st1" d="M452.39,108.13c-2.99,8.2-10.07,16.62-14.11,16.71c-2.16,0.05-4.68-0.86-5.13-5.34
	c-2.12,4.14-5.16,5.58-7.09,5.63c-10.12,0.24-8.99-24.19,3.07-24.47c2.5-0.06,4.8,0.85,6.26,2.53c0.43-3.31,0.48-6.38-0.42-8.18
	c2.33-2.56,5.08-3.88,6.9-3.92c2.73-0.01,4.65,1.88,4.11,5.31c-0.73,5.14-7.1,19.62-4.75,20.64c2.01,0.86,5.82-4.12,8.59-9.59
	C450.81,106.35,452.92,106.64,452.39,108.13 M433.55,112.61c-0.17-0.11-0.52-0.44-0.75-0.66c1.93-2.43,1.91-5.96-0.76-5.9
	c-5.17,0.12-7.05,11.99-3.24,12.3C430.68,118.48,432.34,116.4,433.55,112.61z"/>
<path class="st1" d="M459.87,99.88c4.6-0.11,6.89,2.97,6.97,6.38c0.15,6.25-6.12,10.72-12.15,8.14c0.12,2.5,1.48,4.8,5,4.72
	c3.64-0.09,9.84-4.84,13.13-12.48c1.52-0.77,2.79,0.28,2.31,1.6c-3.24,9.74-11.28,16.25-18.95,16.43
	C440.96,125.01,446.51,100.2,459.87,99.88 M455.07,111.03c6.28,1.1,7.34-7.11,5.18-7.06C458.66,104,456.1,106.28,455.07,111.03z
	 M461.89,86.53c3.24-2.41,5.62-0.3,5.07,2.55c-0.86,4.46-6.37,7.43-10.19,6.78c-1.31-0.2-1.84-0.86-1.57-1.61
	C462.24,91.69,461.59,88.13,461.89,86.53z"/>
<path class="st1" d="M515.76,106.64c-3.22,8.27-9.51,16.6-15.36,16.74c-4.04,0.1-4.92-3.58-4.1-7.35c0.66-3.32,3.11-7.87,1.49-9.48
	c-1.11-1.11-3.75,0.26-4.87,1.08c-0.77,3.37-2.67,12.23-2.61,14.68c-0.27,0.58-1.56,1.35-3.32,1.39c-3.81,0.09-4.74-3.13-3.86-6.9
	c0.83-3.32,3.04-8.49,1.47-9.82c-1.28-1.16-3.97,0.38-4.75,1.02c-1.03,4.57-2.61,12.34-2.56,14.62c-0.5,0.58-1.79,1.35-3.32,1.39
	c-4.61,0.11-4.16-5.02-3.65-7.65c0.55-2.97,2.78-9.85,1.49-11.52c4.18-5.96,9.95-7.34,9.05-2.15l-0.2,0.91
	c2.33-2.44,4.39-4.25,7.4-4.33c3.3-0.08,5.06,2.33,5.33,4.03c1.66-1.92,4.56-4.26,7.63-4.33c4.55-0.11,7.03,3.82,5.7,7.66
	c-1.17,3.44-3.04,8.43-2.12,8.92c1.96,0.98,5.87-4.18,8.59-9.59C514.53,104.74,516.3,105.32,515.76,106.64"/>
<path class="st1" d="M529.92,106.31c-3.22,8.26-9.62,16.6-14.56,16.72c-4.66,0.11-5.25-5.68-4.23-10.65
	c1.02-5.03,1.3-7.48,0.84-9.97c1.39-1.34,3.64-2.47,5.8-2.53c2.78-0.07,4.19,1.49,3.58,4.58c-0.97,4.57-3.92,9.99-2.59,10.75
	c1.85,1.04,5.87-4.23,8.59-9.59C528.74,104.35,530.46,104.99,529.92,106.31 M520.57,95.55c-5.47,1.83-8.16-3.45-5.85-6.92
	C522.86,84.3,525.87,93.72,520.57,95.55z"/>
<path class="st1" d="M558.06,105.65c-2.87,8.48-10.42,16.62-14.11,16.71c-2.39,0.06-4.76-1.48-5.3-5.22
	c-2.12,4.26-4.93,5.46-6.92,5.51c-10.12,0.24-8.99-24.19,3.06-24.47c2.9-0.07,5.49,1.12,6.9,3.36c2.35-3.98,6.43-4.82,8.58-0.32
	c-1.78,3.91-5.23,12.35-3.38,13.33c2.01,1.09,5.87-4.29,8.59-9.59C556.54,103.86,558.59,104.33,558.06,105.65 M539.22,110.13
	c-0.17-0.11-0.52-0.44-0.75-0.66c1.93-2.43,1.91-5.96-0.76-5.9c-5.17,0.12-7.05,11.99-3.24,12.3
	C536.35,116,538.01,113.91,539.22,110.13z"/>
<rect y="150.5" class="st2" width="656.64" height="68.38"/>
<path class="st2" d="M149.81,103.8c40.45,0,73.24,32.79,73.24,73.24c0,15.56-4.86,29.98-13.13,41.84H89.7
	c-8.27-11.86-13.13-26.29-13.13-41.84C76.57,136.59,109.36,103.8,149.81,103.8"/>
<path class="st3" d="M149.81,103.55c20.29,0,38.66,8.23,51.96,21.52c13.3,13.3,21.52,31.67,21.52,51.96
	c0,15.55-4.83,29.97-13.07,41.84h-0.61c8.31-11.85,13.18-26.28,13.18-41.84c0-20.15-8.17-38.4-21.38-51.61
	c-13.21-13.21-31.45-21.38-51.61-21.38c-20.15,0-38.4,8.17-51.61,21.38c-13.21,13.21-21.38,31.45-21.38,51.61
	c0,15.57,4.88,30,13.18,41.84h-0.61c-8.24-11.87-13.07-26.3-13.07-41.84c0-20.29,8.23-38.66,21.52-51.96
	C111.14,111.77,129.51,103.55,149.81,103.55"/>
<path class="st4" d="M149.81,110.46c36.77,0,66.57,29.81,66.57,66.57c0,15.85-5.55,30.41-14.8,41.84H98.03
	c-9.25-11.43-14.8-25.99-14.8-41.84C83.23,140.27,113.04,110.46,149.81,110.46"/>
<path class="st5" d="M149.81,110.21c18.45,0,35.16,7.48,47.25,19.57c12.09,12.09,19.57,28.8,19.57,47.25
	c0,15.84-5.51,30.39-14.72,41.84h-0.64c9.29-11.41,14.86-25.98,14.86-41.84c0-18.31-7.42-34.9-19.43-46.9
	c-12-12-28.58-19.43-46.9-19.43c-18.31,0-34.9,7.42-46.9,19.43c-12,12-19.43,28.58-19.43,46.9c0,15.87,5.57,30.43,14.86,41.84H97.7
	c-9.21-11.45-14.72-26-14.72-41.84c0-18.45,7.48-35.16,19.57-47.25C114.65,117.69,131.35,110.21,149.81,110.21"/>
<path class="st6" d="M180.74,201.68L180.74,201.68h-24.75v-2.25c0-1.24,1.01-2.25,2.25-2.25h20.25c1.24,0,2.25,1.01,2.25,2.25
	V201.68z M155.99,192.68c-2.48,0-4.5,2.02-4.5,4.5v9h33.75v-9c0-2.48-2.02-4.5-4.5-4.5H155.99z"/>
<path class="st6" d="M142.98,159.73c-13.77,13.77-28.42,28.42-28.42,28.42c-1.76,1.76-1.76,4.6,0,6.37l4.77,4.78
	c1.76,1.76,4.61,1.76,6.36,0c0,0,14.65-14.65,28.42-28.42l-3.18-3.18l-12.51,12.51l-3.18,3.18l-3.18,3.18l-3.18,3.18l-4.78,4.77
	c-0.88,0.88-2.3,0.88-3.18,0l-1.59-1.6c-0.88-0.88-0.88-2.3,0-3.18l4.77-4.77l3.18-3.18l3.18-3.18l3.18-3.18l12.51-12.51
	L142.98,159.73z"/>
<path class="st6" d="M159.9,173.48l-3.8,2.41c-9.28-14.63-17.97-18.02-18.12-18.12l2.55-3.86
	C141.18,154.32,150.11,158.03,159.9,173.48"/>
<path class="st6" d="M169.6,163.77l2.41-3.8c-14.63-9.28-18.02-17.97-18.12-18.12l-3.87,2.55
	C150.45,145.05,154.15,153.98,169.6,163.77"/>
<path class="st6" d="M136.4,149.82L136.4,149.82c-0.89-0.88-0.89-2.3,0-3.18l6.36-6.36c0.88-0.88,2.3-0.88,3.18,0l1.6,1.59
	l-9.55,9.54L136.4,149.82z M137.99,157.77l3.19-3.18l9.54-9.55v0l0,0l3.18-3.18c-8.83-8.84-6.36-6.36-6.36-6.36
	c-1.76-1.76-4.61-1.76-6.37,0l-9.55,9.55c-1.76,1.76-1.76,4.61,0,6.36L137.99,157.77z"/>
<path class="st6" d="M173.56,167.9L173.56,167.9c0.89,0.88,0.89,2.3,0.01,3.18l-6.36,6.36c-0.88,0.88-2.3,0.88-3.18,0l-1.59-1.59
	l9.55-9.54L173.56,167.9z M168.8,163.12L168.8,163.12l-9.55,9.55v0l-3.18,3.18c9.23,9.23,6.36,6.36,6.36,6.36
	c1.76,1.76,4.61,1.75,6.36,0l9.55-9.55c1.76-1.76,1.76-4.61,0-6.36c0,0,0-0.01-4.77-4.77c-2.9-2.9,1.46,1.46-1.59-1.59L168.8,163.12
	z"/>
<path class="st6" d="M159.25,172.67L159.25,172.67L159.25,172.67z"/>
<g>
	<path class="st5" d="M254.08,175.74c0,0.82-0.09,1.58-0.28,2.3c-0.18,0.72-0.5,1.35-0.96,1.88c-0.46,0.54-1.07,0.96-1.85,1.27
		c-0.78,0.31-1.76,0.47-2.94,0.47c-1.09,0-2.02-0.13-2.81-0.4c-0.78-0.26-1.43-0.57-1.94-0.92l1.25-2.9
		c0.46,0.27,0.96,0.51,1.49,0.72s1.1,0.31,1.73,0.31c0.91,0,1.57-0.22,1.97-0.67c0.4-0.45,0.6-1.2,0.6-2.26V164.7h3.74V175.74z"/>
	<path class="st5" d="M264.18,181.66c-1.17,0-2.18-0.16-3.02-0.49c-0.85-0.33-1.55-0.78-2.1-1.37c-0.55-0.58-0.96-1.28-1.22-2.09
		c-0.26-0.81-0.4-1.7-0.4-2.68V164.7h3.74v10.03c0,0.67,0.08,1.24,0.23,1.72c0.15,0.47,0.36,0.86,0.62,1.15
		c0.26,0.3,0.58,0.51,0.96,0.64s0.79,0.19,1.24,0.19c0.91,0,1.65-0.28,2.22-0.84c0.57-0.56,0.85-1.51,0.85-2.86V164.7h3.74v10.34
		c0,0.98-0.14,1.87-0.41,2.69c-0.27,0.82-0.69,1.52-1.25,2.1s-1.27,1.04-2.14,1.36C266.39,181.5,265.37,181.66,264.18,181.66z"/>
	<path class="st5" d="M279.18,178.47c0.53,0,0.96-0.04,1.31-0.13c0.34-0.09,0.62-0.21,0.83-0.36s0.35-0.33,0.43-0.54
		s0.12-0.44,0.12-0.7c0-0.54-0.26-1-0.77-1.36c-0.51-0.36-1.39-0.75-2.64-1.16c-0.54-0.19-1.09-0.41-1.63-0.66s-1.03-0.56-1.46-0.94
		c-0.43-0.38-0.78-0.83-1.06-1.37c-0.27-0.54-0.41-1.19-0.41-1.96c0-0.77,0.14-1.46,0.43-2.08s0.7-1.14,1.22-1.57s1.17-0.76,1.92-1
		c0.75-0.23,1.6-0.35,2.54-0.35c1.12,0,2.09,0.12,2.9,0.36c0.82,0.24,1.49,0.5,2.02,0.79l-1.08,2.95c-0.46-0.24-0.98-0.45-1.55-0.64
		s-1.25-0.28-2.05-0.28c-0.9,0-1.54,0.12-1.93,0.37s-0.59,0.63-0.59,1.14c0,0.3,0.07,0.56,0.22,0.77s0.35,0.4,0.61,0.56
		c0.26,0.17,0.57,0.32,0.91,0.46c0.34,0.14,0.72,0.28,1.14,0.42c0.86,0.32,1.62,0.64,2.26,0.95c0.64,0.31,1.17,0.68,1.6,1.09
		c0.42,0.42,0.74,0.9,0.95,1.46c0.21,0.56,0.31,1.24,0.31,2.04c0,1.55-0.54,2.76-1.63,3.61c-1.09,0.86-2.73,1.28-4.92,1.28
		c-0.74,0-1.4-0.04-1.99-0.13s-1.12-0.2-1.57-0.32s-0.85-0.26-1.18-0.41c-0.33-0.14-0.6-0.28-0.83-0.41l1.06-2.98
		c0.5,0.27,1.11,0.52,1.84,0.73C277.24,178.36,278.13,178.47,279.18,178.47z"/>
</g>
<g>
	<path class="st5" d="M300.47,164.7v3.19h-5.02v13.44h-3.74v-13.44h-5.02v-3.19H300.47z"/>
	<path class="st5" d="M307.72,160.33l-3.95,3.34l-1.64-1.46l3.4-3.89L307.72,160.33z M302.87,164.7h3.74v16.63h-3.74V164.7z"/>
	<path class="st5" d="M318.04,181.66c-2.7,0-4.76-0.75-6.18-2.26s-2.12-3.64-2.12-6.41c0-1.38,0.22-2.6,0.65-3.68
		c0.43-1.08,1.02-1.99,1.78-2.74c0.75-0.74,1.65-1.31,2.69-1.69c1.04-0.38,2.17-0.58,3.38-0.58c0.7,0,1.34,0.05,1.92,0.16
		c0.58,0.1,1.08,0.22,1.51,0.36s0.79,0.28,1.08,0.42c0.29,0.14,0.5,0.26,0.62,0.34l-1.08,3.02c-0.51-0.27-1.11-0.5-1.79-0.7
		s-1.45-0.29-2.32-0.29c-0.58,0-1.14,0.1-1.69,0.29c-0.55,0.19-1.04,0.5-1.46,0.92c-0.42,0.42-0.76,0.97-1.02,1.64
		c-0.26,0.67-0.38,1.49-0.38,2.45c0,0.77,0.08,1.48,0.25,2.15s0.44,1.24,0.82,1.72c0.38,0.48,0.87,0.86,1.48,1.14
		c0.61,0.28,1.34,0.42,2.21,0.42c0.54,0,1.03-0.03,1.46-0.1c0.43-0.06,0.82-0.14,1.15-0.23s0.63-0.19,0.89-0.3
		c0.26-0.11,0.49-0.22,0.7-0.31l1.03,3c-0.53,0.32-1.27,0.61-2.23,0.86S319.3,181.66,318.04,181.66z"/>
	<path class="st5" d="M326.01,164.7h3.74v16.63h-3.74V164.7z"/>
	<path class="st5" d="M344.75,181.33c-0.19-0.58-0.38-1.17-0.6-1.78c-0.21-0.61-0.43-1.22-0.64-1.82h-6.5
		c-0.21,0.61-0.42,1.21-0.63,1.82c-0.21,0.61-0.41,1.2-0.59,1.78h-3.89c0.63-1.79,1.22-3.45,1.78-4.97s1.11-2.95,1.65-4.3
		c0.54-1.34,1.07-2.62,1.59-3.83s1.06-2.39,1.62-3.54h3.55c0.55,1.15,1.08,2.33,1.62,3.54s1.06,2.48,1.6,3.83
		c0.54,1.34,1.09,2.78,1.65,4.3s1.16,3.18,1.78,4.97H344.75z M340.25,168.46c-0.08,0.24-0.21,0.57-0.37,0.99
		c-0.16,0.42-0.34,0.9-0.55,1.44c-0.21,0.54-0.44,1.14-0.69,1.8s-0.51,1.34-0.77,2.06h4.76c-0.25-0.72-0.5-1.41-0.74-2.07
		c-0.24-0.66-0.46-1.26-0.68-1.8s-0.4-1.03-0.56-1.44C340.48,169.03,340.35,168.7,340.25,168.46z"/>
	<path class="st5" d="M367.81,181.33c-0.19-0.58-0.38-1.17-0.6-1.78c-0.21-0.61-0.43-1.22-0.64-1.82h-6.5
		c-0.21,0.61-0.42,1.21-0.63,1.82c-0.21,0.61-0.41,1.2-0.59,1.78h-3.89c0.63-1.79,1.22-3.45,1.78-4.97s1.11-2.95,1.65-4.3
		c0.54-1.34,1.07-2.62,1.59-3.83s1.06-2.39,1.62-3.54h3.55c0.55,1.15,1.08,2.33,1.62,3.54s1.06,2.48,1.6,3.83
		c0.54,1.34,1.09,2.78,1.65,4.3s1.16,3.18,1.78,4.97H367.81z M363.32,168.46c-0.08,0.24-0.21,0.57-0.37,0.99
		c-0.16,0.42-0.34,0.9-0.55,1.44c-0.21,0.54-0.44,1.14-0.69,1.8s-0.51,1.34-0.77,2.06h4.76c-0.25-0.72-0.5-1.41-0.74-2.07
		c-0.24-0.66-0.46-1.26-0.68-1.8s-0.4-1.03-0.56-1.44C363.55,169.03,363.42,168.7,363.32,168.46z"/>
	<path class="st5" d="M379.72,164.7h3.74v16.63h-3.74V164.7z"/>
	<path class="st5" d="M398.46,181.33c-1.07-1.9-2.23-3.78-3.48-5.64c-1.25-1.86-2.58-3.61-3.98-5.26v10.9h-3.7V164.7h3.05
		c0.53,0.53,1.11,1.18,1.75,1.94c0.64,0.77,1.29,1.59,1.96,2.46s1.32,1.78,1.98,2.71c0.66,0.94,1.27,1.84,1.85,2.7v-9.82h3.72v16.63
		H398.46z"/>
	<path class="st5" d="M405.45,181.33V164.7h11.14v3.14h-7.39v3.48h6.58v3.14h-6.58v6.86H405.45z"/>
</g>
<g>
	<path class="st5" d="M434.87,173c0,1.42-0.21,2.68-0.64,3.76s-1,1.98-1.74,2.71c-0.74,0.73-1.61,1.28-2.63,1.64
		s-2.11,0.55-3.28,0.55c-1.14,0-2.21-0.18-3.22-0.55c-1.01-0.37-1.89-0.92-2.64-1.64c-0.75-0.73-1.34-1.63-1.78-2.71
		c-0.43-1.08-0.65-2.33-0.65-3.76c0-1.42,0.22-2.68,0.67-3.76c0.45-1.08,1.05-1.99,1.81-2.72c0.76-0.74,1.64-1.29,2.64-1.66
		s2.05-0.55,3.16-0.55c1.14,0,2.21,0.18,3.22,0.55s1.89,0.92,2.64,1.66c0.75,0.74,1.34,1.64,1.78,2.72
		C434.66,170.32,434.87,171.58,434.87,173z M422.18,173c0,0.82,0.1,1.55,0.3,2.21c0.2,0.66,0.49,1.22,0.86,1.69s0.84,0.84,1.38,1.09
		c0.54,0.26,1.17,0.38,1.87,0.38c0.69,0,1.31-0.13,1.86-0.38s1.02-0.62,1.39-1.09c0.38-0.47,0.66-1.04,0.86-1.69
		c0.2-0.66,0.3-1.39,0.3-2.21c0-0.82-0.1-1.56-0.3-2.22s-0.49-1.23-0.86-1.7c-0.38-0.47-0.84-0.84-1.39-1.09s-1.17-0.38-1.86-0.38
		c-0.71,0-1.33,0.13-1.87,0.4c-0.54,0.26-1,0.63-1.38,1.1c-0.38,0.47-0.66,1.04-0.86,1.7C422.28,171.47,422.18,172.2,422.18,173z"/>
</g>
<g>
	<path class="st5" d="M449.49,167.29c-0.51,0.53-1.12,1.21-1.83,2.05s-1.43,1.76-2.18,2.75c-0.75,0.99-1.5,2.02-2.23,3.07
		s-1.39,2.06-1.97,3.02h8.48v3.14h-13.08v-2.23c0.45-0.82,1-1.72,1.64-2.72c0.65-1,1.32-2.01,2.03-3.02c0.7-1.02,1.42-2,2.15-2.95
		c0.73-0.95,1.4-1.8,2.03-2.56h-7.46v-3.14h12.43V167.29z"/>
</g>
<g>
	<path class="st5" d="M464.18,181.33c-0.19-0.58-0.38-1.17-0.6-1.78c-0.21-0.61-0.43-1.22-0.64-1.82h-6.5
		c-0.21,0.61-0.42,1.21-0.63,1.82c-0.21,0.61-0.41,1.2-0.59,1.78h-3.89c0.63-1.79,1.22-3.45,1.78-4.97s1.11-2.95,1.65-4.3
		c0.54-1.34,1.07-2.62,1.59-3.83s1.06-2.39,1.62-3.54h3.55c0.55,1.15,1.08,2.33,1.62,3.54s1.06,2.48,1.6,3.83
		c0.54,1.34,1.09,2.78,1.65,4.3s1.16,3.18,1.78,4.97H464.18z M462.55,160.33l-3.95,3.34l-1.64-1.46l3.4-3.89L462.55,160.33z
		 M459.68,168.46c-0.08,0.24-0.21,0.57-0.37,0.99c-0.16,0.42-0.34,0.9-0.55,1.44c-0.21,0.54-0.44,1.14-0.69,1.8
		s-0.51,1.34-0.77,2.06h4.76c-0.25-0.72-0.5-1.41-0.74-2.07c-0.24-0.66-0.46-1.26-0.68-1.8s-0.4-1.03-0.56-1.44
		C459.91,169.03,459.78,168.7,459.68,168.46z"/>
	<path class="st5" d="M480.13,181.33c-0.34-0.54-0.73-1.13-1.19-1.75c-0.46-0.63-0.95-1.26-1.48-1.9s-1.08-1.25-1.66-1.84
		c-0.58-0.58-1.15-1.1-1.73-1.55v7.04h-3.74V164.7h3.74v6.25c0.96-1.01,1.94-2.07,2.93-3.17c0.99-1.1,1.91-2.13,2.75-3.08h4.44
		c-1.13,1.35-2.27,2.64-3.42,3.89s-2.35,2.5-3.62,3.76c1.33,1.11,2.61,2.43,3.85,3.95c1.24,1.52,2.42,3.2,3.57,5.04H480.13z"/>
</g>
<g>
	<path class="st5" d="M501.26,173c0,1.42-0.21,2.68-0.64,3.76s-1,1.98-1.74,2.71c-0.74,0.73-1.61,1.28-2.63,1.64
		s-2.11,0.55-3.28,0.55c-1.14,0-2.21-0.18-3.22-0.55c-1.01-0.37-1.89-0.92-2.64-1.64c-0.75-0.73-1.34-1.63-1.78-2.71
		c-0.43-1.08-0.65-2.33-0.65-3.76c0-1.42,0.22-2.68,0.67-3.76c0.45-1.08,1.05-1.99,1.81-2.72c0.76-0.74,1.64-1.29,2.64-1.66
		s2.05-0.55,3.16-0.55c1.14,0,2.21,0.18,3.22,0.55s1.89,0.92,2.64,1.66c0.75,0.74,1.34,1.64,1.78,2.72
		C501.04,170.32,501.26,171.58,501.26,173z M488.56,173c0,0.82,0.1,1.55,0.3,2.21c0.2,0.66,0.49,1.22,0.86,1.69s0.84,0.84,1.38,1.09
		c0.54,0.26,1.17,0.38,1.87,0.38c0.69,0,1.31-0.13,1.86-0.38s1.02-0.62,1.39-1.09c0.38-0.47,0.66-1.04,0.86-1.69
		c0.2-0.66,0.3-1.39,0.3-2.21c0-0.82-0.1-1.56-0.3-2.22s-0.49-1.23-0.86-1.7c-0.38-0.47-0.84-0.84-1.39-1.09s-1.17-0.38-1.86-0.38
		c-0.71,0-1.33,0.13-1.87,0.4c-0.54,0.26-1,0.63-1.38,1.1c-0.38,0.47-0.66,1.04-0.86,1.7C488.66,171.47,488.56,172.2,488.56,173z"/>
	<path class="st5" d="M515.54,181.33c-1.07-1.9-2.23-3.78-3.48-5.64c-1.25-1.86-2.58-3.61-3.98-5.26v10.9h-3.7V164.7h3.05
		c0.53,0.53,1.11,1.18,1.75,1.94c0.64,0.77,1.29,1.59,1.96,2.46s1.32,1.78,1.98,2.71c0.66,0.94,1.27,1.84,1.85,2.7v-9.82h3.72v16.63
		H515.54z"/>
</g>
</svg>
