<?xml version="1.0" encoding="utf-8"?>
<svg version="1.1" xmlns="http://www.w3.org/2000/svg" x="0px" y="0px"
	 viewBox="0 0 656.64 218.88" style="enable-background:new 0 0 656.64 218.88;" xml:space="preserve">
<style type="text/css">
	.st0{fill:#1b325f;}
	.st1{fill:#00aeef;}
	.st2{fill:#f16c4f;}
	.st3{fill-rule:evenodd;clip-rule:evenodd;fill:#f16c4f;}
  .st4{fill:#fff;}
</style>
<rect x="0" y="0" class="st4" width="656.64" height="218.88"/>
<g>
	<path class="st0" d="M223.19,91c-1.16-2.06-2.42-4.1-3.77-6.11s-2.79-3.91-4.32-5.69V91h-4V72.98h3.3c0.57,0.57,1.2,1.27,1.9,2.11
		s1.4,1.72,2.12,2.67c0.72,0.94,1.43,1.92,2.15,2.94c0.71,1.01,1.38,1.99,2,2.93V72.98h4.03V91H223.19z"/>
	<path class="st0" d="M230.76,91V72.98h12.17v3.41h-8.11v3.54h7.2v3.33h-7.2v4.34h8.71V91H230.76z"/>
	<path class="st0" d="M258.62,74.9c0.21,0.71,0.44,1.51,0.69,2.41c0.25,0.89,0.52,1.82,0.8,2.77c0.29,0.95,0.58,1.91,0.87,2.86
		c0.29,0.95,0.58,1.84,0.86,2.65c0.23-0.88,0.46-1.85,0.69-2.89s0.46-2.11,0.67-3.22c0.21-1.11,0.41-2.21,0.61-3.31
		c0.2-1.1,0.39-2.16,0.56-3.19h4.21c-0.61,3.02-1.31,6.08-2.11,9.18s-1.65,6.05-2.58,8.84h-3.71c-0.61-1.66-1.19-3.41-1.77-5.24
		s-1.13-3.66-1.69-5.5c-0.56,1.84-1.11,3.67-1.67,5.5s-1.14,3.57-1.74,5.24h-3.71c-0.92-2.79-1.78-5.74-2.57-8.84
		c-0.79-3.1-1.49-6.16-2.1-9.18h4.39c0.17,1.02,0.37,2.08,0.57,3.19c0.21,1.1,0.43,2.21,0.65,3.31c0.23,1.11,0.46,2.18,0.69,3.22
		c0.23,1.04,0.47,2,0.72,2.89c0.31-0.85,0.62-1.75,0.91-2.7c0.29-0.95,0.58-1.91,0.86-2.86c0.28-0.95,0.53-1.87,0.77-2.76
		s0.45-1.67,0.64-2.37H258.62z"/>
	<path class="st0" d="M276.08,87.9c0.57,0,1.04-0.05,1.42-0.14c0.37-0.1,0.67-0.23,0.9-0.39c0.23-0.16,0.38-0.36,0.47-0.58
		c0.09-0.23,0.13-0.48,0.13-0.75c0-0.59-0.28-1.08-0.83-1.47c-0.56-0.39-1.51-0.81-2.86-1.26c-0.59-0.21-1.18-0.45-1.77-0.72
		c-0.59-0.27-1.12-0.61-1.59-1.01c-0.47-0.41-0.85-0.9-1.14-1.48c-0.29-0.58-0.44-1.29-0.44-2.12s0.16-1.58,0.47-2.25
		c0.31-0.67,0.75-1.23,1.33-1.7c0.57-0.47,1.27-0.83,2.08-1.08c0.81-0.25,1.73-0.38,2.76-0.38c1.21,0,2.26,0.13,3.15,0.39
		c0.88,0.26,1.61,0.55,2.18,0.86l-1.17,3.2c-0.5-0.26-1.06-0.49-1.68-0.69c-0.62-0.2-1.36-0.3-2.22-0.3c-0.97,0-1.67,0.13-2.09,0.4
		c-0.42,0.27-0.64,0.68-0.64,1.24c0,0.33,0.08,0.61,0.23,0.83c0.16,0.23,0.38,0.43,0.66,0.61s0.62,0.35,0.99,0.49
		c0.37,0.15,0.78,0.3,1.24,0.46c0.94,0.35,1.75,0.69,2.44,1.03c0.69,0.34,1.27,0.73,1.73,1.18c0.46,0.45,0.8,0.98,1.03,1.59
		c0.23,0.61,0.34,1.34,0.34,2.21c0,1.68-0.59,2.99-1.77,3.91c-1.18,0.93-2.96,1.39-5.33,1.39c-0.8,0-1.52-0.05-2.16-0.14
		c-0.64-0.1-1.21-0.21-1.7-0.35c-0.49-0.14-0.92-0.29-1.27-0.44c-0.36-0.16-0.65-0.3-0.9-0.44l1.14-3.22
		c0.54,0.29,1.2,0.56,1.99,0.79C273.97,87.79,274.93,87.9,276.08,87.9z"/>
	<path class="st0" d="M298.33,87.51V91h-12.04V72.98h4.06v14.53H298.33z"/>
	<path class="st0" d="M300.93,91V72.98h12.17v3.41h-8.11v3.54h7.2v3.33h-7.2v4.34h8.71V91H300.93z"/>
	<path class="st0" d="M330.05,72.98v3.46h-5.43V91h-4.06V76.44h-5.43v-3.46H330.05z"/>
</g>
<g>
	<path class="st0" d="M346.69,72.98v3.46h-5.43V91h-4.06V76.44h-5.43v-3.46H346.69z"/>
	<path class="st0" d="M349.29,91V72.98h12.17v3.41h-8.11v3.54h7.2v3.33h-7.2v4.34h8.71V91H349.29z"/>
	<path class="st0" d="M370.33,72.77c2.7,0,4.77,0.48,6.21,1.44c1.44,0.96,2.16,2.46,2.16,4.49c0,1.27-0.29,2.29-0.87,3.08
		c-0.58,0.79-1.42,1.41-2.51,1.86c0.36,0.45,0.75,0.97,1.14,1.55c0.4,0.58,0.79,1.19,1.18,1.82c0.39,0.63,0.77,1.29,1.13,1.98
		c0.36,0.69,0.7,1.36,1.01,2.02h-4.53c-0.33-0.59-0.67-1.19-1-1.79c-0.34-0.61-0.69-1.2-1.04-1.77s-0.71-1.11-1.06-1.62
		c-0.35-0.51-0.7-0.98-1.04-1.39h-2V91h-4.06V73.24c0.88-0.17,1.8-0.29,2.74-0.36C368.74,72.81,369.58,72.77,370.33,72.77z
		 M370.56,76.23c-0.29,0-0.56,0.01-0.79,0.03c-0.23,0.02-0.46,0.04-0.66,0.05v4.89h1.14c1.52,0,2.62-0.19,3.28-0.57
		c0.66-0.38,0.99-1.03,0.99-1.95c0-0.88-0.33-1.51-1-1.88C372.85,76.42,371.86,76.23,370.56,76.23z"/>
	<path class="st0" d="M402,72.98v3.46h-5.43V91h-4.06V76.44h-5.43v-3.46H402z"/>
	<path class="st0" d="M409.87,72.77c2.7,0,4.77,0.48,6.21,1.44c1.44,0.96,2.16,2.46,2.16,4.49c0,1.27-0.29,2.29-0.87,3.08
		c-0.58,0.79-1.42,1.41-2.51,1.86c0.36,0.45,0.75,0.97,1.14,1.55c0.4,0.58,0.79,1.19,1.18,1.82c0.39,0.63,0.77,1.29,1.13,1.98
		c0.36,0.69,0.7,1.36,1.01,2.02h-4.53c-0.33-0.59-0.67-1.19-1-1.79c-0.34-0.61-0.69-1.2-1.04-1.77s-0.71-1.11-1.06-1.62
		c-0.35-0.51-0.7-0.98-1.04-1.39h-2V91h-4.06V73.24c0.88-0.17,1.8-0.29,2.74-0.36C408.28,72.81,409.13,72.77,409.87,72.77z
		 M410.11,76.23c-0.29,0-0.56,0.01-0.79,0.03c-0.23,0.02-0.46,0.04-0.66,0.05v4.89h1.14c1.52,0,2.62-0.19,3.28-0.57
		c0.66-0.38,0.99-1.03,0.99-1.95c0-0.88-0.33-1.51-1-1.88C412.39,76.42,411.41,76.23,410.11,76.23z"/>
</g>
<g>
	<path class="st0" d="M434.83,91c-0.2-0.63-0.42-1.27-0.65-1.93c-0.23-0.66-0.46-1.32-0.69-1.97h-7.04
		c-0.23,0.66-0.46,1.32-0.68,1.98c-0.23,0.66-0.44,1.3-0.64,1.92h-4.21c0.68-1.94,1.32-3.73,1.93-5.38c0.61-1.65,1.2-3.2,1.79-4.65
		c0.58-1.46,1.16-2.84,1.72-4.15c0.57-1.31,1.15-2.59,1.76-3.83h3.84c0.59,1.25,1.17,2.53,1.75,3.83c0.57,1.31,1.15,2.69,1.74,4.15
		s1.18,3.01,1.79,4.65c0.61,1.65,1.25,3.44,1.93,5.38H434.83z M429.96,77.06c-0.09,0.26-0.22,0.62-0.4,1.07
		c-0.17,0.45-0.37,0.97-0.59,1.56s-0.47,1.24-0.75,1.95c-0.27,0.71-0.55,1.45-0.84,2.23h5.15c-0.28-0.78-0.54-1.53-0.8-2.24
		c-0.26-0.71-0.5-1.36-0.74-1.95c-0.23-0.59-0.44-1.11-0.61-1.56C430.21,77.67,430.07,77.32,429.96,77.06z"/>
	<path class="st0" d="M453.58,91c-1.16-2.06-2.42-4.1-3.77-6.11c-1.35-2.01-2.79-3.91-4.32-5.69V91h-4V72.98h3.3
		c0.57,0.57,1.21,1.27,1.9,2.11c0.69,0.83,1.4,1.72,2.12,2.67c0.72,0.94,1.43,1.92,2.14,2.94s1.38,1.99,2,2.93V72.98h4.03V91H453.58
		z"/>
	<path class="st0" d="M466.06,87.9c0.57,0,1.04-0.05,1.42-0.14c0.37-0.1,0.67-0.23,0.9-0.39c0.23-0.16,0.38-0.36,0.47-0.58
		c0.09-0.23,0.13-0.48,0.13-0.75c0-0.59-0.28-1.08-0.83-1.47s-1.51-0.81-2.86-1.26c-0.59-0.21-1.18-0.45-1.77-0.72
		c-0.59-0.27-1.12-0.61-1.59-1.01c-0.47-0.41-0.85-0.9-1.14-1.48c-0.29-0.58-0.44-1.29-0.44-2.12s0.16-1.58,0.47-2.25
		c0.31-0.67,0.75-1.23,1.33-1.7c0.57-0.47,1.26-0.83,2.08-1.08c0.81-0.25,1.73-0.38,2.76-0.38c1.21,0,2.26,0.13,3.15,0.39
		c0.88,0.26,1.61,0.55,2.18,0.86l-1.17,3.2c-0.5-0.26-1.06-0.49-1.68-0.69s-1.36-0.3-2.22-0.3c-0.97,0-1.67,0.13-2.09,0.4
		c-0.42,0.27-0.64,0.68-0.64,1.24c0,0.33,0.08,0.61,0.23,0.83s0.38,0.43,0.66,0.61s0.62,0.35,0.99,0.49
		c0.37,0.15,0.78,0.3,1.23,0.46c0.94,0.35,1.75,0.69,2.44,1.03s1.27,0.73,1.73,1.18c0.46,0.45,0.8,0.98,1.03,1.59
		c0.23,0.61,0.34,1.34,0.34,2.21c0,1.68-0.59,2.99-1.77,3.91s-2.96,1.39-5.33,1.39c-0.8,0-1.52-0.05-2.16-0.14
		c-0.64-0.1-1.21-0.21-1.7-0.35c-0.49-0.14-0.92-0.29-1.27-0.44c-0.36-0.16-0.66-0.3-0.9-0.44l1.14-3.22
		c0.54,0.29,1.2,0.56,1.99,0.79C463.95,87.79,464.91,87.9,466.06,87.9z"/>
	<path class="st0" d="M481.68,72.77c2.69,0,4.75,0.47,6.19,1.42c1.44,0.94,2.16,2.49,2.16,4.64c0,2.17-0.73,3.73-2.18,4.69
		s-3.54,1.44-6.24,1.44h-1.27V91h-4.06V73.24c0.88-0.17,1.82-0.29,2.81-0.36C480.07,72.81,480.94,72.77,481.68,72.77z M481.94,76.23
		c-0.29,0-0.58,0.01-0.87,0.03c-0.29,0.02-0.53,0.04-0.74,0.05v5.2h1.27c1.4,0,2.46-0.19,3.17-0.57c0.71-0.38,1.07-1.09,1.07-2.13
		c0-0.5-0.09-0.92-0.27-1.25c-0.18-0.33-0.44-0.59-0.78-0.79s-0.75-0.34-1.23-0.42C483.07,76.27,482.53,76.23,481.94,76.23z"/>
</g>
<g>
	<path class="st0" d="M503.34,91c-0.2-0.63-0.42-1.27-0.65-1.93c-0.23-0.66-0.46-1.32-0.69-1.97h-7.04
		c-0.23,0.66-0.46,1.32-0.68,1.98c-0.23,0.66-0.44,1.3-0.64,1.92h-4.21c0.68-1.94,1.32-3.73,1.93-5.38c0.61-1.65,1.2-3.2,1.79-4.65
		c0.58-1.46,1.16-2.84,1.72-4.15c0.57-1.31,1.15-2.59,1.76-3.83h3.84c0.59,1.25,1.17,2.53,1.75,3.83c0.57,1.31,1.15,2.69,1.74,4.15
		s1.18,3.01,1.79,4.65c0.61,1.65,1.25,3.44,1.93,5.38H503.34z M498.47,77.06c-0.09,0.26-0.22,0.62-0.4,1.07
		c-0.17,0.45-0.37,0.97-0.59,1.56s-0.47,1.24-0.75,1.95c-0.27,0.71-0.55,1.45-0.84,2.23h5.15c-0.28-0.78-0.54-1.53-0.8-2.24
		c-0.26-0.71-0.5-1.36-0.74-1.95c-0.23-0.59-0.44-1.11-0.61-1.56C498.72,77.67,498.58,77.32,498.47,77.06z"/>
	<path class="st0" d="M515.28,72.77c2.7,0,4.77,0.48,6.21,1.44c1.44,0.96,2.16,2.46,2.16,4.49c0,1.27-0.29,2.29-0.87,3.08
		c-0.58,0.79-1.42,1.41-2.51,1.86c0.36,0.45,0.75,0.97,1.14,1.55c0.4,0.58,0.79,1.19,1.18,1.82c0.39,0.63,0.77,1.29,1.13,1.98
		c0.36,0.69,0.7,1.36,1.01,2.02h-4.53c-0.33-0.59-0.67-1.19-1-1.79c-0.34-0.61-0.69-1.2-1.04-1.77s-0.71-1.11-1.06-1.62
		c-0.35-0.51-0.7-0.98-1.04-1.39h-2V91H510V73.24c0.88-0.17,1.8-0.29,2.74-0.36C513.69,72.81,514.53,72.77,515.28,72.77z
		 M515.51,76.23c-0.29,0-0.56,0.01-0.79,0.03c-0.23,0.02-0.46,0.04-0.66,0.05v4.89h1.14c1.52,0,2.62-0.19,3.28-0.57
		c0.66-0.38,0.99-1.03,0.99-1.95c0-0.88-0.33-1.51-1-1.88C517.8,76.42,516.81,76.23,515.51,76.23z"/>
	<path class="st0" d="M527.34,91V72.98h12.17v3.41h-8.11v3.54h7.2v3.33h-7.2v4.34h8.71V91H527.34z"/>
	<path class="st0" d="M555.19,91c-1.16-2.06-2.42-4.1-3.77-6.11c-1.35-2.01-2.79-3.91-4.32-5.69V91h-4V72.98h3.3
		c0.57,0.57,1.21,1.27,1.9,2.11c0.69,0.83,1.4,1.72,2.12,2.67c0.72,0.94,1.43,1.92,2.14,2.94s1.38,1.99,2,2.93V72.98h4.03V91H555.19
		z"/>
	<path class="st0" d="M570.97,91.36c-2.93,0-5.16-0.81-6.7-2.44c-1.53-1.63-2.3-3.94-2.3-6.94c0-1.49,0.23-2.82,0.7-3.99
		c0.47-1.17,1.11-2.16,1.92-2.96s1.79-1.42,2.91-1.83s2.35-0.62,3.67-0.62c0.76,0,1.46,0.06,2.08,0.17
		c0.62,0.11,1.17,0.24,1.64,0.39c0.47,0.15,0.86,0.3,1.17,0.46c0.31,0.16,0.54,0.28,0.68,0.36l-1.17,3.28
		c-0.56-0.29-1.2-0.55-1.94-0.75c-0.74-0.21-1.57-0.31-2.51-0.31c-0.62,0-1.24,0.1-1.83,0.31s-1.13,0.54-1.59,1
		c-0.46,0.46-0.83,1.05-1.11,1.78s-0.42,1.61-0.42,2.65c0,0.83,0.09,1.61,0.27,2.33c0.18,0.72,0.48,1.34,0.88,1.86
		s0.94,0.93,1.6,1.23c0.66,0.3,1.46,0.46,2.39,0.46c0.59,0,1.12-0.03,1.59-0.1c0.47-0.07,0.88-0.15,1.25-0.25
		c0.36-0.09,0.68-0.2,0.96-0.32c0.28-0.12,0.53-0.23,0.75-0.34l1.12,3.25c-0.57,0.35-1.38,0.66-2.42,0.94
		C573.54,91.22,572.34,91.36,570.97,91.36z"/>
</g>
<g>
	<path class="st0" d="M586.82,80.37c0.73-1.23,1.42-2.45,2.08-3.68c0.66-1.23,1.27-2.46,1.82-3.71h4.47
		c-0.99,1.94-2.01,3.82-3.07,5.64c-1.06,1.82-2.18,3.65-3.35,5.49V91h-4.06v-6.84c-1.18-1.84-2.3-3.67-3.37-5.51
		c-1.07-1.84-2.09-3.73-3.08-5.67h4.71c0.55,1.24,1.15,2.48,1.79,3.71C585.41,77.92,586.1,79.14,586.82,80.37z"/>
</g>
<g>
	<path class="st1" d="M216.21,116.88c0.48,0,0.88-0.04,1.2-0.12c0.31-0.08,0.57-0.19,0.76-0.33c0.19-0.14,0.32-0.3,0.4-0.5
		c0.07-0.19,0.11-0.4,0.11-0.64c0-0.5-0.23-0.91-0.7-1.24c-0.47-0.33-1.28-0.69-2.42-1.07c-0.5-0.18-1-0.38-1.5-0.61
		c-0.5-0.23-0.95-0.51-1.34-0.86s-0.72-0.76-0.97-1.25c-0.25-0.49-0.37-1.09-0.37-1.79s0.13-1.34,0.4-1.9
		c0.26-0.56,0.64-1.05,1.12-1.44c0.48-0.4,1.07-0.7,1.76-0.91s1.47-0.32,2.33-0.32c1.03,0,1.91,0.11,2.66,0.33
		c0.75,0.22,1.36,0.46,1.85,0.73l-0.99,2.71c-0.43-0.22-0.9-0.41-1.42-0.58c-0.52-0.17-1.15-0.25-1.88-0.25
		c-0.82,0-1.41,0.11-1.77,0.34c-0.36,0.23-0.54,0.58-0.54,1.04c0,0.28,0.07,0.51,0.2,0.7c0.13,0.19,0.32,0.36,0.56,0.52
		c0.24,0.15,0.52,0.29,0.84,0.42s0.66,0.25,1.04,0.38c0.79,0.29,1.48,0.58,2.07,0.87c0.59,0.29,1.07,0.62,1.46,1
		c0.39,0.38,0.68,0.83,0.87,1.34c0.19,0.51,0.29,1.14,0.29,1.87c0,1.42-0.5,2.53-1.5,3.31c-1,0.79-2.5,1.18-4.51,1.18
		c-0.67,0-1.28-0.04-1.83-0.12c-0.54-0.08-1.02-0.18-1.44-0.3s-0.78-0.24-1.08-0.37c-0.3-0.13-0.55-0.26-0.76-0.37l0.97-2.73
		c0.45,0.25,1.02,0.47,1.68,0.67S215.24,116.88,216.21,116.88z"/>
	<path class="st1" d="M229.43,104.08c2.27,0,4.02,0.4,5.24,1.2c1.22,0.8,1.83,2.11,1.83,3.93c0,1.83-0.62,3.16-1.85,3.97
		c-1.23,0.81-2.99,1.22-5.28,1.22h-1.08v5.1h-3.43v-15.03c0.75-0.15,1.54-0.25,2.38-0.31C228.07,104.11,228.8,104.08,229.43,104.08z
		 M229.65,107c-0.25,0-0.5,0.01-0.74,0.02c-0.24,0.02-0.45,0.03-0.63,0.04v4.4h1.08c1.19,0,2.08-0.16,2.68-0.48
		c0.6-0.32,0.9-0.92,0.9-1.8c0-0.43-0.08-0.78-0.23-1.06c-0.15-0.28-0.37-0.5-0.66-0.67c-0.29-0.17-0.63-0.29-1.04-0.35
		S230.15,107,229.65,107z"/>
	<path class="st1" d="M243.49,104.08c2.29,0,4.04,0.41,5.26,1.22s1.83,2.08,1.83,3.8c0,1.07-0.25,1.94-0.74,2.61
		c-0.49,0.67-1.2,1.19-2.12,1.57c0.31,0.38,0.63,0.82,0.97,1.31s0.67,1,1,1.54s0.65,1.09,0.96,1.67c0.31,0.58,0.59,1.15,0.86,1.71
		h-3.84c-0.28-0.5-0.56-1-0.85-1.52c-0.29-0.51-0.58-1.01-0.88-1.5c-0.3-0.48-0.6-0.94-0.89-1.38c-0.29-0.43-0.59-0.83-0.88-1.18
		h-1.69v5.57h-3.43v-15.03c0.75-0.15,1.52-0.25,2.32-0.31C242.14,104.11,242.86,104.08,243.49,104.08z M243.69,107
		c-0.25,0-0.47,0.01-0.67,0.02c-0.2,0.02-0.38,0.03-0.56,0.04v4.14h0.97c1.29,0,2.21-0.16,2.77-0.48c0.56-0.32,0.84-0.87,0.84-1.65
		c0-0.75-0.28-1.28-0.85-1.59S244.79,107,243.69,107z"/>
</g>
<g>
	<path class="st1" d="M264.61,119.5c-0.17-0.53-0.35-1.07-0.55-1.63c-0.2-0.56-0.39-1.11-0.58-1.67h-5.95
		c-0.19,0.56-0.39,1.11-0.58,1.67c-0.19,0.56-0.37,1.1-0.54,1.63h-3.56c0.57-1.64,1.12-3.16,1.63-4.55
		c0.51-1.39,1.02-2.71,1.51-3.94c0.49-1.23,0.98-2.4,1.46-3.51s0.97-2.19,1.49-3.25h3.25c0.5,1.06,0.99,2.14,1.48,3.25
		c0.49,1.11,0.98,2.28,1.47,3.51c0.49,1.23,1,2.54,1.51,3.94s1.06,2.91,1.64,4.55H264.61z M263.11,100.25l-3.62,3.06l-1.51-1.34
		l3.11-3.56L263.11,100.25z M260.48,107.71c-0.08,0.22-0.19,0.52-0.34,0.9c-0.15,0.38-0.32,0.82-0.5,1.32
		c-0.19,0.5-0.4,1.05-0.63,1.65c-0.23,0.6-0.47,1.23-0.71,1.89h4.36c-0.23-0.66-0.46-1.29-0.68-1.89c-0.22-0.6-0.43-1.15-0.62-1.65
		c-0.2-0.5-0.37-0.94-0.52-1.32C260.69,108.22,260.57,107.92,260.48,107.71z"/>
</g>
<g>
	<path class="st1" d="M273.37,119.5c-0.61-1.28-1.21-2.61-1.8-3.99c-0.59-1.38-1.15-2.74-1.68-4.09c-0.53-1.35-1.02-2.64-1.46-3.87
		c-0.45-1.23-0.83-2.33-1.15-3.3h3.78c0.29,0.88,0.6,1.83,0.95,2.85c0.35,1.02,0.71,2.03,1.07,3.04c0.36,1.01,0.71,1.98,1.04,2.91
		c0.33,0.93,0.65,1.73,0.95,2.4c0.29-0.67,0.6-1.47,0.94-2.39c0.34-0.93,0.69-1.89,1.05-2.91c0.36-1.01,0.72-2.02,1.07-3.04
		c0.35-1.02,0.67-1.97,0.95-2.86h3.65c-0.34,0.97-0.73,2.07-1.18,3.3c-0.44,1.23-0.93,2.52-1.46,3.87s-1.08,2.71-1.67,4.09
		s-1.18,2.71-1.79,3.98H273.37z"/>
</g>
<g>
	<path class="st1" d="M291.13,110.51c0.62-1.04,1.2-2.08,1.76-3.12c0.56-1.04,1.07-2.08,1.54-3.14h3.78
		c-0.84,1.64-1.7,3.23-2.6,4.77c-0.89,1.54-1.84,3.09-2.84,4.64v5.83h-3.43v-5.79c-1-1.55-1.95-3.11-2.85-4.66
		c-0.9-1.55-1.77-3.15-2.61-4.8h3.98c0.47,1.05,0.97,2.1,1.52,3.14C289.94,108.43,290.52,109.47,291.13,110.51z"/>
	<path class="st1" d="M316.13,106.63c-0.47,0.48-1.03,1.11-1.67,1.88c-0.65,0.77-1.31,1.61-2,2.52c-0.69,0.91-1.37,1.85-2.05,2.82
		c-0.68,0.97-1.28,1.89-1.8,2.77h7.77v2.88h-11.99v-2.05c0.41-0.75,0.91-1.58,1.51-2.5c0.59-0.92,1.21-1.84,1.86-2.77
		c0.65-0.93,1.3-1.83,1.97-2.71s1.29-1.65,1.86-2.34h-6.84v-2.88h11.4V106.63z"/>
	<path class="st1" d="M329.15,119.7c-0.84,0-1.67-0.03-2.5-0.08c-0.83-0.05-1.69-0.17-2.59-0.36v-14.78c0.7-0.13,1.47-0.23,2.31-0.3
		c0.84-0.07,1.61-0.1,2.33-0.1c0.97,0,1.86,0.07,2.67,0.21c0.81,0.14,1.51,0.38,2.1,0.71c0.59,0.34,1.04,0.78,1.38,1.33
		s0.49,1.23,0.49,2.04c0,1.22-0.59,2.18-1.76,2.88c0.97,0.37,1.63,0.87,1.98,1.5s0.53,1.34,0.53,2.13c0,1.6-0.58,2.8-1.75,3.61
		S331.46,119.7,329.15,119.7z M327.42,110.24h1.67c1.06,0,1.81-0.13,2.27-0.41s0.68-0.71,0.68-1.31c0-0.62-0.23-1.05-0.7-1.3
		s-1.16-0.37-2.07-0.37c-0.29,0-0.61,0-0.95,0.01c-0.34,0.01-0.64,0.03-0.9,0.06V110.24z M327.42,112.86v3.94
		c0.25,0.03,0.52,0.05,0.81,0.07c0.29,0.01,0.62,0.02,0.97,0.02c1.03,0,1.86-0.15,2.49-0.44c0.63-0.29,0.95-0.84,0.95-1.63
		c0-0.7-0.27-1.21-0.79-1.51c-0.53-0.3-1.28-0.45-2.27-0.45H327.42z"/>
	<path class="st1" d="M353.38,111.87c0,1.31-0.2,2.45-0.58,3.44c-0.39,0.99-0.92,1.82-1.6,2.49c-0.67,0.67-1.48,1.17-2.41,1.51
		c-0.93,0.34-1.93,0.51-3,0.51c-1.04,0-2.02-0.17-2.95-0.51c-0.92-0.34-1.73-0.84-2.42-1.51c-0.69-0.67-1.23-1.5-1.63-2.49
		c-0.4-0.99-0.59-2.14-0.59-3.44s0.21-2.45,0.62-3.44c0.41-0.99,0.96-1.82,1.66-2.5c0.7-0.67,1.5-1.18,2.42-1.52
		s1.88-0.51,2.89-0.51c1.04,0,2.02,0.17,2.95,0.51s1.73,0.84,2.42,1.52c0.69,0.67,1.23,1.51,1.63,2.5
		C353.18,109.41,353.38,110.56,353.38,111.87z M341.74,111.87c0,0.75,0.09,1.42,0.28,2.02c0.18,0.6,0.45,1.12,0.79,1.55
		s0.77,0.77,1.26,1c0.5,0.23,1.07,0.35,1.72,0.35c0.63,0,1.2-0.12,1.7-0.35c0.51-0.23,0.93-0.57,1.28-1s0.61-0.95,0.79-1.55
		c0.18-0.6,0.28-1.28,0.28-2.02s-0.09-1.43-0.28-2.04c-0.18-0.61-0.45-1.13-0.79-1.56s-0.77-0.77-1.28-1
		c-0.51-0.23-1.07-0.35-1.7-0.35c-0.65,0-1.22,0.12-1.72,0.36c-0.5,0.24-0.92,0.58-1.26,1.01s-0.61,0.95-0.79,1.56
		C341.83,110.46,341.74,111.13,341.74,111.87z"/>
</g>
<g>
	<path class="st1" d="M364.07,114.37c0,0.75-0.08,1.45-0.25,2.11s-0.46,1.24-0.88,1.73s-0.98,0.88-1.69,1.17
		c-0.71,0.29-1.61,0.43-2.7,0.43c-1,0-1.86-0.12-2.57-0.36c-0.72-0.24-1.31-0.52-1.78-0.85l1.14-2.66c0.42,0.25,0.88,0.47,1.36,0.66
		c0.48,0.19,1.01,0.29,1.58,0.29c0.84,0,1.44-0.21,1.8-0.62c0.37-0.41,0.55-1.1,0.55-2.07v-9.94h3.43V114.37z"/>
</g>
<g>
	<path class="st1" d="M377.18,119.5c-0.17-0.53-0.35-1.07-0.55-1.63c-0.2-0.56-0.39-1.11-0.58-1.67h-5.95
		c-0.19,0.56-0.39,1.11-0.58,1.67c-0.19,0.56-0.37,1.1-0.54,1.63h-3.56c0.57-1.64,1.12-3.16,1.63-4.55
		c0.52-1.39,1.02-2.71,1.51-3.94c0.49-1.23,0.98-2.4,1.46-3.51c0.48-1.11,0.98-2.19,1.49-3.25h3.25c0.5,1.06,1,2.14,1.48,3.25
		c0.49,1.11,0.98,2.28,1.47,3.51c0.49,1.23,1,2.54,1.51,3.94s1.06,2.91,1.64,4.55H377.18z M373.06,107.71
		c-0.08,0.22-0.19,0.52-0.34,0.9c-0.15,0.38-0.32,0.82-0.5,1.32c-0.19,0.5-0.4,1.05-0.63,1.65s-0.47,1.23-0.71,1.89h4.36
		c-0.23-0.66-0.46-1.29-0.68-1.89c-0.22-0.6-0.43-1.15-0.62-1.65c-0.2-0.5-0.37-0.94-0.52-1.32
		C373.27,108.22,373.15,107.92,373.06,107.71z"/>
	<path class="st1" d="M392.67,104.08c2.27,0,4.02,0.4,5.24,1.2c1.22,0.8,1.83,2.11,1.83,3.93c0,1.83-0.62,3.16-1.85,3.97
		c-1.23,0.81-2.99,1.22-5.28,1.22h-1.08v5.1h-3.43v-15.03c0.75-0.15,1.54-0.25,2.38-0.31S392.04,104.08,392.67,104.08z M392.89,107
		c-0.25,0-0.5,0.01-0.74,0.02c-0.24,0.02-0.45,0.03-0.63,0.04v4.4h1.08c1.19,0,2.08-0.16,2.68-0.48c0.6-0.32,0.9-0.92,0.9-1.8
		c0-0.43-0.08-0.78-0.23-1.06c-0.15-0.28-0.37-0.5-0.66-0.67c-0.29-0.17-0.63-0.29-1.04-0.35C393.84,107.04,393.39,107,392.89,107z"
		/>
	<path class="st1" d="M406.73,104.08c2.29,0,4.04,0.41,5.26,1.22c1.22,0.81,1.83,2.08,1.83,3.8c0,1.07-0.25,1.94-0.74,2.61
		c-0.49,0.67-1.2,1.19-2.12,1.57c0.31,0.38,0.63,0.82,0.97,1.31c0.34,0.49,0.67,1,1,1.54s0.65,1.09,0.96,1.67
		c0.31,0.58,0.59,1.15,0.86,1.71h-3.84c-0.28-0.5-0.56-1-0.85-1.52c-0.29-0.51-0.58-1.01-0.88-1.5c-0.3-0.48-0.6-0.94-0.89-1.38
		c-0.29-0.43-0.59-0.83-0.88-1.18h-1.69v5.57h-3.43v-15.03c0.75-0.15,1.52-0.25,2.32-0.31C405.38,104.11,406.1,104.08,406.73,104.08
		z M406.92,107c-0.25,0-0.47,0.01-0.67,0.02c-0.2,0.02-0.38,0.03-0.56,0.04v4.14h0.97c1.29,0,2.21-0.16,2.77-0.48
		c0.56-0.32,0.84-0.87,0.84-1.65c0-0.75-0.28-1.28-0.85-1.59S408.03,107,406.92,107z"/>
</g>
<g>
	<path class="st1" d="M431.06,111.87c0,1.31-0.2,2.45-0.58,3.44c-0.39,0.99-0.92,1.82-1.6,2.49c-0.67,0.67-1.48,1.17-2.41,1.51
		c-0.93,0.34-1.93,0.51-3,0.51c-1.04,0-2.02-0.17-2.95-0.51c-0.92-0.34-1.73-0.84-2.42-1.51c-0.69-0.67-1.23-1.5-1.63-2.49
		c-0.4-0.99-0.59-2.14-0.59-3.44s0.21-2.45,0.62-3.44c0.41-0.99,0.96-1.82,1.66-2.5c0.7-0.67,1.5-1.18,2.42-1.52
		s1.88-0.51,2.89-0.51c1.04,0,2.02,0.17,2.95,0.51s1.73,0.84,2.42,1.52c0.69,0.67,1.23,1.51,1.63,2.5
		C430.86,109.41,431.06,110.56,431.06,111.87z M419.42,111.87c0,0.75,0.09,1.42,0.28,2.02c0.18,0.6,0.45,1.12,0.79,1.55
		s0.77,0.77,1.26,1c0.5,0.23,1.07,0.35,1.72,0.35c0.63,0,1.2-0.12,1.7-0.35c0.51-0.23,0.93-0.57,1.28-1s0.61-0.95,0.79-1.55
		c0.18-0.6,0.28-1.28,0.28-2.02s-0.09-1.43-0.28-2.04c-0.18-0.61-0.45-1.13-0.79-1.56s-0.77-0.77-1.28-1
		c-0.51-0.23-1.07-0.35-1.7-0.35c-0.65,0-1.22,0.12-1.72,0.36c-0.5,0.24-0.92,0.58-1.26,1.01s-0.61,0.95-0.79,1.56
		C419.51,110.46,419.42,111.13,419.42,111.87z"/>
</g>
<g>
	<path class="st1" d="M444.72,104.25v2.93h-4.6v12.32h-3.43v-12.32h-4.6v-2.93H444.72z"/>
	<path class="st1" d="M446.92,104.25h3.43v15.25h-3.43V104.25z"/>
	<path class="st1" d="M468.14,119.5c-0.31-0.5-0.67-1.03-1.09-1.61s-0.87-1.16-1.36-1.74s-0.99-1.15-1.52-1.68s-1.06-1.01-1.59-1.42
		v6.46h-3.43v-15.25h3.43v5.73c0.88-0.93,1.78-1.9,2.69-2.91c0.91-1.01,1.75-1.95,2.52-2.82h4.07c-1.04,1.24-2.08,2.42-3.13,3.56
		c-1.05,1.14-2.16,2.29-3.31,3.44c1.22,1.02,2.4,2.22,3.53,3.62c1.13,1.4,2.22,2.94,3.27,4.62H468.14z"/>
</g>
<g>
	<path class="st1" d="M487.51,111.87c0,1.31-0.2,2.45-0.58,3.44c-0.39,0.99-0.92,1.82-1.6,2.49c-0.67,0.67-1.48,1.17-2.41,1.51
		c-0.93,0.34-1.93,0.51-3,0.51c-1.04,0-2.02-0.17-2.95-0.51c-0.92-0.34-1.73-0.84-2.42-1.51c-0.69-0.67-1.23-1.5-1.63-2.49
		c-0.4-0.99-0.59-2.14-0.59-3.44s0.21-2.45,0.62-3.44c0.41-0.99,0.96-1.82,1.66-2.5c0.7-0.67,1.5-1.18,2.42-1.52
		s1.88-0.51,2.89-0.51c1.04,0,2.02,0.17,2.95,0.51s1.73,0.84,2.42,1.52c0.69,0.67,1.23,1.51,1.63,2.5
		C487.31,109.41,487.51,110.56,487.51,111.87z M475.87,111.87c0,0.75,0.09,1.42,0.28,2.02c0.18,0.6,0.45,1.12,0.79,1.55
		s0.77,0.77,1.26,1c0.5,0.23,1.07,0.35,1.72,0.35c0.63,0,1.2-0.12,1.7-0.35c0.51-0.23,0.93-0.57,1.28-1s0.61-0.95,0.79-1.55
		c0.18-0.6,0.28-1.28,0.28-2.02s-0.09-1.43-0.28-2.04c-0.18-0.61-0.45-1.13-0.79-1.56s-0.77-0.77-1.28-1
		c-0.51-0.23-1.07-0.35-1.7-0.35c-0.65,0-1.22,0.12-1.72,0.36c-0.5,0.24-0.92,0.58-1.26,1.01s-0.61,0.95-0.79,1.56
		C475.96,110.46,475.87,111.13,475.87,111.87z"/>
	<path class="st1" d="M494.84,104.08c2.29,0,4.04,0.41,5.26,1.22c1.22,0.81,1.83,2.08,1.83,3.8c0,1.07-0.25,1.94-0.74,2.61
		c-0.49,0.67-1.2,1.19-2.12,1.57c0.31,0.38,0.63,0.82,0.97,1.31c0.34,0.49,0.67,1,1,1.54s0.65,1.09,0.96,1.67
		c0.31,0.58,0.59,1.15,0.86,1.71h-3.84c-0.28-0.5-0.56-1-0.85-1.52c-0.29-0.51-0.58-1.01-0.88-1.5c-0.3-0.48-0.6-0.94-0.89-1.38
		c-0.29-0.43-0.59-0.83-0.88-1.18h-1.69v5.57h-3.43v-15.03c0.75-0.15,1.52-0.25,2.32-0.31
		C493.49,104.11,494.21,104.08,494.84,104.08z M495.04,107c-0.25,0-0.47,0.01-0.67,0.02c-0.2,0.02-0.38,0.03-0.56,0.04v4.14h0.97
		c1.29,0,2.21-0.16,2.77-0.48c0.56-0.32,0.84-0.87,0.84-1.65c0-0.75-0.28-1.28-0.85-1.59S496.14,107,495.04,107z"/>
</g>
<g>
	<path class="st1" d="M510.83,119.81c-1.07,0-1.99-0.15-2.77-0.45c-0.78-0.3-1.42-0.72-1.92-1.25c-0.51-0.54-0.88-1.17-1.12-1.91
		c-0.24-0.74-0.36-1.56-0.36-2.45v-9.48h3.43v9.2c0,0.62,0.07,1.14,0.21,1.57s0.33,0.78,0.57,1.06s0.54,0.47,0.88,0.58
		s0.72,0.18,1.13,0.18c0.84,0,1.51-0.26,2.04-0.77s0.78-1.39,0.78-2.62v-9.2h3.43v9.48c0,0.89-0.12,1.72-0.37,2.46
		c-0.25,0.75-0.63,1.39-1.14,1.92c-0.51,0.54-1.17,0.95-1.96,1.24S511.92,119.81,510.83,119.81z"/>
	<path class="st1" d="M525,104.08c2.27,0,4.02,0.4,5.24,1.2c1.22,0.8,1.83,2.11,1.83,3.93c0,1.83-0.62,3.16-1.85,3.97
		c-1.23,0.81-2.99,1.22-5.28,1.22h-1.08v5.1h-3.43v-15.03c0.75-0.15,1.54-0.25,2.38-0.31S524.37,104.08,525,104.08z M525.22,107
		c-0.25,0-0.5,0.01-0.74,0.02c-0.24,0.02-0.45,0.03-0.63,0.04v4.4h1.08c1.19,0,2.08-0.16,2.68-0.48c0.6-0.32,0.9-0.92,0.9-1.8
		c0-0.43-0.08-0.78-0.23-1.06c-0.15-0.28-0.37-0.5-0.66-0.67c-0.29-0.17-0.63-0.29-1.04-0.35C526.17,107.04,525.72,107,525.22,107z"
		/>
	<path class="st1" d="M541.54,119.81c-2.48,0-4.37-0.69-5.67-2.07s-1.95-3.34-1.95-5.87c0-1.26,0.2-2.39,0.59-3.38
		c0.4-0.99,0.94-1.83,1.63-2.51c0.69-0.68,1.51-1.2,2.46-1.55c0.95-0.35,1.99-0.53,3.1-0.53c0.65,0,1.23,0.05,1.76,0.14
		c0.53,0.1,0.99,0.21,1.39,0.33c0.4,0.12,0.73,0.25,0.99,0.38c0.26,0.13,0.45,0.23,0.57,0.31l-0.99,2.77
		c-0.47-0.25-1.02-0.46-1.64-0.64c-0.62-0.18-1.33-0.26-2.12-0.26c-0.53,0-1.04,0.09-1.55,0.26c-0.51,0.18-0.95,0.46-1.34,0.85
		c-0.39,0.39-0.7,0.89-0.94,1.51c-0.23,0.62-0.35,1.36-0.35,2.24c0,0.7,0.08,1.36,0.23,1.97c0.15,0.61,0.4,1.13,0.75,1.57
		c0.34,0.44,0.8,0.79,1.35,1.04c0.56,0.26,1.23,0.39,2.02,0.39c0.5,0,0.95-0.03,1.34-0.09c0.4-0.06,0.75-0.13,1.06-0.21
		c0.31-0.08,0.58-0.17,0.81-0.27c0.23-0.1,0.45-0.2,0.64-0.29l0.95,2.75c-0.48,0.29-1.17,0.56-2.05,0.79
		C543.72,119.69,542.7,119.81,541.54,119.81z"/>
	<path class="st1" d="M548.85,104.25h3.43v15.25h-3.43V104.25z"/>
	<path class="st1" d="M555.8,104.25h3.43v15.25h-3.43V104.25z"/>
</g>
<g>
	<path class="st2" d="M215.84,132.88c2.27,0,4.02,0.4,5.24,1.2c1.22,0.8,1.83,2.11,1.83,3.93c0,1.83-0.62,3.16-1.85,3.97
		c-1.23,0.81-2.99,1.22-5.28,1.22h-1.08v5.1h-3.43v-15.03c0.75-0.15,1.54-0.25,2.38-0.31C214.48,132.91,215.21,132.88,215.84,132.88
		z M216.06,135.8c-0.25,0-0.5,0.01-0.74,0.02c-0.24,0.01-0.45,0.03-0.63,0.04v4.4h1.08c1.19,0,2.08-0.16,2.68-0.48
		c0.6-0.32,0.9-0.92,0.9-1.8c0-0.42-0.08-0.78-0.23-1.06s-0.37-0.5-0.66-0.67c-0.29-0.17-0.63-0.29-1.04-0.35
		C217.01,135.84,216.56,135.8,216.06,135.8z"/>
	<path class="st2" d="M229.9,132.88c2.29,0,4.04,0.41,5.26,1.22c1.22,0.81,1.83,2.08,1.83,3.79c0,1.07-0.25,1.94-0.74,2.61
		c-0.49,0.67-1.2,1.19-2.12,1.57c0.31,0.38,0.63,0.82,0.97,1.31s0.67,1,1,1.54s0.65,1.09,0.96,1.67c0.31,0.58,0.59,1.15,0.86,1.71
		h-3.84c-0.28-0.5-0.56-1-0.85-1.52c-0.29-0.51-0.58-1.01-0.88-1.5c-0.3-0.48-0.6-0.94-0.89-1.38c-0.29-0.43-0.59-0.83-0.88-1.18
		h-1.69v5.57h-3.43v-15.03c0.75-0.15,1.52-0.25,2.32-0.31C228.55,132.91,229.27,132.88,229.9,132.88z M230.1,135.8
		c-0.25,0-0.47,0.01-0.67,0.02c-0.2,0.01-0.38,0.03-0.56,0.04v4.14h0.97c1.29,0,2.21-0.16,2.77-0.48c0.56-0.32,0.84-0.87,0.84-1.65
		c0-0.75-0.28-1.28-0.85-1.6C232.03,135.96,231.2,135.8,230.1,135.8z"/>
	<path class="st2" d="M240.11,133.05h3.43v15.25h-3.43V133.05z"/>
	<path class="st2" d="M256.25,133.05h3.43v15.25h-3.43v-6.47h-5.76v6.47h-3.43v-15.25h3.43v5.83h5.76V133.05z"/>
	<path class="st2" d="M273.39,145.35v2.95h-10.19v-15.25h3.43v12.3H273.39z"/>
</g>
<g>
	<path class="st2" d="M286.5,148.3c-0.17-0.53-0.35-1.07-0.55-1.63c-0.2-0.56-0.39-1.11-0.58-1.67h-5.95
		c-0.19,0.56-0.39,1.11-0.58,1.67c-0.19,0.56-0.37,1.1-0.54,1.63h-3.56c0.57-1.64,1.12-3.16,1.63-4.55
		c0.51-1.39,1.02-2.71,1.51-3.94c0.49-1.23,0.98-2.4,1.46-3.51s0.97-2.19,1.49-3.25h3.25c0.5,1.06,0.99,2.14,1.48,3.25
		c0.49,1.11,0.98,2.28,1.47,3.51c0.49,1.23,1,2.54,1.51,3.94s1.06,2.91,1.64,4.55H286.5z M285.01,129.05l-3.62,3.06l-1.51-1.34
		l3.11-3.56L285.01,129.05z M282.38,136.51c-0.08,0.22-0.19,0.52-0.34,0.9c-0.15,0.38-0.32,0.82-0.5,1.32
		c-0.19,0.5-0.4,1.05-0.63,1.65c-0.23,0.6-0.47,1.23-0.71,1.89h4.36c-0.23-0.66-0.46-1.29-0.68-1.89c-0.22-0.6-0.43-1.15-0.62-1.65
		c-0.2-0.5-0.37-0.94-0.52-1.32S282.47,136.72,282.38,136.51z"/>
</g>
<g>
	<path class="st2" d="M296.71,145.68c0.48,0,0.88-0.04,1.2-0.12c0.31-0.08,0.57-0.19,0.76-0.33c0.19-0.14,0.32-0.3,0.4-0.5
		c0.07-0.19,0.11-0.4,0.11-0.64c0-0.5-0.23-0.91-0.7-1.24c-0.47-0.33-1.28-0.69-2.42-1.07c-0.5-0.18-1-0.38-1.5-0.61
		c-0.5-0.23-0.95-0.51-1.34-0.86s-0.72-0.76-0.97-1.25c-0.25-0.49-0.37-1.09-0.37-1.79c0-0.7,0.13-1.34,0.4-1.9
		c0.26-0.56,0.64-1.04,1.12-1.44c0.48-0.4,1.07-0.7,1.76-0.91c0.69-0.21,1.47-0.32,2.33-0.32c1.03,0,1.91,0.11,2.66,0.33
		c0.75,0.22,1.36,0.46,1.85,0.73l-0.99,2.71c-0.43-0.22-0.9-0.41-1.42-0.58c-0.52-0.17-1.15-0.25-1.88-0.25
		c-0.82,0-1.41,0.11-1.77,0.34c-0.36,0.23-0.54,0.58-0.54,1.04c0,0.28,0.07,0.51,0.2,0.7c0.13,0.19,0.32,0.36,0.56,0.52
		c0.24,0.15,0.52,0.29,0.84,0.42c0.32,0.12,0.66,0.25,1.04,0.39c0.79,0.29,1.48,0.58,2.07,0.87c0.59,0.29,1.07,0.62,1.46,1
		c0.39,0.38,0.68,0.83,0.87,1.34c0.19,0.51,0.29,1.14,0.29,1.87c0,1.42-0.5,2.53-1.5,3.31c-1,0.79-2.5,1.18-4.51,1.18
		c-0.67,0-1.28-0.04-1.83-0.12c-0.54-0.08-1.02-0.18-1.44-0.3s-0.78-0.24-1.08-0.37c-0.3-0.13-0.55-0.26-0.76-0.37l0.97-2.73
		c0.45,0.25,1.02,0.47,1.68,0.67S295.74,145.68,296.71,145.68z"/>
</g>
<g>
	<path class="st2" d="M316.23,133.05v2.93h-4.6v12.32h-3.43v-12.32h-4.6v-2.93H316.23z"/>
	<path class="st2" d="M318.43,148.3v-15.25h10.3v2.88h-6.86v2.99h6.09v2.82h-6.09v3.67h7.37v2.88H318.43z"/>
	<path class="st2" d="M341.2,145.68c0.48,0,0.88-0.04,1.2-0.12c0.32-0.08,0.57-0.19,0.76-0.33c0.19-0.14,0.32-0.3,0.4-0.5
		c0.07-0.19,0.11-0.4,0.11-0.64c0-0.5-0.23-0.91-0.7-1.24s-1.28-0.69-2.42-1.07c-0.5-0.18-1-0.38-1.5-0.61
		c-0.5-0.23-0.95-0.51-1.34-0.86c-0.4-0.34-0.72-0.76-0.97-1.25c-0.25-0.49-0.37-1.09-0.37-1.79c0-0.7,0.13-1.34,0.4-1.9
		c0.26-0.56,0.64-1.04,1.12-1.44c0.48-0.4,1.07-0.7,1.76-0.91c0.69-0.21,1.47-0.32,2.33-0.32c1.03,0,1.91,0.11,2.66,0.33
		c0.75,0.22,1.36,0.46,1.85,0.73l-0.99,2.71c-0.43-0.22-0.9-0.41-1.42-0.58s-1.15-0.25-1.88-0.25c-0.82,0-1.41,0.11-1.77,0.34
		s-0.54,0.58-0.54,1.04c0,0.28,0.07,0.51,0.2,0.7s0.32,0.36,0.56,0.52c0.24,0.15,0.52,0.29,0.84,0.42c0.31,0.12,0.66,0.25,1.04,0.39
		c0.79,0.29,1.48,0.58,2.07,0.87c0.59,0.29,1.07,0.62,1.46,1c0.39,0.38,0.68,0.83,0.87,1.34s0.29,1.14,0.29,1.87
		c0,1.42-0.5,2.53-1.5,3.31c-1,0.79-2.5,1.18-4.51,1.18c-0.67,0-1.28-0.04-1.83-0.12c-0.54-0.08-1.02-0.18-1.44-0.3
		s-0.78-0.24-1.08-0.37c-0.3-0.13-0.55-0.26-0.76-0.37l0.97-2.73c0.45,0.25,1.02,0.47,1.68,0.67S340.23,145.68,341.2,145.68z"/>
	<path class="st2" d="M360.07,148.3c-0.17-0.53-0.35-1.07-0.55-1.63c-0.2-0.56-0.39-1.11-0.58-1.67h-5.95
		c-0.19,0.56-0.39,1.11-0.58,1.67c-0.19,0.56-0.37,1.1-0.54,1.63h-3.56c0.57-1.64,1.12-3.16,1.63-4.55
		c0.52-1.39,1.02-2.71,1.51-3.94c0.49-1.23,0.98-2.4,1.46-3.51c0.48-1.11,0.98-2.19,1.49-3.25h3.25c0.5,1.06,1,2.14,1.48,3.25
		c0.49,1.11,0.98,2.28,1.47,3.51c0.49,1.23,1,2.54,1.51,3.94s1.06,2.91,1.64,4.55H360.07z M355.95,136.51
		c-0.08,0.22-0.19,0.52-0.34,0.9c-0.15,0.38-0.32,0.82-0.5,1.32c-0.19,0.5-0.4,1.05-0.63,1.65s-0.47,1.23-0.71,1.89h4.36
		c-0.23-0.66-0.46-1.29-0.68-1.89c-0.22-0.6-0.43-1.15-0.62-1.65c-0.2-0.5-0.37-0.94-0.52-1.32S356.04,136.72,355.95,136.51z"/>
	<path class="st2" d="M379.97,148.3c-0.31-0.5-0.67-1.03-1.09-1.61s-0.87-1.16-1.36-1.74s-0.99-1.15-1.52-1.68s-1.06-1.01-1.59-1.42
		v6.46h-3.43v-15.25h3.43v5.73c0.88-0.93,1.78-1.9,2.69-2.91s1.75-1.95,2.52-2.82h4.07c-1.04,1.24-2.08,2.42-3.13,3.56
		s-2.16,2.29-3.31,3.44c1.22,1.02,2.4,2.22,3.53,3.62c1.13,1.4,2.22,2.94,3.27,4.62H379.97z"/>
	<path class="st2" d="M405.83,140.67c0,1.31-0.2,2.45-0.58,3.44c-0.39,0.99-0.92,1.82-1.6,2.49c-0.67,0.67-1.48,1.17-2.41,1.51
		c-0.93,0.34-1.93,0.51-3,0.51c-1.04,0-2.02-0.17-2.95-0.51c-0.92-0.34-1.73-0.84-2.42-1.51c-0.69-0.67-1.23-1.5-1.63-2.49
		c-0.4-0.99-0.59-2.14-0.59-3.44s0.21-2.45,0.62-3.44s0.96-1.82,1.66-2.5c0.7-0.67,1.5-1.18,2.42-1.52
		c0.92-0.34,1.88-0.51,2.89-0.51c1.04,0,2.02,0.17,2.95,0.51c0.92,0.34,1.73,0.84,2.42,1.52c0.69,0.67,1.23,1.51,1.63,2.5
		C405.63,138.21,405.83,139.36,405.83,140.67z M394.19,140.67c0,0.75,0.09,1.42,0.28,2.02c0.18,0.6,0.45,1.12,0.79,1.55
		s0.77,0.77,1.26,1c0.5,0.23,1.07,0.35,1.72,0.35c0.63,0,1.2-0.12,1.7-0.35c0.51-0.23,0.93-0.57,1.28-1s0.61-0.95,0.79-1.55
		c0.18-0.6,0.28-1.28,0.28-2.02s-0.09-1.43-0.28-2.04s-0.45-1.13-0.79-1.56c-0.34-0.43-0.77-0.77-1.28-1
		c-0.51-0.23-1.07-0.35-1.7-0.35c-0.65,0-1.22,0.12-1.72,0.36c-0.5,0.24-0.92,0.58-1.26,1.01s-0.61,0.95-0.79,1.56
		C394.28,139.26,394.19,139.93,394.19,140.67z"/>
	<path class="st2" d="M422.04,140.67c0,1.32-0.21,2.47-0.62,3.45c-0.41,0.98-0.99,1.8-1.75,2.44c-0.76,0.65-1.68,1.13-2.76,1.45
		c-1.09,0.32-2.3,0.48-3.65,0.48c-0.62,0-1.33-0.03-2.16-0.08c-0.82-0.05-1.63-0.16-2.42-0.32v-14.85c0.79-0.15,1.62-0.25,2.48-0.3
		c0.86-0.05,1.59-0.08,2.21-0.08c1.3,0,2.49,0.15,3.55,0.44c1.06,0.29,1.98,0.76,2.74,1.39c0.76,0.63,1.35,1.44,1.76,2.42
		C421.84,138.11,422.04,139.29,422.04,140.67z M412.12,145.51c0.16,0.01,0.35,0.03,0.56,0.03c0.21,0.01,0.47,0.01,0.76,0.01
		c1.72,0,2.99-0.43,3.82-1.3c0.83-0.87,1.24-2.06,1.24-3.59c0-1.6-0.4-2.81-1.19-3.63s-2.05-1.23-3.76-1.23
		c-0.23,0-0.48,0-0.73,0.01c-0.25,0.01-0.48,0.03-0.7,0.06V145.51z"/>
	<path class="st2" d="M429.99,148.5c-0.84,0-1.67-0.03-2.5-0.08c-0.83-0.05-1.69-0.17-2.58-0.36v-14.78c0.7-0.13,1.47-0.23,2.31-0.3
		c0.84-0.07,1.61-0.1,2.33-0.1c0.97,0,1.86,0.07,2.67,0.21c0.81,0.14,1.51,0.38,2.1,0.71c0.59,0.34,1.04,0.78,1.38,1.33
		s0.5,1.23,0.5,2.04c0,1.22-0.59,2.18-1.76,2.88c0.97,0.37,1.63,0.87,1.98,1.5c0.35,0.63,0.53,1.34,0.53,2.13
		c0,1.6-0.58,2.8-1.75,3.61S432.29,148.5,429.99,148.5z M428.25,139.04h1.67c1.06,0,1.81-0.14,2.27-0.41
		c0.45-0.27,0.68-0.71,0.68-1.31c0-0.62-0.23-1.05-0.7-1.3c-0.47-0.25-1.16-0.37-2.07-0.37c-0.29,0-0.61,0-0.95,0.01
		c-0.34,0.01-0.64,0.03-0.9,0.05V139.04z M428.25,141.66v3.94c0.25,0.03,0.52,0.05,0.81,0.07c0.29,0.01,0.62,0.02,0.97,0.02
		c1.03,0,1.86-0.15,2.49-0.44c0.63-0.29,0.95-0.84,0.95-1.63c0-0.7-0.26-1.21-0.79-1.51c-0.53-0.3-1.28-0.45-2.27-0.45H428.25z"/>
	<path class="st2" d="M439.69,148.3v-15.25h10.3v2.88h-6.86v2.99h6.09v2.82h-6.09v3.67h7.37v2.88H439.69z"/>
	<path class="st2" d="M457.49,132.88c2.29,0,4.04,0.41,5.26,1.22c1.22,0.81,1.83,2.08,1.83,3.79c0,1.07-0.25,1.94-0.74,2.61
		c-0.49,0.67-1.2,1.19-2.12,1.57c0.31,0.38,0.63,0.82,0.97,1.31c0.34,0.49,0.67,1,1,1.54s0.65,1.09,0.96,1.67
		c0.31,0.58,0.59,1.15,0.86,1.71h-3.84c-0.28-0.5-0.56-1-0.85-1.52c-0.29-0.51-0.58-1.01-0.88-1.5c-0.3-0.48-0.6-0.94-0.89-1.38
		c-0.29-0.43-0.59-0.83-0.88-1.18h-1.69v5.57h-3.43v-15.03c0.75-0.15,1.52-0.25,2.32-0.31
		C456.14,132.91,456.86,132.88,457.49,132.88z M457.68,135.8c-0.25,0-0.47,0.01-0.67,0.02s-0.38,0.03-0.56,0.04v4.14h0.97
		c1.29,0,2.21-0.16,2.77-0.48c0.56-0.32,0.84-0.87,0.84-1.65c0-0.75-0.28-1.28-0.85-1.6C459.62,135.96,458.78,135.8,457.68,135.8z"
		/>
</g>
<g>
	<path class="st2" d="M473.48,148.61c-1.07,0-1.99-0.15-2.77-0.45c-0.78-0.3-1.42-0.72-1.92-1.25c-0.51-0.54-0.88-1.17-1.12-1.91
		c-0.24-0.74-0.36-1.56-0.36-2.45v-9.48h3.43v9.2c0,0.62,0.07,1.14,0.21,1.57s0.33,0.78,0.57,1.06s0.54,0.47,0.88,0.58
		s0.72,0.18,1.13,0.18c0.84,0,1.51-0.26,2.04-0.77s0.78-1.39,0.78-2.62v-9.2h3.43v9.48c0,0.89-0.12,1.72-0.37,2.46
		c-0.25,0.75-0.63,1.39-1.14,1.92c-0.51,0.54-1.17,0.95-1.96,1.24S474.57,148.61,473.48,148.61z"/>
	<path class="st2" d="M486.51,146.56c0,0.65-0.21,1.14-0.63,1.5c-0.42,0.35-0.89,0.53-1.42,0.53c-0.53,0-1-0.18-1.42-0.53
		c-0.42-0.35-0.63-0.85-0.63-1.5c0-0.64,0.21-1.14,0.63-1.5c0.42-0.35,0.89-0.53,1.42-0.53c0.53,0,1,0.18,1.42,0.53
		C486.3,145.42,486.51,145.92,486.51,146.56z M486.22,136.99c0,1.19-0.04,2.29-0.13,3.32c-0.09,1.03-0.21,2.07-0.35,3.12h-2.51
		c-0.15-1.06-0.27-2.1-0.36-3.12c-0.1-1.03-0.14-2.13-0.14-3.32v-3.94h3.5V136.99z"/>
</g>
<path class="st3" d="M139.97,109.35l31.82-29.49v61.38L139.97,109.35z M105.75,112.48l15.42,14.29l15.42-14.29l31.95,32.02H73.8
	L105.75,112.48z M102.38,109.35l-31.82,31.89V79.85L102.38,109.35z M121.17,120.5L74.12,76.88h94.11L121.17,120.5z M176.4,72.28
	H65.95v76.82H176.4V72.28z"/>
</svg>
