<?xml version="1.0" encoding="UTF-8" standalone="no"?>
<svg
   xmlns:dc="http://purl.org/dc/elements/1.1/"
   xmlns:cc="http://creativecommons.org/ns#"
   xmlns:rdf="http://www.w3.org/1999/02/22-rdf-syntax-ns#"
   xmlns:svg="http://www.w3.org/2000/svg"
   xmlns="http://www.w3.org/2000/svg"
   id="svg116"
   viewBox="0 0 30165.943 10055.381"
   style="clip-rule:evenodd;fill-rule:evenodd;image-rendering:optimizeQuality;shape-rendering:geometricPrecision;text-rendering:geometricPrecision"
   version="1.1"
   height="380"
   width="1140"
   xml:space="preserve"><metadata
   id="metadata120"><rdf:RDF><cc:Work
       rdf:about=""><dc:format>image/svg+xml</dc:format><dc:type
         rdf:resource="http://purl.org/dc/dcmitype/StillImage" /><dc:title></dc:title></cc:Work></rdf:RDF></metadata>
 <defs
   id="defs24">
  <style
   type="text/css"
   id="style10">
   <![CDATA[
    .str0 {stroke:#41ABE1;stroke-width:341.783}
    .fil1 {fill:none;fill-rule:nonzero}
    .fil0 {fill:#FEFEFE}
    .fil2 {fill:#3FACE2;fill-rule:nonzero}
    .fil3 {fill:#283E61;fill-rule:nonzero}
    .fil4 {fill:#2C395F;fill-rule:nonzero}
    .fil7 {fill:#A93D52;fill-rule:nonzero}
    .fil5 {fill:red;fill-rule:nonzero}
    .fil6 {fill:white;fill-rule:nonzero}
   ]]>
  </style>
   <clipPath
   id="id0">
    <rect
   x="13970"
   y="910"
   width="3455"
   height="2845"
   id="rect12" />
   </clipPath>
   <clipPath
   id="id1">
    <rect
   x="17985"
   y="910"
   width="3455"
   height="2845"
   id="rect15" />
   </clipPath>
   <clipPath
   id="id2">
    <rect
   x="13970"
   y="4223"
   width="3455"
   height="2845"
   id="rect18" />
   </clipPath>
   <clipPath
   id="id3">
    <rect
   x="17976"
   y="4223"
   width="3455"
   height="2845"
   id="rect21" />
   </clipPath>
 </defs>
 <g
   id="Layer_x0020_1"
   transform="matrix(0.90568421,0,0,0.90568421,-203.32299,-183.77722)">
  <metadata
   id="CorelCorpID_0Corel-Layer" />
  
  <g
   id="_2917114599056"
   transform="matrix(1.5221001,0,0,1.5833333,-843.19161,705.61005)">
   <line
   class="fil1 str0"
   x1="2273"
   y1="3349"
   x2="2273"
   y2="3349"
   id="line29" />
   <path
   class="fil2"
   d="m 2273,3803 c -250,0 -454,-203 -454,-453 0,-151 74,-284 187,-367 h 2 v -1 c 75,-54 166,-86 265,-86 250,0 453,204 453,454 0,250 -203,453 -453,453 z m 0,-1111 c -94,0 -184,20 -265,56 v -431 c 0,-145 119,-264 265,-264 145,0 264,118 264,264 v 0 255 h 204 v -255 0 c 0,-258 -210,-468 -468,-468 -259,0 -469,210 -469,468 v 571 c -117,119 -189,282 -189,462 0,362 295,657 658,657 94,0 183,-20 264,-55 v 430 c 0,145 -119,264 -264,264 -146,0 -265,-119 -265,-264 h 1 v -255 h -205 v 255 c 0,258 210,468 469,468 258,0 468,-210 468,-468 v -571 c 117,-119 189,-282 189,-461 0,-363 -295,-658 -657,-658 z"
   id="path31" />
   <path
   class="fil3"
   d="m 2384,3233 c 0,-62 -50,-111 -111,-111 -62,0 -111,49 -111,111 0,43 25,81 61,99 l -44,245 h 187 l -44,-245 c 36,-18 62,-56 62,-99 z"
   id="path33" />
   <path
   class="fil4"
   d="m 3630,2727 c 0,43 5,81 15,116 11,34 26,64 46,88 19,25 44,44 72,58 29,13 61,20 98,20 36,0 69,-7 98,-20 29,-14 53,-33 73,-58 20,-24 35,-54 45,-88 11,-35 16,-73 16,-116 0,-43 -5,-82 -16,-117 -10,-34 -25,-64 -45,-89 -20,-25 -44,-44 -73,-57 -29,-14 -62,-20 -98,-20 -37,0 -69,7 -98,20 -28,14 -53,34 -72,58 -20,25 -35,55 -46,90 -10,34 -15,73 -15,115 z m 666,0 c 0,75 -12,140 -34,197 -22,56 -53,104 -91,142 -39,38 -85,67 -138,86 -53,19 -110,29 -172,29 -59,0 -115,-10 -168,-29 -53,-19 -99,-48 -139,-86 -39,-38 -70,-86 -93,-142 -23,-57 -34,-122 -34,-197 0,-75 12,-140 35,-197 24,-57 56,-104 95,-143 40,-39 86,-68 139,-87 52,-19 107,-29 165,-29 60,0 116,10 169,29 53,19 99,48 138,87 40,39 71,86 94,143 22,57 34,122 34,197 z"
   id="path35" />
   <polygon
   class="fil4"
   points="4827,2459 4827,3164 4630,3164 4630,2459 4367,2459 4367,2291 5090,2291 5090,2459 "
   id="polygon37" />
   <path
   class="fil4"
   d="m 5460,3164 c -35,-74 -69,-150 -103,-229 -34,-78 -66,-156 -96,-233 -31,-77 -58,-151 -84,-222 -25,-70 -47,-133 -66,-189 h 216 c 17,51 35,105 55,163 20,59 40,117 61,175 21,57 41,113 60,166 19,53 37,98 54,137 17,-38 34,-84 54,-137 19,-53 39,-108 60,-166 21,-58 41,-116 61,-174 20,-58 38,-113 55,-164 h 209 c -20,56 -42,119 -68,189 -25,71 -53,145 -83,222 -30,77 -62,155 -96,234 -33,79 -67,155 -102,228 z"
   id="path39" />
   <path
   class="fil4"
   d="m 6256,2727 c 0,43 5,81 16,116 10,34 26,64 45,88 20,25 44,44 73,58 28,13 61,20 98,20 36,0 68,-7 97,-20 29,-14 54,-33 73,-58 20,-24 35,-54 46,-88 10,-35 15,-73 15,-116 0,-43 -5,-82 -15,-117 -11,-34 -26,-64 -46,-89 -19,-25 -44,-44 -73,-57 -29,-14 -61,-20 -97,-20 -37,0 -70,7 -98,20 -29,14 -53,34 -73,58 -19,25 -35,55 -45,90 -11,34 -16,73 -16,115 z m 666,0 c 0,75 -11,140 -33,197 -23,56 -53,104 -92,142 -38,38 -84,67 -137,86 -54,19 -111,29 -172,29 -60,0 -116,-10 -169,-29 -53,-19 -99,-48 -138,-86 -40,-38 -71,-86 -93,-142 -23,-57 -34,-122 -34,-197 0,-75 11,-140 35,-197 23,-57 55,-104 95,-143 40,-39 86,-68 138,-87 53,-19 108,-29 166,-29 59,0 116,10 168,29 53,19 99,48 139,87 39,39 70,86 93,143 23,57 34,122 34,197 z"
   id="path41" />
   <path
   class="fil4"
   d="m 7336,2449 c -14,0 -27,0 -38,1 -12,1 -22,2 -32,2 v 237 h 55 c 74,0 127,-9 159,-28 31,-18 47,-50 47,-94 0,-43 -16,-73 -48,-91 -32,-18 -80,-27 -143,-27 z m -11,-168 c 131,0 231,24 300,70 70,47 105,119 105,217 0,62 -14,111 -42,149 -28,39 -69,69 -122,90 18,22 36,47 56,75 19,28 38,58 57,88 19,31 37,63 55,96 17,33 34,66 49,98 h -220 c -16,-29 -32,-58 -48,-87 -17,-30 -34,-58 -51,-86 -17,-28 -34,-54 -51,-79 -17,-24 -34,-47 -51,-67 h -96 v 319 h -197 v -860 c 43,-8 87,-14 133,-18 46,-3 87,-5 123,-5 z"
   id="path43" />
   <polygon
   class="fil4"
   points="8510,2999 8510,3164 7892,3164 7892,2291 8481,2291 8481,2456 8089,2456 8089,2627 8437,2627 8437,2789 8089,2789 8089,2999 "
   id="polygon45" />
   <path
   class="fil4"
   d="m 9224,3164 c -56,-100 -117,-199 -183,-296 -65,-98 -135,-189 -209,-276 v 572 h -193 v -873 h 159 c 28,28 59,62 92,102 34,41 68,84 103,129 35,46 69,93 104,143 34,49 66,96 97,141 v -515 h 195 v 873 z"
   id="path47" />
   <path
   class="fil4"
   d="m 9923,2489 c -4,13 -11,30 -19,52 -9,21 -18,47 -29,75 -11,29 -23,60 -36,95 -14,34 -27,70 -41,108 h 250 c -14,-38 -27,-74 -39,-109 -13,-34 -25,-66 -36,-94 -11,-29 -21,-54 -30,-76 -8,-22 -15,-39 -20,-51 z m 150,-427 -207,175 -86,-76 178,-204 z m 86,1102 c -10,-31 -20,-62 -32,-94 -11,-32 -22,-64 -33,-95 h -341 c -11,32 -22,63 -33,95 -11,32 -21,63 -31,94 h -203 c 32,-94 64,-181 93,-261 29,-80 58,-155 86,-225 29,-71 56,-138 84,-201 27,-63 55,-125 85,-186 h 186 c 29,61 57,123 85,186 28,63 56,130 84,201 28,70 57,145 86,225 30,80 61,167 94,261 z"
   id="path49" />
   <path
   class="fil4"
   d="m 3739,3657 c -14,0 -28,0 -42,1 -14,1 -26,2 -36,3 v 251 h 62 c 68,0 119,-9 153,-27 35,-19 52,-53 52,-104 0,-24 -4,-44 -13,-60 -9,-16 -22,-29 -38,-38 -16,-10 -36,-17 -60,-20 -23,-4 -49,-6 -78,-6 z m -12,-167 c 130,0 230,22 299,68 70,46 105,121 105,225 0,105 -36,180 -106,227 -71,46 -171,70 -302,70 h -62 v 292 h -196 v -860 c 43,-8 88,-14 136,-17 48,-4 90,-5 126,-5 z"
   id="path51" />
   <path
   class="fil4"
   d="m 4526,3657 c -14,0 -27,0 -39,1 -11,1 -22,2 -32,3 v 236 h 56 c 74,0 126,-9 158,-27 32,-19 48,-50 48,-95 0,-43 -16,-73 -48,-91 -33,-18 -80,-27 -143,-27 z m -12,-167 c 131,0 232,23 301,69 70,47 105,119 105,217 0,62 -14,111 -42,150 -29,38 -69,68 -122,90 18,21 36,46 55,74 20,29 39,58 58,89 19,30 37,62 54,95 18,33 34,66 50,98 h -220 c -16,-29 -32,-58 -49,-87 -16,-30 -33,-58 -50,-86 -17,-27 -34,-54 -51,-78 -17,-25 -34,-48 -51,-68 h -97 v 319 h -196 v -860 c 43,-8 87,-14 133,-17 45,-4 86,-5 122,-5 z"
   id="path53" />
   <path
   class="fil4"
   d="m 5247,3935 c 0,43 5,81 16,116 10,34 25,64 45,89 20,24 44,43 72,57 29,13 62,20 98,20 37,0 69,-7 98,-20 29,-14 53,-33 73,-57 20,-25 35,-55 45,-89 11,-35 16,-73 16,-116 0,-43 -5,-82 -16,-116 -10,-35 -25,-65 -45,-90 -20,-25 -44,-44 -73,-57 -29,-13 -61,-20 -98,-20 -36,0 -69,7 -98,21 -28,13 -52,33 -72,57 -20,25 -35,55 -45,90 -11,35 -16,73 -16,115 z m 666,0 c 0,75 -11,140 -34,197 -22,57 -52,104 -91,142 -39,38 -84,67 -138,86 -53,20 -110,29 -172,29 -59,0 -115,-9 -168,-29 -53,-19 -99,-48 -139,-86 -39,-38 -70,-85 -93,-142 -22,-57 -34,-122 -34,-197 0,-75 12,-140 36,-197 23,-57 55,-104 95,-143 39,-38 86,-67 138,-87 52,-19 108,-29 165,-29 60,0 116,10 169,29 53,20 99,49 139,87 39,39 70,86 93,143 22,57 34,122 34,197 z"
   id="path55" />
   <path
   class="fil4"
   d="m 6574,4372 c -18,-29 -38,-59 -62,-92 -24,-33 -50,-67 -78,-100 -28,-33 -57,-66 -87,-96 -30,-31 -60,-58 -91,-82 v 370 h -196 v -872 h 196 v 327 c 51,-53 102,-108 154,-166 52,-58 100,-112 144,-161 h 233 c -59,70 -119,138 -179,203 -60,66 -123,131 -189,197 69,59 137,128 202,208 64,79 127,167 186,264 z"
   id="path57" />
   <path
   class="fil4"
   d="m 7245,4389 c -61,0 -114,-8 -158,-25 -45,-18 -81,-42 -110,-72 -29,-31 -51,-67 -64,-110 -14,-42 -21,-89 -21,-140 v -542 h 196 v 526 c 0,35 4,65 12,90 8,24 19,44 33,60 14,16 30,27 50,33 20,7 41,10 65,10 48,0 87,-14 116,-44 30,-29 45,-79 45,-149 v -526 h 196 v 542 c 0,51 -7,98 -21,141 -14,43 -36,79 -66,110 -29,31 -66,54 -111,71 -46,17 -99,25 -162,25 z"
   id="path59" />
   <path
   class="fil4"
   d="m 8045,3657 c -15,0 -28,0 -39,1 -11,1 -22,2 -32,3 v 236 h 55 c 74,0 127,-9 159,-27 32,-19 48,-50 48,-95 0,-43 -16,-73 -49,-91 -32,-18 -80,-27 -142,-27 z m -12,-167 c 131,0 231,23 301,69 70,47 104,119 104,217 0,62 -14,111 -42,150 -28,38 -68,68 -121,90 17,21 36,46 55,74 20,29 39,58 57,89 19,30 38,62 55,95 18,33 34,66 49,98 h -219 c -16,-29 -32,-58 -49,-87 -16,-30 -33,-58 -50,-86 -18,-27 -35,-54 -51,-78 -17,-25 -34,-48 -51,-68 h -97 v 319 h -196 v -860 c 43,-8 87,-14 133,-17 45,-4 86,-5 122,-5 z"
   id="path61" />
   <path
   class="fil4"
   d="m 8950,3697 c -4,13 -11,30 -19,52 -9,22 -18,47 -29,75 -11,29 -23,60 -36,95 -13,34 -27,70 -41,108 h 250 c -14,-38 -27,-74 -39,-109 -13,-34 -25,-65 -36,-94 -11,-29 -21,-54 -29,-76 -9,-21 -16,-38 -21,-51 z m 236,675 c -10,-31 -20,-62 -31,-94 -12,-32 -23,-63 -34,-95 h -340 c -11,32 -22,64 -34,96 -11,32 -21,63 -30,93 h -204 c 33,-94 64,-181 93,-261 30,-80 58,-155 87,-225 28,-71 55,-137 83,-201 27,-63 56,-125 85,-185 h 186 c 29,60 57,122 85,185 28,64 56,130 84,201 28,70 57,145 87,225 29,80 60,167 93,261 z"
   id="path63" />
   <polygon
   class="fil4"
   points="9876,3667 9876,4372 9679,4372 9679,3667 9416,3667 9416,3500 10139,3500 10139,3667 "
   id="polygon65" />
   <path
   class="fil4"
   d="m 10763,3271 -207,174 -86,-76 178,-204 z m -174,1118 c -61,0 -114,-8 -158,-25 -45,-18 -82,-42 -110,-72 -29,-31 -51,-67 -65,-110 -14,-42 -20,-89 -20,-140 v -542 h 196 v 526 c 0,35 4,65 12,90 8,24 19,44 33,60 13,16 30,27 50,33 20,7 41,10 65,10 48,0 86,-14 116,-44 30,-29 45,-79 45,-149 v -526 h 196 v 542 c 0,51 -7,98 -21,141 -15,43 -36,79 -66,110 -29,31 -66,54 -112,71 -45,17 -99,25 -161,25 z"
   id="path67" />
   <path
   class="fil4"
   d="m 11388,3657 c -14,0 -27,0 -38,1 -11,1 -22,2 -32,3 v 236 h 55 c 74,0 127,-9 159,-27 32,-19 48,-50 48,-95 0,-43 -17,-73 -49,-91 -32,-18 -80,-27 -143,-27 z m -11,-167 c 131,0 231,23 301,69 69,47 104,119 104,217 0,62 -14,111 -42,150 -28,38 -69,68 -121,90 17,21 36,46 55,74 19,29 38,58 57,89 19,30 37,62 55,95 18,33 34,66 49,98 h -219 c -16,-29 -33,-58 -49,-87 -16,-30 -33,-58 -51,-86 -17,-27 -34,-54 -51,-78 -17,-25 -33,-48 -50,-68 h -97 v 319 h -196 v -860 c 42,-8 87,-14 132,-17 46,-4 87,-5 123,-5 z"
   id="path69" />
   <path
   class="fil4"
   d="m 12294,3697 c -5,13 -11,30 -19,52 -9,22 -18,47 -29,75 -11,29 -23,60 -36,95 -14,34 -27,70 -41,108 h 249 c -13,-38 -26,-74 -38,-109 -13,-34 -25,-65 -36,-94 -11,-29 -21,-54 -30,-76 -8,-21 -15,-38 -20,-51 z m 236,675 c -10,-31 -20,-62 -32,-94 -11,-32 -22,-63 -33,-95 h -341 c -11,32 -22,64 -33,96 -11,32 -21,63 -31,93 h -204 c 33,-94 64,-181 94,-261 29,-80 58,-155 86,-225 29,-71 56,-137 84,-201 27,-63 55,-125 85,-185 h 186 c 29,60 57,122 85,185 28,64 56,130 84,201 28,70 57,145 86,225 30,80 61,167 94,261 z"
   id="path71" />
  </g>
  
  
  
  
  
  
  
  
  
  
  
  
  
  
  
  
  
  
  
  
  
  
  
  
  
  
  
  
 <rect
   style="fill:#a93d52;fill-opacity:1;stroke-width:41.7179"
   id="rect408"
   width="5236.0215"
   height="4608.7158"
   x="20503.557"
   y="793.84589" /><g
   aria-label="PROKURÁTORI"
   transform="matrix(1.5221001,0,0,1.5833333,-1778.2061,-207.1216)"
   id="text446"
   style="font-style:normal;font-weight:normal;font-size:282.256px;line-height:1.25;font-family:sans-serif;white-space:pre;inline-size:7451.84;fill:#000000;fill-opacity:1;stroke:none;stroke-width:26.4615"><path
     d="m 15358.815,3125.0101 q 0,13.782 -4.824,27.0128 -4.823,13.0929 -13.782,22.0512 -12.266,12.1282 -27.426,18.3301 -15.022,6.2019 -37.487,6.2019 h -32.939 v 66.8429 h -52.923 v -205.2145 h 87.102 q 19.571,0 32.939,3.4455 13.507,3.3077 23.843,10.0609 12.404,8.1314 18.882,20.8109 6.615,12.6794 6.615,30.4583 z m -54.715,1.2404 q 0,-8.6827 -4.685,-14.8846 -4.686,-6.3398 -10.888,-8.8205 -8.27,-3.3077 -16.125,-3.5834 -7.856,-0.4134 -20.949,-0.4134 h -9.096 v 61.4678 h 15.16 q 13.507,0 22.189,-1.6538 8.821,-1.6539 14.747,-6.6154 5.099,-4.4102 7.304,-10.4743 2.343,-6.2019 2.343,-15.0224 z"
     style="font-style:normal;font-variant:normal;font-weight:bold;font-stretch:normal;font-size:282.256px;font-family:sans-serif;-inkscape-font-specification:'sans-serif Bold';fill:#ffffff;stroke-width:26.4615"
     id="path4372" /><path
     d="m 15511.244,3123.0806 q 0,-7.718 -3.17,-13.2308 -3.169,-5.5128 -10.887,-8.6826 -5.375,-2.2052 -12.542,-2.6186 -7.167,-0.5513 -16.676,-0.5513 h -19.157 v 55.2659 h 16.263 q 12.679,0 21.224,-1.2403 8.545,-1.2404 14.333,-5.6507 5.513,-4.2724 7.994,-9.3718 2.618,-5.2371 2.618,-13.9198 z m 82.555,142.3684 h -64.638 l -55.955,-75.2499 h -24.394 v 75.2499 h -52.648 v -205.2145 h 88.757 q 18.192,0 31.285,2.0673 13.093,2.0673 24.532,8.9583 11.577,6.8911 18.33,17.9167 6.891,10.8878 6.891,27.4262 0,22.7404 -10.612,37.0737 -10.474,14.3333 -30.045,23.8429 z"
     style="font-style:normal;font-variant:normal;font-weight:bold;font-stretch:normal;font-size:282.256px;font-family:sans-serif;-inkscape-font-specification:'sans-serif Bold';fill:#ffffff;stroke-width:26.4615"
     id="path4374" /><path
     d="m 15816.792,3162.9107 q 0,49.064 -28.115,78.0063 -28.116,28.8044 -77.731,28.8044 -49.477,0 -77.593,-28.8044 -28.115,-28.9423 -28.115,-78.0063 0,-49.4775 28.115,-78.1442 28.116,-28.8044 77.593,-28.8044 49.34,0 77.593,28.8044 28.253,28.6667 28.253,78.1442 z m -70.151,51.9582 q 7.718,-9.3718 11.44,-22.0512 3.721,-12.8173 3.721,-30.0449 0,-18.4679 -4.273,-31.423 -4.272,-12.9551 -11.163,-20.9487 -7.029,-8.2692 -16.263,-11.9904 -9.096,-3.7211 -19.019,-3.7211 -10.061,0 -19.019,3.5833 -8.821,3.5834 -16.263,11.8526 -6.891,7.7179 -11.301,21.3621 -4.273,13.5064 -4.273,31.4231 0,18.3301 4.135,31.2852 4.272,12.8173 11.163,20.9487 6.891,8.1314 16.125,11.9903 9.234,3.859 19.433,3.859 10.199,0 19.432,-3.859 9.234,-3.9968 16.125,-12.266 z"
     style="font-style:normal;font-variant:normal;font-weight:bold;font-stretch:normal;font-size:282.256px;font-family:sans-serif;-inkscape-font-specification:'sans-serif Bold';fill:#ffffff;stroke-width:26.4615"
     id="path4376" /><path
     d="m 16048.606,3265.449 h -64.914 l -61.33,-82.1409 -12.403,15.0224 v 67.1185 h -52.923 v -205.2145 h 52.923 v 92.8909 l 73.32,-92.8909 h 61.33 l -80.211,94.9582 z"
     style="font-style:normal;font-variant:normal;font-weight:bold;font-stretch:normal;font-size:282.256px;font-family:sans-serif;-inkscape-font-specification:'sans-serif Bold';fill:#ffffff;stroke-width:26.4615"
     id="path4378" /><path
     d="m 16254.509,3191.1638 q 0,38.0384 -23.153,58.298 -23.154,20.2596 -68.222,20.2596 -45.067,0 -68.221,-20.2596 -23.016,-20.2596 -23.016,-58.1602 v -131.0671 h 53.199 v 128.0351 q 0,21.3621 8.958,31.8365 8.959,10.4743 29.08,10.4743 19.847,0 28.943,-10.0608 9.234,-10.0609 9.234,-32.25 v -128.0351 h 53.198 z"
     style="font-style:normal;font-variant:normal;font-weight:bold;font-stretch:normal;font-size:282.256px;font-family:sans-serif;-inkscape-font-specification:'sans-serif Bold';fill:#ffffff;stroke-width:26.4615"
     id="path4380" /><path
     d="m 16419.205,3123.0806 q 0,-7.718 -3.17,-13.2308 -3.17,-5.5128 -10.888,-8.6826 -5.375,-2.2052 -12.542,-2.6186 -7.166,-0.5513 -16.676,-0.5513 h -19.157 v 55.2659 h 16.263 q 12.679,0 21.224,-1.2403 8.545,-1.2404 14.334,-5.6507 5.512,-4.2724 7.993,-9.3718 2.619,-5.2371 2.619,-13.9198 z m 82.554,142.3684 h -64.638 l -55.955,-75.2499 h -24.394 v 75.2499 h -52.647 v -205.2145 h 88.756 q 18.192,0 31.285,2.0673 13.093,2.0673 24.532,8.9583 11.577,6.8911 18.33,17.9167 6.891,10.8878 6.891,27.4262 0,22.7404 -10.612,37.0737 -10.474,14.3333 -30.045,23.8429 z"
     style="font-style:normal;font-variant:normal;font-weight:bold;font-stretch:normal;font-size:282.256px;font-family:sans-serif;-inkscape-font-specification:'sans-serif Bold';fill:#ffffff;stroke-width:26.4615"
     id="path4382" /><path
     d="m 16714.829,3265.449 h -54.714 l -14.196,-41.4839 h -76.077 l -14.195,41.4839 h -53.337 l 75.801,-205.2145 h 60.917 z m -81.727,-79.1089 -25.221,-73.596 -25.222,73.596 z m 22.051,-203.285 v 2.7564 l -48.513,51.407 h -33.904 l 34.042,-54.1634 z"
     style="font-style:normal;font-variant:normal;font-weight:bold;font-stretch:normal;font-size:282.256px;font-family:sans-serif;-inkscape-font-specification:'sans-serif Bold';fill:#ffffff;stroke-width:26.4615"
     id="path4384" /><path
     d="m 16905.159,3099.9268 h -64.086 v 165.5222 h -52.923 v -165.5222 h -64.087 v -39.6923 h 181.096 z"
     style="font-style:normal;font-variant:normal;font-weight:bold;font-stretch:normal;font-size:282.256px;font-family:sans-serif;-inkscape-font-specification:'sans-serif Bold';fill:#ffffff;stroke-width:26.4615"
     id="path4386" /><path
     d="m 17136.559,3162.9107 q 0,49.064 -28.115,78.0063 -28.115,28.8044 -77.731,28.8044 -49.477,0 -77.592,-28.8044 -28.116,-28.9423 -28.116,-78.0063 0,-49.4775 28.116,-78.1442 28.115,-28.8044 77.592,-28.8044 49.34,0 77.593,28.8044 28.253,28.6667 28.253,78.1442 z m -70.15,51.9582 q 7.718,-9.3718 11.439,-22.0512 3.721,-12.8173 3.721,-30.0449 0,-18.4679 -4.272,-31.423 -4.273,-12.9551 -11.164,-20.9487 -7.029,-8.2692 -16.263,-11.9904 -9.096,-3.7211 -19.019,-3.7211 -10.061,0 -19.019,3.5833 -8.821,3.5834 -16.263,11.8526 -6.891,7.7179 -11.301,21.3621 -4.273,13.5064 -4.273,31.4231 0,18.3301 4.135,31.2852 4.273,12.8173 11.164,20.9487 6.891,8.1314 16.125,11.9903 9.233,3.859 19.432,3.859 10.199,0 19.433,-3.859 9.234,-3.9968 16.125,-12.266 z"
     style="font-style:normal;font-variant:normal;font-weight:bold;font-stretch:normal;font-size:282.256px;font-family:sans-serif;-inkscape-font-specification:'sans-serif Bold';fill:#ffffff;stroke-width:26.4615"
     id="path4388" /><path
     d="m 17291.883,3123.0806 q 0,-7.718 -3.17,-13.2308 -3.17,-5.5128 -10.888,-8.6826 -5.375,-2.2052 -12.541,-2.6186 -7.167,-0.5513 -16.677,-0.5513 h -19.157 v 55.2659 h 16.263 q 12.68,0 21.224,-1.2403 8.545,-1.2404 14.334,-5.6507 5.513,-4.2724 7.993,-9.3718 2.619,-5.2371 2.619,-13.9198 z m 82.554,142.3684 h -64.637 l -55.956,-75.2499 h -24.394 v 75.2499 h -52.647 v -205.2145 h 88.756 q 18.192,0 31.285,2.0673 13.093,2.0673 24.532,8.9583 11.577,6.8911 18.331,17.9167 6.891,10.8878 6.891,27.4262 0,22.7404 -10.613,37.0737 -10.474,14.3333 -30.044,23.8429 z"
     style="font-style:normal;font-variant:normal;font-weight:bold;font-stretch:normal;font-size:282.256px;font-family:sans-serif;-inkscape-font-specification:'sans-serif Bold';fill:#ffffff;stroke-width:26.4615"
     id="path4390" /><path
     d="m 17508.812,3265.449 h -120.179 v -36.3846 h 33.628 v -132.4453 h -33.628 v -36.3846 h 120.179 v 36.3846 h -33.628 v 132.4453 h 33.628 z"
     style="font-style:normal;font-variant:normal;font-weight:bold;font-stretch:normal;font-size:282.256px;font-family:sans-serif;-inkscape-font-specification:'sans-serif Bold';fill:#ffffff;stroke-width:26.4615"
     id="path4392" /></g><path
   id="rect408-5"
   style="clip-rule:evenodd;fill:#a93d52;fill-opacity:1;fill-rule:evenodd;stroke-width:41.718;image-rendering:optimizeQuality;shape-rendering:geometricPrecision;text-rendering:geometricPrecision"
   d="M 26545.117,793.84601 H 31781.14 V 5402.5618 h -5236.023 z" /><g
   aria-label="PROKURATÚRA"
   transform="matrix(1.5221001,0,0,1.5833333,4251.077,-206.73592)"
   id="text446-1"
   style="font-style:normal;font-weight:normal;font-size:282.256px;line-height:1.25;font-family:sans-serif;white-space:pre;inline-size:7451.84;clip-rule:evenodd;fill:#000000;fill-opacity:1;fill-rule:evenodd;stroke:none;stroke-width:26.4615;image-rendering:optimizeQuality;shape-rendering:geometricPrecision;text-rendering:geometricPrecision"><path
     d="m 15358.815,3125.0101 q 0,13.782 -4.824,27.0128 -4.823,13.0929 -13.782,22.0512 -12.266,12.1282 -27.426,18.3301 -15.022,6.2019 -37.487,6.2019 h -32.939 v 66.8429 h -52.923 v -205.2145 h 87.102 q 19.571,0 32.939,3.4455 13.507,3.3077 23.843,10.0609 12.404,8.1314 18.882,20.8109 6.615,12.6794 6.615,30.4583 z m -54.715,1.2404 q 0,-8.6827 -4.685,-14.8846 -4.686,-6.3398 -10.888,-8.8205 -8.27,-3.3077 -16.125,-3.5834 -7.856,-0.4134 -20.949,-0.4134 h -9.096 v 61.4678 h 15.16 q 13.507,0 22.189,-1.6538 8.821,-1.6539 14.747,-6.6154 5.099,-4.4102 7.304,-10.4743 2.343,-6.2019 2.343,-15.0224 z"
     style="font-style:normal;font-variant:normal;font-weight:bold;font-stretch:normal;font-family:sans-serif;-inkscape-font-specification:'sans-serif Bold';fill:#ffffff"
     id="path4396" /><path
     d="m 15511.244,3123.0806 q 0,-7.718 -3.17,-13.2308 -3.169,-5.5128 -10.887,-8.6826 -5.375,-2.2052 -12.542,-2.6186 -7.167,-0.5513 -16.676,-0.5513 h -19.157 v 55.2659 h 16.263 q 12.679,0 21.224,-1.2403 8.545,-1.2404 14.333,-5.6507 5.513,-4.2724 7.994,-9.3718 2.618,-5.2371 2.618,-13.9198 z m 82.555,142.3684 h -64.638 l -55.955,-75.2499 h -24.394 v 75.2499 h -52.648 v -205.2145 h 88.757 q 18.192,0 31.285,2.0673 13.093,2.0673 24.532,8.9583 11.577,6.8911 18.33,17.9167 6.891,10.8878 6.891,27.4262 0,22.7404 -10.612,37.0737 -10.474,14.3333 -30.045,23.8429 z"
     style="font-style:normal;font-variant:normal;font-weight:bold;font-stretch:normal;font-family:sans-serif;-inkscape-font-specification:'sans-serif Bold';fill:#ffffff"
     id="path4398" /><path
     d="m 15816.792,3162.9107 q 0,49.064 -28.115,78.0063 -28.116,28.8044 -77.731,28.8044 -49.477,0 -77.593,-28.8044 -28.115,-28.9423 -28.115,-78.0063 0,-49.4775 28.115,-78.1442 28.116,-28.8044 77.593,-28.8044 49.34,0 77.593,28.8044 28.253,28.6667 28.253,78.1442 z m -70.151,51.9582 q 7.718,-9.3718 11.44,-22.0512 3.721,-12.8173 3.721,-30.0449 0,-18.4679 -4.273,-31.423 -4.272,-12.9551 -11.163,-20.9487 -7.029,-8.2692 -16.263,-11.9904 -9.096,-3.7211 -19.019,-3.7211 -10.061,0 -19.019,3.5833 -8.821,3.5834 -16.263,11.8526 -6.891,7.7179 -11.301,21.3621 -4.273,13.5064 -4.273,31.4231 0,18.3301 4.135,31.2852 4.272,12.8173 11.163,20.9487 6.891,8.1314 16.125,11.9903 9.234,3.859 19.433,3.859 10.199,0 19.432,-3.859 9.234,-3.9968 16.125,-12.266 z"
     style="font-style:normal;font-variant:normal;font-weight:bold;font-stretch:normal;font-family:sans-serif;-inkscape-font-specification:'sans-serif Bold';fill:#ffffff"
     id="path4400" /><path
     d="m 16048.606,3265.449 h -64.914 l -61.33,-82.1409 -12.403,15.0224 v 67.1185 h -52.923 v -205.2145 h 52.923 v 92.8909 l 73.32,-92.8909 h 61.33 l -80.211,94.9582 z"
     style="font-style:normal;font-variant:normal;font-weight:bold;font-stretch:normal;font-family:sans-serif;-inkscape-font-specification:'sans-serif Bold';fill:#ffffff"
     id="path4402" /><path
     d="m 16254.509,3191.1638 q 0,38.0384 -23.153,58.298 -23.154,20.2596 -68.222,20.2596 -45.067,0 -68.221,-20.2596 -23.016,-20.2596 -23.016,-58.1602 v -131.0671 h 53.199 v 128.0351 q 0,21.3621 8.958,31.8365 8.959,10.4743 29.08,10.4743 19.847,0 28.943,-10.0608 9.234,-10.0609 9.234,-32.25 v -128.0351 h 53.198 z"
     style="font-style:normal;font-variant:normal;font-weight:bold;font-stretch:normal;font-family:sans-serif;-inkscape-font-specification:'sans-serif Bold';fill:#ffffff"
     id="path4404" /><path
     d="m 16419.205,3123.0806 q 0,-7.718 -3.17,-13.2308 -3.17,-5.5128 -10.888,-8.6826 -5.375,-2.2052 -12.542,-2.6186 -7.166,-0.5513 -16.676,-0.5513 h -19.157 v 55.2659 h 16.263 q 12.679,0 21.224,-1.2403 8.545,-1.2404 14.334,-5.6507 5.512,-4.2724 7.993,-9.3718 2.619,-5.2371 2.619,-13.9198 z m 82.554,142.3684 h -64.638 l -55.955,-75.2499 h -24.394 v 75.2499 h -52.647 v -205.2145 h 88.756 q 18.192,0 31.285,2.0673 13.093,2.0673 24.532,8.9583 11.577,6.8911 18.33,17.9167 6.891,10.8878 6.891,27.4262 0,22.7404 -10.612,37.0737 -10.474,14.3333 -30.045,23.8429 z"
     style="font-style:normal;font-variant:normal;font-weight:bold;font-stretch:normal;font-family:sans-serif;-inkscape-font-specification:'sans-serif Bold';fill:#ffffff"
     id="path4406" /><path
     d="m 16714.829,3265.449 h -54.714 l -14.196,-41.4839 h -76.077 l -14.195,41.4839 h -53.337 l 75.801,-205.2145 h 60.917 z m -81.727,-79.1089 -25.221,-73.596 -25.222,73.596 z"
     style="font-style:normal;font-variant:normal;font-weight:bold;font-stretch:normal;font-family:sans-serif;-inkscape-font-specification:'sans-serif Bold';fill:#ffffff"
     id="path4408" /><path
     d="m 16905.159,3099.9268 h -64.086 v 165.5222 h -52.923 v -165.5222 h -64.087 v -39.6923 h 181.096 z"
     style="font-style:normal;font-variant:normal;font-weight:bold;font-stretch:normal;font-family:sans-serif;-inkscape-font-specification:'sans-serif Bold';fill:#ffffff"
     id="path4410" /><path
     d="m 17116.713,3191.1638 q 0,38.0384 -23.154,58.298 -23.153,20.2596 -68.221,20.2596 -45.067,0 -68.221,-20.2596 -23.016,-20.2596 -23.016,-58.1602 v -131.0671 h 53.199 v 128.0351 q 0,21.3621 8.958,31.8365 8.959,10.4743 29.08,10.4743 19.847,0 28.943,-10.0608 9.234,-10.0609 9.234,-32.25 v -128.0351 h 53.198 z m -50.993,-208.1087 v 2.7564 l -48.513,51.407 h -33.904 l 34.042,-54.1634 z"
     style="font-style:normal;font-variant:normal;font-weight:bold;font-stretch:normal;font-family:sans-serif;-inkscape-font-specification:'sans-serif Bold';fill:#ffffff"
     id="path4412" /><path
     d="m 17281.409,3123.0806 q 0,-7.718 -3.17,-13.2308 -3.17,-5.5128 -10.888,-8.6826 -5.375,-2.2052 -12.542,-2.6186 -7.166,-0.5513 -16.676,-0.5513 h -19.157 v 55.2659 h 16.263 q 12.679,0 21.224,-1.2403 8.545,-1.2404 14.333,-5.6507 5.513,-4.2724 7.994,-9.3718 2.619,-5.2371 2.619,-13.9198 z m 82.554,142.3684 h -64.638 l -55.955,-75.2499 h -24.394 v 75.2499 h -52.647 v -205.2145 h 88.756 q 18.192,0 31.285,2.0673 13.093,2.0673 24.532,8.9583 11.577,6.8911 18.33,17.9167 6.891,10.8878 6.891,27.4262 0,22.7404 -10.612,37.0737 -10.474,14.3333 -30.045,23.8429 z"
     style="font-style:normal;font-variant:normal;font-weight:bold;font-stretch:normal;font-family:sans-serif;-inkscape-font-specification:'sans-serif Bold';fill:#ffffff"
     id="path4414" /><path
     d="m 17577.033,3265.449 h -54.715 l -14.195,-41.4839 h -76.077 l -14.195,41.4839 h -53.337 l 75.801,-205.2145 h 60.917 z m -81.727,-79.1089 -25.221,-73.596 -25.222,73.596 z"
     style="font-style:normal;font-variant:normal;font-weight:bold;font-stretch:normal;font-family:sans-serif;-inkscape-font-specification:'sans-serif Bold';fill:#ffffff"
     id="path4416" /></g><path
   id="rect408-57"
   style="clip-rule:evenodd;fill:#a93d52;fill-opacity:1;fill-rule:evenodd;stroke-width:41.718;image-rendering:optimizeQuality;shape-rendering:geometricPrecision;text-rendering:geometricPrecision"
   d="m 20503.557,6240.5107 h 5236.022 v 4608.7163 h -5236.022 z" /><g
   aria-label="KRIMINALITA"
   transform="matrix(1.5221001,0,0,1.5833333,-1693.833,5255.4285)"
   id="text446-8"
   style="font-style:normal;font-weight:normal;font-size:282.256px;line-height:1.25;font-family:sans-serif;white-space:pre;inline-size:7451.84;clip-rule:evenodd;fill:#000000;fill-opacity:1;fill-rule:evenodd;stroke:none;stroke-width:26.4615;image-rendering:optimizeQuality;shape-rendering:geometricPrecision;text-rendering:geometricPrecision"><path
     d="m 15381.004,3265.449 h -64.913 l -61.33,-82.1409 -12.404,15.0224 v 67.1185 h -52.923 v -205.2145 h 52.923 v 92.8909 l 73.32,-92.8909 h 61.33 l -80.211,94.9582 z"
     style="font-style:normal;font-variant:normal;font-weight:bold;font-stretch:normal;font-family:sans-serif;-inkscape-font-specification:'sans-serif Bold';fill:#ffffff"
     id="path4435" /><path
     d="m 15522.27,3123.0806 q 0,-7.718 -3.17,-13.2308 -3.17,-5.5128 -10.888,-8.6826 -5.375,-2.2052 -12.541,-2.6186 -7.167,-0.5513 -16.677,-0.5513 h -19.157 v 55.2659 h 16.263 q 12.68,0 21.224,-1.2403 8.545,-1.2404 14.334,-5.6507 5.513,-4.2724 7.993,-9.3718 2.619,-5.2371 2.619,-13.9198 z m 82.554,142.3684 h -64.637 l -55.955,-75.2499 h -24.395 v 75.2499 h -52.647 v -205.2145 h 88.756 q 18.193,0 31.286,2.0673 13.092,2.0673 24.532,8.9583 11.576,6.8911 18.33,17.9167 6.891,10.8878 6.891,27.4262 0,22.7404 -10.613,37.0737 -10.474,14.3333 -30.044,23.8429 z"
     style="font-style:normal;font-variant:normal;font-weight:bold;font-stretch:normal;font-family:sans-serif;-inkscape-font-specification:'sans-serif Bold';fill:#ffffff"
     id="path4437" /><path
     d="m 15739.199,3265.449 h -120.179 v -36.3846 h 33.628 v -132.4453 h -33.628 v -36.3846 h 120.179 v 36.3846 h -33.628 v 132.4453 h 33.628 z"
     style="font-style:normal;font-variant:normal;font-weight:bold;font-stretch:normal;font-family:sans-serif;-inkscape-font-specification:'sans-serif Bold';fill:#ffffff"
     id="path4439" /><path
     d="m 15997.75,3265.449 h -52.647 v -137.4069 l -38.039,89.1698 h -36.522 l -38.038,-89.1698 v 137.4069 h -49.891 v -205.2145 h 61.467 l 46.17,102.9518 46.032,-102.9518 h 61.468 z"
     style="font-style:normal;font-variant:normal;font-weight:bold;font-stretch:normal;font-family:sans-serif;-inkscape-font-specification:'sans-serif Bold';fill:#ffffff"
     id="path4441" /><path
     d="m 16160.929,3265.449 h -120.179 v -36.3846 h 33.628 v -132.4453 h -33.628 v -36.3846 h 120.179 v 36.3846 h -33.628 v 132.4453 h 33.628 z"
     style="font-style:normal;font-variant:normal;font-weight:bold;font-stretch:normal;font-family:sans-serif;-inkscape-font-specification:'sans-serif Bold';fill:#ffffff"
     id="path4443" /><path
     d="m 16390.951,3265.449 h -50.993 l -87.103,-140.8524 v 140.8524 h -48.512 v -205.2145 h 63.259 l 74.837,117.5608 v -117.5608 h 48.512 z"
     style="font-style:normal;font-variant:normal;font-weight:bold;font-stretch:normal;font-family:sans-serif;-inkscape-font-specification:'sans-serif Bold';fill:#ffffff"
     id="path4445" /><path
     d="m 16633.24,3265.449 h -54.715 l -14.196,-41.4839 h -76.076 l -14.196,41.4839 h -53.336 l 75.801,-205.2145 h 60.916 z m -81.728,-79.1089 -25.221,-73.596 -25.221,73.596 z"
     style="font-style:normal;font-variant:normal;font-weight:bold;font-stretch:normal;font-family:sans-serif;-inkscape-font-specification:'sans-serif Bold';fill:#ffffff"
     id="path4447" /><path
     d="m 16811.028,3265.449 h -148.019 v -205.2145 h 52.923 v 165.5222 h 95.096 z"
     style="font-style:normal;font-variant:normal;font-weight:bold;font-stretch:normal;font-family:sans-serif;-inkscape-font-specification:'sans-serif Bold';fill:#ffffff"
     id="path4449" /><path
     d="m 16953.672,3265.449 h -120.18 v -36.3846 h 33.629 v -132.4453 h -33.629 v -36.3846 h 120.18 v 36.3846 h -33.628 v 132.4453 h 33.628 z"
     style="font-style:normal;font-variant:normal;font-weight:bold;font-stretch:normal;font-family:sans-serif;-inkscape-font-specification:'sans-serif Bold';fill:#ffffff"
     id="path4451" /><path
     d="m 17157.646,3099.9268 h -64.087 v 165.5222 h -52.923 v -165.5222 h -64.086 v -39.6923 h 181.096 z"
     style="font-style:normal;font-variant:normal;font-weight:bold;font-stretch:normal;font-family:sans-serif;-inkscape-font-specification:'sans-serif Bold';fill:#ffffff"
     id="path4453" /><path
     d="m 17379.123,3265.449 h -54.715 l -14.195,-41.4839 h -76.077 l -14.195,41.4839 h -53.337 l 75.801,-205.2145 h 60.917 z m -81.727,-79.1089 -25.221,-73.596 -25.222,73.596 z"
     style="font-style:normal;font-variant:normal;font-weight:bold;font-stretch:normal;font-family:sans-serif;-inkscape-font-specification:'sans-serif Bold';fill:#ffffff"
     id="path4455" /></g><rect
   style="clip-rule:evenodd;fill:#a93d52;fill-opacity:1;fill-rule:evenodd;stroke-width:42.2586;image-rendering:optimizeQuality;shape-rendering:geometricPrecision;text-rendering:geometricPrecision"
   id="rect408-5-0"
   width="5255.7925"
   height="4711.1104"
   x="26525.352"
   y="6138.1167" /><path
   fill="#45070f"
   d="m 24206.142,6954.554 h -963.479 -321.16 -963.479 c -88.761,0 -160.58,74.7085 -160.58,167.0397 v 2338.5574 c 0,92.3313 71.819,167.0399 160.58,167.0399 h 2248.118 c 88.759,0 160.578,-74.7086 160.578,-167.0399 V 7121.5937 c 0,-92.3312 -71.819,-167.0397 -160.578,-167.0397 z m -802.899,1659.2065 c 62.704,11.4004 124.608,25.1811 184.865,42.9708 -53.993,55.6661 -116.5,102.0196 -184.865,138.1003 z m -923.335,-1575.6868 h 175.515 c -76.921,53.1189 -138.22,128.6207 -175.515,217.6113 z m 0,1078.075 c 12.606,4.6772 25.975,7.6839 40.144,7.6839 0,164.2001 65.277,312.3227 170.055,418.5183 -71.659,15.4511 -141.671,35.3707 -210.199,58.7562 z m -401.449,1427.5224 h -120.435 c -44.32,0 -80.291,-37.417 -80.291,-83.52 v -83.5199 -250.5597 c 0,-46.103 17.944,-87.8629 47.052,-118.0971 l -0.169,-0.1676 c 49.177,-41.2171 100.683,-79.4274 153.837,-115.2574 z m 0,-749.5495 c -69.933,44.3908 -137.056,92.9996 -200.726,146.0763 V 7455.6734 7246.8736 7121.5937 c 0,-46.1028 35.971,-83.52 80.291,-83.52 h 120.435 z m 321.158,749.5495 h -240.869 v -702.1519 c 76.999,-46.1865 157.41,-86.9442 240.869,-121.4795 z m 0,-1628.6385 v 83.5202 632.4962 c -83.097,32.6563 -163.709,70.5743 -240.869,114.3807 v -1707.356 h 240.869 z m 321.16,1628.6385 h -240.869 v -854.7428 c 2.891,-1.0439 5.7,-2.255 8.591,-3.2574 65.758,75.0846 144.441,137.6409 232.278,183.9527 z m 0,-770.3042 c -53.351,-32.4057 -102.811,-71.1171 -146.448,-116.0507 47.894,-14.2403 96.992,-25.3903 146.448,-35.4125 z m 0,-318.8374 c -74.71,-88.2803 -120.434,-203.8301 -120.434,-330.6969 v -41.7599 c 0,-23.0934 -17.946,-41.7601 -40.146,-41.7601 h -40.145 c -22.2,0 -40.144,-18.6665 -40.144,-41.7598 v -83.5202 c 0,-23.093 17.944,-41.7598 40.144,-41.7598 h 40.145 c 22.2,0 40.146,-18.6667 40.146,-41.7599 v -83.5199 c 0,-77.7152 51.266,-142.4849 120.434,-161.1098 z m 0,-953.3378 c -113.851,19.9613 -200.725,122.7326 -200.725,246.8013 v -292.3196 c 0,-154.4283 80.852,-289.0205 200.725,-361.2237 z m 321.159,2042.4794 h -240.869 v -637.4657 c 75.513,29.4823 156.405,47.4809 240.869,51.6987 z m 0,-670.2471 c -85.105,-4.7608 -166.318,-24.2209 -240.869,-57.3367 v -186.333 c 71.779,43.3053 153.476,70.658 240.869,77.1727 z m 0,-250.6018 c -89.522,-7.7256 -171.939,-40.8829 -240.869,-92.5818 v -953.2125 c 66.882,-11.693 124.53,-51.7407 160.58,-108.2836 20.515,32.1551 48.135,58.8399 80.289,78.258 z m 0,-1183.0176 c -24.69,-29.3573 -40.144,-67.3171 -40.144,-109.4111 0,-23.0931 -17.944,-41.76 -40.145,-41.76 -22.199,0 -40.144,18.6669 -40.144,41.76 0,77.7152 -51.266,142.4851 -120.436,161.11 v -434.2618 c 38.017,-12.4029 78.484,-19.168 120.436,-19.168 h 120.433 z m 281.016,2103.8665 h -200.727 v -585.767 c 69.694,-3.7165 136.895,-16.8292 200.727,-37.9598 z m 0,-712.8843 c -63.267,23.7198 -130.511,38.3775 -200.727,42.5534 v -166.3716 c 71.419,-5.3035 139.186,-24.4712 200.727,-54.9561 z m 0,-273.4441 c -59.975,36.1641 -127.981,59.2575 -200.727,65.4795 V 7577.0279 c 13.09,2.3384 26.416,3.9252 40.149,3.9252 h 160.578 z m 0,-1059.9095 h -160.578 c -13.972,0 -27.258,-2.4638 -40.149,-5.9297 v -453.4298 h 120.438 c 27.539,0 54.356,2.8815 80.289,8.3939 z m 321.16,2046.2379 h -240.869 V 8888.332 c 90.165,-41.4677 171.659,-99.6808 240.869,-170.9234 z m 0,-955.259 c -55.803,-17.6645 -112.245,-33.6167 -170.015,-46.0612 104.738,-106.1956 170.015,-254.3182 170.015,-418.5183 z m 0,-548.0995 h -40.145 c -22.201,0 -40.146,18.6667 -40.146,41.7601 v 41.7599 c 0,148.2062 -62.264,281.0028 -160.578,372.7493 v -915.6288 c 88.679,0 160.578,74.7922 160.578,167.0399 v 83.5199 c 0,23.0932 17.945,41.7599 40.146,41.7599 h 40.145 z m 0,-292.3196 c 0,-138.3507 -107.909,-250.5598 -240.869,-250.5598 v -424.3645 c 141.709,64.4774 240.869,211.4307 240.869,382.6047 z m 0,-569.1046 c -35.65,-55.8332 -81.695,-103.7316 -135.369,-140.8147 h 135.369 z m 321.159,2364.7827 h -240.869 v -839.5004 c 83.22,32.1553 163.75,69.948 240.869,113.5872 z m 0,-819.7478 c -77.44,-41.5095 -157.77,-77.8825 -240.869,-108.409 v -524.1709 c 24.447,-22.9265 40.145,-55.7914 40.145,-92.7906 v -83.5202 c 0,-36.9991 -15.698,-69.8641 -40.145,-92.7903 v -366.5689 -417.5997 h 240.869 z m 321.16,527.4279 v 208.7999 c 0,46.103 -35.97,83.52 -80.289,83.52 h -160.58 v -677.7642 c 67.684,43.0129 132.479,90.3686 193.979,141.9004 l -0.167,0.1675 c 29.104,30.2343 47.051,71.9944 47.051,118.0972 z m 0,-2004.4776 v 208.7998 1484.5245 c -75.754,-63.1828 -156.365,-120.0598 -240.869,-170.7982 v -1731.326 h 160.58 c 44.319,0 80.289,37.4172 80.289,83.52 z"
   id="path730"
   style="stroke-width:40.9445" /><g
   id="g750"
   transform="matrix(40.144803,0,0,41.759806,21840.903,1430.5641)">
	<g
   id="g748">
		<path
   fill="#45070f"
   d="M 25.882,22.467 C 25.91,22.419 26.18,22 26.998,22 c 0.808,0 1.096,0.436 1.111,0.458 0.178,0.345 0.528,0.542 0.89,0.542 0.153,0 0.311,-0.035 0.457,-0.111 0.49,-0.253 0.684,-0.856 0.431,-1.347 C 29.592,20.969 28.651,20 26.998,20 c -1.691,0 -2.618,0.984 -2.9,1.564 -0.234,0.482 -0.034,1.045 0.439,1.299 0.475,0.254 1.073,0.068 1.345,-0.396 z"
   id="path742" />
		<path
   fill="#45070f"
   d="m 34.539,22.862 c 0.475,0.255 1.074,0.068 1.346,-0.396 C 35.912,22.419 36.182,22 37,22 c 0.809,0 1.096,0.436 1.111,0.458 0.178,0.345 0.528,0.542 0.891,0.542 0.154,0 0.311,-0.035 0.457,-0.111 0.49,-0.253 0.684,-0.856 0.43,-1.347 C 39.594,20.969 38.654,20 37,20 c -1.691,0 -2.617,0.983 -2.9,1.564 -0.233,0.483 -0.034,1.045 0.439,1.298 z"
   id="path744" />
		<path
   fill="#45070f"
   d="m 62.242,47.758 0.014,-0.014 C 59.018,45.11 55.391,42.87 51.418,41.101 l -2.355,-0.99 c -2.771,-1.063 -5.709,-1.887 -8.799,-2.461 1.385,-1.498 2.631,-3.353 3.605,-5.503 -0.164,0.496 -0.275,1.018 -0.275,1.569 0,2.757 2.242,5 5,5 2.756,0 5,-2.243 5,-5 0,-1.439 -0.621,-2.729 -1.598,-3.643 1.539,-0.853 2.598,-2.476 2.598,-4.357 0,-1.907 -1.086,-3.549 -2.66,-4.392 0.953,-0.911 1.557,-2.188 1.557,-3.608 0,-2.35 -1.637,-4.313 -3.824,-4.846 C 48.209,5.536 41.764,0 34,0 h -4 c -7.735,0 -14.166,5.496 -15.652,12.792 -2.402,0.364 -4.254,2.423 -4.254,4.925 0,1.501 0.679,2.834 1.73,3.752 -1.432,0.88 -2.397,2.447 -2.397,4.248 0,1.882 1.058,3.505 2.598,4.357 -0.977,0.913 -1.598,2.203 -1.598,3.643 0,2.757 2.243,5 5,5 2.757,0 5,-2.243 5,-5 0,-0.504 -0.097,-0.98 -0.236,-1.438 0.974,2.112 2.208,3.937 3.579,5.411 -3.2,0.605 -6.121,1.425 -8.838,2.443 l -2.347,0.963 C 8.606,42.841 5.059,45.049 1.744,47.744 l 0.014,0.014 C 0.672,48.844 0,50.344 0,52 v 8 c 0,2.211 1.789,4 4,4 h 56 c 2.211,0 4,-1.789 4,-4 v -8 c 0,-1.656 -0.672,-3.156 -1.758,-4.242 z M 44.193,31.391 c 0.42,-1.019 0.777,-2.1 1.061,-3.237 0.254,0.448 0.563,0.856 0.938,1.206 -0.85,0.47 -1.542,1.173 -1.999,2.031 z m 1.957,-9.283 c -0.053,0.051 -0.105,0.101 -0.156,0.153 0,-0.079 0.006,-0.156 0.006,-0.235 0.049,0.03 0.1,0.055 0.15,0.082 z m 2.444,14.609 c -1.654,0 -3,-1.346 -3,-3 0,-1.654 1.346,-3 3,-3 1.654,0 3,1.346 3,3 0,1.654 -1.346,3 -3,3 z m 1,-8 c -1.654,0 -3,-1.346 -3,-3 0,-1.654 1.346,-3 3,-3 1.654,0 3,1.346 3,3 0,1.654 -1.346,3 -3,3 z m -34.5,-14 c 0.319,0 0.622,0.063 0.911,0.157 0,-0.263 0.14,-0.664 0.257,-1.417 C 17.462,6.944 23.14,2 30,2 h 4 c 6.834,0 12.494,4.906 13.725,11.383 0.092,0.763 0.164,1.123 0.16,1.396 0.16,-0.027 0.438,-0.063 0.605,-0.063 1.654,0 3,1.346 3,3 0,1.654 -1.346,3 -3,3 -1.549,0 -2.811,-1.183 -2.969,-2.689 -0.4,-0.888 -0.906,-1.591 -1.336,-2.101 -0.014,-0.017 -0.029,-0.032 -0.043,-0.049 -0.064,-0.076 -0.133,-0.161 -0.193,-0.227 -0.002,0.003 -0.004,0.006 -0.004,0.009 C 42.48,14.031 40.363,13 38,13 h -4 c -2.209,0 -4,-1.791 -4,-4 0,-0.553 -0.447,-1 -1,-1 -0.553,0 -1,0.447 -1,1 0,2.209 -1.791,4 -4,4 -3.097,0 -5.645,2.348 -5.965,5.358 l -0.01,-0.016 c -0.289,1.354 -1.492,2.374 -2.932,2.374 -1.654,0 -3,-1.346 -3,-3 0,-1.654 1.346,-2.999 3.001,-2.999 z m 2.911,7.52 c -0.096,-0.099 -0.205,-0.182 -0.309,-0.272 0.103,-0.063 0.205,-0.126 0.303,-0.196 V 22 c 0.001,0.08 0.006,0.158 0.006,0.237 z m -3.578,0.48 c 1.654,0 3,1.346 3,3 0,1.654 -1.346,3 -3,3 -1.654,0 -3,-1.346 -3,-3 0,-1.654 1.345,-3 3,-3 z m 1,14 c -1.654,0 -3,-1.346 -3,-3 0,-1.654 1.346,-3 3,-3 1.654,0 3,1.346 3,3 0,1.654 -1.346,3 -3,3 z m 2.402,-7.358 c 0.367,-0.343 0.672,-0.742 0.923,-1.181 0.267,1.067 0.598,2.085 0.984,3.048 C 19.281,30.441 18.624,29.8 17.829,29.359 Z M 20,22 v -3 c 0,-2.209 1.791,-4 4,-4 2.088,0 3.926,-1.068 5,-2.687 1.074,1.619 2.912,2.687 5,2.687 h 4 c 3.313,0 6,2.688 6,6 v 1 C 44,34 36.531,40 32,40 27.469,40 20,34 20,22 Z m 5.677,17.439 C 27.76,41.084 29.99,42 32,42 c 2.01,0 4.24,-0.916 6.324,-2.561 2.742,0.378 5.398,1.018 7.965,1.857 L 32.598,54.988 c -0.43,0.43 -0.748,0.447 -1.183,0.013 L 17.711,41.297 c 2.566,-0.84 5.223,-1.48 7.966,-1.858 z M 62,60 c 0,1.104 -0.896,2 -2,2 H 4 C 2.896,62 2,61.104 2,60 V 52 C 2,50.896 2.447,49.896 3.172,49.172 L 3.168,49.168 c 3.716,-2.994 7.918,-5.4 12.453,-7.133 l 14.172,14.172 c 1.5,1.5 2.914,1.5 4.414,0 L 48.379,42.035 c 4.535,1.732 8.738,4.139 12.453,7.133 l -0.004,0.004 C 61.553,49.896 62,50.896 62,52 Z"
   id="path746" />
	</g>
</g><g
   id="g770"
   transform="matrix(40.144561,0,0,41.759555,27876.047,1471.6494)">
	<g
   id="g768">
		<path
   fill="#45070f"
   d="m 60,58 c 0,-2.209 -1.791,-4 -4,-4 H 54 V 25 h 6 c 1.795,0 3.369,-1.193 3.852,-2.922 0.484,-1.727 -0.242,-3.566 -1.775,-4.497 l -28,-17 C 33.438,0.193 32.719,0 32,0 31.281,0 30.562,0.193 29.924,0.581 l -28,17 C 0.391,18.512 -0.336,20.352 0.149,22.078 0.632,23.807 2.206,25 4,25 h 6 V 54 H 8 c -2.209,0 -4,1.791 -4,4 -2.209,0 -4,1.791 -4,4 v 2 h 64 v -2 c 0,-2.209 -1.791,-4 -4,-4 z M 4,23 C 3.107,23 2.314,22.399 2.074,21.538 1.833,20.68 2.198,19.754 2.962,19.291 L 30.963,2.29 C 31.275,2.1 31.634,2 32,2 c 0.366,0 0.725,0.1 1.038,0.291 l 28.001,17 c 0.764,0.463 1.129,1.389 0.887,2.248 C 61.686,22.399 60.893,23 60,23 Z m 48,2 V 54 H 48 V 25 Z m -6,0 V 54 H 42 V 25 Z m -6,0 V 54 H 36 V 25 Z m -6,0 V 54 H 30 V 25 Z m -6,0 V 54 H 24 V 25 Z m -6,0 V 54 H 18 V 25 Z m -6,0 V 54 H 12 V 25 Z M 8,56 h 48 c 1.104,0 2,0.896 2,2 H 6 c 0,-1.104 0.896,-2 2,-2 z m -6,6 c 0,-1.104 0.896,-2 2,-2 h 56 c 1.104,0 2,0.896 2,2 z"
   id="path764" />
		<path
   fill="#45070f"
   d="m 32,9 c -2.762,0 -5,2.238 -5,5 0,2.762 2.238,5 5,5 2.762,0 5,-2.238 5,-5 0,-2.762 -2.238,-5 -5,-5 z m 0,8 c -1.657,0 -3,-1.343 -3,-3 0,-1.657 1.343,-3 3,-3 1.658,0 3,1.343 3,3 0,1.657 -1.342,3 -3,3 z"
   id="path766" />
	</g>
</g><g
   aria-label="ANALÝZY"
   transform="matrix(1.5221001,0,0,1.5833333,4975.614,5236.5365)"
   id="text446-8-9"
   style="font-style:normal;font-weight:normal;font-size:282.256px;line-height:1.25;font-family:sans-serif;white-space:pre;inline-size:7451.84;clip-rule:evenodd;fill:#000000;fill-opacity:1;fill-rule:evenodd;stroke:none;stroke-width:26.4615;image-rendering:optimizeQuality;shape-rendering:geometricPrecision;text-rendering:geometricPrecision"><path
     d="m 15379.075,3265.449 h -54.715 l -14.195,-41.4839 h -76.077 l -14.196,41.4839 h -53.336 l 75.801,-205.2145 h 60.916 z m -81.728,-79.1089 -25.221,-73.596 -25.221,73.596 z"
     style="font-style:normal;font-variant:normal;font-weight:bold;font-stretch:normal;font-family:sans-serif;-inkscape-font-specification:'sans-serif Bold';fill:#ffffff"
     id="path4420" /><path
     d="m 15595.453,3265.449 h -50.994 l -87.102,-140.8524 v 140.8524 h -48.513 v -205.2145 h 63.259 l 74.837,117.5608 v -117.5608 h 48.513 z"
     style="font-style:normal;font-variant:normal;font-weight:bold;font-stretch:normal;font-family:sans-serif;-inkscape-font-specification:'sans-serif Bold';fill:#ffffff"
     id="path4422" /><path
     d="m 15837.741,3265.449 h -54.715 l -14.195,-41.4839 h -76.077 l -14.196,41.4839 h -53.336 l 75.801,-205.2145 h 60.917 z m -81.728,-79.1089 -25.221,-73.596 -25.221,73.596 z"
     style="font-style:normal;font-variant:normal;font-weight:bold;font-stretch:normal;font-family:sans-serif;-inkscape-font-specification:'sans-serif Bold';fill:#ffffff"
     id="path4424" /><path
     d="m 16015.529,3265.449 h -148.019 v -205.2145 h 52.923 v 165.5222 h 95.096 z"
     style="font-style:normal;font-variant:normal;font-weight:bold;font-stretch:normal;font-family:sans-serif;-inkscape-font-specification:'sans-serif Bold';fill:#ffffff"
     id="path4426" /><path
     d="m 16227.772,3060.2345 -75.663,125.83 v 79.3845 h -52.923 v -76.9038 l -76.904,-128.3107 h 60.09 l 44.378,79.3845 42.862,-79.3845 z m -57.471,-77.1794 v 2.7564 l -48.513,51.407 h -33.903 l 34.041,-54.1634 z"
     style="font-style:normal;font-variant:normal;font-weight:bold;font-stretch:normal;font-family:sans-serif;-inkscape-font-specification:'sans-serif Bold';fill:#ffffff"
     id="path4428" /><path
     d="m 16413.692,3265.449 h -172.413 v -38.4519 l 102.262,-127.0703 h -97.301 v -39.6923 h 161.939 v 39.141 l -102.125,126.3812 h 107.638 z"
     style="font-style:normal;font-variant:normal;font-weight:bold;font-stretch:normal;font-family:sans-serif;-inkscape-font-specification:'sans-serif Bold';fill:#ffffff"
     id="path4430" /><path
     d="m 16630.759,3060.2345 -75.664,125.83 v 79.3845 h -52.923 v -76.9038 l -76.903,-128.3107 h 60.089 l 44.379,79.3845 42.862,-79.3845 z"
     style="font-style:normal;font-variant:normal;font-weight:bold;font-stretch:normal;font-family:sans-serif;-inkscape-font-specification:'sans-serif Bold';fill:#ffffff"
     id="path4432" /></g><g
   id="g811"
   transform="matrix(40.1458,0,0,41.760843,27837.664,6875.8007)">
	<path
   fill="#45070f"
   d="M 62.242,53.758 51.578,43.094 C 54.373,38.736 56,33.56 56,28 56,12.536 43.464,0 28,0 12.536,0 0,12.536 0,28 c 0,15.465 12.536,28 28,28 5.559,0 10.736,-1.627 15.093,-4.422 l 10.664,10.664 c 2.343,2.344 6.142,2.344 8.485,0 2.343,-2.344 2.344,-6.141 0,-8.484 z M 28,54 C 13.64,54 2,42.359 2,28 2,13.641 13.64,2 28,2 42.359,2 54,13.641 54,28 54,42.359 42.359,54 28,54 Z m 32.828,6.828 c -1.563,1.563 -4.095,1.563 -5.656,0 L 44.768,50.426 c 2.146,-1.607 4.052,-3.514 5.658,-5.657 l 10.402,10.402 c 1.562,1.561 1.562,4.096 0,5.657 z"
   id="path805" />
	<path
   fill="#45070f"
   d="M 28,4 C 14.745,4 4,14.745 4,28 4,41.255 14.745,52 28,52 41.255,52 52,41.255 52,28 52,14.745 41.255,4 28,4 Z m 0,46 C 15.85,50 6,40.15 6,28 6,15.85 15.85,6 28,6 40.15,6 50,15.85 50,28 50,40.15 40.15,50 28,50 Z"
   id="path807" />
	<path
   fill="#45070f"
   d="m 28,11 c -0.553,0 -1,0.447 -1,1 0,0.553 0.447,1 1,1 8.284,0 15,6.716 15,15 0,0.553 0.447,1 1,1 0.553,0 1,-0.447 1,-1 0,-9.389 -7.611,-17 -17,-17 z"
   id="path809" />
</g></g>
</svg>
