<svg style="display: none;" id="brands" xmlns="http://www.w3.org/2000/svg"><symbol id="brands-transparency-international-slovensko.en" viewBox="0 0 125 30"><path d="M37.994 1.884h-2.246l.011-1.273h5.938l-.012 1.273h-2.211l-.058 6.738h-1.481l.059-6.738zM43.33.611h2.535c.471 0 .88.06 1.228.179.347.12.631.285.85.493.22.209.383.452.487.729.104.278.156.583.156.915 0 .501-.139.931-.417 1.29-.277.359-.656.625-1.134.793l2.281 2.986-1.32.788-2.223-3.09a.616.616 0 00-.532-.278h-.463l-.011 3.207H43.25l.08-8.012zm2.385 3.599c.131 0 .269-.016.417-.052.146-.034.29-.098.428-.19s.252-.22.341-.383c.089-.162.134-.366.134-.613 0-.369-.127-.655-.382-.856-.255-.2-.579-.3-.973-.3h-.855L44.8 4.21h.915zM51.456 8.783l-1.378-.417L53.159.611h1.364l2.859 7.755-1.446.417-.787-2.291h-2.79l-.903 2.291zm2.362-6.62h-.023l-1.007 3.125h1.955l-.925-3.125zM58.75.865l1.377-.416 3.739 6.135h.023L63.795.611h1.483l-.07 7.755-1.493.417-3.646-6.102-.023.024.116 5.916H58.68l.07-7.756zM67.605 7.036c.208.147.445.272.711.381.268.108.5.162.701.162.393 0 .706-.11.938-.328a1.1 1.1 0 00.348-.829c0-.309-.106-.545-.317-.712-.213-.166-.547-.345-1.003-.539a10.575 10.575 0 01-.774-.37 2.717 2.717 0 01-.579-.423 1.89 1.89 0 01-.445-.654c-.112-.263-.168-.579-.168-.949 0-.326.063-.629.19-.915a2.23 2.23 0 01.543-.746c.237-.212.521-.377.852-.493a3.277 3.277 0 011.089-.173c.378 0 .757.06 1.133.178.38.121.755.285 1.125.493l-.626 1.064-.083-.045a6.975 6.975 0 00-.752-.365 1.877 1.877 0 00-.684-.121c-.362 0-.672.095-.925.283-.256.189-.384.455-.384.793 0 .308.112.552.336.729s.571.37 1.043.578c.3.14.557.267.77.378.212.11.41.254.596.429.185.173.335.385.445.635.113.251.168.546.168.886a2.28 2.28 0 01-.741 1.72 2.58 2.58 0 01-.845.514 2.956 2.956 0 01-1.065.186 4.231 4.231 0 01-2.176-.613l.579-1.134zM73.752.611h2.258c1.011 0 1.752.212 2.224.637.47.425.705 1.025.705 1.806 0 .401-.077.754-.231 1.06-.154.305-.367.56-.637.764a2.797 2.797 0 01-.932.457c-.352.1-.724.149-1.116.149H75.2l-.012 3.139H73.67l.082-8.012zm2.223 3.669c.408 0 .746-.114 1.012-.342.267-.228.4-.526.4-.896 0-.139-.021-.278-.063-.418a1.11 1.11 0 00-.645-.694 1.633 1.633 0 00-.646-.115h-.787l-.024 2.465h.753zM80.327 8.783l-1.377-.417L82.03.611h1.365l2.859 7.755-1.447.417-.786-2.291H81.23l-.903 2.291zm2.362-6.62h-.024l-1.006 3.125h1.957l-.927-3.125zM88.06.611h2.535c.471 0 .881.06 1.228.179.347.12.631.285.85.493.221.209.383.452.486.729.104.278.157.583.157.915 0 .501-.139.931-.417 1.29a2.403 2.403 0 01-1.134.793l2.28 2.986-1.32.788-2.223-3.09a.616.616 0 00-.532-.278h-.463l-.012 3.207h-1.517L88.06.611zm2.385 3.599c.131 0 .27-.016.418-.052.146-.034.289-.098.428-.19s.253-.22.341-.383c.089-.162.134-.366.134-.613 0-.369-.129-.655-.383-.856-.255-.2-.578-.3-.972-.3h-.857l-.023 2.394h.914zM95.886.611h4.283v1.273h-2.803l-.022 2.061h2.779v1.204h-2.791l-.011 2.199h2.848v1.275h-4.364l.081-8.012zM102.208.865l1.377-.416 3.739 6.135h.023l-.094-5.973h1.481l-.069 7.755-1.492.417-3.646-6.102-.024.024.116 5.916h-1.482l.071-7.756zM117.267 8.008a4.154 4.154 0 01-1.198.579 4.636 4.636 0 01-1.349.197 4.398 4.398 0 01-1.644-.306 3.974 3.974 0 01-1.331-.87 3.837 3.837 0 01-.874-1.325 4.347 4.347 0 01-.307-1.644c0-.61.1-1.173.301-1.69.2-.517.483-.96.85-1.331.366-.37.804-.658 1.31-.862a4.313 4.313 0 011.638-.307c.486 0 .953.079 1.4.236.447.159.853.389 1.216.689l-.648 1.03a2.702 2.702 0 00-.897-.499c-.36-.124-.7-.185-1.024-.185-.385 0-.738.072-1.058.214a2.355 2.355 0 00-.823.602 2.743 2.743 0 00-.526.91 3.316 3.316 0 00-.186 1.123c0 .378.062.744.186 1.099.122.354.301.671.533.948.23.279.502.497.816.654a2.19 2.19 0 001.012.238c.463 0 .841-.044 1.135-.134.293-.087.586-.217.881-.386l.587 1.02zM120.717 5.299l-2.651-4.087 1.355-.763 2.095 3.426 2.178-3.426 1.306.752-2.731 4.052-.046 3.369h-1.552l.046-3.323zM37.185 27.802c.209.147.446.274.713.383.266.108.499.162.7.162.393 0 .706-.11.938-.329a1.1 1.1 0 00.347-.828c0-.31-.105-.546-.318-.712-.212-.167-.546-.347-1.001-.538-.316-.14-.575-.264-.776-.371a2.825 2.825 0 01-.579-.422 1.904 1.904 0 01-.445-.654c-.113-.264-.168-.58-.168-.949a2.21 2.21 0 01.735-1.661c.235-.212.519-.377.852-.491a3.274 3.274 0 011.087-.174c.378 0 .757.059 1.135.178.377.121.751.284 1.122.492l-.625 1.064-.081-.044a6.055 6.055 0 00-.753-.364 1.824 1.824 0 00-.683-.123c-.363 0-.671.096-.926.284-.254.188-.381.453-.381.792 0 .31.112.553.335.729.224.178.572.371 1.042.58.301.138.558.264.77.376.212.11.411.255.597.429.185.174.333.386.446.637.111.25.168.546.168.886 0 .339-.064.656-.191.947a2.225 2.225 0 01-.551.771 2.598 2.598 0 01-.844.515c-.324.124-.68.187-1.066.187-.755 0-1.48-.205-2.175-.613l.576-1.139zM42.985 21.378h1.481l-.069 6.737h3.138v1.273h-4.62l.07-8.01zM48.594 23.757a4.183 4.183 0 012.298-2.224 4.402 4.402 0 011.667-.316c.642 0 1.226.104 1.754.316.528.215.982.509 1.36.887.379.379.67.821.874 1.331s.307 1.054.307 1.633-.108 1.121-.324 1.626a4.042 4.042 0 01-.914 1.33c-.393.384-.851.68-1.372.892a4.388 4.388 0 01-1.685.319 4.633 4.633 0 01-1.691-.307 4.103 4.103 0 01-1.371-.869 3.913 3.913 0 01-.908-1.332 4.21 4.21 0 01-.324-1.659c0-.579.109-1.12.329-1.627zm1.417 2.824c.132.368.317.683.555.942.24.265.529.467.869.609.339.144.713.214 1.123.214.402 0 .772-.077 1.111-.231.341-.154.631-.371.875-.649.243-.276.43-.595.562-.953.131-.358.196-.735.196-1.129 0-.425-.065-.818-.196-1.181a2.85 2.85 0 00-.556-.943 2.428 2.428 0 00-.875-.619 2.822 2.822 0 00-1.117-.221c-.338 0-.671.069-.995.203a2.84 2.84 0 00-.886.589c-.266.26-.475.573-.63.944a3.143 3.143 0 00-.232 1.228c0 .431.066.831.196 1.197zM57.12 21.691l1.493-.475 2.049 6.297h.023l2.304-6.297 1.436.475-3.056 7.697H59.98l-2.86-7.697zM72.394 21.377h1.482l-.023 3.738h.059l3.275-3.9 1.101.879-2.86 3.16 2.825 3.438-1.204.857-3.172-4.029h-.023l-.034 3.867h-1.482l.056-8.01zM65.192 29.469l-1.378-.419 3.079-7.755h1.365l2.859 7.755-1.446.419-.786-2.293h-2.792l-.901 2.293zm2.36-6.623h-.023l-1.006 3.125h1.956l-.927-3.125zM83.824 29.469l-1.377-.419 3.079-7.755h1.366l2.859 7.755-1.446.419-.788-2.293h-2.79l-.903 2.293zm2.362-6.623h-.023l-1.007 3.125h1.956l-.926-3.125zM79.772 21.376h1.481l-.069 8.011h-1.482l.07-8.011zM37.798 10.837h1.482l-.07 8.011h-1.481l.069-8.011zM41.063 11.092l1.376-.418 3.741 6.135h.022l-.092-5.973h1.481l-.069 7.755-1.495.418-3.646-6.101-.023.023.116 5.916h-1.481l.07-7.755zM50.96 12.111h-2.247l.012-1.274h5.939l-.013 1.274H52.44l-.058 6.736h-1.481l.059-6.736zM55.868 10.837h4.283v1.274h-2.802l-.023 2.059h2.779v1.204h-2.79l-.012 2.2h2.848v1.273h-4.364l.081-8.01zM62.119 10.837h2.536c.47 0 .88.06 1.227.181.348.119.632.282.852.491.22.208.382.451.484.729.104.277.158.582.158.914 0 .502-.14.932-.417 1.292-.278.358-.657.623-1.135.792l2.281 2.987-1.321.787-2.222-3.092a.619.619 0 00-.533-.277h-.463l-.012 3.207h-1.517l.082-8.011zm2.385 3.601c.131 0 .271-.018.417-.052.146-.036.289-.1.429-.192.139-.093.252-.22.342-.383a1.27 1.27 0 00.133-.613c0-.37-.127-.654-.383-.856-.254-.201-.577-.3-.972-.3h-.856l-.023 2.396h.913zM69.506 11.092l1.376-.418 3.74 6.135h.022l-.093-5.973h1.483l-.07 7.755-1.494.419-3.646-6.101-.022.023.114 5.916h-1.48l.07-7.756zM78.5 19.01l-1.378-.418 3.079-7.755h1.366l2.858 7.755-1.446.418-.786-2.291h-2.791L78.5 19.01zm2.361-6.622h-.023l-1.006 3.125h1.956l-.927-3.125zM86.428 12.111h-2.244l.01-1.274h5.939l-.011 1.274H87.91l-.058 6.736H86.37l.058-6.736zM91.28 10.837h1.481l-.068 8.011H91.21l.07-8.011zM94.446 13.216c.22-.506.527-.949.92-1.332a4.266 4.266 0 011.378-.892 4.411 4.411 0 011.667-.318c.642 0 1.225.106 1.754.318a3.927 3.927 0 012.234 2.218c.204.51.307 1.054.307 1.632a4.05 4.05 0 01-1.239 2.958 4.272 4.272 0 01-1.372.892 4.443 4.443 0 01-1.684.318 4.617 4.617 0 01-1.69-.307 4.147 4.147 0 01-1.372-.868 3.932 3.932 0 01-.908-1.332 4.237 4.237 0 01-.323-1.661 4.012 4.012 0 01.328-1.626zm1.419 2.825c.131.365.315.68.556.942.238.264.528.466.867.608.34.143.714.214 1.123.214.4 0 .771-.076 1.111-.231.339-.154.631-.371.875-.648.242-.277.43-.596.561-.955.131-.358.197-.735.197-1.129 0-.425-.066-.817-.197-1.18a2.802 2.802 0 00-.557-.943 2.433 2.433 0 00-.873-.619 2.815 2.815 0 00-1.117-.22c-.339 0-.672.067-.995.203a2.812 2.812 0 00-1.517 1.532c-.154.37-.232.78-.232 1.227 0 .432.066.832.198 1.199zM104.175 11.092l1.379-.418 3.739 6.135h.023l-.094-5.973h1.481l-.068 7.755-1.494.418-3.646-6.101-.023.023.116 5.916h-1.481l.068-7.755zM113.17 19.01l-1.377-.418 3.08-7.755h1.365l2.86 7.755-1.447.418-.787-2.291h-2.791l-.903 2.291zm2.362-6.622h-.023l-1.006 3.125h1.956l-.927-3.125zM120.337 10.837h1.48l-.068 6.737h3.138v1.273h-4.62l.07-8.01zM11.422 9.137c0 1.336 1.105 2.419 2.469 2.419 1.363 0 2.469-1.083 2.469-2.419 0-1.335-1.105-2.418-2.469-2.418-1.364-.001-2.469 1.082-2.469 2.418"/><path d="M1.411 14.565c0-.435.021-.864.061-1.288.403.688 1.188 1.359 2.111 1.963-.054 2.042.056 5.461.618 7.595a13.559 13.559 0 01-2.79-8.27m16.235 3.869c3.817-.58 6.626-2.363 8.175-3.776.594-.542 1.771-2.527 1.779-3.209.184.954.272 1.982.272 3.117 0 6.476-4.178 11.607-10.157 13.098-.291-.003-.54.003-.871-.118-.256-.094-.553-.451-.609-.523-1.241-1.569-1.592-3.689-1.701-4.105-.204-.775-.196-2.17-.111-3.282.002-.03-4.508-.802-4.537-.608-.121.812.039 2.422.222 3.195.212.9.688 2.379 1.065 3.35.317.82.961 1.713 1.575 2.321-.356-.014-.682-.054-1.03-.194-.632-.251-1.356-1.354-1.541-1.629-.524-.789-.96-2.311-1.162-3.236-.235-1.074-.533-3.513-.416-4.605.021-.196.048-.408.078-.629 1.832.509 4.989.939 7.308.939.63-.003 1.199-.036 1.661-.106M2.7 8.76c1.665-3.54 4.805-6.225 8.61-7.231-.725.426-1.44.958-1.839 1.345C8.31 3.997 6.488 6.36 5.779 7.811c-.251.513-.562 1.22-.87 1.999-1.002-.47-1.847-.875-2.209-1.05M0 15c0 8.038 6.499 14.551 14.514 14.551s14.617-6.492 14.617-14.53c0-4.562-1.192-9.064-4.707-11.166-.17-.101-.855-.451-.896-.256-.076.374 2.188 1.687 2.254 3.508.031.85-.765 3.552-5.45 5.074-1.151.374-3.76.622-4.97.619-1.479-.004-4.201-.404-5.601-.88-.056-.02-.116-.04-.18-.064.459-3.761 2.421-7.299 3.821-8.274 2.264-1.578 3.926-1.911 4.514-1.905a6.45 6.45 0 011.785.263c.25.079.981.367 1.109.23.228-.247-.857-.748-1.204-.894C18.592.851 16.576.45 14.513.45 6.498.449 0 6.963 0 15"/></symbol><symbol id="brands-sme" viewBox="-228 369.9 154 54.1"><path d="M-228 418.2l5.9-14.5c2.7 1.9 5 3.2 7.1 4.1s4 1.3 5.8 1.3c1.3 0 2.3-.2 3-.7s1.1-1.1 1.1-2c0-1.4-1.8-2.5-5.5-3.3-1.2-.3-2.1-.5-2.8-.6-3.8-.9-6.8-2.6-8.8-5s-3.1-5.4-3.1-8.9c0-5.5 2-10 5.9-13.5 4-3.5 9.2-5.2 15.6-5.2 3 0 5.9.4 8.7 1.2 2.9.8 5.8 1.9 8.7 3.5l-5.6 13.5c-1.8-1.3-3.6-2.3-5.4-3s-3.5-1-5.2-1c-1.3 0-2.3.2-3 .7-.7.4-1.1 1-1.1 1.8 0 1.5 2.6 2.7 7.7 3.8.8.2 1.5.3 1.9.4 3.5.8 6.3 2.4 8.4 4.9 2 2.5 3.1 5.4 3.1 8.9 0 5.7-2.1 10.4-6.2 14s-9.5 5.4-16.1 5.4c-3.4 0-6.8-.5-10.1-1.4-3.3-1.1-6.6-2.5-10-4.4zM-132.2 422.6l-2.3-20.4c-.1-1.6-.3-3.1-.4-4.7-.1-1.6-.3-3.1-.4-4.7-.2 1.5-.5 3-.9 4.7s-.9 3.4-1.4 5.3l-5.9 19.8h-11l-5.9-19.9c-.6-1.9-1.1-3.6-1.4-5.3-.4-1.7-.7-3.2-.9-4.7-.1 1.6-.2 3.2-.4 4.7-.1 1.5-.3 3.1-.4 4.7l-2.3 20.4h-18.1l8.8-51.5h19.1l3.7 12.7c.1.4.3 1 .5 1.8 1.6 5.4 2.5 9.8 2.9 13.3h.3c.3-2.2.7-4.5 1.3-7s1.3-5.2 2.3-8.3l3.8-12.5h19.1l8.2 51.5-18.3.1c0-.1 0 0 0 0zM-108.9 422.6V371h34.5v14h-16.3v5h14.8v13.2h-14.8v5.4H-74v14h-34.9z"/></symbol><symbol id="brands-index-podnikatela" viewBox="-245.5 392.2 97 9.5"><path d="M-244.7 392.9h-.8v7.4c0 .4.1.6.3.8.2.2.4.3.7.3h.6v-7.6c0-.3-.1-.5-.3-.7-.1-.1-.3-.2-.5-.2zM-239.4 394.6c-1 0-1.7.3-2.3.9-.5.6-.8 1.2-.8 2v2.9c0 .3.1.6.3.8.2.2.5.3.9.3h.5v-3.9c0-.5.1-.8.3-1.1.2-.3.5-.4.9-.4.9 0 1.4.5 1.4 1.6v2.7c0 .3.1.6.3.8.2.2.5.3.9.3h.5v-3.9c0-.9-.3-1.7-.8-2.2-.6-.5-1.3-.8-2.1-.8zM-230.3 392.5h-.5v3.2c-.1-.3-.4-.5-.7-.8-.3-.2-.7-.3-1-.3-1 0-1.7.3-2.2 1s-.8 1.5-.8 2.7c0 .9.3 1.7.9 2.4.6.7 1.3 1 2.2 1 1.1 0 1.9-.3 2.5-.9.5-.6.8-1.4.8-2.4v-4.8c0-.3-.1-.6-.3-.8-.2-.2-.5-.3-.9-.3zm-1.9 7.7c-.5 0-.9-.2-1.2-.6s-.5-1-.5-1.7c0-.5.1-1 .4-1.4.3-.4.6-.5 1-.5.5 0 .9.2 1.2.6s.5 1 .5 1.7c0 1.2-.5 1.9-1.4 1.9zM-222.9 398.4c.5-.2.7-.7.7-1.3 0-.8-.3-1.4-.8-1.9s-1.2-.7-1.9-.7c-1 0-1.8.3-2.4 1-.6.7-.9 1.6-.9 2.7 0 1 .3 1.8 1 2.4s1.4.9 2.3.9c1.6 0 2.4-.5 2.4-1.5v-.4h-.1c-.5.4-1.1.6-2.1.6-.5 0-.9-.1-1.3-.4-.4-.3-.6-.6-.6-1h1.1c1.3.1 2.1 0 2.6-.4zm-3.5-.8v-.2c0-.4.2-.7.4-1 .3-.3.6-.4 1-.4s.7.1.9.3c.2.2.3.4.3.8 0 .2-.1.4-.4.5-.3.1-.8.1-1.6.1l-.6-.1zM-216.8 399.4l-.7-1.1c.4-.5.8-.9 1-1.2.5-.7.8-1.2.8-1.5 0-.2-.1-.4-.2-.5-.1-.1-.3-.2-.5-.2h-.6c-.1.4-.2.7-.3.9-.2.3-.5.7-1 1.3l-.7-1c-.6-.9-1.1-1.3-1.5-1.3h-1c0 .2.1.4.2.6l.3.6c.1.2.3.5.7 1l.7 1-.5.6c-.5.5-.8.9-1 1.3s-.3.7-.3 1.1c0 .2.1.3.2.4.1.1.3.2.5.2h.8c.1-.4.2-.8.4-1.1.2-.3.5-.7.9-1.2l.7 1.1c.3.5.6.8.9 1s.6.3.9.3c.4 0 .6-.1.8-.2.2-.2.3-.4.3-.6-.3-.1-.5-.2-.7-.4-.4-.4-.7-.6-1.1-1.1zM-211.3 392.9h-1c-.3 0-.7 0-1.1.1-.5.1-.8.2-1.1.3v7c0 .4.1.7.3.9.2.2.5.3.7.3h.7v-3.3c.4.2.8.3 1.4.3.8 0 1.5-.3 2.1-.8.5-.5.8-1.2.8-2.1 0-.8-.3-1.5-.8-2s-1.2-.7-2-.7zm.7 3.7c-.2.2-.6.3-1 .3-.5 0-.9-.1-1.2-.1v-2.4c.4-.1.6-.1.7-.1h.5c.5 0 .8.1 1 .3.2.2.3.6.3 1 0 .5-.1.8-.3 1zM-204.8 394.6c-1 0-1.9.3-2.5 1s-.9 1.6-.9 2.6c0 .9.3 1.7.9 2.4.6.7 1.4 1 2.3 1 1 0 1.9-.3 2.5-1s.9-1.6.9-2.6c0-.9-.3-1.7-.9-2.4-.5-.7-1.3-1-2.3-1zm1.1 5c-.2.3-.6.5-1.1.5-1.1 0-1.6-.7-1.6-2.1 0-.6.1-1 .4-1.4.2-.4.6-.5 1.1-.5 1.1 0 1.6.7 1.6 2.1 0 .7-.1 1-.4 1.4zM-195.7 392.5h-.5v3.2c-.1-.3-.4-.5-.7-.8-.3-.2-.7-.3-1-.3-1 0-1.7.3-2.2 1s-.8 1.5-.8 2.7c0 .9.3 1.7.9 2.4.6.7 1.3 1 2.2 1 1.1 0 1.9-.3 2.5-.9.5-.6.8-1.4.8-2.4v-4.8c0-.3-.1-.6-.3-.8-.2-.2-.5-.3-.9-.3zm-1.8 7.7c-.5 0-.9-.2-1.2-.6s-.5-1-.5-1.7c0-.5.1-1 .4-1.4.3-.4.6-.5 1-.5.5 0 .9.2 1.2.6s.5 1 .5 1.7c-.1 1.2-.6 1.9-1.4 1.9zM-190.2 394.6c-1 0-1.7.3-2.3.9-.5.6-.8 1.2-.8 2v2.9c0 .3.1.6.3.8.2.2.5.3.9.3h.5v-3.9c0-.5.1-.8.3-1.1.2-.3.5-.4.9-.4.9 0 1.4.5 1.4 1.6v2.7c0 .3.1.6.3.8.2.2.5.3.9.3h.5v-3.9c0-.9-.3-1.7-.8-2.2-.5-.5-1.2-.8-2.1-.8zM-183.8 399.9c-.2-.1-.2-.4-.2-.7v-3.1c0-.8-.4-1.2-1.2-1.2h-.5v4.6c0 .7.2 1.2.5 1.6s.8.5 1.5.5c.4 0 .6-.1.8-.2.2-.2.2-.4.2-.8v-.4h-.3c-.4-.1-.7-.1-.8-.3zM-184.9 394.2c.3 0 .5-.1.7-.3.2-.2.3-.4.3-.7 0-.3-.1-.5-.3-.7s-.4-.3-.7-.3-.5.1-.7.3c-.2.2-.3.4-.3.7 0 .3.1.5.3.7.2.2.4.3.7.3zM-177 399.9c-.3-.3-.8-.9-1.7-2 .4-.5.9-1 1.5-1.7s1-1.1 1.3-1.3v-.1h-1c-.6 0-1 .1-1.3.4-.5.4-1.2 1.3-2.1 2.4v-4c0-.3-.1-.6-.3-.8-.2-.2-.5-.3-.9-.3h-.5v7.8c0 .4.1.7.3.9.2.2.5.3.9.3h.5v-3.3c1 1.3 1.8 2.3 2.3 2.9.3.3.7.5 1.1.5.3 0 .6-.1.7-.2.2-.1.3-.3.4-.6l-.6-.3-.6-.6zM-170.8 395.2c-.3-.2-.6-.4-.9-.5-.3-.1-.7-.1-1.1-.1-.8 0-1.4.2-1.8.5-.4.3-.6.7-.6 1.1v.5h.1c.2-.2.4-.4.8-.5.4-.2.8-.2 1.4-.2.5 0 .9.1 1.1.3.2.2.3.5.3 1v.1h-.6c-1.2 0-2 .2-2.6.6-.5.4-.8.9-.8 1.5s.3 1.1.8 1.5 1.1.6 1.9.6h.3c.7 0 1.4-.2 1.8-.7.5-.4.7-1 .7-1.7v-1.6c0-.6-.1-1-.2-1.4-.1-.4-.3-.8-.6-1zm-.8 4c0 .7-.4 1-1.1 1-.4 0-.6-.1-.9-.2-.2-.1-.3-.4-.3-.6 0-.3.1-.5.4-.6.2-.1.7-.2 1.3-.2h.6v.6zM-167.2 393.2h-.4c-.3 0-.5.2-.8.5-.2.2-.3.4-.4.6-.1.2-.1.4-.1.7v4c0 .8.2 1.4.6 1.8.4.4 1.1.6 1.9.6.5 0 .8-.1 1.1-.3.3-.2.4-.5.4-.8v-.6h-.1c-.3.2-.7.2-1.2.2-.7 0-1.1-.4-1.1-1.2v-2.6h1.3c.3 0 .6-.1.7-.2.2-.2.3-.4.3-.5v-.7h-2.3l.1-1.5zM-159.2 398.4c.5-.2.7-.7.7-1.3 0-.8-.3-1.4-.8-1.9s-1.2-.7-1.9-.7c-1 0-1.8.3-2.4 1-.6.7-.9 1.6-.9 2.7 0 1 .3 1.8 1 2.4s1.4.9 2.3.9c1.6 0 2.4-.5 2.4-1.5v-.4h-.1c-.5.4-1.1.6-2.1.6-.5 0-.9-.1-1.3-.4-.4-.3-.6-.6-.6-1h1.1c1.3.1 2.1 0 2.6-.4zm-3.5-.8v-.2c0-.4.2-.7.4-1s.6-.4 1-.4.7.1.9.3c.2.2.3.4.3.8 0 .2-.1.4-.4.5-.3.1-.8.1-1.6.1l-.6-.1zM-155.5 399.9c-.2-.1-.3-.4-.3-.7v-5.6c0-.3-.1-.6-.3-.8-.2-.2-.5-.3-.9-.3h-.5v7c0 .7.2 1.2.5 1.6.4.4.9.5 1.6.5.8 0 1.1-.3 1.1-1v-.4h-.4c-.3-.1-.6-.1-.8-.3zM-149.3 395.2c-.3-.2-.6-.4-.9-.5-.3-.1-.7-.1-1.1-.1-.8 0-1.4.2-1.8.5-.4.3-.6.7-.6 1.1v.5h.1c.2-.2.4-.4.8-.5.4-.2.8-.2 1.4-.2.5 0 .9.1 1.1.3.2.2.3.5.3 1v.1h-.6c-1.2 0-2 .2-2.6.6-.5.4-.8.9-.8 1.5s.3 1.1.8 1.5 1.1.6 1.9.6h.3c.8 0 1.4-.2 1.8-.7.5-.4.7-1 .7-1.7v-1.6c0-.6-.1-1-.2-1.4-.1-.4-.3-.8-.6-1zm-.8 4c0 .7-.4 1-1.1 1-.4 0-.7-.1-.9-.2s-.3-.4-.3-.6c0-.3.1-.5.4-.6.2-.1.7-.2 1.3-.2h.6v.6zM-154 394.4c.1-.6.3-1.5-.3-1.8-.3-.2-.8-.1-1.2-.1.1.9-.2 2.6 1 2.8.5.1.5-.4.5-.9z"/></symbol><symbol id="brands-otvorene-sudy.en" viewBox="0 0 132.57 60"><path fill="#00aeef" d="M13.149 16.857c-1.878 0-3.664.398-5.281 1.11V9.363a5.286 5.286 0 015.281-5.28 5.286 5.286 0 015.281 5.272h-.003v5.098h4.085v-5.09h.002C22.513 4.2 18.313 0 13.149 0 7.985 0 3.784 4.2 3.784 9.363v11.423A13.107 13.107 0 000 30.006c0 7.251 5.898 13.149 13.149 13.149 1.878 0 3.664-.398 5.281-1.11v8.591a5.286 5.286 0 01-5.281 5.281 5.287 5.287 0 01-5.281-5.281h.003v-5.098H3.784v5.098c0 5.163 4.201 9.364 9.364 9.364 5.164 0 9.365-4.201 9.365-9.364V39.225a13.107 13.107 0 003.785-9.219c0-7.25-5.898-13.149-13.149-13.149m0 22.215c-5 0-9.066-4.067-9.066-9.066 0-3.009 1.479-5.673 3.742-7.322h.043v-.034a9.01 9.01 0 015.281-1.711c5 0 9.066 4.067 9.066 9.066s-4.067 9.067-9.066 9.067"/><path fill="#1b325f" d="M15.367 27.668a2.218 2.218 0 10-3.203 1.986l-.881 4.895h3.73l-.881-4.895a2.215 2.215 0 001.235-1.986"/><path d="M53.683 17.6c0 1.475-.22 2.771-.659 3.891-.439 1.119-1.04 2.055-1.802 2.809a7.394 7.394 0 01-2.722 1.703 9.9 9.9 0 01-3.394.572 9.649 9.649 0 01-3.332-.572A7.635 7.635 0 0139.04 24.3c-.78-.754-1.392-1.689-1.84-2.809s-.671-2.416-.671-3.891c0-1.476.231-2.772.696-3.891.464-1.119 1.089-2.06 1.877-2.822a7.74 7.74 0 012.734-1.716 9.398 9.398 0 013.27-.571c1.177 0 2.287.19 3.331.571a7.588 7.588 0 012.735 1.716c.779.763 1.393 1.703 1.84 2.822.447 1.118.671 2.415.671 3.891m-13.152 0c0 .845.104 1.607.311 2.287s.505 1.264.895 1.753c.389.488.866.866 1.43 1.13.563.266 1.209.398 1.939.398.712 0 1.354-.133 1.927-.398a3.93 3.93 0 001.442-1.13c.389-.489.688-1.073.895-1.753s.311-1.442.311-2.287c0-.846-.104-1.611-.311-2.3-.207-.688-.506-1.276-.895-1.765a3.936 3.936 0 00-1.442-1.132c-.572-.265-1.214-.397-1.927-.397-.729 0-1.376.137-1.939.41a4.062 4.062 0 00-1.43 1.144c-.39.489-.688 1.077-.895 1.765a7.87 7.87 0 00-.311 2.275M61.431 8.799c2.569 0 4.542.451 5.917 1.354 1.376.904 2.063 2.384 2.063 4.438 0 2.072-.695 3.568-2.088 4.487-1.392.92-3.381 1.381-5.966 1.381h-1.218v5.768H56.26V9.246c.845-.166 1.74-.281 2.685-.349a36.77 36.77 0 012.486-.098m.249 3.306c-.283 0-.56.008-.833.024s-.51.033-.708.05v4.972h1.218c1.342 0 2.353-.183 3.033-.547.679-.364 1.019-1.044 1.019-2.038 0-.48-.087-.879-.261-1.193a1.988 1.988 0 00-.746-.758c-.324-.191-.717-.324-1.181-.398s-.979-.112-1.541-.112M72.271 26.226V8.998h11.635v3.256h-7.758v3.381h6.887v3.183h-6.887v4.151h8.329v3.257zM98.896 26.226a87.002 87.002 0 00-3.605-5.842 59.238 59.238 0 00-4.126-5.444v11.286h-3.829V8.998h3.157a30.242 30.242 0 011.815 2.013 73.93 73.93 0 012.025 2.549 87.78 87.78 0 012.052 2.81c.68.969 1.317 1.901 1.914 2.797V8.998h3.854v17.228h-3.257zM45.131 51.466c-2.801 0-4.935-.778-6.402-2.336-1.467-1.559-2.2-3.771-2.2-6.638 0-1.426.224-2.698.671-3.816.447-1.119 1.06-2.064 1.839-2.834a7.704 7.704 0 012.785-1.754c1.077-.397 2.246-.596 3.505-.596.729 0 1.393.054 1.989.161a12.88 12.88 0 011.566.373 7.894 7.894 0 011.766.784l-1.12 3.132a9.476 9.476 0 00-1.852-.721c-.705-.198-1.504-.298-2.399-.298-.597 0-1.181.1-1.753.298a3.978 3.978 0 00-1.517.957c-.439.439-.792 1.007-1.056 1.703-.266.696-.398 1.542-.398 2.536 0 .795.087 1.538.261 2.226.174.688.456 1.279.845 1.777.39.497.899.891 1.529 1.181.629.29 1.392.436 2.287.436.563 0 1.069-.033 1.517-.101.447-.066.845-.145 1.193-.236a6.13 6.13 0 00.92-.311c.265-.115.505-.223.721-.322l1.069 3.107c-.546.332-1.317.63-2.312.895s-2.146.397-3.454.397M69.172 42.491c0 1.476-.22 2.772-.659 3.891-.439 1.119-1.04 2.056-1.803 2.81a7.377 7.377 0 01-2.722 1.703c-1.053.381-2.184.571-3.394.571a9.639 9.639 0 01-3.331-.571 7.635 7.635 0 01-2.734-1.703c-.78-.754-1.393-1.69-1.84-2.81-.448-1.118-.671-2.415-.671-3.891 0-1.475.232-2.771.696-3.891.463-1.119 1.089-2.06 1.877-2.821a7.717 7.717 0 012.734-1.716 9.393 9.393 0 013.269-.572c1.177 0 2.287.191 3.332.572a7.57 7.57 0 012.734 1.716c.779.762 1.393 1.702 1.84 2.821.448 1.12.672 2.417.672 3.891m-13.152 0c0 .845.104 1.608.311 2.287.208.681.506 1.265.896 1.753.389.489.866.866 1.429 1.131.563.266 1.209.398 1.939.398.712 0 1.355-.133 1.927-.398a3.934 3.934 0 001.442-1.131c.39-.488.688-1.072.895-1.753.208-.679.311-1.442.311-2.287s-.104-1.611-.311-2.299c-.207-.688-.505-1.276-.895-1.766a3.944 3.944 0 00-1.442-1.131c-.572-.266-1.214-.398-1.927-.398-.729 0-1.375.137-1.939.41s-1.041.655-1.429 1.144c-.39.489-.688 1.078-.896 1.766-.208.687-.311 1.446-.311 2.274M78.849 51.466c-1.21 0-2.255-.17-3.133-.51-.878-.339-1.604-.812-2.175-1.417a5.654 5.654 0 01-1.268-2.162c-.274-.837-.411-1.762-.411-2.772V33.89h3.879v10.392c0 .696.078 1.289.235 1.778.158.488.373.887.646 1.192.273.307.605.527.995.659.39.133.815.199 1.28.199.944 0 1.711-.29 2.3-.87.588-.58.882-1.566.882-2.959V33.89h3.88v10.715c0 1.011-.142 1.939-.424 2.784a5.708 5.708 0 01-1.293 2.176c-.579.605-1.317 1.074-2.212 1.405-.894.33-1.954.496-3.181.496M94.517 33.69c2.585 0 4.565.46 5.941 1.38s2.063 2.35 2.063 4.289c0 1.21-.278 2.191-.833 2.945-.555.755-1.354 1.348-2.399 1.778.348.431.713.924 1.095 1.479.381.557.758 1.136 1.131 1.741a34.87 34.87 0 011.082 1.889c.348.654.671 1.297.969 1.927h-4.335c-.317-.563-.637-1.135-.962-1.715a39.633 39.633 0 00-.998-1.691 48.056 48.056 0 00-1.011-1.554 16.865 16.865 0 00-.997-1.33h-1.915v6.29h-3.879v-16.98c.847-.165 1.72-.281 2.623-.348a34.29 34.29 0 012.425-.1m.224 3.307c-.282 0-.534.009-.758.025-.225.017-.436.033-.635.05v4.673h1.094c1.458 0 2.502-.182 3.133-.546.63-.365.944-.986.944-1.865 0-.846-.319-1.445-.957-1.803-.637-.355-1.579-.534-2.821-.534M118.583 33.89v3.306h-5.197v13.922h-3.877V37.196h-5.196V33.89zM125.767 48.16c.547 0 .998-.046 1.354-.137.356-.092.643-.216.858-.373.215-.157.364-.344.446-.56.084-.216.125-.456.125-.721 0-.563-.265-1.032-.796-1.405-.53-.373-1.441-.774-2.734-1.205-.563-.199-1.127-.427-1.69-.684s-1.069-.58-1.516-.97c-.448-.39-.813-.862-1.095-1.417s-.423-1.23-.423-2.026.149-1.513.448-2.15c.298-.639.721-1.182 1.268-1.629s1.21-.791 1.989-1.031c.778-.24 1.656-.361 2.635-.361 1.16 0 2.163.125 3.008.374.846.248 1.542.521 2.089.819l-1.119 3.059a10.591 10.591 0 00-1.604-.659c-.588-.189-1.297-.285-2.125-.285-.929 0-1.596.128-2.002.385-.405.257-.609.65-.609 1.182 0 .314.075.58.225.795s.36.41.634.584.588.332.944.473.75.286 1.182.436c.895.331 1.673.658 2.337.981.662.323 1.213.7 1.652 1.132.439.431.768.936.982 1.516s.323 1.285.323 2.113c0 1.607-.564 2.855-1.69 3.742-1.128.887-2.826 1.33-5.097 1.33-.763 0-1.45-.046-2.063-.137a13.443 13.443 0 01-1.629-.336c-.472-.133-.878-.273-1.218-.423s-.626-.29-.857-.423l1.094-3.083c.514.282 1.147.535 1.901.759.756.223 1.68.335 2.773.335"/></symbol><symbol id="brands-websupport" viewBox="0 0 1269.524 400" xmlns:cc="http://creativecommons.org/ns#" xmlns:dc="http://purl.org/dc/elements/1.1/" xmlns:rdf="http://www.w3.org/1999/02/22-rdf-syntax-ns#" xmlns:svg="http://www.w3.org/2000/svg"><defs id="defs6-66911fd7-0978-435d-b3aa-39546809e6ba"><clipPath id="clipPath18-5e026ee0-ae08-4f8f-8c70-2489232ae3c0" clipPathUnits="userSpaceOnUse"><path id="path16-fa8982b6-a04e-4669-8c51-d4ab9fb38e39" d="M0 500h1200V0H0z"/></clipPath><clipPath id="clipPath30-80f289b0-e87a-4c0f-999f-2516486fbd58" clipPathUnits="userSpaceOnUse"><path id="path28-b215a12f-54f7-4016-93a7-caa2c9249270" d="M1057.02 286.836h19.05v-19.199h-19.05z"/></clipPath></defs><g transform="matrix(1.33333 0 0 -1.33333 -165.236 533.334)" id="g10-64b05f26-a137-4772-8708-b56440020dc3"><g id="g12-293b4443-2391-47ac-bbac-7e0918911145"><g clip-path="url(#clipPath18-5e026ee0-ae08-4f8f-8c70-2489232ae3c0)" id="g14-da30de94-71ce-4c0e-8384-80377b523b71"><g transform="translate(1041.125 222.317)" id="g20-d60d2985-c46d-4924-824d-43a1241c6232"><path id="path22-bd8648ff-0905-4a8d-ab84-9e1f45cfc4dc" d="M0 0c-3.914-3.914-10.208-7.126-16.918-7.126-13.421 0-22.225 8.946-22.225 22.367v33.271h-5.032c-3.355 0-6.014 2.653-6.014 6.008a5.972 5.972 0 006.014 6.015h5.032v23.901c0 4.194 2.933 7.413 6.711 7.413 3.771 0 6.71-3.219 6.71-7.413V60.535h15.235a5.973 5.973 0 006.014-6.015c0-3.355-2.66-6.008-6.014-6.008h-15.235V15.241c0-6.99 4.188-10.345 8.804-10.345 4.33 0 6.431 1.814 9.506 4.61 2.939 2.516 6.294 2.1 8.388 0C2.796 7.692 3.492 3.498 0 0m-60.813 54.52c0-3.355-2.66-6.008-6.015-6.008-11.184 0-16.912-9.09-16.912-20.69V1.398c0-4.194-2.933-7.406-6.71-7.406-3.778 0-6.71 3.212-6.71 7.406v51.724c0 4.194 2.932 7.413 6.71 7.413 3.777 0 6.71-3.219 6.71-7.413v-1.255c4.051 5.312 9.506 8.668 16.08 8.668 4.187 0 6.847-2.66 6.847-6.015m-67.102-27.257c0 13.141-8.108 22.367-19.994 22.367-12.302 0-19.845-9.226-19.845-22.367 0-13.284 7.686-22.367 19.845-22.367 11.886 0 19.994 9.083 19.994 22.367m13.699 0c0-18.875-13.979-34.389-33.693-34.389-19.845 0-33.551 15.514-33.551 34.389 0 18.869 13.706 34.39 33.551 34.39 19.714 0 33.693-15.521 33.693-34.39m-96.595 0c0 13.278-8.387 22.367-20.13 22.367-12.165 0-21.113-9.089-21.113-22.367 0-13.42 8.811-22.367 21.113-22.367 11.743 0 20.13 8.947 20.13 22.367m13.694 0c0-18.875-13.694-34.389-32.289-34.389-9.227 0-16.633 3.491-21.809 9.226v-31.457c0-4.194-2.938-7.406-6.71-7.406-3.771 0-6.71 3.212-6.71 7.406v82.479c0 4.194 2.939 7.413 6.71 7.413 3.772 0 6.71-3.219 6.71-7.413v-.696c5.176 5.729 12.582 9.227 21.809 9.227 18.595 0 32.289-15.378 32.289-34.39m-98.273 0c0 13.278-8.387 22.367-20.131 22.367-12.158 0-21.105-9.089-21.105-22.367 0-13.42 8.804-22.367 21.105-22.367 11.744 0 20.131 8.947 20.131 22.367m13.701 0c0-18.875-13.701-34.389-32.296-34.389-9.221 0-16.633 3.491-21.809 9.226v-31.457c0-4.194-2.933-7.406-6.71-7.406-3.771 0-6.71 3.212-6.71 7.406v82.479c0 4.194 2.939 7.413 6.71 7.413 3.777 0 6.71-3.219 6.71-7.413v-.696c5.176 5.729 12.588 9.227 21.809 9.227 18.595 0 32.296-15.378 32.296-34.39m-85.978 25.859V22.367c0-17.751-13.134-29.493-29.493-29.493-16.36 0-29.637 11.742-29.637 29.493v30.755c0 4.194 2.939 7.413 6.71 7.413 3.772 0 6.71-3.219 6.71-7.413V22.367c0-11.742 7.27-17.471 16.217-17.471 8.946 0 16.073 5.729 16.073 17.471v30.755c0 4.194 2.939 7.413 6.71 7.413 3.777 0 6.71-3.219 6.71-7.413m-76.185-40.397c0-11.886-11.463-19.851-24.181-19.851-10.066 0-18.453 4.05-22.654 7.548-3.068 2.517-3.068 6.568-.559 8.948 2.523 2.373 5.735 2.093 8.674.136 3.492-2.373 9.084-4.61 14.539-4.61 6.424 0 10.481 3.076 10.481 7.27 0 11.599-35.085 7.269-35.085 30.195 0 10.904 10.065 19.292 23.486 19.292 7.405 0 13.133-1.821 17.893-4.896 3.914-2.517 4.474-6.99 2.094-9.363-2.517-2.517-5.872-2.517-8.947-.703-3.355 1.821-6.853 2.939-11.04 2.939-5.735 0-9.793-2.796-9.793-7.269 0-11.743 35.092-6.573 35.092-29.636m-78.565 14.538c0 13.278-8.387 22.367-20.13 22.367-12.159 0-21.106-9.089-21.106-22.367 0-13.42 8.804-22.367 21.106-22.367 11.743 0 20.13 8.947 20.13 22.367m13.7 0c0-18.875-13.7-34.389-32.296-34.389-9.219 0-16.632 3.491-21.808 9.226v-.702c0-4.194-2.932-7.406-6.71-7.406-3.771 0-6.71 3.212-6.71 7.406v86.393c0 4.194 2.939 7.413 6.71 7.413 3.778 0 6.71-3.219 6.71-7.413V52.426c5.176 5.729 12.589 9.227 21.808 9.227 18.596 0 32.296-15.378 32.296-34.39m-135.322 5.872h37.466c-1.678 10.761-7.692 16.495-18.174 16.495-10.344 0-17.334-6.573-19.292-16.495m50.606-6.99c-.143-2.517-2.236-4.194-4.753-4.194h-45.989c1.534-10.345 7.965-17.055 20.267-17.055 5.455 0 11.88 2.094 15.657 4.89 3.076 2.1 6.288 2.236 8.668-.137 2.379-2.379 1.677-6.71-1.398-9.227-6.431-5.312-14.962-7.548-22.927-7.548-21.945 0-34.389 15.514-34.389 34.389 0 18.869 14.538 34.39 33.55 34.39 20.274 0 33.135-16.496 31.314-35.508m-76.191 26.002L-693.945-.559c-1.957-4.194-5.871-6.567-10.345-6.567-4.473 0-8.388 2.373-10.345 6.567l-21.109 46.412-21.109-46.412c-1.957-4.194-5.871-6.567-10.345-6.567-4.473 0-8.387 2.373-10.344 6.567l-21.109 46.412-21.11-46.412c-1.957-4.194-5.871-6.567-10.344-6.567-4.474 0-8.388 2.373-10.345 6.567l-24.324 52.706c-1.538 3.355-.141 7.269 3.215 8.804 3.495 1.677 7.409.143 8.947-3.212l22.507-50.749 21.528 48.232c1.817 3.915 5.592 6.431 9.926 6.431 4.333 0 8.247-2.516 9.925-6.431l21.528-48.232 21.529 48.232c1.817 3.915 5.591 6.431 9.925 6.431 4.334 0 8.248-2.516 9.926-6.431L-704.29 6.99l22.507 50.749c1.538 3.355 5.449 4.889 8.947 3.212 3.355-1.535 4.753-5.449 3.212-8.804m41.106-82.063c-21.535-53.402-75.492-92.401-138.68-92.401-82.759 0-150 67.238-150 149.996 0 82.759 67.241 150.004 150 150.004 63.188 0 117.145-39.006 138.68-92.408 1.814-4.474-.286-7.549-3.082-8.668-2.51-1.118-6.71-.838-8.804 4.194-20.546 49.351-69.617 84.3-126.794 84.3-75.769 0-137.418-61.653-137.418-137.422 0-75.768 61.649-137.415 137.418-137.415 57.177 0 106.248 34.949 126.794 84.293 2.094 5.033 6.294 5.313 8.947 4.194 2.653-1.118 4.753-4.194 2.939-8.667" stroke="none"/></g><g id="g24-e51f27d8-fa14-410b-8755-a41422d9b001"><g id="g38-3b9807da-1367-465f-8366-1be114088ed3"><g id="g36-55db02f2-20d3-417d-b503-2d3776851aa3" clip-path="url(#clipPath30-80f289b0-e87a-4c0f-999f-2516486fbd58)" opacity=".5"><g id="g34-fd598cbc-017a-44a0-8241-e983f30a81c8" transform="translate(1067.294 277.162)"><path id="path32-396a9bc5-4ff3-48ae-a3d3-538b5879e5e2" d="M0 0c1.19 0 2.081.895 2.081 1.937C2.081 2.98 1.19 3.722 0 3.722h-2.828V0zm1.038-1.191l2.383-3.866H1.784L-.302-1.339h-2.526v-3.718h-1.339V5.062H0c1.933 0 3.421-1.488 3.421-3.125 0-1.487-.891-2.679-2.383-3.128M7.588.148c0 4.469-3.871 8.186-8.334 8.186-4.612 0-8.334-3.717-8.334-8.186A8.322 8.322 0 01-.746-8.186 8.32 8.32 0 017.588.148m1.19 0c0-5.354-4.314-9.673-9.524-9.673-5.21 0-9.525 4.319-9.525 9.673 0 5.21 4.315 9.526 9.525 9.526S8.778 5.358 8.778.148" stroke="none"/></g></g></g></g></g></g></g></symbol><symbol id="brands-otvorene-sudy.sk" viewBox="0 0 170 60"><path fill="#00aeef" d="M13.066 16.941c-1.868 0-3.642.396-5.248 1.105V9.497a5.252 5.252 0 015.248-5.248 5.253 5.253 0 015.246 5.24h-.004v5.065h4.059V9.497h.003c0-5.13-4.174-9.305-9.304-9.305-5.132 0-9.305 4.175-9.305 9.305v11.349A13.018 13.018 0 000 30.007c0 7.204 5.86 13.065 13.066 13.065 1.866 0 3.64-.396 5.246-1.104v8.535a5.254 5.254 0 01-5.246 5.25 5.254 5.254 0 01-5.248-5.25h.002v-5.064H3.761v5.064c0 5.131 4.173 9.305 9.305 9.305 5.13 0 9.304-4.174 9.304-9.305V39.168a13.026 13.026 0 003.759-9.161c.001-7.204-5.859-13.066-13.063-13.066m0 22.075c-4.968 0-9.008-4.041-9.008-9.008 0-2.99 1.469-5.637 3.717-7.277h.043v-.033a8.959 8.959 0 015.248-1.7c4.966 0 9.008 4.043 9.008 9.01.001 4.967-4.042 9.008-9.008 9.008"/><path fill="#1b325f" d="M15.27 27.684a2.204 2.204 0 00-4.409 0c0 .867.502 1.611 1.227 1.974l-.874 4.864h3.706l-.877-4.864a2.207 2.207 0 001.227-1.974"/><path d="M53.356 17.688c0 1.469-.222 2.759-.658 3.872-.437 1.115-1.036 2.046-1.794 2.796a7.327 7.327 0 01-2.709 1.694 9.824 9.824 0 01-3.376.57c-1.17 0-2.274-.19-3.315-.57a7.614 7.614 0 01-2.722-1.694c-.774-.75-1.384-1.681-1.83-2.796-.445-1.112-.668-2.402-.668-3.872 0-1.467.23-2.758.693-3.873.46-1.113 1.083-2.047 1.868-2.807a7.681 7.681 0 012.722-1.706 9.347 9.347 0 013.252-.57 9.58 9.58 0 013.316.57 7.556 7.556 0 012.721 1.706c.775.759 1.385 1.694 1.83 2.807.446 1.115.67 2.406.67 3.873m-13.088 0c0 .841.103 1.601.309 2.276.206.677.502 1.259.89 1.745.387.486.862.861 1.422 1.125.56.265 1.204.396 1.93.396.71 0 1.349-.131 1.917-.396a3.904 3.904 0 001.434-1.125c.388-.485.685-1.067.89-1.745.208-.675.312-1.436.312-2.276s-.104-1.603-.312-2.287c-.205-.685-.502-1.271-.89-1.758a3.904 3.904 0 00-1.434-1.125c-.568-.264-1.208-.396-1.917-.396-.726 0-1.37.137-1.93.409a4.03 4.03 0 00-1.422 1.138c-.387.485-.684 1.072-.89 1.755a7.844 7.844 0 00-.309 2.264M68.742 9.129v3.29h-5.169v13.854h-3.86V12.419h-5.171v-3.29zM77.132 26.273a131.71 131.71 0 01-2.019-4.483 176.123 176.123 0 01-1.893-4.597 173.054 173.054 0 01-2.945-8.064h4.256c.319.992.676 2.062 1.069 3.206.393 1.144.794 2.285 1.201 3.421l1.17 3.267a37.118 37.118 0 001.075 2.698 56.81 56.81 0 001.054-2.689c.383-1.042.777-2.131 1.184-3.268.408-1.137.809-2.277 1.201-3.422.392-1.144.749-2.214 1.073-3.213h4.109a463.226 463.226 0 01-1.326 3.715 179.534 179.534 0 01-3.52 8.954 122.727 122.727 0 01-2.009 4.475h-3.68zM105.604 17.688c0 1.469-.218 2.759-.656 3.872-.438 1.115-1.035 2.046-1.793 2.796a7.352 7.352 0 01-2.707 1.694c-1.05.38-2.176.57-3.379.57a9.571 9.571 0 01-3.315-.57 7.614 7.614 0 01-2.722-1.694c-.775-.75-1.386-1.681-1.83-2.796-.446-1.112-.668-2.402-.668-3.872 0-1.467.23-2.758.691-3.873.463-1.113 1.087-2.047 1.869-2.807a7.677 7.677 0 012.721-1.706 9.362 9.362 0 013.254-.57c1.17 0 2.275.19 3.314.57a7.547 7.547 0 012.721 1.706c.775.759 1.387 1.694 1.831 2.807.444 1.115.669 2.406.669 3.873m-13.088 0c0 .841.104 1.601.311 2.276.205.677.502 1.259.889 1.745.389.486.863.861 1.424 1.125.563.265 1.203.396 1.93.396.707 0 1.349-.131 1.918-.396a3.937 3.937 0 001.434-1.125c.388-.485.685-1.067.891-1.745.207-.675.309-1.436.309-2.276s-.102-1.603-.309-2.287c-.206-.685-.503-1.271-.891-1.758a3.928 3.928 0 00-1.434-1.125c-.569-.264-1.211-.396-1.918-.396-.727 0-1.367.137-1.93.409a4.063 4.063 0 00-1.424 1.138c-.387.485-.684 1.072-.889 1.755a7.775 7.775 0 00-.311 2.264M112.605 8.931c2.57 0 4.543.458 5.912 1.373 1.369.917 2.053 2.338 2.053 4.269 0 1.203-.276 2.18-.828 2.931-.553.75-1.35 1.34-2.387 1.769.346.431.707.918 1.088 1.472.379.553.755 1.13 1.127 1.732.369.602.728 1.229 1.074 1.879.347.652.668 1.291.965 1.917h-4.314l-.957-1.706a37.82 37.82 0 00-.991-1.683 47.614 47.614 0 00-1.007-1.546 16.715 16.715 0 00-.994-1.324h-1.904v6.258h-3.859V9.376c.842-.165 1.713-.28 2.609-.347.9-.064 1.703-.098 2.413-.098m.222 3.29c-.282 0-.531.008-.755.025-.224.016-.432.033-.631.049v4.652h1.088c1.451 0 2.492-.181 3.118-.544.626-.364.94-.981.94-1.855 0-.842-.318-1.439-.954-1.794-.633-.355-1.569-.533-2.806-.533M124.107 26.273V9.129h11.579v3.241h-7.718v3.365h6.852v3.166h-6.852v4.132h8.288v3.24zM150.627 26.273a85.718 85.718 0 00-3.586-5.813 59.174 59.174 0 00-4.107-5.418v11.231h-3.81V9.129h3.142a30.22 30.22 0 011.807 2.004 73.411 73.411 0 012.016 2.536 88.662 88.662 0 012.043 2.794c.676.966 1.311 1.892 1.902 2.784V9.129h3.838v17.144h-3.245zM157.851 26.273V9.129h11.579v3.241h-7.718v3.365h6.853v3.166h-6.853v4.132H170v3.24h-12.149zm8.907-21.647l-4.07 3.44-1.693-1.51 3.5-4.007 2.263 2.077zM41.702 48.045c.543 0 .994-.045 1.349-.137.354-.09.639-.213.853-.371.214-.156.363-.342.446-.557.081-.213.123-.453.123-.717 0-.561-.264-1.027-.791-1.398-.529-.371-1.436-.77-2.723-1.199a20.073 20.073 0 01-1.681-.682 6.07 6.07 0 01-1.51-.965 4.575 4.575 0 01-1.088-1.41c-.281-.551-.421-1.223-.421-2.016 0-.791.149-1.504.446-2.141a4.56 4.56 0 011.262-1.619c.543-.445 1.204-.787 1.979-1.027.774-.238 1.649-.357 2.621-.357 1.156 0 2.153.123 2.995.371.84.246 1.534.518 2.077.816l-1.112 3.041a10.676 10.676 0 00-1.596-.654c-.587-.191-1.291-.283-2.117-.283-.921 0-1.587.125-1.99.381-.405.256-.607.648-.607 1.176 0 .313.076.578.223.793.149.213.359.406.631.58s.585.33.94.471.745.285 1.175.434c.891.33 1.666.654 2.326.977.658.32 1.208.697 1.646 1.125.436.43.762.932.978 1.51.212.578.321 1.279.321 2.104 0 1.6-.562 2.842-1.682 3.723-1.121.883-2.812 1.322-5.072 1.322-.759 0-1.443-.045-2.054-.135-.61-.092-1.15-.203-1.62-.334a9.243 9.243 0 01-2.067-.842l1.089-3.066c.511.281 1.142.531 1.893.754.75.221 1.671.332 2.758.332M58.152 51.334c-1.204 0-2.244-.168-3.117-.508-.874-.336-1.596-.807-2.163-1.408a5.627 5.627 0 01-1.263-2.152c-.27-.832-.407-1.752-.407-2.76V33.844h3.858v10.342c0 .693.079 1.283.234 1.768.158.488.372.883.644 1.188.272.307.602.525.992.656.386.133.812.199 1.274.199.938 0 1.702-.289 2.287-.867.585-.576.878-1.557.878-2.943V33.844h3.86v10.662c0 1.008-.141 1.93-.421 2.771a5.628 5.628 0 01-1.287 2.164c-.577.604-1.311 1.068-2.202 1.398-.89.331-1.944.495-3.167.495m3.416-21.993l-4.069 3.44-1.695-1.51 3.5-4.009 2.264 2.079zM83.982 42.404c0 1.484-.232 2.779-.693 3.885-.463 1.105-1.119 2.02-1.967 2.746-.851.725-1.884 1.27-3.104 1.633-1.22.361-2.59.543-4.107.543-.693 0-1.5-.029-2.426-.086a20.11 20.11 0 01-2.721-.359v-16.7c.89-.164 1.818-.275 2.783-.334a43.168 43.168 0 012.487-.086c1.468 0 2.798.164 3.996.494 1.193.332 2.223.85 3.08 1.559.857.709 1.517 1.617 1.98 2.723.46 1.105.692 2.433.692 3.982m-11.158 5.444a21.044 21.044 0 001.484.049c1.93 0 3.36-.486 4.292-1.461.931-.973 1.399-2.316 1.399-4.031 0-1.799-.445-3.158-1.337-4.082-.891-.924-2.3-1.385-4.23-1.385-.264 0-.538.004-.817.012a7.394 7.394 0 00-.792.063v10.835zM92.387 40.875a92.345 92.345 0 001.984-3.504 54.947 54.947 0 001.731-3.527h4.255a108.118 108.118 0 01-2.918 5.369 140.591 140.591 0 01-3.191 5.219v6.557h-3.861v-6.506a141.821 141.821 0 01-3.203-5.244 112.393 112.393 0 01-2.93-5.395h4.479a61.274 61.274 0 001.703 3.527 71.178 71.178 0 001.951 3.504"/></symbol><symbol id="brands-transparency-international-slovensko.sk" viewBox="0 0 125 30"><path d="M37.185 27.803c.21.147.447.273.715.383.263.107.496.16.699.16.393 0 .704-.107.938-.328.229-.221.347-.496.347-.827 0-.31-.106-.546-.318-.712-.212-.167-.546-.347-1-.539-.317-.14-.576-.262-.777-.37a2.794 2.794 0 01-.579-.423 1.898 1.898 0 01-.444-.652 2.42 2.42 0 01-.17-.951c0-.324.064-.629.191-.914s.309-.535.546-.746c.233-.213.518-.377.851-.492a3.273 3.273 0 011.087-.175c.379 0 .758.061 1.135.18.378.12.753.283 1.123.491l-.625 1.065-.081-.046a6.11 6.11 0 00-.754-.363 1.831 1.831 0 00-.682-.123c-.364 0-.671.095-.927.284-.254.188-.381.454-.381.793 0 .309.112.552.336.729.223.178.571.371 1.04.579.301.139.559.265.771.377a2.7 2.7 0 01.597.428c.185.174.334.387.445.637.112.25.169.545.169.887 0 .339-.064.655-.191.948s-.311.55-.551.771a2.62 2.62 0 01-.844.514c-.324.123-.68.186-1.066.186-.756 0-1.479-.205-2.175-.612l.575-1.139zM42.986 21.378h1.479l-.068 6.737h3.138v1.273h-4.621l.072-8.01zM48.593 23.756a4.195 4.195 0 012.3-2.222 4.398 4.398 0 011.666-.318c.642 0 1.226.106 1.754.318a4.04 4.04 0 011.36.886c.377.379.671.822.875 1.331a4.34 4.34 0 01.307 1.633 4.088 4.088 0 01-1.238 2.958 4.283 4.283 0 01-1.374.891 4.398 4.398 0 01-1.684.318 4.635 4.635 0 01-1.692-.307 4.072 4.072 0 01-1.37-.869 3.926 3.926 0 01-.907-1.33 4.198 4.198 0 01-.324-1.661 4.044 4.044 0 01.327-1.628zm1.419 2.826c.133.367.318.682.555.943.241.263.53.465.868.607.341.145.714.213 1.124.213.403 0 .772-.075 1.111-.23.339-.154.631-.371.874-.648.244-.276.43-.596.563-.954.131-.358.197-.735.197-1.129 0-.425-.066-.817-.197-1.181a2.854 2.854 0 00-.558-.943c-.238-.266-.53-.473-.873-.619s-.714-.221-1.117-.221c-.34 0-.671.068-.995.203s-.62.332-.886.59c-.267.259-.477.572-.631.943s-.232.779-.232 1.228a3.51 3.51 0 00.197 1.198zM57.118 21.69l1.495-.475 2.05 6.298h.022l2.304-6.298 1.437.475-3.057 7.698h-1.388l-2.863-7.698zM65.593 21.378h4.284v1.274h-2.802l-.022 2.061h2.778v1.203H67.04l-.011 2.199h2.848v1.273h-4.365l.081-8.01zM71.37 21.633l1.377-.417 3.74 6.136h.022l-.093-5.974h1.481l-.069 7.758-1.494.415-3.645-6.102-.023.025.115 5.914H71.3l.07-7.755zM79.797 27.803c.21.147.445.273.713.383.265.107.5.16.7.16.394 0 .705-.107.938-.328.231-.221.347-.496.347-.827 0-.31-.107-.546-.318-.712-.212-.167-.546-.347-1-.539-.318-.14-.576-.262-.777-.37s-.393-.249-.578-.423-.335-.392-.447-.652a2.458 2.458 0 01-.168-.951 2.206 2.206 0 01.736-1.66c.234-.213.519-.377.852-.492a3.275 3.275 0 011.088-.175c.376 0 .755.061 1.134.18.377.12.753.283 1.123.491l-.625 1.065-.081-.046a6.25 6.25 0 00-.754-.363 1.836 1.836 0 00-.683-.123c-.361 0-.671.095-.926.284-.254.188-.382.454-.382.793 0 .309.112.552.336.729.224.178.57.371 1.042.579.302.139.56.265.77.377.212.111.411.254.597.428s.332.387.445.637c.111.25.169.545.169.887 0 .339-.064.655-.192.948-.126.293-.31.55-.549.771-.24.219-.522.39-.845.514a2.987 2.987 0 01-1.066.186c-.757 0-1.481-.205-2.176-.612l.577-1.139zM85.504 21.378h1.482l-.022 3.739h.058l3.275-3.901 1.1.88-2.858 3.16 2.824 3.438-1.205.857-3.171-4.027h-.022l-.035 3.865h-1.482l.056-8.011z"/><path d="M91.651 23.756c.22-.504.527-.949.921-1.33a4.235 4.235 0 011.377-.892 4.395 4.395 0 011.666-.318c.641 0 1.227.106 1.755.318.529.213.98.508 1.359.886.379.379.67.822.875 1.331.204.511.306 1.054.306 1.633a4.07 4.07 0 01-1.238 2.958 4.253 4.253 0 01-1.372.891 4.41 4.41 0 01-1.685.318 4.628 4.628 0 01-1.69-.307 4.047 4.047 0 01-1.371-.869 3.929 3.929 0 01-.908-1.33 4.233 4.233 0 01-.323-1.661 4.028 4.028 0 01.328-1.628zm1.416 2.826c.132.367.318.682.558.943.238.263.527.465.868.607.34.145.713.213 1.122.213.402 0 .772-.075 1.112-.23.339-.154.631-.371.873-.648.242-.276.431-.596.561-.954.131-.358.198-.735.198-1.129 0-.425-.067-.817-.198-1.181a2.814 2.814 0 00-.555-.943 2.436 2.436 0 00-.873-.619 2.83 2.83 0 00-1.118-.221c-.339 0-.671.068-.995.203s-.62.332-.887.59a2.805 2.805 0 00-.631.943c-.153.371-.23.779-.23 1.228 0 .432.066.832.195 1.198zM37.994 1.884h-2.247l.011-1.273h5.939l-.012 1.273h-2.211l-.058 6.738h-1.481l.059-6.738zM43.329.611h2.535c.472 0 .88.059 1.228.179.347.12.631.285.851.492.22.209.383.452.487.729.104.279.156.583.156.915 0 .501-.138.932-.416 1.291-.278.358-.657.624-1.136.793l2.28 2.986-1.319.788-2.223-3.091a.62.62 0 00-.533-.279h-.463l-.011 3.208h-1.517l.081-8.011zm2.386 3.599c.132 0 .269-.016.417-.052.146-.034.289-.097.43-.19a1.09 1.09 0 00.341-.381 1.29 1.29 0 00.132-.614c0-.37-.126-.656-.382-.856-.255-.201-.579-.3-.972-.3h-.857L44.8 4.21h.915zM51.456 8.784l-1.376-.418L53.158.611h1.366l2.859 7.755-1.447.418-.787-2.292h-2.79l-.903 2.292zm2.363-6.621h-.026l-1.006 3.125h1.955l-.923-3.125zM58.749.865l1.378-.416 3.738 6.135h.024L63.795.611h1.482l-.07 7.755-1.492.418-3.647-6.102-.022.023.117 5.917H58.68l.069-7.757zM67.604 7.036c.209.148.447.273.711.381.268.109.5.162.703.162.393 0 .705-.11.938-.329a1.1 1.1 0 00.347-.828c0-.309-.105-.545-.318-.712-.214-.166-.545-.345-1.002-.538a10.176 10.176 0 01-.774-.37 2.747 2.747 0 01-.58-.423 1.886 1.886 0 01-.445-.653 2.436 2.436 0 01-.169-.949 2.203 2.203 0 01.735-1.662c.236-.212.52-.376.851-.492a3.292 3.292 0 011.09-.173c.377 0 .756.06 1.133.179.38.12.754.285 1.124.493l-.625 1.064-.08-.047a7.237 7.237 0 00-.754-.364 1.88 1.88 0 00-.683-.12c-.364 0-.672.094-.927.282-.256.189-.383.454-.383.794 0 .308.114.551.338.729.222.177.57.37 1.042.577.299.141.557.267.769.378.213.11.41.254.598.429.184.173.333.386.445.636.111.25.168.545.168.885 0 .34-.066.657-.191.95-.129.293-.313.55-.551.77-.239.22-.52.392-.844.514-.325.124-.68.187-1.066.187-.756 0-1.481-.204-2.177-.614l.577-1.136zM73.751.611h2.259c1.012 0 1.751.212 2.224.637.469.425.704 1.025.704 1.806 0 .402-.076.754-.229 1.059-.156.305-.368.56-.639.765-.27.204-.58.357-.931.457-.353.1-.725.149-1.116.149h-.824l-.011 3.139h-1.516l.079-8.012zm2.225 3.67c.407 0 .745-.114 1.012-.342.268-.228.399-.526.399-.896 0-.138-.021-.277-.063-.418a1.11 1.11 0 00-.643-.694 1.646 1.646 0 00-.647-.114h-.787l-.024 2.465h.753zM80.327 8.784l-1.378-.418L82.03.611h1.364l2.859 7.755-1.447.418-.786-2.292h-2.791l-.902 2.292zm2.362-6.621h-.024l-1.006 3.125h1.956l-.926-3.125zM88.061.611h2.535c.471 0 .88.059 1.228.179.347.12.631.285.85.492.22.209.383.452.486.729.103.279.156.583.156.915 0 .501-.139.932-.417 1.291a2.409 2.409 0 01-1.133.793l2.28 2.986-1.32.788-2.222-3.091a.626.626 0 00-.534-.279h-.463l-.012 3.208h-1.516l.082-8.011zm2.383 3.599c.131 0 .271-.016.418-.052.147-.034.289-.097.428-.19.14-.092.254-.22.341-.381.09-.162.135-.367.135-.614 0-.37-.129-.656-.383-.856s-.578-.3-.972-.3h-.856l-.024 2.393h.913zM95.886.611h4.284v1.273h-2.804l-.023 2.061h2.779V5.15h-2.79l-.01 2.198h2.848v1.275h-4.365l.081-8.012zM102.208.865l1.376-.416 3.739 6.135h.023l-.093-5.973h1.479l-.068 7.755-1.492.418-3.646-6.102-.023.023.115 5.917h-1.481l.071-7.757zM117.267 8.008a4.133 4.133 0 01-1.197.578 4.608 4.608 0 01-1.349.198 4.387 4.387 0 01-1.645-.307 3.966 3.966 0 01-1.331-.869 3.856 3.856 0 01-.874-1.325 4.345 4.345 0 01-.308-1.645c0-.609.101-1.172.302-1.689.2-.517.483-.96.851-1.332.365-.37.803-.657 1.309-.861a4.317 4.317 0 011.638-.307c.486 0 .954.08 1.399.236.447.159.855.39 1.217.69l-.647 1.029a2.726 2.726 0 00-.896-.498 3.165 3.165 0 00-1.025-.186c-.386 0-.738.072-1.059.214a2.333 2.333 0 00-.822.602 2.715 2.715 0 00-.526.909 3.296 3.296 0 00-.188 1.123c0 .378.063.744.188 1.1.121.354.301.671.532.949.229.278.503.497.816.654a2.19 2.19 0 001.012.238c.464 0 .84-.044 1.136-.134.293-.087.585-.217.88-.386l.587 1.019zM120.717 5.299l-2.652-4.086 1.354-.763 2.096 3.427L123.693.45l1.307.752-2.733 4.051-.045 3.369h-1.552l.047-3.323zM37.798 10.837h1.482l-.072 8.011h-1.479l.069-8.011zM41.062 11.092l1.377-.417 3.742 6.136h.022l-.095-5.974h1.482l-.068 7.756-1.494.417-3.648-6.1-.022.023.117 5.915h-1.481l.068-7.756zM50.961 12.112h-2.247l.012-1.275h5.938l-.012 1.275H52.44l-.057 6.735h-1.481l.059-6.735zM55.868 10.837h4.283v1.275H57.35l-.022 2.058h2.779v1.204h-2.791l-.012 2.2h2.848v1.273h-4.364l.08-8.01zM62.119 10.837h2.535c.471 0 .88.06 1.228.181.347.118.631.282.852.491.218.208.382.451.485.729.104.277.157.582.157.914 0 .502-.141.931-.419 1.291a2.388 2.388 0 01-1.133.792l2.28 2.987-1.32.787-2.222-3.09a.62.62 0 00-.533-.278h-.464l-.01 3.206h-1.518l.082-8.01zm2.386 3.601c.131 0 .27-.017.415-.051.148-.037.29-.1.429-.192.141-.093.254-.22.341-.383a1.25 1.25 0 00.135-.613c0-.37-.129-.655-.383-.856-.254-.201-.578-.301-.972-.301h-.856l-.022 2.396h.913zM69.505 11.092l1.378-.417 3.74 6.136h.022l-.093-5.974h1.481l-.07 7.756-1.493.417-3.646-6.1-.021.023.113 5.915h-1.481l.07-7.756zM78.5 19.01l-1.378-.417 3.078-7.756h1.366l2.859 7.756-1.446.417-.786-2.292h-2.79L78.5 19.01zm2.36-6.622h-.023l-1.007 3.125h1.956l-.926-3.125zM86.429 12.112h-2.245l.011-1.275h5.939l-.01 1.275H87.91l-.058 6.735h-1.481l.058-6.735zM91.278 10.837h1.482l-.068 8.011h-1.483l.069-8.011zM94.446 13.216c.219-.506.526-.949.919-1.331a4.268 4.268 0 011.379-.893 4.423 4.423 0 011.667-.318c.641 0 1.225.106 1.753.318.528.213.981.508 1.36.887.377.378.669.821.873 1.331.205.51.31 1.054.31 1.632a4.088 4.088 0 01-1.241 2.958c-.394.382-.85.678-1.372.891a4.4 4.4 0 01-1.683.318 4.587 4.587 0 01-1.689-.307 4.114 4.114 0 01-1.374-.868 3.96 3.96 0 01-.909-1.331 4.277 4.277 0 01-.322-1.662c-.001-.577.11-1.12.329-1.625zm1.418 2.825c.131.365.317.682.557.942.238.265.528.466.865.608a2.86 2.86 0 001.125.216c.4 0 .771-.078 1.111-.233a2.56 2.56 0 00.875-.648c.241-.277.429-.596.56-.954.131-.359.198-.736.198-1.129 0-.425-.067-.817-.198-1.18a2.858 2.858 0 00-.556-.944 2.451 2.451 0 00-.874-.62 2.827 2.827 0 00-1.116-.219c-.341 0-.672.068-.996.203a2.855 2.855 0 00-.886.59 2.776 2.776 0 00-.631.943c-.154.37-.232.78-.232 1.227 0 .432.066.831.198 1.198zM104.174 11.092l1.379-.417 3.739 6.136h.023l-.093-5.974h1.481l-.068 7.756-1.494.417-3.647-6.1-.023.023.118 5.915h-1.482l.067-7.756zM113.171 19.01l-1.379-.417 3.08-7.756h1.364l2.861 7.756-1.447.417-.787-2.292h-2.791l-.901 2.292zm2.36-6.622h-.023l-1.006 3.125h1.956l-.927-3.125zM120.336 10.837h1.481l-.068 6.737h3.137v1.273h-4.62l.07-8.01zM11.422 9.137c0 1.336 1.104 2.42 2.469 2.42s2.469-1.084 2.469-2.42c0-1.335-1.104-2.418-2.469-2.418s-2.469 1.083-2.469 2.418"/><path d="M1.41 14.565c0-.435.022-.864.062-1.288.403.688 1.189 1.359 2.11 1.963-.054 2.042.057 5.461.619 7.595a13.562 13.562 0 01-2.791-8.27m16.237 3.869c3.815-.58 6.625-2.361 8.174-3.776.593-.542 1.771-2.528 1.778-3.21.185.955.273 1.983.273 3.118 0 6.477-4.18 11.607-10.157 13.098-.29-.003-.54.004-.872-.116-.257-.095-.553-.453-.609-.523-1.24-1.571-1.592-3.692-1.7-4.107-.204-.774-.194-2.169-.111-3.281.002-.03-4.51-.801-4.538-.608-.119.811.04 2.421.222 3.194.215.9.688 2.379 1.067 3.351.318.819.96 1.712 1.574 2.32-.356-.013-.683-.054-1.028-.192-.635-.253-1.358-1.354-1.543-1.631-.524-.787-.959-2.311-1.161-3.236-.235-1.073-.532-3.512-.415-4.605.021-.197.047-.407.078-.629 1.831.51 4.986.939 7.306.939a11.88 11.88 0 001.662-.106M2.701 8.761C4.365 5.22 7.506 2.535 11.31 1.53c-.726.426-1.438.958-1.84 1.344C8.31 3.998 6.488 6.36 5.779 7.812c-.25.512-.561 1.219-.869 1.998-1.003-.47-1.847-.874-2.209-1.049M0 15c0 8.037 6.497 14.551 14.514 14.551s14.616-6.492 14.616-14.53c0-4.562-1.192-9.064-4.706-11.167-.17-.1-.855-.45-.896-.255-.076.373 2.188 1.686 2.254 3.507.033.851-.765 3.553-5.45 5.074-1.149.374-3.759.622-4.97.619-1.478-.005-4.2-.404-5.603-.88l-.178-.064c.458-3.761 2.421-7.3 3.82-8.274 2.264-1.578 3.927-1.911 4.515-1.905a6.426 6.426 0 011.783.263c.251.079.982.369 1.109.229.228-.247-.856-.747-1.203-.893C18.591.85 16.574.448 14.512.448 6.497.449 0 6.963 0 15"/></symbol></svg>
