<svg style="display: none;" id="brands" xmlns="http://www.w3.org/2000/svg"><symbol id="brands-sme" viewBox="-228 369.9 154 54.1"><path d="M-228 418.2l5.9-14.5c2.7 1.9 5 3.2 7.1 4.1s4 1.3 5.8 1.3c1.3 0 2.3-.2 3-.7s1.1-1.1 1.1-2c0-1.4-1.8-2.5-5.5-3.3-1.2-.3-2.1-.5-2.8-.6-3.8-.9-6.8-2.6-8.8-5s-3.1-5.4-3.1-8.9c0-5.5 2-10 5.9-13.5 4-3.5 9.2-5.2 15.6-5.2 3 0 5.9.4 8.7 1.2 2.9.8 5.8 1.9 8.7 3.5l-5.6 13.5c-1.8-1.3-3.6-2.3-5.4-3s-3.5-1-5.2-1c-1.3 0-2.3.2-3 .7-.7.4-1.1 1-1.1 1.8 0 1.5 2.6 2.7 7.7 3.8.8.2 1.5.3 1.9.4 3.5.8 6.3 2.4 8.4 4.9 2 2.5 3.1 5.4 3.1 8.9 0 5.7-2.1 10.4-6.2 14s-9.5 5.4-16.1 5.4c-3.4 0-6.8-.5-10.1-1.4-3.3-1.1-6.6-2.5-10-4.4zM-132.2 422.6l-2.3-20.4c-.1-1.6-.3-3.1-.4-4.7-.1-1.6-.3-3.1-.4-4.7-.2 1.5-.5 3-.9 4.7s-.9 3.4-1.4 5.3l-5.9 19.8h-11l-5.9-19.9c-.6-1.9-1.1-3.6-1.4-5.3-.4-1.7-.7-3.2-.9-4.7-.1 1.6-.2 3.2-.4 4.7-.1 1.5-.3 3.1-.4 4.7l-2.3 20.4h-18.1l8.8-51.5h19.1l3.7 12.7c.1.4.3 1 .5 1.8 1.6 5.4 2.5 9.8 2.9 13.3h.3c.3-2.2.7-4.5 1.3-7s1.3-5.2 2.3-8.3l3.8-12.5h19.1l8.2 51.5-18.3.1c0-.1 0 0 0 0zM-108.9 422.6V371h34.5v14h-16.3v5h14.8v13.2h-14.8v5.4H-74v14h-34.9z"/></symbol><symbol id="brands-index-podnikatela" viewBox="-245.5 392.2 97 9.5"><path d="M-244.7 392.9h-.8v7.4c0 .4.1.6.3.8.2.2.4.3.7.3h.6v-7.6c0-.3-.1-.5-.3-.7-.1-.1-.3-.2-.5-.2zM-239.4 394.6c-1 0-1.7.3-2.3.9-.5.6-.8 1.2-.8 2v2.9c0 .3.1.6.3.8.2.2.5.3.9.3h.5v-3.9c0-.5.1-.8.3-1.1.2-.3.5-.4.9-.4.9 0 1.4.5 1.4 1.6v2.7c0 .3.1.6.3.8.2.2.5.3.9.3h.5v-3.9c0-.9-.3-1.7-.8-2.2-.6-.5-1.3-.8-2.1-.8zM-230.3 392.5h-.5v3.2c-.1-.3-.4-.5-.7-.8-.3-.2-.7-.3-1-.3-1 0-1.7.3-2.2 1s-.8 1.5-.8 2.7c0 .9.3 1.7.9 2.4.6.7 1.3 1 2.2 1 1.1 0 1.9-.3 2.5-.9.5-.6.8-1.4.8-2.4v-4.8c0-.3-.1-.6-.3-.8-.2-.2-.5-.3-.9-.3zm-1.9 7.7c-.5 0-.9-.2-1.2-.6s-.5-1-.5-1.7c0-.5.1-1 .4-1.4.3-.4.6-.5 1-.5.5 0 .9.2 1.2.6s.5 1 .5 1.7c0 1.2-.5 1.9-1.4 1.9zM-222.9 398.4c.5-.2.7-.7.7-1.3 0-.8-.3-1.4-.8-1.9s-1.2-.7-1.9-.7c-1 0-1.8.3-2.4 1-.6.7-.9 1.6-.9 2.7 0 1 .3 1.8 1 2.4s1.4.9 2.3.9c1.6 0 2.4-.5 2.4-1.5v-.4h-.1c-.5.4-1.1.6-2.1.6-.5 0-.9-.1-1.3-.4-.4-.3-.6-.6-.6-1h1.1c1.3.1 2.1 0 2.6-.4zm-3.5-.8v-.2c0-.4.2-.7.4-1 .3-.3.6-.4 1-.4s.7.1.9.3c.2.2.3.4.3.8 0 .2-.1.4-.4.5-.3.1-.8.1-1.6.1l-.6-.1zM-216.8 399.4l-.7-1.1c.4-.5.8-.9 1-1.2.5-.7.8-1.2.8-1.5 0-.2-.1-.4-.2-.5-.1-.1-.3-.2-.5-.2h-.6c-.1.4-.2.7-.3.9-.2.3-.5.7-1 1.3l-.7-1c-.6-.9-1.1-1.3-1.5-1.3h-1c0 .2.1.4.2.6l.3.6c.1.2.3.5.7 1l.7 1-.5.6c-.5.5-.8.9-1 1.3s-.3.7-.3 1.1c0 .2.1.3.2.4.1.1.3.2.5.2h.8c.1-.4.2-.8.4-1.1.2-.3.5-.7.9-1.2l.7 1.1c.3.5.6.8.9 1s.6.3.9.3c.4 0 .6-.1.8-.2.2-.2.3-.4.3-.6-.3-.1-.5-.2-.7-.4-.4-.4-.7-.6-1.1-1.1zM-211.3 392.9h-1c-.3 0-.7 0-1.1.1-.5.1-.8.2-1.1.3v7c0 .4.1.7.3.9.2.2.5.3.7.3h.7v-3.3c.4.2.8.3 1.4.3.8 0 1.5-.3 2.1-.8.5-.5.8-1.2.8-2.1 0-.8-.3-1.5-.8-2s-1.2-.7-2-.7zm.7 3.7c-.2.2-.6.3-1 .3-.5 0-.9-.1-1.2-.1v-2.4c.4-.1.6-.1.7-.1h.5c.5 0 .8.1 1 .3.2.2.3.6.3 1 0 .5-.1.8-.3 1zM-204.8 394.6c-1 0-1.9.3-2.5 1s-.9 1.6-.9 2.6c0 .9.3 1.7.9 2.4.6.7 1.4 1 2.3 1 1 0 1.9-.3 2.5-1s.9-1.6.9-2.6c0-.9-.3-1.7-.9-2.4-.5-.7-1.3-1-2.3-1zm1.1 5c-.2.3-.6.5-1.1.5-1.1 0-1.6-.7-1.6-2.1 0-.6.1-1 .4-1.4.2-.4.6-.5 1.1-.5 1.1 0 1.6.7 1.6 2.1 0 .7-.1 1-.4 1.4zM-195.7 392.5h-.5v3.2c-.1-.3-.4-.5-.7-.8-.3-.2-.7-.3-1-.3-1 0-1.7.3-2.2 1s-.8 1.5-.8 2.7c0 .9.3 1.7.9 2.4.6.7 1.3 1 2.2 1 1.1 0 1.9-.3 2.5-.9.5-.6.8-1.4.8-2.4v-4.8c0-.3-.1-.6-.3-.8-.2-.2-.5-.3-.9-.3zm-1.8 7.7c-.5 0-.9-.2-1.2-.6s-.5-1-.5-1.7c0-.5.1-1 .4-1.4.3-.4.6-.5 1-.5.5 0 .9.2 1.2.6s.5 1 .5 1.7c-.1 1.2-.6 1.9-1.4 1.9zM-190.2 394.6c-1 0-1.7.3-2.3.9-.5.6-.8 1.2-.8 2v2.9c0 .3.1.6.3.8.2.2.5.3.9.3h.5v-3.9c0-.5.1-.8.3-1.1.2-.3.5-.4.9-.4.9 0 1.4.5 1.4 1.6v2.7c0 .3.1.6.3.8.2.2.5.3.9.3h.5v-3.9c0-.9-.3-1.7-.8-2.2-.5-.5-1.2-.8-2.1-.8zM-183.8 399.9c-.2-.1-.2-.4-.2-.7v-3.1c0-.8-.4-1.2-1.2-1.2h-.5v4.6c0 .7.2 1.2.5 1.6s.8.5 1.5.5c.4 0 .6-.1.8-.2.2-.2.2-.4.2-.8v-.4h-.3c-.4-.1-.7-.1-.8-.3zM-184.9 394.2c.3 0 .5-.1.7-.3.2-.2.3-.4.3-.7 0-.3-.1-.5-.3-.7s-.4-.3-.7-.3-.5.1-.7.3c-.2.2-.3.4-.3.7 0 .3.1.5.3.7.2.2.4.3.7.3zM-177 399.9c-.3-.3-.8-.9-1.7-2 .4-.5.9-1 1.5-1.7s1-1.1 1.3-1.3v-.1h-1c-.6 0-1 .1-1.3.4-.5.4-1.2 1.3-2.1 2.4v-4c0-.3-.1-.6-.3-.8-.2-.2-.5-.3-.9-.3h-.5v7.8c0 .4.1.7.3.9.2.2.5.3.9.3h.5v-3.3c1 1.3 1.8 2.3 2.3 2.9.3.3.7.5 1.1.5.3 0 .6-.1.7-.2.2-.1.3-.3.4-.6l-.6-.3-.6-.6zM-170.8 395.2c-.3-.2-.6-.4-.9-.5-.3-.1-.7-.1-1.1-.1-.8 0-1.4.2-1.8.5-.4.3-.6.7-.6 1.1v.5h.1c.2-.2.4-.4.8-.5.4-.2.8-.2 1.4-.2.5 0 .9.1 1.1.3.2.2.3.5.3 1v.1h-.6c-1.2 0-2 .2-2.6.6-.5.4-.8.9-.8 1.5s.3 1.1.8 1.5 1.1.6 1.9.6h.3c.7 0 1.4-.2 1.8-.7.5-.4.7-1 .7-1.7v-1.6c0-.6-.1-1-.2-1.4-.1-.4-.3-.8-.6-1zm-.8 4c0 .7-.4 1-1.1 1-.4 0-.6-.1-.9-.2-.2-.1-.3-.4-.3-.6 0-.3.1-.5.4-.6.2-.1.7-.2 1.3-.2h.6v.6zM-167.2 393.2h-.4c-.3 0-.5.2-.8.5-.2.2-.3.4-.4.6-.1.2-.1.4-.1.7v4c0 .8.2 1.4.6 1.8.4.4 1.1.6 1.9.6.5 0 .8-.1 1.1-.3.3-.2.4-.5.4-.8v-.6h-.1c-.3.2-.7.2-1.2.2-.7 0-1.1-.4-1.1-1.2v-2.6h1.3c.3 0 .6-.1.7-.2.2-.2.3-.4.3-.5v-.7h-2.3l.1-1.5zM-159.2 398.4c.5-.2.7-.7.7-1.3 0-.8-.3-1.4-.8-1.9s-1.2-.7-1.9-.7c-1 0-1.8.3-2.4 1-.6.7-.9 1.6-.9 2.7 0 1 .3 1.8 1 2.4s1.4.9 2.3.9c1.6 0 2.4-.5 2.4-1.5v-.4h-.1c-.5.4-1.1.6-2.1.6-.5 0-.9-.1-1.3-.4-.4-.3-.6-.6-.6-1h1.1c1.3.1 2.1 0 2.6-.4zm-3.5-.8v-.2c0-.4.2-.7.4-1s.6-.4 1-.4.7.1.9.3c.2.2.3.4.3.8 0 .2-.1.4-.4.5-.3.1-.8.1-1.6.1l-.6-.1zM-155.5 399.9c-.2-.1-.3-.4-.3-.7v-5.6c0-.3-.1-.6-.3-.8-.2-.2-.5-.3-.9-.3h-.5v7c0 .7.2 1.2.5 1.6.4.4.9.5 1.6.5.8 0 1.1-.3 1.1-1v-.4h-.4c-.3-.1-.6-.1-.8-.3zM-149.3 395.2c-.3-.2-.6-.4-.9-.5-.3-.1-.7-.1-1.1-.1-.8 0-1.4.2-1.8.5-.4.3-.6.7-.6 1.1v.5h.1c.2-.2.4-.4.8-.5.4-.2.8-.2 1.4-.2.5 0 .9.1 1.1.3.2.2.3.5.3 1v.1h-.6c-1.2 0-2 .2-2.6.6-.5.4-.8.9-.8 1.5s.3 1.1.8 1.5 1.1.6 1.9.6h.3c.8 0 1.4-.2 1.8-.7.5-.4.7-1 .7-1.7v-1.6c0-.6-.1-1-.2-1.4-.1-.4-.3-.8-.6-1zm-.8 4c0 .7-.4 1-1.1 1-.4 0-.7-.1-.9-.2s-.3-.4-.3-.6c0-.3.1-.5.4-.6.2-.1.7-.2 1.3-.2h.6v.6zM-154 394.4c.1-.6.3-1.5-.3-1.8-.3-.2-.8-.1-1.2-.1.1.9-.2 2.6 1 2.8.5.1.5-.4.5-.9z"/></symbol><symbol id="brands-transparency-international-slovensko" viewBox="0 0 125 30"><path d="M37.185 27.803c.21.147.447.273.715.383.263.107.496.16.699.16.393 0 .704-.107.938-.328.229-.221.347-.496.347-.827 0-.31-.106-.546-.318-.712-.212-.167-.546-.347-1-.539-.317-.14-.576-.262-.777-.37a2.794 2.794 0 0 1-.579-.423 1.898 1.898 0 0 1-.444-.652 2.42 2.42 0 0 1-.17-.951c0-.324.064-.629.191-.914s.309-.535.546-.746c.233-.213.518-.377.851-.492a3.273 3.273 0 0 1 1.087-.175c.379 0 .758.061 1.135.18.378.12.753.283 1.123.491l-.625 1.065-.081-.046a6.11 6.11 0 0 0-.754-.363 1.831 1.831 0 0 0-.682-.123c-.364 0-.671.095-.927.284-.254.188-.381.454-.381.793 0 .309.112.552.336.729.223.178.571.371 1.04.579.301.139.559.265.771.377a2.7 2.7 0 0 1 .597.428c.185.174.334.387.445.637.112.25.169.545.169.887 0 .339-.064.655-.191.948s-.311.55-.551.771a2.62 2.62 0 0 1-.844.514c-.324.123-.68.186-1.066.186-.756 0-1.479-.205-2.175-.612l.575-1.139zM42.986 21.378h1.479l-.068 6.737h3.138v1.273h-4.621l.072-8.01zM48.593 23.756a4.195 4.195 0 0 1 2.3-2.222 4.398 4.398 0 0 1 1.666-.318c.642 0 1.226.106 1.754.318a4.04 4.04 0 0 1 1.36.886c.377.379.671.822.875 1.331a4.34 4.34 0 0 1 .307 1.633 4.088 4.088 0 0 1-1.238 2.958 4.283 4.283 0 0 1-1.374.891 4.398 4.398 0 0 1-1.684.318 4.635 4.635 0 0 1-1.692-.307 4.072 4.072 0 0 1-1.37-.869 3.926 3.926 0 0 1-.907-1.33 4.198 4.198 0 0 1-.324-1.661 4.044 4.044 0 0 1 .327-1.628zm1.419 2.826c.133.367.318.682.555.943.241.263.53.465.868.607.341.145.714.213 1.124.213.403 0 .772-.075 1.111-.23.339-.154.631-.371.874-.648.244-.276.43-.596.563-.954.131-.358.197-.735.197-1.129 0-.425-.066-.817-.197-1.181a2.854 2.854 0 0 0-.558-.943c-.238-.266-.53-.473-.873-.619s-.714-.221-1.117-.221c-.34 0-.671.068-.995.203s-.62.332-.886.59c-.267.259-.477.572-.631.943s-.232.779-.232 1.228a3.51 3.51 0 0 0 .197 1.198zM57.118 21.69l1.495-.475 2.05 6.298h.022l2.304-6.298 1.437.475-3.057 7.698h-1.388l-2.863-7.698zM65.593 21.378h4.284v1.274h-2.802l-.022 2.061h2.778v1.203H67.04l-.011 2.199h2.848v1.273h-4.365l.081-8.01zM71.37 21.633l1.377-.417 3.74 6.136h.022l-.093-5.974h1.481l-.069 7.758-1.494.415-3.645-6.102-.023.025.115 5.914H71.3l.07-7.755zM79.797 27.803c.21.147.445.273.713.383.265.107.5.16.7.16.394 0 .705-.107.938-.328.231-.221.347-.496.347-.827 0-.31-.107-.546-.318-.712-.212-.167-.546-.347-1-.539-.318-.14-.576-.262-.777-.37s-.393-.249-.578-.423-.335-.392-.447-.652a2.458 2.458 0 0 1-.168-.951 2.206 2.206 0 0 1 .736-1.66c.234-.213.519-.377.852-.492a3.275 3.275 0 0 1 1.088-.175c.376 0 .755.061 1.134.18.377.12.753.283 1.123.491l-.625 1.065-.081-.046a6.25 6.25 0 0 0-.754-.363 1.836 1.836 0 0 0-.683-.123c-.361 0-.671.095-.926.284-.254.188-.382.454-.382.793 0 .309.112.552.336.729.224.178.57.371 1.042.579.302.139.56.265.77.377.212.111.411.254.597.428s.332.387.445.637c.111.25.169.545.169.887 0 .339-.064.655-.192.948-.126.293-.31.55-.549.771-.24.219-.522.39-.845.514a2.987 2.987 0 0 1-1.066.186c-.757 0-1.481-.205-2.176-.612l.577-1.139zM85.504 21.378h1.482l-.022 3.739h.058l3.275-3.901 1.1.88-2.858 3.16 2.824 3.438-1.205.857-3.171-4.027h-.022l-.035 3.865h-1.482l.056-8.011z"/><path d="M91.651 23.756c.22-.504.527-.949.921-1.33a4.235 4.235 0 0 1 1.377-.892 4.395 4.395 0 0 1 1.666-.318c.641 0 1.227.106 1.755.318.529.213.98.508 1.359.886.379.379.67.822.875 1.331.204.511.306 1.054.306 1.633a4.07 4.07 0 0 1-1.238 2.958 4.253 4.253 0 0 1-1.372.891 4.41 4.41 0 0 1-1.685.318 4.628 4.628 0 0 1-1.69-.307 4.047 4.047 0 0 1-1.371-.869 3.929 3.929 0 0 1-.908-1.33 4.233 4.233 0 0 1-.323-1.661 4.028 4.028 0 0 1 .328-1.628zm1.416 2.826c.132.367.318.682.558.943.238.263.527.465.868.607.34.145.713.213 1.122.213.402 0 .772-.075 1.112-.23.339-.154.631-.371.873-.648.242-.276.431-.596.561-.954.131-.358.198-.735.198-1.129 0-.425-.067-.817-.198-1.181a2.814 2.814 0 0 0-.555-.943 2.436 2.436 0 0 0-.873-.619 2.83 2.83 0 0 0-1.118-.221c-.339 0-.671.068-.995.203s-.62.332-.887.59a2.805 2.805 0 0 0-.631.943c-.153.371-.23.779-.23 1.228 0 .432.066.832.195 1.198zM37.994 1.884h-2.247l.011-1.273h5.939l-.012 1.273h-2.211l-.058 6.738h-1.481l.059-6.738zM43.329.611h2.535c.472 0 .88.059 1.228.179.347.12.631.285.851.492.22.209.383.452.487.729.104.279.156.583.156.915 0 .501-.138.932-.416 1.291-.278.358-.657.624-1.136.793l2.28 2.986-1.319.788-2.223-3.091a.62.62 0 0 0-.533-.279h-.463l-.011 3.208h-1.517l.081-8.011zm2.386 3.599c.132 0 .269-.016.417-.052.146-.034.289-.097.43-.19a1.09 1.09 0 0 0 .341-.381 1.29 1.29 0 0 0 .132-.614c0-.37-.126-.656-.382-.856-.255-.201-.579-.3-.972-.3h-.857L44.8 4.21h.915zM51.456 8.784l-1.376-.418L53.158.611h1.366l2.859 7.755-1.447.418-.787-2.292h-2.79l-.903 2.292zm2.363-6.621h-.026l-1.006 3.125h1.955l-.923-3.125zM58.749.865l1.378-.416 3.738 6.135h.024L63.795.611h1.482l-.07 7.755-1.492.418-3.647-6.102-.022.023.117 5.917H58.68l.069-7.757zM67.604 7.036c.209.148.447.273.711.381.268.109.5.162.703.162.393 0 .705-.11.938-.329a1.1 1.1 0 0 0 .347-.828c0-.309-.105-.545-.318-.712-.214-.166-.545-.345-1.002-.538a10.176 10.176 0 0 1-.774-.37 2.747 2.747 0 0 1-.58-.423 1.886 1.886 0 0 1-.445-.653 2.436 2.436 0 0 1-.169-.949 2.203 2.203 0 0 1 .735-1.662c.236-.212.52-.376.851-.492a3.292 3.292 0 0 1 1.09-.173c.377 0 .756.06 1.133.179.38.12.754.285 1.124.493l-.625 1.064-.08-.047a7.237 7.237 0 0 0-.754-.364 1.88 1.88 0 0 0-.683-.12c-.364 0-.672.094-.927.282-.256.189-.383.454-.383.794 0 .308.114.551.338.729.222.177.57.37 1.042.577.299.141.557.267.769.378.213.11.41.254.598.429.184.173.333.386.445.636.111.25.168.545.168.885 0 .34-.066.657-.191.95-.129.293-.313.55-.551.77-.239.22-.52.392-.844.514-.325.124-.68.187-1.066.187-.756 0-1.481-.204-2.177-.614l.577-1.136zM73.751.611h2.259c1.012 0 1.751.212 2.224.637.469.425.704 1.025.704 1.806 0 .402-.076.754-.229 1.059-.156.305-.368.56-.639.765-.27.204-.58.357-.931.457-.353.1-.725.149-1.116.149h-.824l-.011 3.139h-1.516l.079-8.012zm2.225 3.67c.407 0 .745-.114 1.012-.342.268-.228.399-.526.399-.896 0-.138-.021-.277-.063-.418a1.11 1.11 0 0 0-.643-.694 1.646 1.646 0 0 0-.647-.114h-.787l-.024 2.465h.753zM80.327 8.784l-1.378-.418L82.03.611h1.364l2.859 7.755-1.447.418-.786-2.292h-2.791l-.902 2.292zm2.362-6.621h-.024l-1.006 3.125h1.956l-.926-3.125zM88.061.611h2.535c.471 0 .88.059 1.228.179.347.12.631.285.85.492.22.209.383.452.486.729.103.279.156.583.156.915 0 .501-.139.932-.417 1.291a2.409 2.409 0 0 1-1.133.793l2.28 2.986-1.32.788-2.222-3.091a.626.626 0 0 0-.534-.279h-.463l-.012 3.208h-1.516l.082-8.011zm2.383 3.599c.131 0 .271-.016.418-.052.147-.034.289-.097.428-.19.14-.092.254-.22.341-.381.09-.162.135-.367.135-.614 0-.37-.129-.656-.383-.856s-.578-.3-.972-.3h-.856l-.024 2.393h.913zM95.886.611h4.284v1.273h-2.804l-.023 2.061h2.779V5.15h-2.79l-.01 2.198h2.848v1.275h-4.365l.081-8.012zM102.208.865l1.376-.416 3.739 6.135h.023l-.093-5.973h1.479l-.068 7.755-1.492.418-3.646-6.102-.023.023.115 5.917h-1.481l.071-7.757zM117.267 8.008a4.133 4.133 0 0 1-1.197.578 4.608 4.608 0 0 1-1.349.198 4.387 4.387 0 0 1-1.645-.307 3.966 3.966 0 0 1-1.331-.869 3.856 3.856 0 0 1-.874-1.325 4.345 4.345 0 0 1-.308-1.645c0-.609.101-1.172.302-1.689.2-.517.483-.96.851-1.332.365-.37.803-.657 1.309-.861a4.317 4.317 0 0 1 1.638-.307c.486 0 .954.08 1.399.236.447.159.855.39 1.217.69l-.647 1.029a2.726 2.726 0 0 0-.896-.498 3.165 3.165 0 0 0-1.025-.186c-.386 0-.738.072-1.059.214a2.333 2.333 0 0 0-.822.602 2.715 2.715 0 0 0-.526.909 3.296 3.296 0 0 0-.188 1.123c0 .378.063.744.188 1.1.121.354.301.671.532.949.229.278.503.497.816.654a2.19 2.19 0 0 0 1.012.238c.464 0 .84-.044 1.136-.134.293-.087.585-.217.88-.386l.587 1.019zM120.717 5.299l-2.652-4.086 1.354-.763 2.096 3.427L123.693.45l1.307.752-2.733 4.051-.045 3.369h-1.552l.047-3.323zM37.798 10.837h1.482l-.072 8.011h-1.479l.069-8.011zM41.062 11.092l1.377-.417 3.742 6.136h.022l-.095-5.974h1.482l-.068 7.756-1.494.417-3.648-6.1-.022.023.117 5.915h-1.481l.068-7.756zM50.961 12.112h-2.247l.012-1.275h5.938l-.012 1.275H52.44l-.057 6.735h-1.481l.059-6.735zM55.868 10.837h4.283v1.275H57.35l-.022 2.058h2.779v1.204h-2.791l-.012 2.2h2.848v1.273h-4.364l.08-8.01zM62.119 10.837h2.535c.471 0 .88.06 1.228.181.347.118.631.282.852.491.218.208.382.451.485.729.104.277.157.582.157.914 0 .502-.141.931-.419 1.291a2.388 2.388 0 0 1-1.133.792l2.28 2.987-1.32.787-2.222-3.09a.62.62 0 0 0-.533-.278h-.464l-.01 3.206h-1.518l.082-8.01zm2.386 3.601c.131 0 .27-.017.415-.051.148-.037.29-.1.429-.192.141-.093.254-.22.341-.383a1.25 1.25 0 0 0 .135-.613c0-.37-.129-.655-.383-.856-.254-.201-.578-.301-.972-.301h-.856l-.022 2.396h.913zM69.505 11.092l1.378-.417 3.74 6.136h.022l-.093-5.974h1.481l-.07 7.756-1.493.417-3.646-6.1-.021.023.113 5.915h-1.481l.07-7.756zM78.5 19.01l-1.378-.417 3.078-7.756h1.366l2.859 7.756-1.446.417-.786-2.292h-2.79L78.5 19.01zm2.36-6.622h-.023l-1.007 3.125h1.956l-.926-3.125zM86.429 12.112h-2.245l.011-1.275h5.939l-.01 1.275H87.91l-.058 6.735h-1.481l.058-6.735zM91.278 10.837h1.482l-.068 8.011h-1.483l.069-8.011zM94.446 13.216c.219-.506.526-.949.919-1.331a4.268 4.268 0 0 1 1.379-.893 4.423 4.423 0 0 1 1.667-.318c.641 0 1.225.106 1.753.318.528.213.981.508 1.36.887.377.378.669.821.873 1.331.205.51.31 1.054.31 1.632a4.088 4.088 0 0 1-1.241 2.958c-.394.382-.85.678-1.372.891a4.4 4.4 0 0 1-1.683.318 4.587 4.587 0 0 1-1.689-.307 4.114 4.114 0 0 1-1.374-.868 3.96 3.96 0 0 1-.909-1.331 4.277 4.277 0 0 1-.322-1.662c-.001-.577.11-1.12.329-1.625zm1.418 2.825c.131.365.317.682.557.942.238.265.528.466.865.608a2.86 2.86 0 0 0 1.125.216c.4 0 .771-.078 1.111-.233a2.56 2.56 0 0 0 .875-.648c.241-.277.429-.596.56-.954.131-.359.198-.736.198-1.129 0-.425-.067-.817-.198-1.18a2.858 2.858 0 0 0-.556-.944 2.451 2.451 0 0 0-.874-.62 2.827 2.827 0 0 0-1.116-.219c-.341 0-.672.068-.996.203a2.855 2.855 0 0 0-.886.59 2.776 2.776 0 0 0-.631.943c-.154.37-.232.78-.232 1.227 0 .432.066.831.198 1.198zM104.174 11.092l1.379-.417 3.739 6.136h.023l-.093-5.974h1.481l-.068 7.756-1.494.417-3.647-6.1-.023.023.118 5.915h-1.482l.067-7.756zM113.171 19.01l-1.379-.417 3.08-7.756h1.364l2.861 7.756-1.447.417-.787-2.292h-2.791l-.901 2.292zm2.36-6.622h-.023l-1.006 3.125h1.956l-.927-3.125zM120.336 10.837h1.481l-.068 6.737h3.137v1.273h-4.62l.07-8.01zM11.422 9.137c0 1.336 1.104 2.42 2.469 2.42s2.469-1.084 2.469-2.42c0-1.335-1.104-2.418-2.469-2.418s-2.469 1.083-2.469 2.418"/><path d="M1.41 14.565c0-.435.022-.864.062-1.288.403.688 1.189 1.359 2.11 1.963-.054 2.042.057 5.461.619 7.595a13.562 13.562 0 0 1-2.791-8.27m16.237 3.869c3.815-.58 6.625-2.361 8.174-3.776.593-.542 1.771-2.528 1.778-3.21.185.955.273 1.983.273 3.118 0 6.477-4.18 11.607-10.157 13.098-.29-.003-.54.004-.872-.116-.257-.095-.553-.453-.609-.523-1.24-1.571-1.592-3.692-1.7-4.107-.204-.774-.194-2.169-.111-3.281.002-.03-4.51-.801-4.538-.608-.119.811.04 2.421.222 3.194.215.9.688 2.379 1.067 3.351.318.819.96 1.712 1.574 2.32-.356-.013-.683-.054-1.028-.192-.635-.253-1.358-1.354-1.543-1.631-.524-.787-.959-2.311-1.161-3.236-.235-1.073-.532-3.512-.415-4.605.021-.197.047-.407.078-.629 1.831.51 4.986.939 7.306.939a11.88 11.88 0 0 0 1.662-.106M2.701 8.761C4.365 5.22 7.506 2.535 11.31 1.53c-.726.426-1.438.958-1.84 1.344C8.31 3.998 6.488 6.36 5.779 7.812c-.25.512-.561 1.219-.869 1.998-1.003-.47-1.847-.874-2.209-1.049M0 15c0 8.037 6.497 14.551 14.514 14.551s14.616-6.492 14.616-14.53c0-4.562-1.192-9.064-4.706-11.167-.17-.1-.855-.45-.896-.255-.076.373 2.188 1.686 2.254 3.507.033.851-.765 3.553-5.45 5.074-1.149.374-3.759.622-4.97.619-1.478-.005-4.2-.404-5.603-.88l-.178-.064c.458-3.761 2.421-7.3 3.82-8.274 2.264-1.578 3.927-1.911 4.515-1.905a6.426 6.426 0 0 1 1.783.263c.251.079.982.369 1.109.229.228-.247-.856-.747-1.203-.893C18.591.85 16.574.448 14.512.448 6.497.449 0 6.963 0 15"/></symbol><symbol id="brands-otvorene-sudy" viewBox="0 0 170 60"><path fill="#00aeef" d="M13.066 16.941c-1.868 0-3.642.396-5.248 1.105V9.497a5.252 5.252 0 0 1 5.248-5.248 5.253 5.253 0 0 1 5.246 5.24h-.004v5.065h4.059V9.497h.003c0-5.13-4.174-9.305-9.304-9.305-5.132 0-9.305 4.175-9.305 9.305v11.349A13.018 13.018 0 0 0 0 30.007c0 7.204 5.86 13.065 13.066 13.065 1.866 0 3.64-.396 5.246-1.104v8.535a5.254 5.254 0 0 1-5.246 5.25 5.254 5.254 0 0 1-5.248-5.25h.002v-5.064H3.761v5.064c0 5.131 4.173 9.305 9.305 9.305 5.13 0 9.304-4.174 9.304-9.305V39.168a13.026 13.026 0 0 0 3.759-9.161c.001-7.204-5.859-13.066-13.063-13.066m0 22.075c-4.968 0-9.008-4.041-9.008-9.008 0-2.99 1.469-5.637 3.717-7.277h.043v-.033a8.959 8.959 0 0 1 5.248-1.7c4.966 0 9.008 4.043 9.008 9.01.001 4.967-4.042 9.008-9.008 9.008"/><path fill="#1b325f" d="M15.27 27.684a2.204 2.204 0 1 0-4.409 0c0 .867.502 1.611 1.227 1.974l-.874 4.864h3.706l-.877-4.864a2.207 2.207 0 0 0 1.227-1.974"/><path d="M53.356 17.688c0 1.469-.222 2.759-.658 3.872-.437 1.115-1.036 2.046-1.794 2.796a7.327 7.327 0 0 1-2.709 1.694 9.824 9.824 0 0 1-3.376.57c-1.17 0-2.274-.19-3.315-.57a7.614 7.614 0 0 1-2.722-1.694c-.774-.75-1.384-1.681-1.83-2.796-.445-1.112-.668-2.402-.668-3.872 0-1.467.23-2.758.693-3.873.46-1.113 1.083-2.047 1.868-2.807a7.681 7.681 0 0 1 2.722-1.706 9.347 9.347 0 0 1 3.252-.57 9.58 9.58 0 0 1 3.316.57 7.556 7.556 0 0 1 2.721 1.706c.775.759 1.385 1.694 1.83 2.807.446 1.115.67 2.406.67 3.873m-13.088 0c0 .841.103 1.601.309 2.276.206.677.502 1.259.89 1.745.387.486.862.861 1.422 1.125.56.265 1.204.396 1.93.396.71 0 1.349-.131 1.917-.396a3.904 3.904 0 0 0 1.434-1.125c.388-.485.685-1.067.89-1.745.208-.675.312-1.436.312-2.276s-.104-1.603-.312-2.287c-.205-.685-.502-1.271-.89-1.758a3.904 3.904 0 0 0-1.434-1.125c-.568-.264-1.208-.396-1.917-.396-.726 0-1.37.137-1.93.409a4.03 4.03 0 0 0-1.422 1.138c-.387.485-.684 1.072-.89 1.755a7.844 7.844 0 0 0-.309 2.264M68.742 9.129v3.29h-5.169v13.854h-3.86V12.419h-5.171v-3.29zM77.132 26.273a131.71 131.71 0 0 1-2.019-4.483 176.123 176.123 0 0 1-1.893-4.597 173.054 173.054 0 0 1-2.945-8.064h4.256c.319.992.676 2.062 1.069 3.206.393 1.144.794 2.285 1.201 3.421l1.17 3.267a37.118 37.118 0 0 0 1.075 2.698 56.81 56.81 0 0 0 1.054-2.689c.383-1.042.777-2.131 1.184-3.268.408-1.137.809-2.277 1.201-3.422.392-1.144.749-2.214 1.073-3.213h4.109a463.226 463.226 0 0 1-1.326 3.715 179.534 179.534 0 0 1-3.52 8.954 122.727 122.727 0 0 1-2.009 4.475h-3.68zM105.604 17.688c0 1.469-.218 2.759-.656 3.872-.438 1.115-1.035 2.046-1.793 2.796a7.352 7.352 0 0 1-2.707 1.694c-1.05.38-2.176.57-3.379.57a9.571 9.571 0 0 1-3.315-.57 7.614 7.614 0 0 1-2.722-1.694c-.775-.75-1.386-1.681-1.83-2.796-.446-1.112-.668-2.402-.668-3.872 0-1.467.23-2.758.691-3.873.463-1.113 1.087-2.047 1.869-2.807a7.677 7.677 0 0 1 2.721-1.706 9.362 9.362 0 0 1 3.254-.57c1.17 0 2.275.19 3.314.57a7.547 7.547 0 0 1 2.721 1.706c.775.759 1.387 1.694 1.831 2.807.444 1.115.669 2.406.669 3.873m-13.088 0c0 .841.104 1.601.311 2.276.205.677.502 1.259.889 1.745.389.486.863.861 1.424 1.125.563.265 1.203.396 1.93.396.707 0 1.349-.131 1.918-.396a3.937 3.937 0 0 0 1.434-1.125c.388-.485.685-1.067.891-1.745.207-.675.309-1.436.309-2.276s-.102-1.603-.309-2.287c-.206-.685-.503-1.271-.891-1.758a3.928 3.928 0 0 0-1.434-1.125c-.569-.264-1.211-.396-1.918-.396-.727 0-1.367.137-1.93.409a4.063 4.063 0 0 0-1.424 1.138c-.387.485-.684 1.072-.889 1.755a7.775 7.775 0 0 0-.311 2.264M112.605 8.931c2.57 0 4.543.458 5.912 1.373 1.369.917 2.053 2.338 2.053 4.269 0 1.203-.276 2.18-.828 2.931-.553.75-1.35 1.34-2.387 1.769.346.431.707.918 1.088 1.472.379.553.755 1.13 1.127 1.732.369.602.728 1.229 1.074 1.879.347.652.668 1.291.965 1.917h-4.314l-.957-1.706a37.82 37.82 0 0 0-.991-1.683 47.614 47.614 0 0 0-1.007-1.546 16.715 16.715 0 0 0-.994-1.324h-1.904v6.258h-3.859V9.376c.842-.165 1.713-.28 2.609-.347.9-.064 1.703-.098 2.413-.098m.222 3.29c-.282 0-.531.008-.755.025-.224.016-.432.033-.631.049v4.652h1.088c1.451 0 2.492-.181 3.118-.544.626-.364.94-.981.94-1.855 0-.842-.318-1.439-.954-1.794-.633-.355-1.569-.533-2.806-.533M124.107 26.273V9.129h11.579v3.241h-7.718v3.365h6.852v3.166h-6.852v4.132h8.288v3.24zM150.627 26.273a85.718 85.718 0 0 0-3.586-5.813 59.174 59.174 0 0 0-4.107-5.418v11.231h-3.81V9.129h3.142a30.22 30.22 0 0 1 1.807 2.004 73.411 73.411 0 0 1 2.016 2.536 88.662 88.662 0 0 1 2.043 2.794c.676.966 1.311 1.892 1.902 2.784V9.129h3.838v17.144h-3.245zM157.851 26.273V9.129h11.579v3.241h-7.718v3.365h6.853v3.166h-6.853v4.132H170v3.24h-12.149zm8.907-21.647l-4.07 3.44-1.693-1.51 3.5-4.007 2.263 2.077zM41.702 48.045c.543 0 .994-.045 1.349-.137.354-.09.639-.213.853-.371.214-.156.363-.342.446-.557.081-.213.123-.453.123-.717 0-.561-.264-1.027-.791-1.398-.529-.371-1.436-.77-2.723-1.199a20.073 20.073 0 0 1-1.681-.682 6.07 6.07 0 0 1-1.51-.965 4.575 4.575 0 0 1-1.088-1.41c-.281-.551-.421-1.223-.421-2.016 0-.791.149-1.504.446-2.141a4.56 4.56 0 0 1 1.262-1.619c.543-.445 1.204-.787 1.979-1.027.774-.238 1.649-.357 2.621-.357 1.156 0 2.153.123 2.995.371.84.246 1.534.518 2.077.816l-1.112 3.041a10.676 10.676 0 0 0-1.596-.654c-.587-.191-1.291-.283-2.117-.283-.921 0-1.587.125-1.99.381-.405.256-.607.648-.607 1.176 0 .313.076.578.223.793.149.213.359.406.631.58s.585.33.94.471.745.285 1.175.434c.891.33 1.666.654 2.326.977.658.32 1.208.697 1.646 1.125.436.43.762.932.978 1.51.212.578.321 1.279.321 2.104 0 1.6-.562 2.842-1.682 3.723-1.121.883-2.812 1.322-5.072 1.322-.759 0-1.443-.045-2.054-.135-.61-.092-1.15-.203-1.62-.334a9.243 9.243 0 0 1-2.067-.842l1.089-3.066c.511.281 1.142.531 1.893.754.75.221 1.671.332 2.758.332M58.152 51.334c-1.204 0-2.244-.168-3.117-.508-.874-.336-1.596-.807-2.163-1.408a5.627 5.627 0 0 1-1.263-2.152c-.27-.832-.407-1.752-.407-2.76V33.844h3.858v10.342c0 .693.079 1.283.234 1.768.158.488.372.883.644 1.188.272.307.602.525.992.656.386.133.812.199 1.274.199.938 0 1.702-.289 2.287-.867.585-.576.878-1.557.878-2.943V33.844h3.86v10.662c0 1.008-.141 1.93-.421 2.771a5.628 5.628 0 0 1-1.287 2.164c-.577.604-1.311 1.068-2.202 1.398-.89.331-1.944.495-3.167.495m3.416-21.993l-4.069 3.44-1.695-1.51 3.5-4.009 2.264 2.079zM83.982 42.404c0 1.484-.232 2.779-.693 3.885-.463 1.105-1.119 2.02-1.967 2.746-.851.725-1.884 1.27-3.104 1.633-1.22.361-2.59.543-4.107.543-.693 0-1.5-.029-2.426-.086a20.11 20.11 0 0 1-2.721-.359v-16.7c.89-.164 1.818-.275 2.783-.334a43.168 43.168 0 0 1 2.487-.086c1.468 0 2.798.164 3.996.494 1.193.332 2.223.85 3.08 1.559.857.709 1.517 1.617 1.98 2.723.46 1.105.692 2.433.692 3.982m-11.158 5.444a21.044 21.044 0 0 0 1.484.049c1.93 0 3.36-.486 4.292-1.461.931-.973 1.399-2.316 1.399-4.031 0-1.799-.445-3.158-1.337-4.082-.891-.924-2.3-1.385-4.23-1.385-.264 0-.538.004-.817.012a7.394 7.394 0 0 0-.792.063v10.835zM92.387 40.875a92.345 92.345 0 0 0 1.984-3.504 54.947 54.947 0 0 0 1.731-3.527h4.255a108.118 108.118 0 0 1-2.918 5.369 140.591 140.591 0 0 1-3.191 5.219v6.557h-3.861v-6.506a141.821 141.821 0 0 1-3.203-5.244 112.393 112.393 0 0 1-2.93-5.395h4.479a61.274 61.274 0 0 0 1.703 3.527 71.178 71.178 0 0 0 1.951 3.504"/></symbol></svg>
