<svg style="display: none;" id="icons" xmlns="http://www.w3.org/2000/svg"><symbol id="icons-search" viewBox="0 0 16 16"><path fill="#F16C4F" d="M15.707 14.292l-3.106-3.105A6.961 6.961 0 0 0 14 7a7 7 0 1 0-7 6.999 6.958 6.958 0 0 0 4.187-1.398l3.106 3.105a.999.999 0 1 0 1.414-1.414M7 11.999A5 5 0 1 1 7 2a5 5 0 1 1 0 9.999"/></symbol><symbol id="icons-judges" viewBox="0 0 64 64"><path fill="#1B325F" d="M25.882 22.467c.028-.048.298-.467 1.116-.467.808 0 1.096.436 1.111.458a1 1 0 0 0 1.778-.916C29.592 20.969 28.651 20 26.998 20c-1.691 0-2.618.984-2.9 1.564-.234.482-.034 1.045.439 1.299.475.254 1.073.068 1.345-.396zM34.539 22.862c.475.255 1.073.068 1.345-.396.028-.047.298-.466 1.116-.466.809 0 1.096.436 1.111.458a1 1 0 0 0 1.778-.916C39.594 20.969 38.653 20 37 20c-1.691 0-2.618.983-2.9 1.564a.98.98 0 0 0 .439 1.298z"/><path fill="#1B325F" d="M62.242 47.758l.014-.014a48.237 48.237 0 0 0-10.839-6.643l-2.355-.99a50.078 50.078 0 0 0-8.798-2.461c1.385-1.498 2.631-3.353 3.605-5.503a4.95 4.95 0 0 0-.276 1.569c0 2.757 2.243 5 5 5s5-2.243 5-5c0-1.439-.62-2.729-1.598-3.643 1.54-.853 2.598-2.476 2.598-4.357 0-1.907-1.086-3.549-2.66-4.392a4.977 4.977 0 0 0 1.557-3.608c0-2.35-1.636-4.313-3.823-4.846C48.209 5.536 41.763 0 34 0h-4c-7.735 0-14.165 5.496-15.652 12.792-2.401.364-4.254 2.423-4.254 4.925 0 1.501.679 2.834 1.73 3.752-1.432.88-2.397 2.447-2.397 4.248 0 1.882 1.058 3.505 2.598 4.357a4.97 4.97 0 0 0-1.598 3.643c0 2.757 2.243 5 5 5s5-2.243 5-5c0-.504-.097-.98-.236-1.438.975 2.112 2.209 3.937 3.579 5.411-3.2.605-6.121 1.425-8.838 2.443l-2.347.963c-3.979 1.745-7.526 3.953-10.841 6.648l.014.014A5.981 5.981 0 0 0 0 52v8c0 2.211 1.789 4 4 4h56c2.211 0 4-1.789 4-4v-8a5.981 5.981 0 0 0-1.758-4.242zM44.193 31.391c.419-1.019.777-2.1 1.061-3.237.253.448.563.856.937 1.206a4.997 4.997 0 0 0-1.998 2.031zm4.4 5.326c-1.654 0-3-1.346-3-3s1.346-3 3-3 3 1.346 3 3-1.346 3-3 3zm1-8c-1.654 0-3-1.346-3-3s1.346-3 3-3 3 1.346 3 3-1.346 3-3 3zm-34.499-14c.319 0 .622.063.911.157 0-.263.141-.664.257-1.417C17.462 6.944 23.14 2 30 2h4c6.834 0 12.494 4.906 13.724 11.383.092.763.164 1.123.16 1.396.161-.027.438-.063.605-.063 1.654 0 3 1.346 3 3s-1.346 3-3 3c-1.548 0-2.811-1.183-2.969-2.689a8.928 8.928 0 0 0-1.336-2.101l-.042-.049c-.065-.076-.134-.161-.194-.227l-.003.009A7.976 7.976 0 0 0 38 13h-4a4 4 0 0 1-4-4 1 1 0 1 0-2 0 4 4 0 0 1-4 4 6 6 0 0 0-5.965 5.358l-.01-.016a3.003 3.003 0 0 1-2.932 2.374c-1.654 0-3-1.346-3-3s1.346-2.999 3.001-2.999zm-.667 8c1.654 0 3 1.346 3 3s-1.346 3-3 3-3-1.346-3-3 1.345-3 3-3zm1 14c-1.654 0-3-1.346-3-3s1.346-3 3-3 3 1.346 3 3-1.346 3-3 3zm2.402-7.358a5.03 5.03 0 0 0 .923-1.181c.268 1.067.598 2.085.984 3.048a5 5 0 0 0-1.907-1.867zM20 22v-3a4 4 0 0 1 4-4 5.99 5.99 0 0 0 5-2.687A5.99 5.99 0 0 0 34 15h4c3.313 0 6 2.688 6 6v1c0 12-7.469 18-12 18s-12-6-12-18zm5.677 17.439C27.76 41.084 29.99 42 32 42s4.24-.916 6.323-2.561a45.705 45.705 0 0 1 7.966 1.857L32.598 54.988c-.43.43-.748.447-1.183.013L17.711 41.297a45.595 45.595 0 0 1 7.966-1.858zM62 60a2 2 0 0 1-2 2H4a2 2 0 0 1-2-2v-8c0-1.104.447-2.104 1.172-2.828l-.004-.004a46.01 46.01 0 0 1 12.453-7.133l14.172 14.172c1.5 1.5 2.914 1.5 4.414 0l14.172-14.172a45.984 45.984 0 0 1 12.453 7.133l-.004.004A3.983 3.983 0 0 1 62 52v8z"/></symbol><symbol id="icons-question" viewBox="0 0 12 12"><path fill="#E19E41" d="M8.991 1.823a2.339 2.339 0 0 0-.53-.908C8.211.644 7.873.421 7.459.252 7.05.084 6.538 0 5.936 0c-.468 0-.955.063-1.443.188-.494.124-.936.31-1.311.549l-.314.201.848 2.28.463-.237c.299-.154.575-.268.819-.337a2.78 2.78 0 0 1 .747-.098c.128 0 .298.017.381.092.074.069.09.125.09.188a.53.53 0 0 1-.134.36 8.234 8.234 0 0 1-.509.553 9.603 9.603 0 0 0-.417.443 3.508 3.508 0 0 0-.391.538c-.115.196-.21.41-.278.634a2.62 2.62 0 0 0-.11.784c0 .084.001.184.006.29.005.134.02.252.039.358l.071.376h2.612l-.086-.535a.545.545 0 0 1-.008-.106v-.152c0-.084.017-.164.053-.248a1.73 1.73 0 0 1 .178-.321c.075-.108.159-.21.254-.309.108-.111.211-.218.313-.317.139-.139.282-.288.433-.445a4.04 4.04 0 0 0 .434-.551c.133-.205.241-.425.321-.65.09-.247.136-.521.136-.815a3.051 3.051 0 0 0-.142-.89zM5.745 8.724c-.417 0-.793.14-1.122.414-.242.203-.529.579-.529 1.224s.287 1.021.529 1.223c.327.274.704.415 1.122.415.415 0 .793-.141 1.12-.416.347-.29.529-.713.529-1.223 0-.509-.183-.933-.529-1.224a1.712 1.712 0 0 0-1.12-.413z"/></symbol><symbol id="icons-check" viewBox="0 0 12 12"><path fill="#73BE1E" d="M12 3.612L9.806 1.419 5.032 6.193 2.193 3.354 0 5.548l2.838 2.839 2.193 2.193 2.195-2.193h-.001z"/></symbol><symbol id="icons-courts" viewBox="0 0 64 64"><path fill="#1B325F" d="M60 58a4 4 0 0 0-4-4h-2V25h6a3.999 3.999 0 0 0 2.077-7.419l-28-17a4.006 4.006 0 0 0-4.153 0l-28 17A3.999 3.999 0 0 0 4 25h6v29H8a4 4 0 0 0-4 4 4 4 0 0 0-4 4v2h64v-2a4 4 0 0 0-4-4zM4 23a2.006 2.006 0 0 1-1.926-1.462 2.004 2.004 0 0 1 .888-2.247l28-17a1.991 1.991 0 0 1 2.076 0l28 17a2.005 2.005 0 0 1 .888 2.248A2.007 2.007 0 0 1 60 23H4zm48 2v29h-4V25h4zm-6 0v29h-4V25h4zm-6 0v29h-4V25h4zm-6 0v29h-4V25h4zm-6 0v29h-4V25h4zm-6 0v29h-4V25h4zm-6 0v29h-4V25h4zM8 56h48a2 2 0 0 1 2 2H6a2 2 0 0 1 2-2zm-6 6a2 2 0 0 1 2-2h56a2 2 0 0 1 2 2H2z"/><path fill="#1B325F" d="M32 9c-2.762 0-5 2.238-5 5s2.238 5 5 5 5-2.238 5-5-2.238-5-5-5zm0 8a3 3 0 1 1 0-6 3 3 0 0 1 0 6z"/></symbol><symbol id="icons-facebook" viewBox="0 0 24 24"><path fill="#00AEEF" d="M12 0C5.372 0 0 5.372 0 12c0 6.627 5.372 12 12 12s12-5.373 12-12c0-6.628-5.372-12-12-12zm3.813 6.804h-1.808c-.355 0-.717.37-.717.646v1.842h2.52c-.101 1.412-.307 2.703-.307 2.703h-2.227v8.004H9.961v-8.004H8.346V9.303h1.615V7.1c0-.403-.082-3.1 3.396-3.1h2.456v2.804z"/></symbol><symbol id="icons-youtube" viewBox="0 0 24 24"><path fill="#00AEEF" d="M12 0C5.372 0 0 5.372 0 12c0 6.627 5.372 12 12 12 6.626 0 12-5.373 12-12 0-6.628-5.374-12-12-12zm7.999 15.208a2.393 2.393 0 0 1-2.393 2.392H6.389a2.393 2.393 0 0 1-2.391-2.392V8.793a2.394 2.394 0 0 1 2.391-2.395h11.218A2.394 2.394 0 0 1 20 8.793v6.415z"/><path fill="#00AEEF" d="M10.396 14.706l4.571-3.013-4.571-3.012z"/></symbol><symbol id="icons-decrees" viewBox="0 0 64 64"><path fill="#1B325F" d="M14 24a1 1 0 0 0 1 1h34a1 1 0 1 0 0-2H15a1 1 0 0 0-1 1zM27 35H15a1 1 0 1 0 0 2h12a1 1 0 1 0 0-2zM24 41h-9a1 1 0 1 0 0 2h9a1 1 0 1 0 0-2zM50 30a1 1 0 0 0-1-1H15a1 1 0 1 0 0 2h34a1 1 0 0 0 1-1zM15 18h16a1 1 0 1 0 0-2H15a1 1 0 1 0 0 2z"/><path fill="#1B325F" d="M59.706 14.292L45.708.294A.994.994 0 0 0 45 0H8C5.789 0 4 1.789 4 4v56c0 2.211 1.789 4 4 4h48c2.211 0 4-1.789 4-4V15a.99.99 0 0 0-.294-.708zM46 3.414L56.586 14H46V3.414zM58 60a2 2 0 0 1-2 2H8a2 2 0 0 1-2-2V4a2 2 0 0 1 2-2h36v13a1 1 0 0 0 1 1h13v44z"/><path fill="#1B325F" d="M45.404 43.332a.999.999 0 0 0 0-1.414l-3.536-3.535a.997.997 0 0 0-1.414 0l-7.07 7.071a.999.999 0 0 0 0 1.414l3.535 3.535a.999.999 0 0 0 1.414 0l1.768-1.768 7.071 7.071a.999.999 0 0 0 1.414 0l2.121-2.121a.993.993 0 0 0 .293-.707.995.995 0 0 0-.293-.707l-7.071-7.07 1.768-1.769zm-7.778 4.95l-2.121-2.121 5.656-5.657 2.121 2.121-5.656 5.657zm10.96 4.596l-.707.708-6.364-6.364.707-.707 6.364 6.363zM31.614 46.514a.999.999 0 1 0-1.414 1.414l5.657 5.657a.999.999 0 1 0 1.414-1.414l-5.657-5.657zM41.515 35.2a.997.997 0 0 0 0 1.414l5.655 5.656a1 1 0 1 0 1.415-1.414L42.929 35.2a1 1 0 0 0-1.414 0z"/></symbol><symbol id="icons-proceedings" viewBox="0 0 64 64"><path fill="#1B325F" d="M14 24a1 1 0 0 0 1 1h34a1 1 0 1 0 0-2H15a1 1 0 0 0-1 1zM27 35H15a1 1 0 1 0 0 2h12a1 1 0 1 0 0-2zM24 41h-9a1 1 0 1 0 0 2h9a1 1 0 1 0 0-2zM15 31h34a1 1 0 1 0 0-2H15a1 1 0 1 0 0 2zM15 18h16a1 1 0 1 0 0-2H15a1 1 0 1 0 0 2z"/><path fill="#1B325F" d="M59.706 14.292L45.708.294A.994.994 0 0 0 45 0H8C5.789 0 4 1.789 4 4v56c0 2.211 1.789 4 4 4h48c2.211 0 4-1.789 4-4V15a.99.99 0 0 0-.294-.708zM46 3.414L56.586 14H46V3.414zM58 60a2 2 0 0 1-2 2H8a2 2 0 0 1-2-2V4a2 2 0 0 1 2-2h36v13a1 1 0 0 0 1 1h13v44z"/><path fill="#1B325F" d="M53.97 50.038a.965.965 0 0 0-.101-.317l-4.183-11.195a.99.99 0 0 0-.812-.632v-.019H42v-1a1 1 0 1 0-2 0v1h-6.625v.002c-.396-.018-.773.244-.927.621l-4.556 11.206a.948.948 0 0 0-.109.316c-.01.041-.02.081-.024.123-.001.016-.009.028-.009.044 0 .024.007.046.007.069.001.062.006.122.018.183.13 2.583 2.167 4.186 5.413 4.186 3.242 0 5.279-1.6 5.412-4.179a.99.99 0 0 0 .019-.188c0-.024.007-.046.007-.071 0-.012-.006-.021-.007-.032-.003-.04-.015-.078-.023-.117a.965.965 0 0 0-.101-.317l-3.679-9.846H40V56h-6.625a1 1 0 1 0 0 2h15.5a1 1 0 1 0 0-2H42V39.875h5.264l-3.996 9.829a.948.948 0 0 0-.109.316c-.01.041-.02.081-.024.123-.001.016-.009.028-.009.044 0 .024.007.046.007.069.001.062.006.122.018.183.13 2.583 2.167 4.186 5.413 4.186 3.242 0 5.279-1.6 5.412-4.179a.99.99 0 0 0 .019-.188c0-.024.007-.046.007-.071 0-.012-.006-.021-.007-.032-.005-.04-.016-.078-.025-.117zm-20.634-8.411l2.824 7.561h-5.898l3.074-7.561zm-.148 10.998c-1.24 0-2.662-.269-3.206-1.375h6.412c-.544 1.106-1.966 1.375-3.206 1.375zm18.347-3.437h-5.898l3.074-7.561 2.824 7.561zm-2.972 3.437c-1.24 0-2.662-.269-3.206-1.375h6.412c-.544 1.106-1.966 1.375-3.206 1.375z"/></symbol><symbol id="icons-twitter" viewBox="0 0 24 24"><path fill="#00AEEF" d="M15.241.45C8.861-1.34 2.237 2.38.449 8.76c-1.79 6.379 1.932 13 8.312 14.791 6.377 1.791 13-1.931 14.791-8.31C25.34 8.862 21.62 2.239 15.241.45zm2.85 11.845c-1.306 5.284-10.06 7.527-14.088 2.039 1.542 1.473 4.228 1.602 5.932-.159-.998.147-1.725-.833-.497-1.361-1.104.119-1.718-.467-1.969-.964.258-.271.544-.398 1.095-.434-1.207-.285-1.654-.877-1.791-1.594.336-.082.755-.149.984-.119-1.059-.551-1.425-1.384-1.368-2.01 1.891.703 3.095 1.265 4.103 1.807.361.191.76.536 1.212.975.576-1.521 1.287-3.089 2.503-3.866a.854.854 0 0 1-.239.475 2.396 2.396 0 0 1 1.252-.592c-.054.342-.546.535-.844.646.225-.07 1.423-.604 1.554-.3.155.346-.827.506-.993.566a6.703 6.703 0 0 0-.373.137c1.519-.15 2.97 1.102 3.392 2.655.03.112.061.236.089.367.556.206 1.561-.011 1.885-.21-.234.555-.844.963-1.742 1.037.434.181 1.247.279 1.813.184-.358.382-.933.729-1.91.721z"/></symbol><symbol id="icons-cross" viewBox="0 0 12 12"><path fill="#D34242" d="M11 3.395L8.605 1 6 3.605 3.395 1 1 3.395 3.605 6 1 8.605 3.395 11 6 8.395 8.605 11 11 8.605 8.395 6z"/></symbol><symbol id="icons-selections" viewBox="0 0 64 64"><path fill="#1B325F" d="M63.937 28.063a1 1 0 0 0-.937-.65H42.09l6.137-5.319a.998.998 0 0 0-.656-1.755h-4.366v-5.355a1 1 0 0 0-1-1h-7.973a1 1 0 0 0-1 1v5.355H15.34v-8.533a1 1 0 0 0-1-1H6.366a1 1 0 0 0-1 1v8.533H1c-.423 0-.8.266-.941.664a.995.995 0 0 0 .308 1.109l20.617 16.885v16.93a.999.999 0 0 0 1.763.646l5.761-6.794a1 1 0 0 0 .237-.646v-9.341l7.668 6.279V63a.999.999 0 0 0 1.762.646l5.761-6.793a1 1 0 0 0 .237-.646V46.054l19.482-16.885a1 1 0 0 0 .282-1.106zM35.232 15.982h5.973v4.355h-5.973v-4.355zM7.366 12.805h5.974v7.533H7.366v-7.533zm19.378 25.717v10.242L22.983 53.2V38.522a1 1 0 0 0-.366-.773L3.8 22.338h41.092l-5.855 5.075H16.429c-.423 0-.8.266-.941.664a.995.995 0 0 0 .308 1.109l11.014 9.019a.92.92 0 0 0-.066.317zm15.774 6.319c-.219.19-.345.466-.345.756V55.84l-3.761 4.435V45.597a1 1 0 0 0-.366-.773l-18.817-15.41H60.32L42.518 44.841zM11.992 9.825h.076a1 1 0 0 0 1-1V3.721c0-.553-.523-1-1.076-1s-1 .447-1 1v5.104a1 1 0 0 0 1 1zM45.979 7.61h.078a1 1 0 0 0 1-1V1.507c0-.553-.525-1-1.078-1s-1 .447-1 1V6.61a1 1 0 0 0 1 1zM35.47 11.929h.077a1 1 0 0 0 1-1V5.824c0-.553-.524-1-1.077-1s-1 .447-1 1v5.104a1 1 0 0 0 1 1.001z"/><path fill="#1B325F" d="M20.3 17.89h7.972a1 1 0 0 0 1-1V1a1 1 0 0 0-1-1H20.3a1 1 0 0 0-1 1v15.89a1 1 0 0 0 1 1zM21.3 2h5.972v13.89H21.3V2zM51.381 24.755h7.972a1 1 0 0 0 1-1V7.866a1 1 0 0 0-1-1h-7.972a1 1 0 0 0-1 1v15.889a1 1 0 0 0 1 1zm1-15.889h5.972v13.889h-5.972V8.866z"/></symbol><symbol id="icons-hearings" viewBox="0 0 64 64"><path fill="#1B325F" d="M15.907 9.162c2.528 0 4.585-2.055 4.585-4.581S18.436 0 15.907 0s-4.586 2.055-4.586 4.581 2.058 4.581 4.586 4.581zm0-7.162c1.426 0 2.585 1.158 2.585 2.581a2.586 2.586 0 0 1-5.171 0A2.586 2.586 0 0 1 15.907 2zM26.664 9.162c2.528 0 4.585-2.055 4.585-4.581S29.192 0 26.664 0s-4.586 2.055-4.586 4.581 2.058 4.581 4.586 4.581zm0-7.162c1.426 0 2.585 1.158 2.585 2.581a2.586 2.586 0 0 1-5.171 0A2.586 2.586 0 0 1 26.664 2zM37.42 9.162c2.528 0 4.586-2.055 4.586-4.581S39.948 0 37.42 0s-4.585 2.055-4.585 4.581 2.057 4.581 4.585 4.581zm0-7.162c1.426 0 2.586 1.158 2.586 2.581a2.586 2.586 0 0 1-5.171 0A2.586 2.586 0 0 1 37.42 2zM11.126 18.712c2.528 0 4.586-2.055 4.586-4.581S13.654 9.55 11.126 9.55s-4.585 2.055-4.585 4.581 2.057 4.581 4.585 4.581zm0-7.162c1.426 0 2.586 1.158 2.586 2.581a2.586 2.586 0 0 1-5.171 0 2.586 2.586 0 0 1 2.585-2.581zM17.298 14.131c0 2.526 2.057 4.581 4.585 4.581s4.586-2.055 4.586-4.581-2.058-4.581-4.586-4.581-4.585 2.054-4.585 4.581zm4.585-2.581c1.426 0 2.586 1.158 2.586 2.581a2.586 2.586 0 0 1-5.171 0 2.586 2.586 0 0 1 2.585-2.581zM28.054 14.131c0 2.526 2.058 4.581 4.586 4.581s4.586-2.055 4.586-4.581S35.168 9.55 32.64 9.55s-4.586 2.054-4.586 4.581zm4.586-2.581c1.426 0 2.586 1.158 2.586 2.581a2.586 2.586 0 0 1-5.172 0 2.586 2.586 0 0 1 2.586-2.581zM38.811 14.131c0 2.526 2.058 4.581 4.586 4.581s4.586-2.055 4.586-4.581-2.058-4.581-4.587-4.581-4.585 2.054-4.585 4.581zm4.585-2.581c1.426 0 2.586 1.158 2.586 2.581a2.586 2.586 0 0 1-5.172 0 2.587 2.587 0 0 1 2.586-2.581zM48.177 9.162c2.528 0 4.586-2.055 4.586-4.581S50.705 0 48.177 0s-4.585 2.055-4.585 4.581 2.056 4.581 4.585 4.581zm0-7.162c1.426 0 2.586 1.158 2.586 2.581a2.586 2.586 0 0 1-5.171 0A2.586 2.586 0 0 1 48.177 2zM49.567 14.131c0 2.526 2.057 4.581 4.585 4.581s4.586-2.055 4.586-4.581-2.057-4.581-4.586-4.581-4.585 2.054-4.585 4.581zm4.585-2.581c1.426 0 2.586 1.158 2.586 2.581a2.586 2.586 0 0 1-5.171 0 2.586 2.586 0 0 1 2.585-2.581zM2.12 28.982h16.733a1 1 0 0 0 1-1v-4.724a3.239 3.239 0 0 0-3.236-3.234H4.356a3.239 3.239 0 0 0-3.236 3.234v4.724a1 1 0 0 0 1 1zm1-5.723c0-.681.555-1.234 1.236-1.234h12.261c.682 0 1.236.554 1.236 1.234v3.724H3.12v-3.724zM25.87 20.024a3.239 3.239 0 0 0-3.236 3.234v4.724a1 1 0 0 0 1 1h16.732a1 1 0 0 0 1-1v-4.724a3.239 3.239 0 0 0-3.236-3.234H25.87zm13.496 3.235v3.724H24.634v-3.724c0-.681.555-1.234 1.236-1.234h12.26a1.235 1.235 0 0 1 1.236 1.234zM44.146 23.259v4.724a1 1 0 0 0 1 1H61.88a1 1 0 0 0 1-1v-4.724a3.239 3.239 0 0 0-3.236-3.234H47.383a3.24 3.24 0 0 0-3.237 3.234zm16.734 0v3.724H46.146v-3.724c0-.681.555-1.234 1.236-1.234h12.261a1.236 1.236 0 0 1 1.237 1.234zM63 31.112H1a1 1 0 0 0-1 1v5.521a1 1 0 0 0 1 1h4.976V63a1 1 0 0 0 1 1h50.049a1 1 0 0 0 1-1V38.633H63a1 1 0 0 0 1-1v-5.521a1 1 0 0 0-1-1zm-1 5.521h-4.976a1 1 0 0 0-1 1V62H7.976V37.633a1 1 0 0 0-1-1H2v-3.521h60v3.521z"/><path fill="#1B325F" d="M18.634 50.144c-.001.016-.009.028-.009.044 0 .024.007.046.007.069.001.062.006.122.018.183.13 2.584 2.167 4.186 5.413 4.186 3.242 0 5.279-1.6 5.412-4.18a.972.972 0 0 0 .019-.187c0-.024.007-.046.007-.071 0-.012-.006-.021-.007-.032-.003-.04-.015-.078-.023-.117a.965.965 0 0 0-.101-.317l-3.679-9.846h5.185V56H24.25a1 1 0 1 0 0 2h15.5a1 1 0 1 0 0-2h-6.875V39.875h5.264l-3.996 9.829a.948.948 0 0 0-.109.316c-.01.041-.02.081-.024.123-.002.016-.01.029-.01.045 0 .024.007.046.007.069.001.062.006.122.018.183.13 2.584 2.167 4.186 5.413 4.186 3.242 0 5.279-1.6 5.412-4.18a.972.972 0 0 0 .019-.187c0-.024.007-.046.007-.071 0-.012-.006-.021-.007-.032-.003-.04-.015-.078-.023-.117a.965.965 0 0 0-.101-.317l-4.183-11.195a.99.99 0 0 0-.812-.632v-.019h-6.875v-1a1 1 0 1 0-2 0v1H24.25v.002c-.396-.018-.773.244-.927.621l-4.556 11.206a.948.948 0 0 0-.109.316c-.01.041-.019.081-.024.123zm20.804 2.481c-1.24 0-2.662-.27-3.206-1.375h6.412c-.544 1.105-1.966 1.375-3.206 1.375zm2.972-3.437h-5.898l3.074-7.561 2.824 7.561zm-18.347 3.437c-1.24 0-2.662-.27-3.206-1.375h6.412c-.544 1.105-1.966 1.375-3.206 1.375zm.148-10.998l2.824 7.561h-5.898l3.074-7.561z"/></symbol></svg>
