<?xml version="1.0" encoding="utf-8"?>
<svg version="1.0" xmlns="http://www.w3.org/2000/svg" xmlns:xlink="http://www.w3.org/1999/xlink" x="0px" y="0px"
	 viewBox="0 0 500 461.3" enable-background="new 0 0 500 461.3" xml:space="preserve">
<path fill="#FFFFFF" d="M173.1,327.1c0,42.5-34.4,76.9-76.9,76.9c-42.5,0-76.9-34.4-76.9-76.9c0,0,19.2,38.5,76.9,38.5
  C153.8,365.5,173.1,327.1,173.1,327.1z"/>
<path fill="#FFFFFF" d="M96.2,423.2c-53,0-96.2-43.1-96.2-96.2c0-8.9,6.1-16.7,14.8-18.7c8.8-2,17.6,2.1,21.6,10.1
  c0.5,0.9,15.5,27.8,59.7,27.8c44.6,0,59.6-27.6,59.7-27.8c4-8,12.9-12.2,21.6-10.1c8.7,2,14.8,9.8,14.8,18.7
  C192.3,380.1,149.2,423.2,96.2,423.2z"/>
<path fill="#FFFFFF" d="M173.1,346.3c-10.6,0-19.2-8.6-19.2-19.2c0-22.8-30.6-101.2-57.7-164.1c-27.1,62.9-57.7,141.3-57.7,164.1
  c0,10.6-8.6,19.2-19.2,19.2C8.6,346.3,0,337.7,0,327.1c0-44.4,65.5-190.7,78.7-219.6c3.1-6.9,10-11.3,17.5-11.3
  c7.5,0,14.4,4.4,17.5,11.3c13.1,28.9,78.6,175.2,78.6,219.6C192.3,337.7,183.7,346.3,173.1,346.3z"/>
<path fill="#FFFFFF" d="M288.5,38.5C288.5,17.2,271.2,0,250,0c-21.2,0-38.5,17.2-38.5,38.5c0,14.2,7.8,26.5,19.2,33.1v380.1
  c0,5.3,4.3,9.6,9.6,9.6h19.2c5.3,0,9.6-4.3,9.6-9.6V71.6C280.7,64.9,288.5,52.7,288.5,38.5z"/>
<path fill="#FFFFFF" d="M301.3,135.6c-12.6,0-24.6-2.3-35.4-8.4c-6-3.3-11.3-7.6-15.9-12.8c-4.6,5.2-9.9,9.4-15.9,12.8
  c-31.4,17.5-72.4,4.1-108.6-7.8c-49.7-16.3-63.9-16.9-69-3.1c-3.7,10-14.8,15.1-24.7,11.4C21.8,124,16.8,113,20.4,103
  c19.2-52.2,75.8-33.7,117-20.2c28.7,9.4,61.2,20,77.9,10.7c7.4-4.1,12.6-12.7,15.9-26.3c2.1-8.6,9.8-14.7,18.7-14.7
  c8.9,0,16.6,6.1,18.7,14.7c3.3,13.6,8.5,22.2,15.9,26.3c16.7,9.3,49.3-1.3,77.9-10.7c41.3-13.5,97.8-32,117.1,20.2
  c3.7,10-1.4,21-11.4,24.7c-10,3.7-21-1.4-24.7-11.4c-5.1-13.8-19.3-13.1-69,3.1C350.8,127.2,325.1,135.6,301.3,135.6z"/>
<path fill="#FFFFFF" d="M480.8,327.1c0,42.5-34.4,76.9-76.9,76.9s-76.9-34.4-76.9-76.9c0,0,19.2,38.5,76.9,38.5
  C461.5,365.5,480.8,327.1,480.8,327.1z"/>
<path fill="#FFFFFF" d="M403.8,423.2c-53,0-96.2-43.1-96.2-96.2c0-8.9,6.1-16.7,14.8-18.7c8.8-2,17.6,2.1,21.6,10.1
  c0.5,0.9,15.5,27.8,59.7,27.8c44.6,0,59.6-27.6,59.7-27.8c4-8,12.9-12.2,21.6-10.1c8.7,2,14.8,9.8,14.8,18.7
  C500,380.1,456.9,423.2,403.8,423.2z"/>
<path fill="#FFFFFF" d="M480.8,346.3c-10.6,0-19.2-8.6-19.2-19.2c0-22.7-30.6-101.2-57.7-164.1c-27.1,62.9-57.7,141.3-57.7,164.1
  c0,10.6-8.6,19.2-19.2,19.2c-10.6,0-19.2-8.6-19.2-19.2c0-44.4,65.5-190.7,78.7-219.6c3.1-6.9,10-11.3,17.5-11.3
  c7.5,0,14.4,4.4,17.5,11.3c13.1,28.9,78.7,175.2,78.7,219.6C500,337.7,491.4,346.3,480.8,346.3z"/>
</svg>
