<?xml version="1.0" encoding="utf-8"?>
<svg version="1.1" xmlns="http://www.w3.org/2000/svg" x="0px" y="0px"
	 width="60px" height="60px" viewBox="-16.779 0 60 60" enable-background="new 0 0 60 60" xml:space="preserve">
<path fill="#00aeef" d="M13.066,16.941c-1.868,0-3.642,0.396-5.248,1.105V9.497c0-2.895,2.353-5.248,5.248-5.248
  c2.891,0,5.241,2.35,5.246,5.24h-0.004v5.065h4.059V9.497h0.003c0-5.13-4.174-9.305-9.304-9.305c-5.132,0-9.305,4.175-9.305,9.305
  v11.349C1.437,23.206,0,26.44,0,30.007c0,7.204,5.86,13.065,13.066,13.065c1.866,0,3.64-0.396,5.246-1.104v8.535
  c0,2.895-2.353,5.25-5.246,5.25c-2.895,0-5.248-2.355-5.248-5.25H7.82v-5.064H3.761v5.064c0,5.131,4.173,9.305,9.305,9.305
  c5.13,0,9.304-4.174,9.304-9.305V39.168c2.323-2.361,3.759-5.596,3.759-9.161C26.13,22.803,20.27,16.941,13.066,16.941
   M13.066,39.016c-4.968,0-9.008-4.041-9.008-9.008c0-2.99,1.469-5.637,3.717-7.277h0.043v-0.033c1.479-1.064,3.289-1.7,5.248-1.7
  c4.966,0,9.008,4.043,9.008,9.01C22.075,34.975,18.032,39.016,13.066,39.016"/>
<path fill="#1b325f" d="M15.27,27.684c0-1.218-0.987-2.203-2.203-2.203c-1.218,0-2.206,0.985-2.206,2.203
  c0,0.867,0.502,1.611,1.227,1.974l-0.874,4.864h3.706l-0.877-4.864C14.768,29.295,15.27,28.551,15.27,27.684"/>
</svg>
