<?xml version="1.0" encoding="utf-8"?>
<svg version="1.1" xmlns="http://www.w3.org/2000/svg" xmlns:xlink="http://www.w3.org/1999/xlink" x="0px" y="0px"
	 width="801.01px" height="1150.88px" viewBox="95 -179.88 801.01 1150.88"
	 style="enable-background:new 95 -179.88 801.01 1150.88;" xml:space="preserve">
<polygon style="fill:#FFFFFF;" points="266.34,20.4 246.28,52.91 241.53,69.8 249.87,75.59 264.44,69.8 275.74,75.59 293.22,54.87
	291.04,27.55 "/>
<path style="fill:#F8C3DA;" d="M471.55,584.97c-5.48-6.01-9.81-13.16-17.61-16.84c-5.35,12.52-7.42,32.38-23.74,31.39
	c12.51-6.1,19.61-19.24,17.29-35.98c-0.55-3.92-4.65-26.2-6.57-29.86c-2.94-5.63-10.44-9.86-15.31-14.55
	c-5.77-5.56-10.43-10.8-15.31-14.55c5.4,12.45,9.51,33.39,4.59,49c-5.22,16.55-25.93,25.7-19.18,47.47
	c3.96,12.75,18.55,22.57,22.97,36.75c1,3.22,1.88,6.43,1.89,9.95c0.05,14.05,6.28,21.31,10.35,30.63
	c10.06,22.98,13.02,35.58,32.92,51.7c7.88,6.38,13.05,19.63,14.95,27.93c3.39,14.83-12.54,26.75-21.04,34.78
	c-23.09,21.83-44.23,35.98-62.78,60.16c-27.08,17.27-33.68,22.96-32.56,34.49c0.44,4.57,16.27,9.53,27.96,6.86
	c12.06-2.76,19.33-13.44,29.86-16.84c3.63-1.17,7.59-0.25,10.72-1.53c10.78-4.43,17.97-22.94,23.74-32.16
	c14.98-23.96,31.17-41.69,53.59-58.19c9.02-6.64,25.76-18.49,28.33-28.33c2.21-8.44-4.19-14.71-8.42-22.2
	c-12.11-21.47-45.15-55.5-16.08-75.8C487.04,646.04,475.82,618.97,471.55,584.97z"/>
<path style="fill:#F8C3DA;" d="M248.75,302.45c2.69,2.47,4.05,7.03,8.42,7.66c-4.23-19.06-7.87-36.75-9.19-56.66
	c-7.22,2.03-14.28-1.12-19.91-3.06c0.03,11.7,9.49,29.33,1.53,42.11C237.39,294.51,243.65,297.77,248.75,302.45z"/>
<path style="fill:#F8C3DA;" d="M604.95,413.47c-14.15-10.08-27.91-18.69-40.58-29.86c-5.59-4.93-13.11-10.32-16.84-15.31
	c-13.86-18.54-29.64-67.03-26.8-101.83c1.36-16.64-0.29-37.16,2.3-53.59c0.64-4.09,3.41-9.01,3.06-13.78
	c-0.59-8.14-8.74-20.83-14.55-32.16c-5.51-10.74-9.15-24.55-11.49-35.98c-5.53-27.09-9.64-53.23-16.08-78.86
	c-10.95-43.57-27.94-85.3-51.3-114.84c-23.53-29.77-55.24-59.07-105.66-57.42c-0.11,5.76-0.31,11.43-6.12,11.48
	c2.78-13.06-1.48-21.59-6.13-29.09c-2.76-4.46-7.15-11.61-9.95-10.72c4.84,12.51-1.43,36.14,11.48,40.58
	c-13.32,0.3-10.93-17.44-13.78-25.27c-4.36,12.05-1.95,28.52,6.12,31.39c-5.24,0.64-6.59-2.6-9.19-4.59
	c-20.51,17.01-19.3,57.85-55.41,59.26c-1.21,5.39-3,7.64-2.01,15.01c3.15,0.8,4.74-3.88,6.13-2.3c-10.07,18-18.22,37.92-21.44,62.78
	c-2.52-3.34-5.86-4.69-9.55-1.9c-5.39,5.76-3.01,18.38-0.4,24.86c0.87,1.99,2.25,2.72,4.11,2.31c0.62-0.14,1.61-0.01,3.89-3.44
	c0.57,2.35-2.5,4.03-2.28,5.18c1.67,8.88,11.84,14.77,21.08,10.5c-2.3,5.45-10.27,3.54-9.34,5.45c2.97,6.07,10.8,2.4,14.7-4.69
	c6.14-11.17,14.43-32.21,25.5-34.28c5.02-0.94,7.97-0.67,11.77,3.58c5.55,6.21-1.59,33.48-17.36,23.81
	c-1.75,1.89-3.33,6.5-1.47,9.42c4.71,7.37,19.39-2.57,22.91-10.95c-0.66,4.45-2.76,6.24-5.02,8.97c1.22,0.94,8.69,1.85,12.24-3.95
	c4.89-8,2.45-21.37-1.86-27.99c1.41,0.74,1.95,2.54,3.06,3.83c1.54-27.74,15.7-44.12,38.28-49c2.63-0.57,6.19,0.22,9.19-0.77
	c21.34-7.05,19.41-42.61,6.89-59.72c4.26,2.96,6.42,6.76,8.42,10.72c1.24-4.33-0.4-5.64-0.77-9.95c2.43,2.18,2.67,7.12,3.33,14.35
	c0.39,4.27,1.56,8.46,2.03,12.45c1.84,15.5-4.47,26.87-11.48,32.92c-11.23,9.69-32.2,4.43-39.05,20.67
	c31.2,12.71,23.82,60.76,14.55,92.64c-8.46,29.11-26.92,41.73-45.94,58.19c-7.52,6.51-18.94,11.7-21.44,22.97
	c12.91,7.76,26.89,14.46,46.7,15.31c9.65-4.7,25.3-11.36,35.98-9.95c-4.02,8.16-15.72,6.96-23.73,9.95
	c-6.86,2.56-10.12,6.9-20.67,5.36c-9.13-1.33-20.15-6.76-30.62-9.95c-11.3-3.44-22.01-7.31-27.56-13.02
	c-7.55-7.75-10.46-24.81-23.73-17.61c-18.35,9.95-33.6,7.76-34.42,20.27c-0.39,5.99,3.07,9.75,5,15.71
	c6.18,19.14-0.9,37.64,1.09,56.66c-5.14,10.53-14.36,12.25-11.48,29.09c2.93,17.18,20.27,17.99,26.8,28.33
	c6,9.5-1.21,24.26,11.49,26.8c1.99-6.87,4.94-13.14,10.72-19.14c4.03-4.18,13.51-8.11,13.02-13.78
	c-0.95-11.01-17.13-4.26-21.11-13.78c2.73-4.55,4.27-6.51,5.4-11.48c1.92-8.44-3.18-16.88-3.1-25.27c0.03-2.92-0.44-5.61,0.04-8.42
	c2.31-13.6,4.02-24.11,12.61-33.76c10.01,10.04,11.82,20.11,19.18,32.23c24.19,39.83,29.12,29.94,40,32.16
	c0.27,12.99,5.49,22.32,13.59,27.56c7.17,4.63,24.31,10.71,33.69,11.48c15.17,1.25,26.03-5.88,30.62,3.83
	c-14.96,0.06-32.73,3.41-46.7-1.53c-4.07-1.44-7.54-3.03-11.49-4.63c-3.21-1.3-7.44-3.33-9.95-4.56
	c-9.35-4.56-14.83-14.04-17.61-23.73c-15.09-1.76-21.13-12.56-28.33-22.2c6.43,14.97-3.4,49.56,16.08,49
	c1.5,6.15,1.82,13.49,1.53,21.44c12.12,7.8,18.71,19.66,26.8,32.16c18.74,28.94,29.73,58.06,53.59,81.92
	c31.34,31.34,60.84,46.42,90.06,75.95c3.52,3.56,4.93,27.56,8.78,29.75c2.88,1.63,8.96,8.69,12.94,7.62
	c-2.55-15.67-0.94-35.16-3.06-50.53c-0.9-6.56-7.3-13.57-1.53-18.38c14.64,43.56,6.87,100.96,29.09,131.69
	c8.22,11.36,18.43,17.69,29.09,26.8c3.75,3.2,9.82,9.5,12.25,14.55c5.18,10.72,7.83,23.11,11.45,33.69
	c7.81,22.83,19.11,43.07,32.19,62.02c4.38,6.34,12.07,17.57,13.02,23.74c1.38,9,3.73,21.69,3.83,30.62
	c0.26,23.07-9.33,46-16.08,66.61c-10.47,7.91-25.97,16.95-25.26,29.86c0.55,10.07,51.06,10.02,59.72-3.83
	c6.28-10.05,1.04-23.73,0.77-35.99c-0.84-37.96,26.32-81.63,27.56-97.24c0.79-9.93-10.29-22.63-13.78-37.52
	c-2.25-9.61-6.19-19.9-6.89-29.09c-1.21-15.98,3.31-29.43,6.89-42.88c4.98-18.72,10-38.21,18.38-55.89
	c8.83-18.63,20.89-44.75,19.91-67.38c-1.3-29.78-7.41-58.01-15.31-80.39C641.27,439.71,623.82,426.92,604.95,413.47z"/>
<path style="fill:#F8C3DA;" d="M187.86,238.25c-6.82-4.67-11.18-9.44-19.5-9.3c-13.96,0.23-32.83,5.96-37.52,20.67
	c5.32,45.45-17.79,55.52-29.9,77c-5.08,9.01,7.99,15.23,8.82,24.83c0.97,11.25-12.07,17.8-10.72,27.96
	c1.46,10.99,7.08,2.19,10.76-0.36c6.7-4.65,18.1-7.68,27.93-9.59c3.38-0.66,4,1.27,6.56-2.3c1.48-6.84-2.42-4.2-1.64-10.34
	c0.17,0.04-2.8-6.04,0.76-8.28c15.12-9.55-8.1-43.49,21.27-69.09c4.13-3.6,3.82-4.79,8.27-5.32c3.07-5.61,10.37-11.32,12.25-17.17
	C186.24,253.7,188.12,243.63,187.86,238.25z"/>
<path style="fill:#F8C3DA;" d="M228.26,250.39c5.62,1.94,12.69,5.1,19.91,3.06c1.32,19.91,4.96,37.6,9.19,56.66
	c-4.37-0.62-5.73-5.18-8.42-7.66c-5.1-4.68-11.35-7.94-19.14-9.95C237.75,279.71,228.29,262.08,228.26,250.39z"/>
<path style="fill:#FFFFFF;" d="M431.16-107.93c-4.73,1.77-16.46,6.66-20.67,1.53C415.56-109.64,424.15-108.42,431.16-107.93z"/>
<path style="fill:#FFFFFF;" d="M254.01,17.19c2.39,0.83,3.35,5.04,3.35,5.04c-18.22-15.01-24.79,26.25-9.19,22.2
	c-7.44,3.51-12.43,0.78-12.95-5.57c-0.46-5.67,4.55-19.43,10.11-21.67C248.38,15.96,251.06,16.17,254.01,17.19z"/>
<path style="fill:#8E0043;" d="M311.35-59.29c4.9,10.83-4.42,25.79-16.08,27.56C303.39-37.32,311.35-43.8,311.35-59.29z"/>
<path style="fill:#8E0043;" d="M252.76,14.57c2.83,0.65,4.82,3.34,4.59,7.66c-7.3-11-17.85-3.24-20.66,8.67
	c-2.2,9.31-0.19,18.57,11.47,13.53c-3.86,3.06-8,3.06-11.12,1.17C225.33,38.47,238.76,11.36,252.76,14.57z"/>
<path style="fill:#F389B8;" d="M355.57-66.64c2.2-0.27,1.5,2.36,2.17,3.62c3.22,1.47,2.91-4.25,4.35-2.17
	c0.42,14.5,3.55,31.83-1.45,42.72c-2.35,5.11-8.74,12.23-14.48,13.76c-3.16,0.84-6.62-0.23-9.41,0.72
	c-12.11,4.12-22.64,9.28-28.96,18.83c0.04,3.98-3.78,6.8-5.07,10.86c-1.8,5.67,0.02,12.52-2.9,18.1c-3.02,0.37-1.52-3.79-4.34-3.62
	c2.77-15.15,19.1-48.46,31.13-51.73c7.86-2.13,15.38-0.82,21-4.02C359.08-26.14,361.05-52.62,355.57-66.64z"/>
<path style="fill:#F389B8;" d="M249.86,12.91c-4.89-8.09,1.73-25.85,5.79-28.96C254.43-18.46,249.4,2.67,249.86,12.91z"/>
<path style="fill:#F389B8;" d="M300.54,48.48c4.27,7.69-4.37,27.3-15.2,19.55c-0.47-5.52,5.24-3.34,8.69-6.11
	C298.07,58.67,299.52,55.01,300.54,48.48z"/>
<path style="fill:#F389B8;" d="M281.72,54.99c1.57,2.74,0.55,3.32-1.45,4.66c-3.02,2.04-9.69,1.96-11.27-0.32
	C271.41,56.43,275.76,54.34,281.72,54.99z"/>
<path style="fill:#F389B8;" d="M357.74,157.81c-7.29,1.91-28.69,8.35-28.96-2.17c1.55-1.56,4.05-0.37,5.07,0.72
	C342.81,158.82,353.59,150.9,357.74,157.81z"/>
<path style="fill:#F389B8;" d="M233.93,212.11c0.84-0.12,1.29,0.16,1.45,0.72c23.51,18.97,24.85,60.1,65.89,61.54
	c-2.07,14.21,5.87,23.23,14.48,29.69c7.06,5.3,16.38,8.42,27.51,10.86c5.04,1.11,12.38-0.28,15.93,5.07
	c-3.69,2.36-10.02,1.79-13.76,1.45c-17.63-1.6-33.38-10.62-44.89-18.1c-1.89-7.76-7.19-12.12-5.79-23.17
	c-2.64,0.02-1.54,3.77-5.07,2.9c-4.65-0.42-6.69-3.45-11.59-3.62c-10.03-7.13-19.01-13.99-23.89-25.34c-0.6-1.38-0.32-3.1-0.72-4.34
	c-4.02-12.4-14.64-22.76-20.27-34.75C232.9,213.49,233.7,213.09,233.93,212.11z"/>
<path style="fill:#F389B8;" d="M222.35,294.65c11.54,1.25,22,3.58,19.55,18.82c-4.57,2.18-6.73,5.65-11.27,7.88
	c6.93-7.88,13.4-11.91,4.75-14.39c-10.74-3.09-16.31-5.73-18.1-12.31c-1.15-4.25,2.82-9.03,3.62-15.21
	c1.02-7.83-9.25-32.58,10.98-57.95c0.93-0.99-9.01,37.42-8.08,38.41c0.25-4.09,6.71,17.67,5.07,23.89
	c13.6,5.72,31.38,11.08,28.96,30.41c-7.26,0.12-8.47-7.94-12.31-11.58c-5-4.74-11.73-6.51-17.38-10.86
	C228.69,286.16,225.07,293.22,222.35,294.65z"/>
<path style="fill:#F389B8;" d="M393.22,270.76c1.29-0.21,1.49,0.68,0.72,0.72c-5.18,13.17-18.08,22.45-31.13,25.34
	C371.66,286.85,383.41,279.77,393.22,270.76z"/>
<path style="fill:#F389B8;" d="M136.68,352.89c-0.6-3.08,1.05-7.32,3.39-9.41c14.77-13.2-5.81-40.59,12.77-60.41
	c4.19-4.47,12.92-12.51,23.75-10.14c2.14,3.42-8.17,3.73-9.27,5.07c-1.64,2-2.47,4.46-4.34,6.52c-2.67,2.93-7.68,5.46-10.14,10.86
	c-5.95,13.06-0.45,32.22-3.53,46.02c-0.81,3.62-4.29,4.3-5.71,7.56c0.95,7.69,3.45,12.57,1.28,21.72c-1.73,0.44-3.31,1.04-5.79,0.72
	c-2.26-2.62,1.99-3.8,1.45-6.52C139.61,360.23,137.66,357.95,136.68,352.89z"/>
<path style="fill:#F389B8;" d="M673.42,543.72c0,4.82,0,9.66,0,14.48c-1.88,24.1-16.04,41.11-25.34,60.82
	c-4.45,9.43-8.56,20-13.03,30.41c-4.52,10.51-9.29,21.66-10.14,33.31c-0.39,5.29,0.46,10.87,0.72,16.66c0.19,4.14,0.54,9.06,0,13.75
	c-1.75,15.24,15.9,56.91,17.22,61.62c2.78-0.12-1.28,30.59-12.16,35.4c-4.79,9.45-6.71,21.77-9.41,33.31
	c-0.75,2.11-2.82,1.78-3.62,2.17c-2.59,13.2-0.78,28.22-0.72,41.99c0.02,5.97,0.8,13.23,0,18.1c-0.58,3.53-4.39,6.49-3.62,10.14
	c-5.65,0.14-7.35,4.23-10.86,6.51c-2.7,0.77-1.42-2.44-2.9-2.89c-3.88,2.37-13.54,5.96-18.1,2.89c9.57-1.91,28.92-8.71,28.24-21
	c-0.77-13.78-3.98-29.14-2.89-43.44c1.64-21.61,7.89-43.03,14.08-60.09c2.46-6.78,8.64-13.3,8.78-18.83
	c0.35-14.13-6.47-22.63-12.72-38.05c-6.56-16.2-9.7-31.81-8.69-49.55c1.73-30.34,16.44-51.98,28.24-76.03
	c13.48-27.47,27.15-52.48,26.06-89.78c-0.09-3.03,1.76-8.26-8.11-47.39c1.72-0.14,12.69,39.68,13.18,41.59
	c1.49,5.77-0.41,16.22,0,20.99C669.17,541.44,672.94,540.37,673.42,543.72z"/>
<path style="fill:#F389B8;" d="M514.86,656.67c-2.54,5.05-3.37,4.38-5.62,8.69c-6.72,12.91-2.1,29.19,2.72,38.38
	c5.87,11.2,10.83,18.84,18.1,28.96c1.45,2.02,2.52,5.12,4.34,7.24c2.96,3.45,5.93,3.01,6.52,7.96c1.38,11.52-5.99,23.32-12.31,29.69
	c-9.19,9.27-24.36,18.33-36.2,26.79c-4.12,2.94-8.99,5.54-11.58,8.68c-1.22,1.48-1.22,3.5-2.17,5.07
	c-2.21,3.65-6.42,8.19-9.41,12.31c-3.69,5.09-8.13,10.32-12.31,16.65c-6.68,10.13-15.55,27.96-26.79,31.14
	c-3.12,0.88-5.81-0.53-7.96,0c-4.34,1.06-4.44,7.46-11.59,6.51c3.05-5.92,10.82-8.13,15.93-12.31c4.12-3.36,8.4-9.14,12.31-14.48
	c3.59-4.89,7.73-10.12,10.86-15.2c6.44-10.46,12.92-22.51,21-31.86c8.23-9.53,18.6-16.94,28.96-24.61
	c9.68-7.17,23.8-15.44,28.24-24.62c5.77-11.93,1.26-18.06-5.07-27.51c-2.88-4.3-29.92-39.83-31.13-53.58
	c-1.02-11.68,3.31-21.42,8.69-31.14c0.18-0.78,1.44-0.49,1.45-1.44C506.63,650.41,511.23,653.05,514.86,656.67z"/>
<path style="fill:#F389B8;" d="M279.55,32.55c-10.11,3.73-14.21,5.05-19.95,15.52c-1.97,3.59-3.5,9.96-6.52,13.44
	c-2.75,3.18-3.76,9.19-7.56,12.31c-5.63,3.62-14.28,1.21-11.99-2.9c1.95-2.55,4.41-1.49,9.82-2.89c8.29-2.16,11.24-18.4,17.38-27.83
	c2.15-3.3,6.58-7.53,9.41-8.69c9.29-3.81,18.45,1.16,17.38,11.9c-2.11-0.78-2.34-3.45-2.17-6.52
	C283.12,35.73,282.05,33.43,279.55,32.55z"/>
<path style="fill:#FFFFFF;" d="M302.41-133.8c0.48,0,2.04,0.49,2.52,0.49c-2.14,11.41-4.71,25.42,3.62,31.51
	C296.99-105.07,297.88-124.76,302.41-133.8z"/>
<path style="fill:#FFFFFF;" d="M290.24-76.48c-21.06,20.07-1.81,35.52-11.98,37.83c-9.83,2.23-7.38-16.79-2.74-22.72
	C280.16-67.3,283.55-72.87,290.24-76.48z"/>
<path style="fill:#FFFFFF;" d="M243.89-49.28c2.04,0.37,3.07,1.75,5.06,2.17c-0.47,4.71-3.81,9.17-1.44,14.45
	c-1.67,0.74-2.33,2.49-5.06,2.17c-0.67,1.26,0.03,3.88-2.17,3.61C240.52-35.31,241.61-42.89,243.89-49.28z"/>
<path style="fill:#FFFFFF;" d="M257.69-44.93c-1.6,2.07-12.23,12.83-20.75,39.5c-3.94,12.33-7.49,28.46-9.07,37.18
	c0,0-0.5-4.78-2.12-4.53c-2.32-10.99,2.31-19.68,5.86-28.87c1.51-2.8,0.38,0.33,0.73-2.82c3.98-4.52,5.4-10.37,7.95-15.89
	C248.95-39.18,259.79-47.67,257.69-44.93z"/>
<path style="fill:#FFFFFF;" d="M470.74,7.07c3.49-0.36,2.44,3.82,3.61,5.78C472.52,11.55,471.64,9.31,470.74,7.07z"/>
<path style="fill:#FFFFFF;" d="M367.43,19.35c6.37,20.19,7.61,40.57,15.17,58.52c7.3,17.32,16.53,32.3,24.82,47.72
	c-3.33-3.41-6.49-6.56-11.81-7.98c-4.11-7.45-4.84-18.28-12.28-22.4c-2.22-5.97-2.82-13.56-7.95-16.62
	C371.86,58.11,370.37,39.95,367.43,19.35z"/>
<path style="fill:#FFFFFF;" d="M221,27.71c5.39,1.42,3.5,26.53-2.57,26.11c0.21,2.43,5.14-0.32,5.14-0.32
	c3.33,7.63,12.4,13.61,19.91,12.38c-4.53,5.17-8.57,3.93-15.48,3.33c-3.45-3.28-2.96-11.91-7.95-11.56
	c-3.7-3.45-3.61-4.79-3.77-7.76c1.56,3.03,4.89,2.32,5.45-7.13c-6.5,5.23-4.72-15.2-0.1-12.15c-2.29-2.72-5.29,1.14-6.23,6.56
	C215.32,30.83,217.11,26.68,221,27.71z"/>
<path style="fill:#FFFFFF;" d="M211.38,167.45c3.06-0.11,0.01,1.14-0.72,1.45c-5.3,3.74-19.61,6.65-20.32,15.89
	c-0.4,5.19,4.46,10.14,5.78,15.89c2.08,9.05-0.25,19.73-0.72,31.79c-0.35,9.07,0.11,18.12-1.45,24.56
	c-2.17,8.98-10.82,13.55-8.26,28.17c2.61,14.96,24.25,17.48,26.01,27.45c2.25,12.78,3.99,18.17,8.98,24.25
	c-1.39,2.71-2.25,4.8-3.93,7.22c-11.99-5.58-5.63-19.68-12.6-29.31c-4.44-6.13-14.61-9.53-19.51-16.62
	c-1.12-1.63-4.79-3.73-5.93-5.97c-1.29-2.53-0.39-6.37-0.57-8.48c-0.57-6.59,0.28-15.41,6.01-19.95c8.45-6.69,3.99-20.13,5.65-34.87
	c0.96-8.52,1.31-16.63,0-22.73c-0.74-3.42-4.56-10.58-6.21-14.68c-2.33-5.79-0.38-9.98,3.94-16.13
	C195.37,174.65,200.39,167.19,211.38,167.45z"/>
<path style="fill:#FFFFFF;" d="M222.94,172.51c4.15,5.58-12.43,13.53-20.95,8.67C209.16,178.48,217.86,177.31,222.94,172.51z"/>
<path style="fill:#FFFFFF;" d="M628.96,424.65c0,1.69,0,3.37,0,5.06c-0.81,0.15-1.12,0.8-1.44,1.45
	c-21.37-16.83-71.19-41.95-82.36-54.05c-8.47-9.18-12.26-16.58-17.34-31.92c-3.71-11.21-6.74-22.76-8.58-31.79
	c-4.33-21.2-4.25-41.98-1.54-60.68c1.25-8.62,2.65-31.61,5.33-39.83c4.87,2.22,1.8,23.32,1.17,28.27c-0.73,5.78-2.5,11.5-2.17,16.61
	c-1.01,3.66,3.31,1.98,2.89,5.06c-5.47,32.25,4.8,59.84,13.01,83.08c7.67,5.82,10.89,16.08,14.45,26.01
	c18.98,12.33,38.45,24.16,55.63,38.29c5.3,0.48,9.09,2.47,13,4.34c2.84,1.87-0.55,3.34,0.72,5.06
	C624.64,420.77,626.6,422.9,628.96,424.65z"/>
<path style="fill:#FFFFFF;" d="M99.4,333.62c0-1.69,0-3.37,0-5.06c2.23-2.38,4.9-6.04,2.17-9.39c4.22-3.45,7.2-7.79,10.84-12.28
	c3.25-4.01,8.58-8.36,10.84-13c1.42-2.91,0.7-6.51,2.17-9.39c1.27-2.49,2.41-3.92,3.52-6.5c-0.62-14.07-1.81-30.36,5.87-36.84
	c11.19-3.03,22.54-14.22,33.09-14.22c-7.18,2.07-30.53,13.43-32.37,22.89c7.89,50.36-31.33,66.95-31.07,81.64
	c0.14,7.54,8.35,14.83,5.44,22.88C106.41,346.28,103.06,339.83,99.4,333.62z"/>
<path style="fill:#FFFFFF;" d="M166.25,237.37c1.45,2.45-4.71,9.31-6.02,12.22c-6.81,1.75-11.86,6.11-19.79,1.97
	c5.51-0.16,7.71-0.61,9.54-1.34C156.16,247.76,161.19,243.68,166.25,237.37z"/>
<path style="fill:#4CCAF5;" d="M370.67-155.4c-12.16,3-21.69-5.19-30.63-6.12c-12.08-1.26-18.43,8.57-27.56,13.78
	c6.76,6,11.69,13.83,13.78,24.5c26.7-3.81,45.65,6.16,63.55,16.08c20.61,11.42,34.49,27.14,47.47,45.17
	c12.56,17.46,28.33,37.88,35.22,58.95c4.14,12.68,9.24,24.58,13.02,36.75c5.54,17.84,9.31,39.31,13.78,55.89
	c3.84,14.26,4.34,31.5,8.42,47.47c2.82,11.03,8.67,28.93,19.91,30.63c8.78,1.32,11.58-4.32,15.31-9.19
	c-16.56,0.95-24.75-23.76-13.02-29.86c6.71-3.49,15.87,5.17,20.67-0.77c-18.79-6.44-16.36-31.15-26.8-45.17
	c-6.13-8.24-19.02-11.93-14.55-25.27c1.17,7.76,6.53,16.94,16.84,13.78c-4.09-5.3-1.33-15.16-2.3-22.2
	c-1.99-14.46-11.82-20.89-19.91-29.86c7.4-0.51,19.71,1.43,24.79-1.4c-4.33-2.07-6.52-4.88-8.71-8.55
	c-2.71-4.55-5.67-10.83-8.24-15.54c-3.58-6.59-6.51-11.01-12.44-13.55c-3.39-1.45-7.29-0.37-9.95-1.53
	c7.61-2.35,12.18-7.73,15.31-14.55c-14.86-1.98-20.08-13.61-39.05-11.48c7.28-6.55,4.13-20.98,5.36-32.16
	c-10.12,4.76-27.33,8.18-37.52,0.77c17.86-1.03,12.45-23.67,29.71-25.29c-13.38-10.94-35.04,7.83-51.91,3.85
	c-12.03-2.84-7.73-18.16,8.42-13.78c0.08,0.86,11.48,2.3,16.08,0.77c-14.5-2.64-22.89-23.85-42.11-17.61
	c-3.49,1.13-4.64,3.97-8.42,6.13c-1.15-17.74,30.94-6.31,31.39-19.91c-12.65,9.61-29.12-4.15-44.41-3.06
	c-10.53,0.75-17.07,7.37-26.8,3.83C354.65-146.91,366.97-146.85,370.67-155.4z"/>
<path style="fill:#4CCAF5;" d="M262.72-108.7c3.34-3.34,5.41-9.84,6.12-16.84c14.35,10.39-0.35,31.16,8.42,38.28
	c-12.9-6.9-1.15-22.15-6.6-30.81c-1.95,18.76-28.05,27.86-16.37,48.42c-5.83-2.52-8.1-11.14-6.13-19.91
	c-7.05-3.67-12.42-9.33-18.38-13.78c-2.39,7.36-0.64,13.98,5.36,16.84c-6.98,6.11-18.42-1.83-19.14-3.06
	c-2.86,17.36,11.42,22.96,28.33,22.97c-7.46,4.28-18.29,5.19-28.33,6.89c6.14,5.3,12.16,8.78,19.91,9.19
	c36.91,1.97,38-31.35,53.59-51.3c4.08-5.21,7.63-6.37,8.42-9.19c0.38-1.35-0.86-4.81-0.77-6.89c0.63-13.94,7.3-29.65,3.06-39.05
	c3.93,2.2,7.3,4.95,10.72,7.66c7.13-6.65,17.37-10.19,19.91-21.44c-15.04,6.68-35.91,0.63-44.41,13.78
	c-5.65,8.74-0.35,25.31-9.19,32.16c6.16-11.18,5.49-35.96-4.59-42.11c6.56,31.41-16.69,32.72-21.39,51.27
	C255.32-113.07,257.86-111.14,262.72-108.7z"/>
<path style="fill:#4CCAF5;" d="M804.78,437.97c-18.98,6.49-38.12,0.21-46.7-13.02c-10.26-15.8-21.1-36.66-41.34-39.81
	c-39.13-6.09-63.93,19.99-82.69,35.22c9.68,9.79,20.34-3.45,32.92-3.83c5.52-0.17,13.77,0.21,19.91,2.3
	c21.33,7.27,30.77,34.41,28.37,65.59c-1.15,14.88-4.33,30.11-1.9,52.31c1.43,13.04,9.92,43.77,14.38,57.29
	c8.87,26.88,18.04,21.79,30.36,36.12c12.99,15.11,25.13,22.13,46.7,30.62c-10.03-10.32-8.61-35.81,3.06-42.87
	c-0.17,11.53,2.71,28.61,12.69,37.08c11.03,9.36,51.47,13.59,64.64,2.74c-16-0.69-35.78-21.19-36.75-39.81
	c-0.39-7.55,2.8-18.19,9.19-19.14c5.04-0.75,3.91-0.96,8.86,3.83c-0.81-22.86-24.82-20.18-37.52-33.69
	c-5.28-5.62-11.27-13.51-10.76-21.47c0.13-1.99-1.04-6.85-0.33-9.15c7.7-24.77,11.75-47.87-3.9-63.55
	c-8.19-8.21-16.47-14.78-26.03-20.67C794.72,449.85,801.04,445.2,804.78,437.97z"/>
<path style="fill:#4CCAF5;" d="M248.93-133.2c-1.71,6-4.87,7.38-6.12,12.25c2.1,1.22,3.78,2.86,6.12,3.83
	C247.71-123.64,252.49-129.01,248.93-133.2z"/>
<path style="fill:#FFFFFF;" d="M327.79,273.36c8.29,9.48,17.8,18.15,30.56,17.01c12.68-1.14,25.93-17.86,36.05-20.83
	c1.5,3.55-7.39,8.5-8.91,9.91c-3.49,3.21-6.66,6.25-11.56,9.3c-5.18,3.23-9.98,8.09-17.34,9.48c-4.14-2.16-9.25-1.07-13-2.89
	c-1.7-0.83-10.76-9.82-12.28-12.28C329.74,280.52,331,280.25,327.79,273.36z"/>
<path style="fill:#FFFFFF;" d="M365.26,376.96c4.71,2.82,21.93,10.98,39.33,8.76c6.73-0.86,15.46-6.5,20.44-11.31
	c-6.92,11.71-9.46,10.23-12.81,14.1c9.82,8.2,33.82,7,44.2-1.09c-4.37,8.09-10.49,7.34-14.58,9.76
	c3.61,9.58,10.02,16.39,20.95,18.78c3.14,0.69,9.03,1.43,15.83,1.32c-14.24,2.52-26.76,0.64-37.5-6.38
	c-1.96-4.06-4.92-7.12-5.78-12.28c-7.07,0.33-13.14-0.35-18.78-1.45c-2.62-1.71-3.67-5-7.95-5.06c-0.93-0.95-4.17-0.86-3.24-1.8
	C386.9,392.94,369.17,382.44,365.26,376.96z"/>
<path style="fill:#FFFFFF;" d="M474.36,576.36c0.84-0.12,1.28,0.16,1.44,0.72c2.8,18.01,11.24,32.35,20.95,44.79
	c3.09,3.96,6.22,8.86,9.39,12.28c4.97,5.36,11.08,8.04,15.89,14.45c1.33,1.77,2.88,5.01,4.33,7.22c3.5,5.34,5.03,9.86,7.95,16.62
	c-0.88,2.36-3.28-1.12-3.61-1.45c-3.41-3.31-6.58-8.64-10.11-12.28c-7.68-7.92-17.78-14.84-23.12-23.84
	c-0.96-1.2-4.09-0.24-5.06-1.45c-4.62-6.98-8.85-17.26-9.39-26.01C480.7,597.31,471.13,587.26,474.36,576.36z"/>
<path style="fill:#FFFFFF;" d="M415.84,630.92c7.89,9.42,6.36,14.51,10.99,26.08c5.08,12.71,8.11,14.53,13.57,32.06
	c11.27,36.22,29.07,34.86,34.5,56.73c-10.96-0.36-18.02-24.33-27.28-26.39c-13.92-21.48-22.02-48.78-31.79-74.41
	C417.14,642.21,414.44,633.62,415.84,630.92z"/>
<path style="fill:#FFFFFF;" d="M540.1,686.89c5.1,15.22,20.63,40.98,33.95,60.69c17.87,26.42,28.71,37.91,26.13,71.8
	c-2.2,28.95-15.75,62.43-18.18,66.91c-16.21,12.05-20.79,16.83-22.31,33.85c-6.84,0.07-10.09-3.21-9.74-6.16
	c1.6-13.53,20.33-21.05,26.54-31.91c1.96-3.43,3.47-13.37,5.5-16.73c2.45-4.06,5.12-14.1,5.78-20.95c0.52-5.42,0.61-12.6,2.26-18.79
	c0.93-3.5-0.11-2.55,2.08-5.78c2.78-16.22-2.2-29.75-6.5-41.18c-0.7-3.34-3.49,2.1-5.78-0.72c-13.12-18.66-20.2-43.38-31.79-63.58
	C546.31,707.83,540.06,700.9,540.1,686.89z"/>
<path style="fill:#FFFFFF;" d="M473.49,777.2c-5.28,8.42-16.34,17.41-25.87,27.32c-11.77,12.24-24.73,19.85-34.68,34.81
	c-3.96,5.95-9.33,16.19-15.2,19.3c-25.36,13.41-29.65,26.2-21.77,35.74c-3.33,1.18-10.53-1.59-13.6-3.02
	c-2.26-5.16-2.55-8.39,0-13.73c0.81-1.69,1.62-4.29,2.17-5.06c1.97-2.77,5.81-4.19,9.39-7.22c3-2.54,6.88-4.5,9.8-6.82
	c7.12-5.66,12.57-12.27,17.65-15.58c1.65-3.17,3.49-6.15,6.5-7.95c7.19-11.91,16.38-15.2,26.73-24.6
	C445.23,800.75,460.29,783.73,473.49,777.2z M426.67,816.21c4.91-4.97,12.65-10.95,15.17-15.9
	C436.68,805.03,428.33,810.4,426.67,816.21z"/>
<path style="fill:#FFFFFF;" d="M417.28-83.23c5.94,11.16,18.91,19.38,15.17,17.34c4.25,8.42,13.77,19.3,13,18.78
	c3.45,5.94,8.03,10.75,10.84,17.34c-1.16,0.2-1.24-0.68-2.17-0.72c1.35,2.26,2.2,5.02,3.61,7.22
	c-32.49-48.51-68.46-98.97-136.93-85.42c2.79-3.47,4.4-9.78,6.89-13.55c9.02,1.71,18.02,1.42,27.05,0.81
	c-0.1,1.78,1.02,1.22,1.85,2.08c4.97,0.81,9.61,4.21,15.17,4.43c0.58,3.03,3.87-0.03,4.33,3.11c18.3,6.27,27.4,19.47,42.85,28.58
	C418.5-81.69,417.89-82.56,417.28-83.23z M368.16-113.58C372.93-112.32,362.31-115.42,368.16-113.58L368.16-113.58z"/>
<path style="fill:#FFFFFF;" d="M458.46-20.38c0.7-2.39,1.43,0.81,2.17,0.72C460.22-17.57,459.5-20.77,458.46-20.38z"/>
<path style="fill:#FFFFFF;" d="M315.42,12.13c16.55,5.7,28.21,17.79,28.9,36.85c0.42,11.55-2.16,25.99-5.78,36.84
	c-3.73,11.18-8.26,21.58-12.28,29.62c-3.45-0.95-0.3-5.55,0-7.22c0.84-4.79,3.59-10.89,5.06-15.89c0.83-2.12-3.47-2.68-1.44-3.61
	c2.34-11.76,9.09-20.86,7.22-34.68c-1.59-1.77-0.84,4.9-4.34,3.61c3.18-7.02,2.67-20.46-1.44-27.45c-1.95-3.32-5.84-6.57-8.67-9.39
	C320.01,18.17,315.61,16.08,315.42,12.13z"/>
<path style="fill:#FFFFFF;" d="M273.02,341.76c-3.71-5.94,0.75-4.14,1.94-5.98c16.32,0,56.18,81.69,84.75,110.54
	c14.03,14.16,32.43,27.39,48.18,39.73c14.89,11.67,33.06,31.16,39.01,41.94c-6.16,0.88-7.84-3.8-10.84-7.26
	c-2.06-2.38-4.92-4.57-7.23-7.23c-2.28-2.63-4.27-3.72-6.5-5.68c-5.52-4.85-12.91-7.7-16.62-14.14
	c-6.61-0.81-10.03-6.51-15.17-10.52c-21.97-17.13-59.55-50.17-62.85-65.74c-4.93-6.93-7.4-15.63-11.65-23.12
	c-1.29-2.27-1.35-3.38-2.8-5.78c-1.38-2.28-3.01-5.72-4.74-8.67c-3.47-5.91-8.5-7.88-9.71-13.73
	C280.93,345.53,277.73,349.29,273.02,341.76z"/>
<path style="fill:#F389B8;" d="M304.89-77.5c4.06-0.62,9.62,0.2,13.72,0.2c-5.2,0.17-8.06,0.6-10.82,2.29
	c-2.48,1.51-3.23,2.29-5.07,4.66c-0.57,0.73-3.11,2.74-3.62,3.71c-1.36,2.55,0.94,3.03,0,5.79c0.46-1.08,11.58-8.3,18.1-5.07
	c-9.26,2.08-14.53,8.15-21,13.03c0.02,2.67-0.33,4.99-2.9,5.07c-1.48,6.15-2.99,13.1-6.52,15.93c-1.35,1.08-4.58-0.07-5.07,2.9
	c-5.63,0.08-12.03-0.51-13.88-4.21c5.48,0.15,12.87,1.84,16.78-0.86c7.08-4.89,3.41-24.86,9.41-35.48
	C296.31-73.58,300.98-76.91,304.89-77.5z"/>
<path style="fill:#8E0043;" d="M220.61,29.88c3.76,0.37,1.07,17.55-0.77,17.61c-2.97,0.09-2.84-3.51-1.1-3.06
	c2.43,0.63,3.64-13.43,1.25-12.22C218.87,32.78,218.43,29.67,220.61,29.88z"/>
<path style="fill:#FFFFFF;" d="M527.65,17.46c0.29,5.97-14.66,1.5-20.19,2.88C512.33,17.53,521.85,19.36,527.65,17.46z"/>
<path style="fill:#82C662;" d="M440.39-57.53c5.17-1.37,12.27,1.1,18.84-3.29C455.07-54.2,447.42-56.41,440.39-57.53z"/>
<path style="fill:#82C662;" d="M500.05,21.05c-14.66-2.28-23.31-9.5-28-20.11c-1.72-3.89-1.53-9.1-3.59-13.64
	c-1.38-3.04-5.44-5.77-7.18-9.34c-2.62-5.38-6.51-12.56-9.13-16.52c-4.34-6.54-9.22-9.14-12.6-17.76c1.38,3.58,4.57,4.03,8.09,4.11
	c9.35,0.22,17.01-6.22,20.11-13.64c2.39-5.73,0.11-7.87,3.23-13.75c1.51,8.79,0.9,21.65-1.8,30.99
	c14.69,1.83,25.71,7.33,37.34,12.21c-1.21,4.92-10.3,11.56-9.34,13.64c18.44,5.26,18.45,28.94,31.6,39.5c0,0.48,0,0.96,0,1.44
	c-5.77,1.89-15.25,0.07-20.11,2.87C505.8,21.05,502.92,21.05,500.05,21.05z M447.83-49.74c6.95,2.46,19.38-4.17,19.91-16.1
	C464.97-57.29,455.3-49.21,447.83-49.74z"/>
<path style="fill:#82C662;" d="M270.93-88.13c1.44,3.12,3.22,5.92,8.65,5.05c-0.28,2.37-2.11,3.18-2.88,5.05
	c-3.45,1.56-6.33,1.71-8.65,0c-2.17-1.6-3.43-4.43-2.88-8.34c-3.01,9.07,4.23,13.62,10.82,10.5c-0.76,2.94,0.96,5.15-2.88,5.77
	c0.31-1.67,3.18-1.93,1.44-3.61c-3.07,1.97-6.7,1.97-8.65,1.44c0,0,0.25,1.96,5.05,1.44c-0.83,1.27-4.3,1.38-5.46,0.72
	c-13.31-7.63,8.15-31.86,5.19-47.96c-1.94,3.59-3.75,8.13-7.67,9.74c-7.44,0.52-8.23-7.15-14.42-5.77
	c-2.54-2.75-4.72-5.86-7.21-8.65c2.5-5.19,4.08-11.31,9.37-13.7c2.35,2.94,0.53,10.04,2.89,12.98c5.88-9.01,18.05-16.28,19.47-29.57
	c0.56-5.27-2.21-9.84-0.72-15.86c4.24,2.97,8.1,8.58,9.47,14.42c1.67-0.23,0.51,0.12,1.35,0.72c2.92-13.68,25.36-13.68,47.67-16.96
	c-3.06,5.63-19.5,7.58-25.31,9.75c-18.22,6.8-16.19,25.07-14.42,41.82c0.37,3.48,2.1,10.02,2.7,14.01c0,0-7.56,8.76-9.91,13.48
	c-2.04,4.09-0.12,4.36-3.6,7.11C274.61-85.14,273.25-84.55,270.93-88.13z M272.37-82.36c-4.54-4.73-4.37-13.41-3.6-18.75
	C266.78-96.3,265.28-82.56,272.37-82.36z"/>
<path style="fill:#82C662;" d="M215.41-92.87c6.03,1.94,8.35,8.82,17.31,5.77c-3.36-4.3-5.9-11.28-2.89-18.03
	c6.86,4.68,14.14,8.93,19.47,15.14c1.85,12.39-0.19,19.59-15.14,18.03c6.12,0.1,11.73-2.21,13.7-7.21
	C237.04-71.64,215.87-77.26,215.41-92.87z M248.99-85.03c-7.83,4.99-18.44,4.42-24.93,2.26C228.57-76.91,245.37-76.21,248.99-85.03z
	"/>
<path style="fill:#82C662;" d="M260.12-92.87c-0.42,6.53-4.17,20.99,4.33,23.8C256.84-68.58,256.5-85.94,260.12-92.87z"/>
<path style="fill:#FFF461;" d="M278.2-116.22c-2.01,6.34-5.66,24.19,8.7,21.75c-5.59,8.41-13.22,3.42-15.23-5.08
	C272.75-106.2,275.64-111.04,278.2-116.22z"/>
<path style="fill:#FFF461;" d="M529.1,17.53c-1.88-0.29-2.19-2.16-4.35-2.18C525.47,12.51,528.52,15.86,529.1,17.53z"/>
<path style="fill:#FFF461;" d="M542.88,130.65c-14.84-4.38-20.35-11.89-31.18-21.75c-6.36-5.79-13.81-11.11-15.95-17.4
	c-5.04-14.81-2.41-32.98-8.7-48.59c-1.37-3.39-4.85-6-5.8-9.43c-0.89-3.24-0.12-7.1-0.72-10.15c-2.62-13.14-10.49-23.99-12.33-36.98
	c2.98-7.62,19.59-5.68,25.38-1.45c-6.25-2.14-20.32-4.75-22.48,2.9c14.81-5.86,29.97,4.14,34.08,13.05
	c-4.36-4.92-10-10.3-18.85-11.6c12.65,6.67,15.06,13.88,17.39,15.63c-1.87,0.12-2.81-3.59-4.35-3.31
	c5.61,10.1,20.08,14.78,29.31,16.19c-5.27,4.61-14.1,2.45-20.14,2.45c9.6,11.67,20.57,23.72,17.66,50.98
	c1.3,3.96-3.88,1.44-2.9,5.08c0.13,6.69,6.39,13.35,9.43,21.76c5.04,13.93,4.5,26.79,19.58,28.28c0,1.45,0,2.9,0,4.35
	C549.16,130.65,546.02,130.65,542.88,130.65z M474.71-5.68c10.52-2.03,17.43,7.54,23.21,10.15C495.11-2.69,483.51-11.64,474.71-5.68
	z"/>
<path style="fill:#FFF461;" d="M305.75-145.63c-2.23,11.9-9.13,18.36-6.53,33.36c0.06,5.13-7.55,12.68-12.33,13.78
	c-7.01,1.6-10.27-4.42-7.98-13.05c0.36,4.5,1.35,10.9,8.7,10.88c-7.05-3.89-7.77-13.84-3.78-20.78c-3,3.14-3.26,5.23-4.6,7.73
	c0,0,1.7-4.15,2.34-6.97c1.41-6.21,0.19-8.85,0.24-15.51c-2.48,3.32-1.65,10.52-6.93,13.16c3.87-5.37,7.35-17.79,4.39-34.09
	c1.98,0.68,2.75,5.74,3.26,7.88c2.71-20.26,29.43-16.5,47.14-21.75c0.62,0.58,2.28-1.74,3.3-1.55c0.72,4.1-4.85,7.49-5.48,10.25
	c13.08-3.93,22.78,3.27,33.36,5.08c3.59,0.61,8.09-1.46,10.88,2.18c-6.01,11.14-23.05,10.31-33.36,16.68
	c-6.05,3.74-7.17,9.18-11.6,14.5c-2.6,0.42-2.2-2.15-2.18-4.35c-3.34-5.37-7.28-10.12-10.15-15.95c-6.5-0.99-7.83-7.16-11.6-10.88
	C301.9-152.39,301.26-142.66,305.75-145.63z M286.9-148.54c0.56-5.25,3-8.6,7.25-10.15C288.77-158.94,283.68-152.15,286.9-148.54z
	 M290.52-152.89c5.65-4.18-3.59-0.44-2.18,4.35C290.79-148.27,289.28-151.97,290.52-152.89z M284-124.2
	c0.22-3.37,2.12-13.16-0.73-17.08C284.92-136.14,282.74-128.36,284-124.2z M289.8-106.48c-4.56,0.45-2.08-6.14-5.08-7.25
	C285.07-110.43,286.29-104.2,289.8-106.48z"/>
<path style="fill:#8E0043;" d="M372.2,97.26c1.02,0,2.04,0,3.06,0c-0.66,9.84,0.5,28.03-9.19,31.39
	C368.54,121.76,375.13,109.69,372.2,97.26z"/>
<polygon style="fill:#FFFFFF;" points="307.1,-60.74 298.44,-54.9 294.7,-42.85 293.22,-35.25 298.39,-36.12 304.84,-45.51
	307.1,-56.41 "/>
<path style="fill:#FEC970;" d="M499.5,24.69c-4.44,0.61-13.52-0.95-17.41,2.18C483.21,21.46,495,24.49,499.5,24.69z"/>
<path style="fill:#FEC970;" d="M535.76,132.03c-14.64-2.3-31.7-10.26-36.26-23.93c-1.2-3.6-0.58-7.51-1.45-11.6
	c-4.55-21.35-16.26-45.56-16.68-67.45c11.73-4.15,20.01-2.18,26.11,7.98c-4-4.22-10.11-10.19-18.86-7.25
	c11.79,3.14,21.15,7.01,24.66,18.13c3.11,9.84-0.51,20.23,12.82,23.33c-3.62-1.11-3.82-5.36-2.08-18.35
	c0.5,4.92,5.72,17.49,4.49,21.86c1.16,4.06-5.52,0.28-5.08,3.63c11.49,14.37,10.39,41.34,28.28,49.32c0,1.45,0,2.9,0,4.35
	C546.4,132.03,541.08,132.03,535.76,132.03z M527.06,76.18c0.7-2.22-3.56-3.11-3.62-2.18C524.72,74.66,524.36,76.95,527.06,76.18z"
	/>
<path style="fill:#FEC970;" d="M317.05-142.85c4.17-4.29,12.89-9.03,19.26-8.7c-7.61,2.06-14.38,4.96-18.13,10.88
	C318.18-141.4,317.05-142.12,317.05-142.85z"/>
<path style="fill:#FEC970;" d="M318.91-136.32c2.77-12.61,15.11-9.8,28.29-13.05c-4.04-0.73-9.13,1.04-9.13,1.04
	c1.51-3.23,21.12-3.34,24.36-5.39c-1.86,2.72-6.19,2.81-7.66,2.9c6.36,2.24,13.9-1.5,15.9-4.57c3.64,0.68-0.7,2.46-0.27,4.57
	c3.82,3.34,7.34,2,12.33,2.9c8.01,1.44,16.31,5.21,22.48,4.99c4.64-0.16,6.37-1.3,11.39-1.75c-2.88,13.58-19.03,20.3-28.08,30.12
	c-0.12,2.24,1.71,4.1,0,5.8c-15.06-3.71-32.59-14.51-51.49-12.73c-1.9,0.18-5.79,0.5-7.73,0.23
	C319.79-122.58,323.92-131,318.91-136.32z M323.26-131.97c-0.77-6.82,3.42-9.91,7.25-12.33
	C326.68-144.42,316.85-137.47,323.26-131.97z M332.28-143.66c-5.6,2.81-11.08,10.86-6.85,17.49c0.09-10.79,4.62-14.3,11.52-17.73
	c8.91-4.42,26.63,0.03,31.27-6.93C358.35-145.95,341.9-148.49,332.28-143.66z M330.86-132.56c3.75-5.43,6.99-9.73,14.55-11.35
	C335.81-143.86,331.85-138.77,330.86-132.56z"/>
<path style="fill:#FEC970;" d="M507.48,33.39c5.96,3.96,12.18,13.93,13.78,24.66C517.21,49.28,513.1,40.58,507.48,33.39z"/>
<path style="fill:#F68B62;" d="M550.6,127.89c0,0.48,1.61,1.13,1.61,1.61c-5.72,6.61-22.4-2.48-25.08,5.84
	c-3.44,10.66,6.59,19.01,16.6,21.66c-1.18,6.76-6.2,10.9-12.27,11.55c-2.65,0-5.29,0-7.94,0c-15.39-6.84-19.84-29.42-23.1-49.09
	c-3.14-18.91-8.97-37.27-10.11-53.42c2.35-2.22,7.9-1.25,12.27-1.44c-2.54,1.79-9.49,0.48-10.94,3.35
	c8.44-0.72,19.72,2.43,24.66,7.48c0,0-6.31-5.23-13-3.61c20.72,5.27,17.99,30.01,30.13,43.86c-1.41-4.09-0.92-7.54-4.38-14.26
	C535.13,109.45,539.47,131.85,550.6,127.89z M494.86,77.58c9.04-1.1,16.55,3.07,20.71,6.5c-2.34-6.81-17.83-11.06-21.43-9.39
	C494.08,75.95,494.3,76.94,494.86,77.58z"/>
<path style="fill:#F68B62;" d="M353.86-121.67c6.51-8.73,11.27-17.92,24.54-19.49c8.11-0.96,15.19,3.6,24.55,2.89
	c6.51-0.5,12.1-1.83,13.65-6.4c0,8.83-11.51,8.79-20.15,10.01c21.08,0.34,24.36,15.17,41.15,21.45
	c-10.92,6.21-26.82-6.04-31.04,5.26c0.92,4.25,4.86,7.79,1.92,13.65c-23.02-12.69-36.74-23.49-59.67-28.08
	c2.75-6.16,5.99-11.82,12.27-14.44C355.31-132.08,354.27-128.48,353.86-121.67z M361.08-128.17c6.36-4.95,15.55-7.08,23.1-10.83
	C372.37-139.5,365.03-135.53,361.08-128.17z M363.25-122.39c1.55-3.99,4.97-6.1,7.94-8.66
	C366.84-130.34,361.33-126.97,363.25-122.39z"/>
<path style="fill:#F68B62;" d="M369.75-143.33c-6.31,1.17-10.59,3.37-14.44,6.5C356.48-139.76,362.64-143.94,369.75-143.33z"/>
<path style="fill:#8E0043;" d="M409.72,121.76c3.3,4.61,10.94,4.88,16.08,7.66c-0.43,2.63-2.23,3.89-3.83,5.36
	C416.6,131.72,412.82,127.08,409.72,121.76z"/>
<path style="fill:#8E0043;" d="M332.39,130.18c0.18-0.74,1.53,0,2.3,0c-3.62,5.39-7.24,21.3-0.67,23.88
	c6.31,2.48,25.04-3.39,22.87,1.38c0,0-26.52,5.14-29.09,0.77C324.98,151.43,329.5,142.2,332.39,130.18z"/>
<path style="fill:#8E0043;" d="M222.14,173.06c0.63-0.64,1.36,0.17,1.53,0.77c-0.63,8.73-18.91,12.95-25.27,6.12
	C207.98,183.34,215.73,179.5,222.14,173.06z"/>
<path style="fill:#8E0043;" d="M514.61,219.76c3.24,18.25-19.08,38.53-32.92,45.17c1.34-4.27,5.82-7.11,9.19-9.95
	C500.08,247.21,513.17,236.05,514.61,219.76z"/>
<path style="fill:#8E0043;" d="M167.78,238.14c0.49,9.83-18.82,25.4-26.8,14.55c-3.88-5.28,13.21,8.88,25.27-15.31
	C167.14,237.25,167.61,237.54,167.78,238.14z"/>
<path style="fill:#FFC21D;" d="M245.87-110.23c-0.82-4.54-4.35-6.37-8.42-7.66c-0.81,5.06-7.81,3.93-12.25,5.36
	C227.98-106.8,241.35-103.3,245.87-110.23z"/>
<path style="fill:#FFC21D;" d="M236.68-120.18c-3.11-1.48-5.56-3.62-8.42-5.36c-1.52,4.35-7.74,4-12.25,5.36
	C219.5-114.65,234.37-109.98,236.68-120.18z"/>
<path style="fill:#FFC21D;" d="M256.59-104.87c-3.4-1.71-5.41-4.8-9.19-6.12c-0.08,6.55-8.82,4.45-13.02,6.89
	C238.03-97.75,253.96-96.29,256.59-104.87z"/>
<path style="fill:#FFC21D;" d="M248.93-91.85c0.9-2.41,2.38-4.25,3.83-6.12c-3.26,0.31-6.79,0.35-9.19,1.53
	C245.83-95.39,246.68-92.91,248.93-91.85z"/>
<path style="fill:#FFC21D;" d="M205.29-143.91c-5.76-2.98-8.46-6.41-17.61-4.59C188.53-142.73,201.74-134.96,205.29-143.91z"/>
<path style="fill:#FFC21D;" d="M216.78-134.73c-1.86-1.03-6.9-6.61-10.72-6.89c-1.69,2.13-3.93,3.72-8.42,3.06
	C198.37-132.42,212.85-128.01,216.78-134.73z"/>
<path style="fill:#FFC21D;" d="M180.43-156.93c1.48,3.57,5.99,8.29,13.38,6.89C191.1-153.33,178.79-160.9,180.43-156.93z"/>
<path style="fill:#FFC21D;" d="M226.73-126.31c-4.99-9.52-10.71-3.46-20.67-4.59C207.39-124.41,222.25-117.73,226.73-126.31z"/>
<path style="fill:#FCD486;" d="M244.23-108.92c-1.44-4.46-4.74-6.82-8.82-8.11c-1.23,2.94-2.27,1.86-4.47,3.5
	C233.73-107.81,242.32-103.48,244.23-108.92z"/>
<path style="fill:#FCD486;" d="M235.82-118.24c-3.11-1.48-6.97-4.41-9.83-6.14c-1.93,2.48-2.29,1.71-5.16,3.18
	C224.33-115.68,233.9-110.61,235.82-118.24z"/>
<path style="fill:#FCD486;" d="M255.02-103.26c-3.4-1.71-5.16-4.82-8.94-6.14c-2.63,4.65-2.68,1.4-5.74,3.77
	C243.98-99.27,254.16-96.7,255.02-103.26z"/>
<path style="fill:#FCD486;" d="M204.04-141.81c-5.76-2.98-9.6-7.98-15.26-7.2C191.03-145.55,199.36-134.61,204.04-141.81z"/>
<path style="fill:#FCD486;" d="M214.91-133.09c-1.86-1.03-7.48-6.88-11.3-7.16c-1.9,0.73-0.34-0.52-3.47,1.41
	C200.87-132.7,212.14-128.82,214.91-133.09z"/>
<path style="fill:#FCD486;" d="M181.01-158.14c0,3.1,8.05,10.05,12.35,8.35C190.66-153.08,181.01-159.33,181.01-158.14z"/>
<path style="fill:#FCD486;" d="M225.48-124.38c-5.48-8.32-11.01-7.77-16.01-6.38C212.36-125.15,222.52-119.85,225.48-124.38z"/>
<path style="fill:#FFFED9;" d="M245.49-109.7c-1.44-4.46-4.74-6.82-8.82-8.11c-1.23,2.94-0.09,0.82-2.29,2.45
	C237.17-109.63,245.87-105.92,245.49-109.7z"/>
<path style="fill:#FFFED9;" d="M237.08-119.01c-3.11-1.48-6.97-4.41-9.83-6.14c-1.93,2.48-0.12,1.01-2.98,2.48
	C227.76-117.15,236.68-113.64,237.08-119.01z"/>
<path style="fill:#FFFED9;" d="M256.28-104.03c-3.4-1.71-5.16-4.82-8.94-6.14c-2.63,4.65,0.42,0.43-2.64,2.8
	C248.33-101.02,256.59-99.43,256.28-104.03z"/>
<path style="fill:#FFFED9;" d="M205.29-142.59c-5.76-2.98-8.8-7.2-14.47-6.43C193.08-145.55,203.18-137.17,205.29-142.59z"/>
<path style="fill:#FFFED9;" d="M216.17-133.87c-1.86-1.03-7.48-6.88-11.3-7.16c-1.9,0.73,0.87-1.57-2.26,0.36
	C204.49-135.24,213.64-128.99,216.17-133.87z"/>
<path style="fill:#FFFED9;" d="M181.54-157.97c1.36,2.35,8.1,9.14,11.83,8.18C190.66-153.08,180.8-159.25,181.54-157.97z"/>
<path style="fill:#FFFED9;" d="M226.73-125.16c-5.48-8.32-8.1-7.78-13.1-6.39C216.52-125.94,225.86-122.24,226.73-125.16z"/>
<path style="fill:#8E0043;" d="M394.41,269.53c2.15,3.11-2.91,5.26-5.36,7.66c-2.65,2.58-5.11,5.16-8.42,7.66
	c-7.31,5.5-16.05,14.95-25.27,15.31c-14.35,0.57-25.99-13.17-27.56-26.8c7.12,10.57,14.09,24.31,29.09,22.97
	C372.69,294.92,382.74,275.75,394.41,269.53z"/>
<path style="fill:#8E0043;" d="M425.03,374.42c-4.24,12.9-12.32,16.01-16.44,16.48c11.37,10.33,40.71,7.89,47.83-3.46
	c-1.48,6.7-10.4,12.57-19.91,13.78c4.86,14.53,21.99,16.8,42.11,16.08c0.05,2.82-3.74,2.9-4.59,3.06
	c-16.55,3.13-39.01-5.93-40.58-17.61c-14.25-0.68-24.1-3.82-30.62-10.72c-11.77,2.96-40.61-11.27-39.81-15.31
	c1.98-1.34,4.17,2.31,6.12,3.43c7.54,4.29,20.17,8.99,30.63,9.59C411.2,390.38,418.07,384.23,425.03,374.42z"/>
<path style="fill:#8E0043;" d="M530.69,514.53c1.53,2.45-4.94,14.66-4.19,26.03c1.72,26.19,14.05,51.63,34.82,55.13
	c-2.61,9.07-5.2,16.97-4.59,26.8c1.42,22.94,8.09,22.06,13.02,30.62c-14.24-4.24-19.53-32.86-14.55-52.83
	C530.75,586.4,511.49,541.52,530.69,514.53z"/>
<path style="fill:#FFC21D;" d="M221.37,345.33c0.43,3.72,2.14,10.93,6.89,17.61c3.05,4.28,14.37,15.61,17.61,15.31
	c3.51-0.33,11.11-10.89,13.02-14.55c5.64-10.82,11.41-27.93,10.68-41.34c-4.58,3.4-13.93-5.53-18.74-6.82
	c-2.62-1.2-2.93-1.34-6.49-1.61C234.77,317.35,219.85,332.18,221.37,345.33z"/>
<path style="fill:#FFC21D;" d="M357.25,892.71c-4.59,3.06-4.69,17.59-7.25,32.19c10.92,10.79,43.06,9.62,65.08-11.49
	c-2.39-7-4.91-18.93-2.3-26.03C371.76,911.43,360.39,890.63,357.25,892.71z"/>
<path style="fill:#FFC21D;" d="M551,923.34c-7.26,12.66-9.14,21.16-13.42,33.73c5.35,6.45,16.7,8.15,26.03,7.66
	c15.2-0.8,34.35-5.28,41.75-15.28c-2.63-6.62-5.89-13.1-5-20.71C583.2,927.27,561.1,931.87,551,923.34z"/>
<path style="fill:#FFC21D;" d="M155.53,396.62c-5.75-4.46-9.98-10.44-10.72-19.91c-17.2-6.21-34.4,5.36-43.64,14.54
	c1.86,5.47,3.17,29.37,6.18,34.03C122.28,425.25,143.11,410.54,155.53,396.62z"/>
<path style="fill:#FCD486;" d="M225.95,328.57c0.43,3.72,5.77,12.44,12.8,18.15c4.08,3.31,17.07,12.75,23.63,12.74
	c3.52,0,9.3-17.46,8.57-30.87c-4.58,3.4-28.16-13.38-31.72-13.65C229.43,320.88,225.95,328.57,225.95,328.57z"/>
<path style="fill:#FCD486;" d="M378.53,898.73c-4.59,3.06,1.53,20.96-1.03,35.57c15.04,2.33,13.65-0.62,34.74-14.02
	c-2.39-7-7.62-18.54-3.86-32.89C400.2,895.04,381.67,896.64,378.53,898.73z"/>
<path style="fill:#FCD486;" d="M570.33,925.78c-7.26,12.66-6.68,29.76-10.96,42.33c6.65,2.46,5.16,0.92,14.49,0.43
	c15.2-0.8,21.64-1.36,29.04-11.35c-2.63-6.62-8.89-20.33-5.84-31.41C579.9,924.3,580.07,928.47,570.33,925.78z"/>
<path style="fill:#FCD486;" d="M153.48,401.25c-5.75-4.46-13.85-18.11-14.59-27.58c-12.05-1.23-12.3-0.72-24.01,5.87
	c-3.58,9.9,6.21,36.83,11.92,41.92C137.57,415.24,141.06,415.17,153.48,401.25z"/>
<path style="fill:#FFFED9;" d="M231.79,321.35c0.43,3.72,5.77,12.44,12.8,18.15c4.08,3.31,15.44,10.35,22,10.34
	c3.52-0.01,4.52-4.27,3.79-17.69c-4.58,3.4-30.34-14.57-33.9-14.84C226.68,323.27,231.79,321.35,231.79,321.35z"/>
<path style="fill:#FFFED9;" d="M388.89,896.04c-4.59,3.06,1.53,20.96-1.03,35.57c15.04,2.33-1.13,3.2,19.96-10.19
	c-2.39-7-6.07-23.16-3.46-30.25C387.91,898.13,392.03,893.95,388.89,896.04z"/>
<path style="fill:#FFFED9;" d="M580.42,925.78c-7.26,12.66-5.78,27.99-10.06,40.56c5.35,6.45,0,0,9.33-0.49
	c15.2-0.8,9.79,1.73,17.18-8.26c-2.63-6.62-6.64-19.41-3.59-30.58C576.14,925.53,590.17,928.47,580.42,925.78z"/>
<path style="fill:#FFFED9;" d="M150.29,404.09c-5.75-4.46-14.98-20.07-14.89-30.7c-12.05-1.23-4.24,0-11.3,1.2
	c-3.58,9.9,6.21,36.83,11.92,41.92C146.8,410.29,137.87,418.01,150.29,404.09z"/>
<path style="fill:#82C662;" d="M723.17,459.53c7.16,11.19,3.77,45.41,3.62,64.36C722.42,505.6,726.42,478.95,723.17,459.53z"/>
<path style="fill:#82C662;" d="M747.67,595.48c2.64,17.89,13.09,24.95,23.14,39.77C760.75,625.22,746.52,611.9,747.67,595.48z"/>
<path style="fill:#82C662;" d="M847.54,665.62c-5.52-1.95-14.24,1.38-16.52-3.82c-16.54-2.74-23.33-17.31-26.14-33.79
	c-0.9,3.68,0.48,5.22-2.1,7.23c0.23,6.76-0.41,7.41,1.69,12.29c-5.16,4.71,2.63,8.44,0.41,15.18c-5.46,2.54-8.56,0.18-10.95-2.62
	c2.32-0.85,8.14-0.51,10.85,0.66c-17.77-7.85-66.47-50.59-68.46-114.32c-7.11,17.51-4.32,44.76-4.32,44.76
	c-5.7-18.92-4.28-58.31,0.3-90.61c1.73-12.21,1.38-26.67-0.78-37.93c-2.89-15.06-13.1-30.52-24.27-39.27
	c-5.67-4.45-15.77-11.06-23.14-12.29c-21.52-3.61-29.89,11.09-46.82,13.86c-0.72-0.96-3.23-3.75-4.2-4.46c0-2.89-0.88-0.91-0.88-3.8
	c8.1-10.7,27.16-17.32,38.88-24.4c1.45,0,2.89,0,4.34,0c0,0.24,0,0.48,0,0.72c2.32,0.1,3.18,1.64,2.89,4.34
	c23.49-1.56,37.42,6.45,46.28,19.52c0.98,4.14-2.13,4.61-0.72,7.23c7.29,7.17,12.98,15.94,18.08,25.31
	c18.79,12.54,21.92,39.91,30.37,65.08c7.26,21.62,13.05,44.36,26.75,58.57c10.5,10.88,25.92,15.35,30.37,28.92
	c1.05,3.21,0.01,6.55,0.72,8.68c1.27,3.77,7.54,5.83,4.34,12.29c10.23,5.92,18.42,13.88,31.09,17.36
	c4.48,6.84,10.96,10.44,19.52,11.57c0,0.96,0,1.93,0,2.89c-0.24,0,3.35,1.01,3.11,1.01c-1.03,9.33-18.14,5.42-24.08,9.84
	C858.63,665.62,853.09,665.62,847.54,665.62z M735.95,513.83c1.56-9.25,6.4-36.42-1.21-46.34
	C740.09,482.01,734.82,508.18,735.95,513.83z M762.31,607.44c1.69,14.83,18.95,31.67,33.17,40.82
	c-10.27-10.22-25.02-29.23-26.03-35.43c0.34,5.9,1.76,7.95,1.76,7.95C766.19,616.5,766.11,613.94,762.31,607.44z"/>
<path style="fill:#8E0043;" d="M521.5,739.63c7.19,6.88,3.24,23.05-5.36,25.26C519.3,758.09,524.25,749.88,521.5,739.63z"/>
<path style="fill:#FFF461;" d="M841.72,664.44c4.53-2.3,10.25,0.51,14.7,0.73C853.04,666.32,845.99,664.84,841.72,664.44z"/>
<path style="fill:#FFF461;" d="M888.75,653.42c-4.45,17.42-75.23,24.01-82.64-21.56c-10.32-6.09,5.38,36.16-1.32,28.91
	c-10.66-9.51-10.14-28.26-15.18-38.12c-9.08-17.8-16.61-17.22-19.91-30.03c0.67,12.62,8.78,14.21,11.04,21.12
	c-19.27-16.89-15.23-34.96-23.17-41.15c7.14,1.43,6.59,9.01,12.13,15.89c-2.67-5.15-12.47-27.4-12.47-56.3
	c0-19.85-5.83-35.48-8.09-47.76c0.25,15.19,5.44,29.34,4.41,43.35c-1.59-12.48-5.6-25.19-7.35-39.67
	c-1.75-14.51-1.83-29.48-8.82-38.95c3.28,9.33,4.31,15.98,3.67,24.98c-2.09-24.61-19.41-46.15-29.95-54.05
	c9.69,3.11,15.63,11.07,20.9,20.14c-5.08-16.94-30.31-40.1-58.54-32.17c-5.23,1.47-15.85,5.1-29.79,14.07
	c-4.74,3.05-13.57,5.29-13.57-4.57c0-1.23,3.95,0.17,3.95-1.05c11.61-11.41,22.87-21.85,38.67-29.07c2.45,0,4.9,0,7.35,0
	c0,0.24,0,0.49,0,0.74c11.49,0.19,16.9,5.09,27.19,2.94c45,24.15,67.82,72.24,91.11,120.51c6.58,13.62,17.75,19.77,19.84,36.74
	c12.52,9.03,23.28,19.83,33.06,31.6c3.54,1.11,7.57,1.74,7.35,6.61c20.11-1.11,2.73,27.52-8.82,16.9
	c-13.54,25.3,11.22,38.32,26.87,48.18c0.4-3.24,6.81,0.61,6.78,2.54C883.45,655.16,888.75,652.44,888.75,653.42z M765.3,466.05
	c-1.4-3.62-6.09-11.39-6.62-11.02C760.8,458.79,762.4,463.07,765.3,466.05z M835.11,574.79c-5.8-4.24-10.62-9.47-16.9-13.22
	C821.64,567.69,828.44,574.35,835.11,574.79z"/>
<path style="fill:#8E0043;" d="M626.39,766.42c8.47,2.72,5.17,20.91-2.3,24.5C625.62,786.95,632.58,773.52,626.39,766.42z"/>
<path style="fill:#FEC970;" d="M814.27,620.58c6.4,3.46,8.85,1.69,16.38,19.48c-6.4-27.2-15.48-24.69-23.91-37.27
	c-8.34-12.44,1.52-22.99-4.5-26.76c1.51,7.79-5.99,20.56-0.05,28.33c-8.06-3.36,1.3-21.68-7.4-43.37
	c-6.29-15.68-21.35-21.61-18.55-34.6c0.47,7.78,5.2,15.08,14.02,21.12c-11.38-13.82-12.24-22.47-16.01-37.13
	c-5.18-20.11-13.99-37.59-16.44-49.37c0.25,14.09,10.54,28.16,7.28,45.84c-0.57-17.52-19.09-57.3-27.72-71.06
	c-2.93-4.67-12.87-39.31-57.09-31.62c-18.74,3.26-31.28,12.7-45.77,22.31c-3.64-13.6,14.05-17.79,21.43-25.14
	c0.89-2.13-0.04-4.5,2.18-6.55c12.23-4.51,26.61-6.87,40.75-9.46c3.4,0,6.79,0,10.19,0c0,0.24,0,0.49,0,0.73
	c9.42,2.89,23.96,18.54,32.02,26.92c3.05,3.18,4.72,7.63,8,10.91c4.92,4.92,12.09,8.18,17.46,13.1
	c5.07,4.64,10.93,10.04,14.55,16.01c3.96,6.51,5.53,14.59,8.73,21.83c2.95,6.69,6.51,13.56,9.46,20.37
	c5.51,12.72,15.36,30.58,16.74,43.66c0.3,2.88,6.24,3.97,5.98,6.03c3.94,3.64,0.39,7.05,4.21,11.44
	c4.21,4.85,5.89,12.67,11.64,17.46c10.03,8.36,41.79,11.33,31.78,31.72c-5.39,2.48-13.28-5.5-15.04-1.88
	c-13.83,23.28,9.95,50.21,30.6,54.07c-21.3,5.38-43.8,2.22-54.43-9.9C825.32,641.61,826.76,627.54,814.27,620.58z"/>
<path style="fill:#FEC970;" d="M709.78,408.78c6.4,0,14.55,11.75,19.35,14.13C723.17,422.91,715.15,411.73,709.78,408.78z"/>
<path style="fill:#F68B62;" d="M885.18,657.7c-15.56,1.93-26.35,1.01-31.23-9.18C859.83,655.32,874.36,658.34,885.18,657.7
	c-40.55-1.27-40.28-46.35-56.22-66.22c8.88,6.16,9.6,7.51,17.79,16.24c-15.15-25.13-29.02-23.19-40.02-48
	c3.59,0.98,4.72,6.34,10.37,7.41c-3.93-1.79-16.8-19.63-20.74-42.97c-4.53-26.88-10.92-59.62-28.82-70.91
	c2.98,5.24,5.96,8.55,7.34,10.16c-12.7-9.74-20.52-26.9-28.23-30.64c3.64-0.17,14.48,9.56,20.08,9.89
	c-19.23-11.88-29.25-34.11-48.89-44.45c-31.08-16.37-57.74,9.14-82.97,25.58c-1.1-0.88-2.09-2.99-2.96-4.09c0-0.74,0-1.48,0-2.23
	c23.95-14.27,44.02-39.68,82.23-34.82c0.18-0.81,1.47-0.5,1.48-1.48c1.48,0,2.96,0,4.44,0c0,0.25,0,0.49,0,0.74
	c30.14,8.88,33.79,38.85,57.78,59.27c13.75-6.84,24.24-13.08,29.24-4.74c0,0-6.86,6.29-4.58,17.13c1.57,7.48,8.67,17.11,20.54,28.36
	c15.27,14.47,10.59,39.89,1.48,58.53c2.28,6.37,4.22,13.07,3.71,22.22c13.21,6.8,17.78,22.22,37.04,22.97
	c9.12,4.42,18.33,16.3,5.92,22.63c-4.03-4.26-13.01-5.6-14.12-2.82c-10.48,24.64,10.87,40.1,29.65,49.56
	C886.7,655.27,885.18,657.46,885.18,657.7z"/>
<path style="fill:#F68B62;" d="M686.41,401.55c14.76-16.49,33.04,1.02,39.24,11.04C715.94,401.56,699.48,392.29,686.41,401.55z"/>
<path style="fill:#F68B62;" d="M776.35,467.87c-1.16-2.39,6.17,9.67,7.41,13.33c1.95,5.76,1.79,12.59,1.48,15.56
	C784.65,484.76,779.58,477.24,776.35,467.87z"/>
<path style="fill:#F68B62;" d="M789.68,518.98c5.8,20.87,11.37,41.97,22.96,57.04C798.8,566.17,792.65,542.2,789.68,518.98z"/>
<path style="fill:#F68B62;" d="M845.25,634.55c-4.01-3.67-17.12-28.6-17.28-35.44C827.96,599.11,843.94,632.2,845.25,634.55z"/>
<path style="fill:#CE88BB;" d="M709.36,378.74c16.95,2.94,29.17,10.61,37.11,22.56c-0.42,1.28,0.88,4.28-0.73,4.37
	c6.1,8.21,12.92,15.7,18.92,24.01c6.57,0.75,10.67,6.5,17.47,7.28c8.43,0.96,13.33-4.82,21.11-6.55c0.02,0.71,0.89,0.56,1.46,0.73
	c4.71,11.04-6.12,18.43-12.37,23.29c7.04,7.73,17.68,10.58,24.74,19.65c14.19,18.22,14.17,46.33,3.14,66.87
	c3.36,7.08,5.7,14.17,11.42,20.46c4.99,5.49,10.94,13.71,17.47,16.74c2.1,0.97,4.61,0.39,6.55,1.45
	c7.37,4.04,12.95,13.66,14.55,22.56c-1.68,0.75-0.96,0.75-3.71,0.43c-5.1-18.39-31.64-11.62-38.5-25.9
	c2.21,3.24,8.63,7.18,17.47,7.28c-14.94-2.5-28.07-20.71-29.06-27.07c-0.56,4.66,3.67,8.49,3.59,10.33
	c-10.36-10.04-13.47-21.62-16.74-26.93c4.41,3.35,6.09,10.81,10.92,12.37c-4.4-5.94-8.92-15.56-10.44-29.11
	c-0.97-8.71-0.8-18.42-2.66-28.38c1.89,2.24,1.58,6.67,4.37,8c-1.43-22.83-18.29-40.42-30.57-52.4c3.9,0.22,18.64,2.73,29.93-12.81
	c-10.48,11.78-27.17,10.97-30.9,5.97c3.53,1.13,18.64,4.09,30.9-5.97c-13.53,9.64-38.82,1.4-42.05-3.63
	c-0.23,2.61,4.42,3.92,3.95,5.51c-18.5-12-21.89-24-26.76-29.97c7.04,4.85,9.14,14.02,18.92,21.26
	c-19.97-22.35-31.12-67.53-101.3-28.1c6.92-3.71,13.05-6.07,20.52-7.56c-21.51,7.56-42.98,27.14-43.66,27.65
	c-2.29,0.34-1.92-1.96-3.64-2.18c0-1.46,0-2.91,0-4.37c17.4-18.26,41.46-29.86,69.14-37.84
	C703.05,378.74,706.2,378.74,709.36,378.74z M811.44,528.95c4.62-15.53,3.05-29.37-6.03-38.87
	C811.55,502.56,812.38,515.79,811.44,528.95z"/>
<path style="fill:#CE88BB;" d="M378.51-112.34c-0.54-2.99,3.88-4.45,4.11-7.21c1.19,3.61-3.49,5.14-3.39,7.21
	C378.99-112.34,378.75-112.34,378.51-112.34z"/>
<path style="fill:#CE88BB;" d="M441.76-89.26c0.06,5.08-4.59,6.71-9.38,7.21C435.31-84.66,439.16-83.24,441.76-89.26z"/>
<path style="fill:#CE88BB;" d="M550.6,127.89c-2.15,9.57-18.42-0.45-23.72,7.35c-1.73,13.2,4.48,19.73,16.59,21.45
	c-3.6,13.9-19.16,15.59-27.41,5.77c-4.46-5.31-9.01-16.17-11.54-28.85c-2.73-13.72-5.6-28.21-4.33-36.78
	C524.69,98.76,540.26,137.69,550.6,127.89z M532.64,122.06c-8.88-5.78-12.85-16.47-23.8-20.19
	C516.36,109.01,521.98,118.06,532.64,122.06z"/>
<path style="fill:#CE88BB;" d="M400.65-132.54c0.24,0,5.67,1.48,5.91,1.48c-3.83-1.48-12.54,0.2-13.53,3.16
	C394.47-130.55,395.58-131.45,400.65-132.54z"/>
<path style="fill:#CE88BB;" d="M383.34-108.74c-0.31-1.19,2.69,0.06,2.88,0.72c-0.2-8.87,6.98-15.23,11.23-15.46
	c-1.86,0.42-5.3,2.51-5.87,5.77c2.02-3.56,8.79-7.8,17.31-6.9c-2.01-1.87-6.45-4.66-11.63-2.4c10.64-7.53,24.83,14.66,38.48,13.72
	c-5.44,5.26-14.17-1.23-23.56,0.95c-4.12,2.57-6.01,6.63-2.88,11.54c22.68,4.56,38.98-17.17,53.86-3.32
	c-10.35-3.47-19.5,4.73-23.56,12.7c3.7-1.41,5.96-4.14,8.65-7.21c-1.56,7.4-14.84,17-28.85,14.43c1.47-1.66,6.12-0.92,8.65-1.85
	c1.65-0.61,2.71-0.97,3.61-2.48c-4.55,2.01-10.85,2.89-15.87,0.72c-1.71,0.21,0.8,1.95,1.44,2.16c-6.54-5-15.98-13.35-25.24-18.03
	c1.57-3.84-3.21-7.04-0.72-12.26c-3.13,0.72-3.7,5.89-2.88,8.65C385.76-106.83,384.55-107.78,383.34-108.74z M397.05-112.34
	c1.98-6.67,7.05-10.26,16.59-9.38C403.58-126.05,394.97-119.29,397.05-112.34z M404.26-102.97c-1.91-5.6,0.11-10.22,3.61-11.54
	c3.38-1.28,6.73-1.44,10.82-0.72C407.05-121.52,397.47-111.58,404.26-102.97z"/>
<path style="fill:#CE88BB;" d="M389.83-126.05c-0.18,3.44-3.63,9.83-4.33,15.15C384.49-115.53,388.01-121.85,389.83-126.05z"/>
<path style="fill:#CE88BB;" d="M420.85-121.72c3.23-0.33,7.56,4.45,11.54,5.77C428.07-114.54,425.49-121.07,420.85-121.72z"/>
<path style="fill:#CE88BB;" d="M498.74,95.38c9.42-9.46,22.52,11.72,25.61,11.72c-6.69-4.05-14.11-22.5-26.61-13.09
	C494.08,93.62,501.61,95.77,498.74,95.38z"/>
<path style="fill:#8E0043;" d="M101.17,391.26c1.85,5.47,3.17,29.38,6.19,34.04c0,0,0,0-3.89-0.35
	c-4.21-10.33-2.95-23.97-5.36-35.22c-0.57-2.67-2.84-5.06-3.06-7.66c-0.86-10.12,10.83-21.17,11.18-29.02
	c0.45-10.3-14.21-16.89-9.79-26.73c6.54-14.55,31.38-30.06,30.77-60.62c-0.16-7.93-3.62-16.74,0.77-22.97
	c5.39-7.66,21.63-9.84,30.63-14.55c4.66-2.44,4.33-4.86,11.89-3.46c6.58,1.21,5.4,5.97,15.68,8.46c2.41-11.74,2.56-19.54,0-29.5
	c-1.97-7.66-9.32-16.68-2.3-26.8c3.86-5.57,11.12-6.71,19.91-9.95c11.94-4.41,18.98-13.56,32.92-6.13
	c7.37,3.93,8.34,14.84,17.61,18.38c9.28-15.45,28.29-22.34,44.41-34.45c22.15-16.65,34.24-52.78,32.16-81.92
	c-1.34-18.74-5.13-36.62-22.2-41.34c-15,14.56,6.62,59.57-29.86,54.36c-3.97,4.18-15.38,6.21-15.31-3.06
	c-4.01,0.43-10.67,8.65-18.38,5.36c0,0-4.2,2.8-9.15,0.8c-5.53-2.23-7.22-7.68-7.22-7.68c-7.74-1.41-11.23-12.82-11.23-12.82
	c-9.53-2.5-9.25-35.52,4.63-33.89c2.08-19.84,8.16-30.63,13.78-44.41c-2.66-7.42-2.23-15.59,0.77-22.2
	c-15.28-1.31-28.8-16.21-27.56-22.97c0.85,1.96,4.11,1.5,6.89,1.53c-7-7.57-10.57-26.2-2.3-35.22c2.95,3.15,4.95,6.33,9.95,9.19
	c-1.46-4.32,0.23-13.15,4.59-16.08c-18.65-17.08-48.05-43.78-49.37-52.62c-1.8-12.09,38.95,21.7,59.32,34.25
	c3.18-9.4,12.59-13.92,8.42-26.03c5.03,0.72,10.44,11.37,8.42,19.14c10.62-5.5,18.76-25.11,13.02-42.88
	c7.73,2.48,11.25,8.17,14.55,16.08c3.67-2.03,4.44-4.87,7.66-6.89c8.21-5.16,19.56-2.87,29.09-5.36c7.55-1.97,11.82-4.69,14.55-9.95
	c2.11,4.16-0.13,9.88-1.53,13.02c17.55-0.37,33.31,15.07,47.47,2.3c-0.85,5.23-3.55,8.68-5.36,12.25
	c15.51,1.76,36.58,14.11,47.47,2.3c-0.14,7.27-2.34,12.47-6.89,15.31c6.92,9.47,14.34,22.33,32.16,18.38
	c-0.34,2.21-3.29,1.81-3.83,3.83c21.83-2.06,27.48,10.18,27.48,10.18c-16.57-1.78-15.81,15.63-25.18,20.45
	c13.67,5.42,31.7-12.75,43.64,0c-16.3-2.29-10.88,19.29-15.31,30.63c12.11,2.74,33.45,19.22,42.11,2.3
	c-0.88,10.35-7.03,22.06-15.31,27.56c14.54,4.85,15.37,21.54,25.27,32.92c1.98,2.27,5.42,2.74,9.95,2.3
	c-2.23,8.74-11.83,10.12-23.74,9.19c5.85,5.26,13.7,14.52,16.08,26.8c2.33,11.99-0.22,26.46,13.01,28.33
	c-0.86,3.75-9.17,2.34-12.25,1.53c9.87,13.42,6.93,29.61,16.84,39.85c2.52,2.6,11.56,4.92,14.55,2.26
	c-2.69,12.25-10.57,15.7-28.29,12.25c-5.89-1.15-2.35,12.62,1.5,16.12c6.41,5.82,11.63,3.73,15.31,1.49
	c0.42,15.43-13.94,23.55-26.8,20.67c2.56,8.6,7.71,12.93,8.42,22.2c0.87,11.37-2.58,22.22-3.06,32.92
	c-2.59,57.02-1.1,112.94,33.69,144.71c7.32,6.69,17.49,12.52,26.03,18.74c13.31,9.69,27.79,15.96,41.34,24.87
	c8.42-6.19,34.41-31.49,58.95-35.91c10.34-1.86,26.5-3.92,38.28,0.73c7.49,2.95,21.51,14.98,28.33,26.03
	c5.32,8.62,9.57,17.92,16.84,22.2c13.99,8.24,32.44,4.1,46.67-11.85c3.09,6.89,1.87,29.97-12.17,38.64c0,0,8.48,6.16,11.45,9.96
	c3.6,4.61,8.64,11.46,11.81,18.38c5.08,11.08,6.25,15.8,4.27,32.16c-1.44,11.88-4.32,20.43-4.19,30.63
	c0.22,16.84,27.93,27.75,35.58,31.39c12.08,5.74,15.9,23.73,12.58,37.81c0,0-15.18-15.45-18.7-4.88
	c-9.31,29.62,37.59,43.57,37.59,43.57c-4.38,5.63-29.46,20.23-56.83,13.13c-11.32-2.94-28.82-9.28-32.52-28.35
	c-5.75,15.48,14.99,28.86,21.13,32.14c-16.69-1.29-31.73-5.19-44.41-11.48c-24.05-11.94-40.44-41.21-40.44-41.21
	c0.95,6.3,0.95,14.02,0.95,14.02c-16.65-23.23-32.5-73.45-35.54-108.33c-1.72-19.66,4.28-36.76,3.06-52.83
	c-0.97-12.84-5.91-28.89-13.78-37.52c-5.87-6.43-21.98-12.6-33.69-10.72c-7.89,1.27-12.84,8.43-19.91,9.95
	c20.64,24.91,26.96,57.89,32.16,96.47c1.26,9.37,2.97,21.7,1.53,31.39c-2.88,19.4-14.85,38.12-22.97,56.66
	c-3.88,8.87-8.12,18.37-12.25,27.56c-4.15,9.22-9.37,19.15-11.49,28.33c-4.45,19.32-3.88,46.33,0.77,64.31
	c1.59,6.17,5.13,12.78,7.66,19.14c3,7.55,8.88,14.55,7.66,25.26c-1.28,11.18-8.86,24.15-13.02,37.52
	c-3.96,12.72-9.54,26.3-12.25,38.28c-2.96,13.09,3.22,30.62,1.53,44.41c-1.23,10.05-7.28,15.93-12.25,25.26
	c0.75,6.66,4.55,14.32,5.36,18.38c-3.04,14.11-25.39,23.33-47.07,24.46c-12.58,0.66-33-1-36.39-8.39
	c2.5-16.38,8.39-29.38,14.55-42.11c-0.73-19.66,17.13-27.24,26.8-39.05c9.39-26.71,21.03-59.94,9.95-90.34
	c-3.42-9.39-10.62-19.3-16.08-29.1c-5.35-9.6-11.37-19.15-16.08-29.09c-10.24-21.64-13.84-44.75-26.8-62.78
	c-6,2.43-12.51,3.95-13.05,9.96c-1.58,17.47,8.59,28.36,18.41,42.11c5.61,7.85,19.67,24.01,19.14,33.69
	c-0.21,3.86-4.66,9.69-6.89,12.25c-16.91,19.44-46.69,30.71-64.31,52.83c-3.42,4.29-16.22,19.77-20.67,29.09
	c-8.64,18.08-15.31,37.52-35.22,35.22c-7.8,11.64,5.83,21.89,0.77,31.39c-1.61,3.02-14.14,11.68-18.38,13.78
	c-15.36,7.62-47.01,10.91-59.72-2.3c3.11-12.04,2.68-24.25,6.12-34.45c1.37-4.05,5.01-5.33,6.89-8.42c1.32-2.16,1.39-6.82,3.06-9.95
	c5.08-9.49,16.2-13.19,25.27-20.67c10.1-8.33,17.76-21.79,28.33-31.39c11.14-10.11,21.93-19.24,32.16-27.56
	c8.25-6.72,24.55-24.04,26.03-30.63c0.44-1.96-0.42-9.36-2.3-13.78c-5.85-13.79-20.02-24.49-29.09-38.28
	c-4.13-6.29-19.22-37.7-22.2-45.17c-4.96-12.42-3.77-22.97-8.42-33.69c-6.33-14.57-23.24-25.54-21.44-44.41
	c1.34-14.03,14.61-22.7,19.14-35.98c5.59-16.38-0.38-45.89-7.66-57.42c-3.67-5.82-32.27-24.97-39.81-32.16
	c-15.23-14.52-28-29.84-39.05-49c-5.34-9.26-18.71-34.43-20.67-37.52c-8.43-13.24-14.27-22.24-28.33-30.63
	c-8.42,13.02-14.37,28.5-26.8,37.52c-2.51-2.42-6.89-5.07-9.95-7.62c-12.42-10.33-13.79-17.08-18.45-25.2
	c-4.69-8.18-10.54-7.8-13.71-14.65c-2.32-5-0.15-11.81-2.3-16.84c-2.32-5.43-14.41-10.29-19.14-15.31
	c-6.8-7.22-8.72-14.57-10.79-21.72c-5.54,1.41-11.63,8.96-14.48,14.07c-2.75,4.92-5.65,11.71-6.13,18.38
	c-0.48,6.78,2.93,14.26,2.3,20.67c-0.69,6.99-8.83,12.38-7.66,20.67c0.8,5.7,6.36,7.7,8.42,12.25c-5.22,9.2,0.87,17.73,7.66,21.44
	c-5.54,23.07-28.41,35.38-55.13,39.81c-1.31-0.49-2.86-3.22-3.83-5.36c14.99,2.97,38.53-13.16,52.06-28.33
	c-5.75-4.46-9.98-10.44-10.72-19.91C127.61,370.51,110.41,382.07,101.17,391.26z M143.2,346.86c15.12-9.55-11-40.49,18.37-66.09
	c4.13-3.6,6.22-7.61,11.57-6.64c3.07-5.61,10.37-11.32,12.25-17.17c1.04-3.25,1.79-12.2,1.53-17.57
	c-8.3-3.61-15.18-10.43-18.38-10.43c-4.9,0-11.16,4.35-17.2,6.45c-9,3.13-17.51,5.42-20.31,14.22c5.32,45.45-17.79,55.52-29.9,77
	c-5.08,9.01,7.99,15.23,8.82,24.83c0.97,11.25-12.07,17.8-10.72,27.96c1.46,10.99,7.08,2.19,10.76-0.36
	c6.69-4.65,18.1-7.68,27.93-9.59c3.38-0.66,4,1.27,6.56-2.3C140.42,360.1,139.65,349.1,143.2,346.86z M272.67-166.88
	c6.56,31.41-16.69,32.72-21.39,51.27c4.05,2.54,6.59,4.48,11.44,6.92c3.34-3.34,5.41-9.84,6.12-16.84
	c14.35,10.39-0.35,31.16,8.42,38.28c-12.9-6.9-1.14-22.15-6.6-30.81c-1.95,18.76-28.05,27.86-16.37,48.42
	c-5.83-2.52-8.1-11.14-6.12-19.91c-7.05-3.67-12.42-9.33-18.38-13.78c-2.39,7.36-0.64,13.98,5.36,16.84
	c-6.98,6.11-18.42-1.83-19.14-3.06c-2.87,17.36,11.42,22.96,28.33,22.97c-7.46,4.28-18.29,5.19-28.33,6.89
	c6.14,5.31,12.16,8.77,19.91,9.19c36.91,1.97,38-31.35,53.59-51.3c4.08-5.21,7.63-6.37,8.42-9.19c0.38-1.35-0.86-4.81-0.77-6.89
	c0.63-13.94,7.3-29.65,3.06-39.05c3.93,2.2,7.3,4.95,10.72,7.66c7.13-6.65,17.37-10.19,19.91-21.44
	c-15.04,6.68-35.9,0.63-44.41,13.78c-5.65,8.74-0.35,25.31-9.19,32.16C283.43-135.95,282.75-160.73,272.67-166.88z M411.25-100.27
	c-12.03-2.84-7.01-17.53,8.42-13.78c0.84,0.2,11.48,2.3,16.08,0.77c-14.5-2.64-22.89-23.85-42.11-17.61
	c-3.49,1.13-5.22,2.57-8.42,6.13c-1.15-17.74,30.94-6.31,31.39-19.91c-12.65,9.61-29.12-4.15-44.41-3.06
	c-10.53,0.75-17.07,7.37-26.8,3.83c9.25-3,21.56-2.94,25.27-11.48c-12.16,3-21.69-5.19-30.62-6.12
	c-12.08-1.26-18.43,8.57-27.56,13.78c6.76,6,11.69,13.83,13.78,24.5c26.7-3.81,45.65,6.16,63.55,16.08
	c20.61,11.42,34.49,27.14,47.47,45.17c12.56,17.46,28.33,37.88,35.22,58.95c4.14,12.68,9.24,24.58,13.02,36.75
	c5.54,17.84,9.31,39.31,13.78,55.89c3.84,14.26,4.34,31.5,8.42,47.47c2.82,11.03,8.67,28.93,19.91,30.63
	c8.78,1.32,11.58-4.32,15.31-9.19c-16.56,0.95-24.75-23.76-13.02-29.86c6.71-3.49,15.87,5.17,20.67-0.77
	c-18.79-6.44-16.36-31.15-26.8-45.17c-6.13-8.24-19.02-11.93-14.55-25.27c1.17,7.76,6.53,16.94,16.84,13.78
	c-4.09-5.3-1.33-15.16-2.3-22.2c-1.99-14.46-11.82-20.89-19.91-29.86c7.4-0.51,19.71,1.43,24.79-1.4c-4.33-2.07-6.52-4.88-8.71-8.55
	c-2.71-4.55-5.67-10.83-8.24-15.54c-3.58-6.59-6.51-11.01-12.44-13.55c-3.39-1.45-7.29-0.37-9.95-1.53
	c7.61-2.35,12.18-7.73,15.31-14.55c-14.86-1.98-20.08-13.61-39.05-11.48c7.28-6.55,4.13-20.98,5.36-32.16
	c-10.12,4.76-27.33,8.18-37.52,0.77c17.86-1.03,12.45-23.67,29.71-25.29C449.78-115.06,428.13-96.29,411.25-100.27z M180.43-156.93
	c1.48,3.57,5.99,8.29,13.38,6.89C191.1-153.33,178.79-160.9,180.43-156.93z M336.98-9.93c2.63-0.57,6.19,0.22,9.19-0.77
	c21.34-7.05,19.41-42.61,6.89-59.72c4.26,2.96,6.42,6.76,8.42,10.72c1.24-4.33-0.4-5.64-0.77-9.95c2.43,2.18,2.67,7.12,3.33,14.35
	c0.39,4.27,1.56,8.46,2.03,12.45c1.84,15.5-4.47,26.87-11.48,32.92c-11.23,9.69-32.2,4.43-39.05,20.67
	c31.2,12.71,23.82,60.76,14.55,92.64c-8.47,29.11-26.92,41.73-45.94,58.19c-7.52,6.51-18.94,11.7-21.44,22.97
	c12.91,7.76,26.89,14.46,46.7,15.31c9.65-4.7,25.3-11.36,35.98-9.95c-4.02,8.16-15.72,6.96-23.73,9.95
	c-6.86,2.56-10.12,6.9-20.67,5.36c-9.14-1.33-20.15-6.76-30.62-9.95c-11.3-3.44-22.01-7.31-27.56-13.02
	c-7.56-7.75-10.46-24.81-23.73-17.61c-18.35,9.95-33.6,7.76-34.42,20.27c-0.39,5.99,3.07,9.75,5,15.71
	c6.18,19.14-0.9,37.64,1.09,56.66c-5.13,10.53-14.36,12.25-11.48,29.09c2.93,17.18,20.27,17.99,26.8,28.33
	c6,9.5-1.21,24.26,11.48,26.8c1.99-6.87,4.94-13.14,10.72-19.14c4.03-4.18,13.51-8.11,13.02-13.78
	c-0.95-11.01-17.13-4.26-21.11-13.78c2.73-4.55,4.27-6.51,5.4-11.48c1.92-8.44-3.18-16.88-3.1-25.27c0.03-2.92-0.44-5.61,0.04-8.42
	c2.3-13.6,4.02-24.11,12.61-33.76c10.01,10.04,11.82,20.11,19.18,32.23c24.19,39.83,29.12,29.94,40,32.16
	c0.27,12.99,5.49,22.32,13.59,27.56c7.17,4.63,24.31,10.71,33.69,11.48c15.18,1.25,26.03-5.88,30.63,3.83
	c-14.96,0.06-32.73,3.41-46.7-1.53c-4.07-1.44-7.54-3.03-11.48-4.63c-3.21-1.3-7.44-3.33-9.95-4.56
	c-9.35-4.56-14.83-14.04-17.61-23.73c-15.09-1.76-21.13-12.56-28.33-22.2c6.43,14.97-3.4,49.56,16.08,49
	c1.5,6.15,1.82,13.49,1.53,21.44c12.12,7.8,18.71,19.66,26.8,32.16c18.74,28.94,29.73,58.06,53.59,81.92
	c31.34,31.34,60.84,46.42,90.06,75.95c3.52,3.56,4.93,27.56,8.79,29.75c2.88,1.63,8.96,8.69,12.94,7.62
	c-2.55-15.67-0.95-35.16-3.06-50.53c-0.9-6.56-7.3-13.57-1.53-18.38c14.64,43.56,6.87,100.96,29.09,131.69
	c8.22,11.36,18.43,17.69,29.09,26.8c3.75,3.2,9.81,9.5,12.25,14.55c5.17,10.72,7.83,23.11,11.45,33.69
	c7.81,22.83,19.12,43.07,32.19,62.02c4.38,6.34,12.07,17.57,13.02,23.74c1.38,9,3.73,21.69,3.83,30.62
	c0.26,23.07-9.33,46-16.08,66.61c-10.47,7.91-25.98,16.95-25.27,29.86c0.55,10.07,51.06,10.02,59.72-3.83
	c6.28-10.05,1.04-23.73,0.77-35.99c-0.84-37.96,26.32-81.63,27.56-97.24c0.79-9.93-10.29-22.63-13.78-37.52
	c-2.25-9.61-6.19-19.9-6.89-29.09c-1.21-15.98,3.31-29.43,6.89-42.88c4.98-18.72,10-38.21,18.38-55.89
	c8.83-18.63,20.89-44.75,19.91-67.38c-1.3-29.78-7.41-58.01-15.31-80.39c-8.85-25.06-26.3-37.85-45.17-51.3
	c-14.15-10.08-27.91-18.69-40.58-29.86c-5.59-4.93-13.11-10.31-16.84-15.31c-13.86-18.54-29.64-67.03-26.8-101.83
	c1.36-16.64-0.29-37.16,2.3-53.59c0.64-4.09,3.41-9.01,3.06-13.78c-0.59-8.14-8.74-20.83-14.55-32.16
	c-5.5-10.74-9.15-24.55-11.48-35.98c-5.53-27.09-9.64-53.23-16.08-78.86c-10.95-43.57-27.94-85.3-51.3-114.84
	c-23.53-29.77-55.24-59.07-105.66-57.42c-0.11,5.76-0.31,11.43-6.12,11.48c2.78-13.06-1.48-21.59-6.13-29.09
	c-2.76-4.46-7.15-11.61-9.95-10.72c4.84,12.51-1.43,36.14,11.48,40.58c-13.32,0.3-10.93-17.44-13.78-25.27
	c-4.36,12.05-1.95,28.52,6.12,31.39c-5.24,0.64-6.59-2.6-9.19-4.59c-20.51,17.01-19.3,57.85-55.41,59.26
	c-1.21,5.39-3,7.64-2.01,15.01c3.15,0.8,4.74-3.88,6.13-2.3c-9.73,17.4-18.81,36.6-22.23,60.31c-0.12,0.82,1.8,2.24,1.92,5.86
	c-1.25-2.61-2.24-3.65-2.64-4.08c-1.72-1.83-4.46-2.63-6.92-0.08c-4.23,4.4-4.14,17.25-1.53,23.73c0.87,1.99,2.25,2.72,4.11,2.31
	c0.62-0.14,1.61-0.01,3.89-3.44c0.57,2.35-2.5,4.03-2.28,5.18c1.67,8.88,11.84,14.77,21.08,10.5c-2.3,5.45-10.27,3.54-9.34,5.45
	c2.97,6.07,10.8,2.4,14.7-4.69c6.14-11.17,14.43-32.21,25.5-34.28c5.02-0.94,7.97-0.67,11.77,3.58c5.55,6.21-1.59,33.48-17.36,23.81
	c-1.75,1.89-3.33,6.5-1.47,9.42c4.71,7.37,19.39-2.57,22.91-10.95c-0.66,4.45-2.76,6.24-5.02,8.97c1.22,0.94,8.69,1.85,12.24-3.95
	c4.89-8,2.45-21.37-1.86-27.99c1.41,0.74,1.95,2.54,3.06,3.83C300.24,11.33,314.4-5.04,336.98-9.93z M206.06-141.62
	c-1.69,2.13-3.93,3.72-8.42,3.06c0.73,6.14,15.21,10.55,19.14,3.83C214.92-135.76,209.88-141.34,206.06-141.62z M205.29-143.91
	c-5.76-2.98-8.46-6.41-17.61-4.59C188.53-142.73,201.74-134.96,205.29-143.91z M206.06-130.9c1.33,6.49,16.19,13.16,20.67,4.59
	C221.74-135.83,216.02-129.76,206.06-130.9z M242.81-120.95c2.1,1.22,3.78,2.86,6.13,3.83c-1.22-6.52,3.55-11.89,0-16.08
	C247.23-127.2,244.07-125.81,242.81-120.95z M216.01-120.18c3.49,5.53,18.36,10.2,20.67,0c-3.11-1.48-5.56-3.62-8.42-5.36
	C226.74-121.19,220.53-121.53,216.01-120.18z M237.45-117.88c-0.81,5.06-7.81,3.93-12.25,5.36c2.78,5.72,16.15,9.23,20.67,2.3
	C245.06-114.77,241.52-116.6,237.45-117.88z M234.39-104.1c3.64,6.36,19.57,7.81,22.2-0.77c-3.4-1.71-5.41-4.8-9.19-6.12
	C247.32-104.44,238.58-106.54,234.39-104.1z M410.48-106.4c-1.04,6.55,15.94,0.24,20.67-1.53
	C424.15-108.42,411.43-112.35,410.48-106.4z M243.58-96.45c2.26,1.06,3.1,3.54,5.36,4.59c0.9-2.41,2.38-4.25,3.83-6.12
	C249.5-97.66,245.97-97.62,243.58-96.45z M272.27,50.43c-1.22,0.89,1.01,2.68,1.69,3.01c1.58,0.76,6,1.88,8.3,1.35
	c3.06-0.71,4.88-10.29,1.9-10.35c-2.84-0.06-5.08,1.61-6.99,3.06C275.55,48.72,274.67,48.67,272.27,50.43z M282.62,42.9
	c-1.14-2.94-2.61-5.56-5.36-6.89c-4.6,0.74-6.18,9.13-1.53,10.72C277.89,45.31,279.65,43.5,282.62,42.9z M258.12,53.62
	c2.04,0,4.08,0,6.12,0c0.68-2.3,2.3-10.44,0-10.72C263.33,43.65,259.23,49.11,258.12,53.62z M266.54,49.79
	c0.95,0.7,2.69,0.84,3.56,0.64c0.78-0.18,2.13-1.03,3.77-3.27c0.55-0.76-2.01-2-2.45-1.72C269.04,46.97,265.89,49.31,266.54,49.79z
	 M271.97,56.25c1.42-1.24-0.62-3.09-1.6-4.93c-1.28,0-4.08-1.25-3.83,0c0.41,2.07,2.1,4.92,3.79,5.86
	C271.35,57.75,270.58,57.46,271.97,56.25z M251.63,65.87c0.58,0.56,5.38,1.36,8.79,0.77c1.84-3.52,3.58-7.14,3.83-12.25
	c-4.59,0.56-5.8-0.57-6.88,1.02C255.08,58.76,253.49,62.27,251.63,65.87z M270.48,59.75c5.37,3.67,9.91-0.96,11.38-3.07
	c-2.96,0.15-6.2-1.64-7.99-0.42c-0.46,0.31-1.05,0.83-1.79,1.6C271.11,58.88,269.88,59.34,270.48,59.75z M248.93,71.23
	c4.53,0.19,9.1,0.42,9.95-3.06c-3.7-0.5-7.83-0.87-8.14-0.39C249.42,69.83,248.93,71.23,248.93,71.23z M228.66,244.22
	c4.76,1.2,9.51,1.8,15.64,0.77c-3.37-4.28-6.3-13.53-9.92-17.57C232.71,232.12,229.55,238.73,228.66,244.22z M229.79,292.5
	c7.79,2.02,14.04,5.28,19.14,9.95c2.69,2.47,4.05,7.03,8.42,7.66c-4.23-19.06-7.87-36.75-9.19-56.66
	c-7.22,2.03-14.28-1.12-19.91-3.06C228.29,262.08,237.75,279.71,229.79,292.5z M221.37,345.33c0.43,3.72,2.14,10.93,6.89,17.61
	c3.05,4.28,14.37,15.61,17.61,15.31c3.51-0.33,11.11-10.89,13.02-14.55c5.64-10.82,11.41-27.93,10.68-41.34
	c-4.58,3.4-13.93-5.53-18.74-6.82c-2.63-1.2-2.93-1.34-6.49-1.61C234.77,317.35,219.85,332.18,221.37,345.33z M758.08,424.95
	c-10.26-15.8-21.1-36.66-41.34-39.81c-39.13-6.09-63.93,19.98-82.69,35.22c9.68,9.79,20.34-3.45,32.92-3.83
	c5.52-0.17,13.77,0.21,19.91,2.3c21.33,7.27,30.77,34.41,28.37,65.59c-1.15,14.88-3.2,30.11-0.77,52.31
	c1.43,13.04,17.26,66.43,22.98,75.18c2.38,3.64-8.1-27.86-0.94-46.5c0,0-0.75,39.16,21.56,64.73c13.1,15.01,25.13,22.13,46.7,30.63
	c-20.44-20.82,7-42.03-0.98-59.95c13.28,16.02-0.55,37.55,20.12,53.03c16.47,12.33,48.08,14.72,61.25,3.87
	c-16-0.69-35.78-21.19-36.75-39.82c-0.39-7.55,2.8-18.19,9.19-19.14c5.04-0.75,5.11,0.24,8.86,3.83
	c-0.81-22.86-24.82-20.18-37.52-33.69c-5.28-5.62-10.57-13.5-10.76-21.48c-0.55-23.52,7.92-55.7-5.36-72.7
	c-7.14-9.14-23.16-21.77-37.99-23.94c23.22,1.86,26.19-5.59,29.93-12.81C785.8,444.46,766.67,438.17,758.08,424.95z M357.25,892.71
	c-4.59,3.06-4.69,17.59-7.25,32.19c10.92,10.79,43.06,9.62,65.08-11.48c-2.39-7-4.91-18.94-2.3-26.03
	C371.76,911.43,360.39,890.63,357.25,892.71z M390.58,894.29c12.06-2.76,19.33-13.44,29.86-16.84c3.62-1.17,7.59-0.25,10.72-1.53
	c10.78-4.43,17.97-22.94,23.73-32.16c14.98-23.96,31.17-41.69,53.59-58.19c9.02-6.64,25.76-18.49,28.33-28.33
	c2.21-8.44-4.19-14.71-8.42-22.2c-12.11-21.47-45.15-55.5-16.08-75.8c-25.08-13.2-36.3-40.27-40.58-74.27
	c-5.47-6.01-9.81-13.16-17.61-16.84c-5.35,12.52-7.43,32.38-23.73,31.39c12.51-6.1,19.6-19.24,17.28-35.98
	c-0.54-3.92-4.65-26.2-6.56-29.86c-2.94-5.63-10.44-9.86-15.31-14.55c-5.77-5.56-10.43-10.8-15.31-14.55
	c5.4,12.45,9.51,33.39,4.59,49c-5.22,16.55-25.93,25.7-19.18,47.47c3.96,12.75,18.55,22.57,22.97,36.75c1,3.22,1.88,6.43,1.89,9.95
	c0.05,14.05,6.28,21.31,10.36,30.63c10.06,22.98,13.02,35.58,32.92,51.7c7.88,6.38,13.05,19.63,14.95,27.93
	c3.39,14.83-12.54,26.75-21.04,34.78c-23.09,21.83-44.23,35.98-62.78,60.16c-27.08,17.27-33.68,22.96-32.56,34.49
	C363.06,892,378.88,896.96,390.58,894.29z M537.58,957.07c5.35,6.45,16.7,8.15,26.03,7.66c15.2-0.8,34.35-5.28,41.75-15.27
	c-2.63-6.62-5.89-13.11-5-20.71c-17.16-1.47-39.26,3.13-49.36-5.4C543.74,936,541.86,944.5,537.58,957.07z"/>
<path style="fill:#8E0043;" d="M270.95-37.21c0.88-1.01,4.45,7.44,12.44,5.07c11.21-3.31,6.79-21.07,14.55-33.69
	c4.44-7.22,10.19-12.15,20.67-11.48c-11.34,1.42-17.86,8.52-18.85,20.28c3.47-3.53,9.87-8.33,17.32-8.8
	c-4.59,1.88-6.59,2.63-8.42,5.36c1.31,12.24-8.44,26.83-15.31,26.03c0,0-1.07,2.19-4.96,4.59C278.5-24.9,269.46-35.5,270.95-37.21z
	 M298.2-50.81c1.18,0.98,6.18,2.6,4.05,7.85c1.69-3.94,5.13-12.34,3.72-16.84C301.52-55.4,298.77-55.19,298.2-50.81z M294.28-36.55
	c1.8,0.21,5.49-2.69,6.72-5.54c-3.15,0.88-4.92,0.13-4.92,0.13S295.52-39.37,294.28-36.55z"/>
<path style="fill:#8E0043;" d="M273.49-54.24c0.52,1.76,1.59-3.88,3.71-7.99c2.39-4.63,9.89-11.49,13.84-15.08
	c-2.55,0.1-11.42,7.38-15.32,13.43C272.84-59.41,272.8-56.6,273.49-54.24z"/>
<path style="fill:#8E0043;" d="M259.65-23.71c-1.66,9.58-7.2,21.89-9.95,32.92C247.27-1.97,254.28-15.39,259.65-23.71z"/>
<path style="fill:#8E0043;" d="M407.42,125.59c-9.06,0.55-13.61-11.08-17.61-18.38c-4.12-7.51-9.96-16.42-13.02-24.5
	c-9.48-25.08-9.44-59.79-12.25-86.52c6.03,25.25,5.3,52.09,12.25,75.03C383.76,94.22,396.49,110.08,407.42,125.59z"/>
<path style="fill:#8E0043;" d="M244.97,38.68c-4.52-3.44,1.31-18.29,7.62-15.27c-0.75-3.95-4.99-3.02-6.72-0.42
	c0.39-2.67,5.78-3.45,7.66-1.53c6.12,6.28-3.63,25.73-12.25,16.08C243.1,39.15,244.5,39.23,244.97,38.68z"/>
<path style="fill:#8E0043;" d="M266.34,32.17c6.68-14.59,24.93-10.36,23.18,3.08C289.41,25.69,274.24,18.99,266.34,32.17z"/>
<path style="fill:#8E0043;" d="M377.56,119.46c-3.09,4.82-4.59,11.24-9.19,14.55C371.29,132.07,371.26,120.57,377.56,119.46z"/>
<path style="fill:#8E0043;" d="M294.87,186.07c-4.64-17.17,15.35-22.91,26.8-29.09c2.13-0.61-3.32,2.28-4.59,3.06
	c-6.98,4.3-15.76,10.16-19.91,16.84C295.83,179.38,297.64,185.01,294.87,186.07z"/>
<path style="fill:#8E0043;" d="M527.63,404.28c6.84-6.74,16.8,4.16,27.56,3.06C548.25,409.66,538.34,403.14,527.63,404.28z"/>
<path style="fill:#8E0043;" d="M555.19,424.95c-2.14,3.64-6.9,5.78-10.72,8.42c-11.2,7.75-23.3,17.58-30.63,29.86
	C520.98,446.89,536.59,432.38,555.19,424.95z"/>
<path style="fill:#8E0043;" d="M617.2,473.95c1.84-2.48,4.86,1.49,6.89,4.59c7.94,12.12,14.95,35.95,15.68,52.06
	c0.41,9.06-0.66,19.61-4.19,26.8c1.65-10.09,1.92-26.21-0.4-41.4c-1.5-9.78-6.63-24.35-11.09-33.71
	C620.65,475.05,619.32,474.67,617.2,473.95z"/>
<path style="fill:#8E0043;" d="M261.99-37.49c0-5.36,3.47-3.57,3.31-0.84c-0.29,5.06,5.08,6.97,11.06,8.57
	C266.34-28.41,261.99-33.63,261.99-37.49z"/>
<path style="fill:#8E0043;" d="M102.68,422.81l1.78,4.13h3.79c-0.89-0.88-2.05-4.58-2.05-4.58L102.68,422.81z"/>
<path style="fill:#8E0043;" d="M679.51,396.45c0,0,19.07-7.06,35.59,4.97c21.01,15.3,25.19,54.77,44.85,57.57
	c0,0-11.97-3.59-19.52-29.58c-4.16-14.3-13.33-26.23-24.18-31.98C705.33,391.65,691.81,391.56,679.51,396.45z"/>
<path style="fill:#4CCAF5;" d="M741.39,520.23c-3.04,12.79,0.08,31.85,7.3,50.16C742.56,556.03,733.53,536.6,741.39,520.23z"/>
</svg>
