<?xml version="1.0" encoding="utf-8"?>
<!-- Generator: Adobe Illustrator 16.0.0, SVG Export Plug-In . SVG Version: 6.00 Build 0)  -->
<!DOCTYPE svg PUBLIC "-//W3C//DTD SVG 1.1//EN" "http://www.w3.org/Graphics/SVG/1.1/DTD/svg11.dtd">
<svg version="1.1" id="back" xmlns="http://www.w3.org/2000/svg" xmlns:xlink="http://www.w3.org/1999/xlink" x="0px" y="0px"
	 width="141.75px" height="141.73px" viewBox="0 0 141.75 141.73" enable-background="new 0 0 141.75 141.73" xml:space="preserve">
<g>
	<path fill="#505867" d="M16.691,33.373c9.217,0,16.684-7.465,16.684-16.686C33.375,7.473,25.908,0,16.691,0
		C7.476,0,0.005,7.473,0.005,16.688C0.005,25.908,7.476,33.373,16.691,33.373z"/>
	<path fill="#505867" d="M98.023,0.057c-24.155,0-43.733,19.589-43.735,43.748V55.51v33.821v9.579H54.21
		c-0.473,5.327-4.936,9.495-10.381,9.495c-5.448,0-9.91-4.168-10.379-9.495h-0.08v-9.579V70.915h-0.002
		c0-9.213-7.469-16.689-16.686-16.689C7.469,54.226,0,61.702,0,70.915c0,0.082,0.009,0.16,0.01,0.242V98.91h0.108
		c0.496,23.742,19.86,42.816,43.712,42.816c23.848,0,43.211-19.074,43.71-42.816h0.061v-0.932c0-5.758,4.667-10.423,10.427-10.423
		l0,0c24.162-0.008,43.741-19.581,43.741-43.751C141.77,19.648,122.187,0.057,98.023,0.057z M98.029,54.231
		c-5.76,0-10.427-4.666-10.427-10.427c0-5.76,4.667-10.432,10.427-10.432s10.428,4.672,10.428,10.432
		C108.457,49.566,103.789,54.231,98.029,54.231z"/>
</g>
</svg>
