<?xml version="1.0" encoding="utf-8"?>
<svg version="1.1" xmlns="http://www.w3.org/2000/svg" x="0px" y="0px"
	 width="97px" height="9.5px" viewBox="-245.5 392.2 97 9.5" style="enable-background:new -245.5 392.2 97 9.5;"
	 xml:space="preserve">
<path style="fill:#4B647C;" d="M-244.7,392.9h-0.8v7.4c0,0.4,0.1,0.6,0.3,0.8c0.2,0.2,0.4,0.3,0.7,0.3h0.6v-7.6
	c0-0.3-0.1-0.5-0.3-0.7C-244.3,393-244.5,392.9-244.7,392.9z"/>
<path style="fill:#4B647C;" d="M-239.4,394.6c-1,0-1.7,0.3-2.3,0.9c-0.5,0.6-0.8,1.2-0.8,2v2.9c0,0.3,0.1,0.6,0.3,0.8
	c0.2,0.2,0.5,0.3,0.9,0.3h0.5v-3.9c0-0.5,0.1-0.8,0.3-1.1c0.2-0.3,0.5-0.4,0.9-0.4c0.9,0,1.4,0.5,1.4,1.6v2.7c0,0.3,0.1,0.6,0.3,0.8
	c0.2,0.2,0.5,0.3,0.9,0.3h0.5v-3.9c0-0.9-0.3-1.7-0.8-2.2C-237.9,394.9-238.6,394.6-239.4,394.6z"/>
<path style="fill:#4B647C;" d="M-230.3,392.5h-0.5v3.2c-0.1-0.3-0.4-0.5-0.7-0.8c-0.3-0.2-0.7-0.3-1-0.3c-1,0-1.7,0.3-2.2,1
	s-0.8,1.5-0.8,2.7c0,0.9,0.3,1.7,0.9,2.4c0.6,0.7,1.3,1,2.2,1c1.1,0,1.9-0.3,2.5-0.9c0.5-0.6,0.8-1.4,0.8-2.4v-4.8
	c0-0.3-0.1-0.6-0.3-0.8C-229.6,392.6-229.9,392.5-230.3,392.5z M-232.2,400.2c-0.5,0-0.9-0.2-1.2-0.6s-0.5-1-0.5-1.7
	c0-0.5,0.1-1,0.4-1.4c0.3-0.4,0.6-0.5,1-0.5c0.5,0,0.9,0.2,1.2,0.6s0.5,1,0.5,1.7C-230.8,399.5-231.3,400.2-232.2,400.2z"/>
<path style="fill:#4B647C;" d="M-222.9,398.4c0.5-0.2,0.7-0.7,0.7-1.3c0-0.8-0.3-1.4-0.8-1.9s-1.2-0.7-1.9-0.7c-1,0-1.8,0.3-2.4,1
	c-0.6,0.7-0.9,1.6-0.9,2.7c0,1,0.3,1.8,1,2.4s1.4,0.9,2.3,0.9c1.6,0,2.4-0.5,2.4-1.5v-0.4h-0.1c-0.5,0.4-1.1,0.6-2.1,0.6
	c-0.5,0-0.9-0.1-1.3-0.4c-0.4-0.3-0.6-0.6-0.6-1h1.1C-224.2,398.9-223.4,398.8-222.9,398.4z M-226.4,397.6v-0.2c0-0.4,0.2-0.7,0.4-1
	c0.3-0.3,0.6-0.4,1-0.4s0.7,0.1,0.9,0.3c0.2,0.2,0.3,0.4,0.3,0.8c0,0.2-0.1,0.4-0.4,0.5c-0.3,0.1-0.8,0.1-1.6,0.1L-226.4,397.6
	L-226.4,397.6z"/>
<path style="fill:#4B647C;" d="M-216.8,399.4l-0.7-1.1c0.4-0.5,0.8-0.9,1-1.2c0.5-0.7,0.8-1.2,0.8-1.5c0-0.2-0.1-0.4-0.2-0.5
	c-0.1-0.1-0.3-0.2-0.5-0.2h-0.6c-0.1,0.4-0.2,0.7-0.3,0.9c-0.2,0.3-0.5,0.7-1,1.3l-0.7-1c-0.6-0.9-1.1-1.3-1.5-1.3h-1
	c0,0.2,0.1,0.4,0.2,0.6c0.1,0.2,0.2,0.4,0.3,0.6s0.3,0.5,0.7,1l0.7,1l-0.5,0.6c-0.5,0.5-0.8,0.9-1,1.3s-0.3,0.7-0.3,1.1
	c0,0.2,0.1,0.3,0.2,0.4c0.1,0.1,0.3,0.2,0.5,0.2h0.8c0.1-0.4,0.2-0.8,0.4-1.1c0.2-0.3,0.5-0.7,0.9-1.2l0.7,1.1
	c0.3,0.5,0.6,0.8,0.9,1s0.6,0.3,0.9,0.3c0.4,0,0.6-0.1,0.8-0.2c0.2-0.2,0.3-0.4,0.3-0.6c-0.3-0.1-0.5-0.2-0.7-0.4
	C-216.1,400.1-216.4,399.9-216.8,399.4z"/>
<path style="fill:#4B647C;" d="M-211.3,392.9h-1c-0.3,0-0.7,0-1.1,0.1c-0.5,0.1-0.8,0.2-1.1,0.3v7c0,0.4,0.1,0.7,0.3,0.9
	c0.2,0.2,0.5,0.3,0.7,0.3h0.7v-3.3c0.4,0.2,0.8,0.3,1.4,0.3c0.8,0,1.5-0.3,2.1-0.8c0.5-0.5,0.8-1.2,0.8-2.1c0-0.8-0.3-1.5-0.8-2
	C-209.8,393.1-210.5,392.9-211.3,392.9z M-210.6,396.6c-0.2,0.2-0.6,0.3-1,0.3c-0.5,0-0.9-0.1-1.2-0.1v-2.4c0.4-0.1,0.6-0.1,0.7-0.1
	h0.5c0.5,0,0.8,0.1,1,0.3c0.2,0.2,0.3,0.6,0.3,1C-210.3,396.1-210.4,396.4-210.6,396.6z"/>
<path style="fill:#4B647C;" d="M-204.8,394.6c-1,0-1.9,0.3-2.5,1s-0.9,1.6-0.9,2.6c0,0.9,0.3,1.7,0.9,2.4c0.6,0.7,1.4,1,2.3,1
	c1,0,1.9-0.3,2.5-1s0.9-1.6,0.9-2.6c0-0.9-0.3-1.7-0.9-2.4C-203,394.9-203.8,394.6-204.8,394.6z M-203.7,399.6
	c-0.2,0.3-0.6,0.5-1.1,0.5c-1.1,0-1.6-0.7-1.6-2.1c0-0.6,0.1-1,0.4-1.4c0.2-0.4,0.6-0.5,1.1-0.5c1.1,0,1.6,0.7,1.6,2.1
	C-203.3,398.9-203.4,399.2-203.7,399.6z"/>
<path style="fill:#4B647C;" d="M-195.7,392.5h-0.5v3.2c-0.1-0.3-0.4-0.5-0.7-0.8c-0.3-0.2-0.7-0.3-1-0.3c-1,0-1.7,0.3-2.2,1
	s-0.8,1.5-0.8,2.7c0,0.9,0.3,1.7,0.9,2.4c0.6,0.7,1.3,1,2.2,1c1.1,0,1.9-0.3,2.5-0.9c0.5-0.6,0.8-1.4,0.8-2.4v-4.8
	c0-0.3-0.1-0.6-0.3-0.8C-195,392.6-195.3,392.5-195.7,392.5z M-197.5,400.2c-0.5,0-0.9-0.2-1.2-0.6s-0.5-1-0.5-1.7
	c0-0.5,0.1-1,0.4-1.4c0.3-0.4,0.6-0.5,1-0.5c0.5,0,0.9,0.2,1.2,0.6s0.5,1,0.5,1.7C-196.2,399.5-196.7,400.2-197.5,400.2z"/>
<path style="fill:#4B647C;" d="M-190.2,394.6c-1,0-1.7,0.3-2.3,0.9c-0.5,0.6-0.8,1.2-0.8,2v2.9c0,0.3,0.1,0.6,0.3,0.8
	c0.2,0.2,0.5,0.3,0.9,0.3h0.5v-3.9c0-0.5,0.1-0.8,0.3-1.1c0.2-0.3,0.5-0.4,0.9-0.4c0.9,0,1.4,0.5,1.4,1.6v2.7c0,0.3,0.1,0.6,0.3,0.8
	c0.2,0.2,0.5,0.3,0.9,0.3h0.5v-3.9c0-0.9-0.3-1.7-0.8-2.2C-188.6,394.9-189.3,394.6-190.2,394.6z"/>
<path style="fill:#4B647C;" d="M-183.8,399.9c-0.2-0.1-0.2-0.4-0.2-0.7v-3.1c0-0.8-0.4-1.2-1.2-1.2h-0.5v4.6c0,0.7,0.2,1.2,0.5,1.6
	s0.8,0.5,1.5,0.5c0.4,0,0.6-0.1,0.8-0.2c0.2-0.2,0.2-0.4,0.2-0.8v-0.4h-0.3C-183.4,400.1-183.7,400.1-183.8,399.9z"/>
<path style="fill:#4B647C;" d="M-184.9,394.2c0.3,0,0.5-0.1,0.7-0.3c0.2-0.2,0.3-0.4,0.3-0.7c0-0.3-0.1-0.5-0.3-0.7
	s-0.4-0.3-0.7-0.3s-0.5,0.1-0.7,0.3c-0.2,0.2-0.3,0.4-0.3,0.7c0,0.3,0.1,0.5,0.3,0.7C-185.4,394.1-185.2,394.2-184.9,394.2z"/>
<path style="fill:#4B647C;" d="M-177,399.9c-0.3-0.3-0.8-0.9-1.7-2c0.4-0.5,0.9-1,1.5-1.7s1-1.1,1.3-1.3v-0.1h-1
	c-0.6,0-1,0.1-1.3,0.4c-0.5,0.4-1.2,1.3-2.1,2.4v-4c0-0.3-0.1-0.6-0.3-0.8c-0.2-0.2-0.5-0.3-0.9-0.3h-0.5v7.8c0,0.4,0.1,0.7,0.3,0.9
	c0.2,0.2,0.5,0.3,0.9,0.3h0.5v-3.3c1,1.3,1.8,2.3,2.3,2.9c0.3,0.3,0.7,0.5,1.1,0.5c0.3,0,0.6-0.1,0.7-0.2c0.2-0.1,0.3-0.3,0.4-0.6
	c-0.2-0.1-0.4-0.2-0.6-0.3C-176.5,400.4-176.8,400.1-177,399.9z"/>
<path style="fill:#4B647C;" d="M-170.8,395.2c-0.3-0.2-0.6-0.4-0.9-0.5c-0.3-0.1-0.7-0.1-1.1-0.1c-0.8,0-1.4,0.2-1.8,0.5
	c-0.4,0.3-0.6,0.7-0.6,1.1v0.5h0.1c0.2-0.2,0.4-0.4,0.8-0.5c0.4-0.2,0.8-0.2,1.4-0.2c0.5,0,0.9,0.1,1.1,0.3c0.2,0.2,0.3,0.5,0.3,1
	v0.1h-0.6c-1.2,0-2,0.2-2.6,0.6c-0.5,0.4-0.8,0.9-0.8,1.5s0.3,1.1,0.8,1.5s1.1,0.6,1.9,0.6h0.3c0.7,0,1.4-0.2,1.8-0.7
	c0.5-0.4,0.7-1,0.7-1.7v-1.6c0-0.6-0.1-1-0.2-1.4C-170.3,395.8-170.5,395.4-170.8,395.2z M-171.6,399.2c0,0.7-0.4,1-1.1,1
	c-0.4,0-0.6-0.1-0.9-0.2c-0.2-0.1-0.3-0.4-0.3-0.6c0-0.3,0.1-0.5,0.4-0.6c0.2-0.1,0.7-0.2,1.3-0.2h0.6V399.2L-171.6,399.2
	L-171.6,399.2z"/>
<path style="fill:#4B647C;" d="M-167.2,393.2h-0.4c-0.3,0-0.5,0.2-0.8,0.5c-0.2,0.2-0.3,0.4-0.4,0.6c-0.1,0.2-0.1,0.4-0.1,0.7v4
	c0,0.8,0.2,1.4,0.6,1.8c0.4,0.4,1.1,0.6,1.9,0.6c0.5,0,0.8-0.1,1.1-0.3c0.3-0.2,0.4-0.5,0.4-0.8v-0.6h-0.1c-0.3,0.2-0.7,0.2-1.2,0.2
	c-0.7,0-1.1-0.4-1.1-1.2v-2.6h1.3c0.3,0,0.6-0.1,0.7-0.2c0.2-0.2,0.3-0.4,0.3-0.5v-0.7h-2.3L-167.2,393.2L-167.2,393.2z"/>
<path style="fill:#4B647C;" d="M-159.2,398.4c0.5-0.2,0.7-0.7,0.7-1.3c0-0.8-0.3-1.4-0.8-1.9s-1.2-0.7-1.9-0.7c-1,0-1.8,0.3-2.4,1
	c-0.6,0.7-0.9,1.6-0.9,2.7c0,1,0.3,1.8,1,2.4s1.4,0.9,2.3,0.9c1.6,0,2.4-0.5,2.4-1.5v-0.4h-0.1c-0.5,0.4-1.1,0.6-2.1,0.6
	c-0.5,0-0.9-0.1-1.3-0.4c-0.4-0.3-0.6-0.6-0.6-1h1.1C-160.5,398.9-159.7,398.8-159.2,398.4z M-162.7,397.6v-0.2c0-0.4,0.2-0.7,0.4-1
	s0.6-0.4,1-0.4s0.7,0.1,0.9,0.3c0.2,0.2,0.3,0.4,0.3,0.8c0,0.2-0.1,0.4-0.4,0.5c-0.3,0.1-0.8,0.1-1.6,0.1L-162.7,397.6L-162.7,397.6
	z"/>
<path style="fill:#4B647C;" d="M-155.5,399.9c-0.2-0.1-0.3-0.4-0.3-0.7v-5.6c0-0.3-0.1-0.6-0.3-0.8c-0.2-0.2-0.5-0.3-0.9-0.3h-0.5v7
	c0,0.7,0.2,1.2,0.5,1.6c0.4,0.4,0.9,0.5,1.6,0.5c0.8,0,1.1-0.3,1.1-1v-0.4h-0.4C-155,400.1-155.3,400.1-155.5,399.9z"/>
<path style="fill:#4B647C;" d="M-149.3,395.2c-0.3-0.2-0.6-0.4-0.9-0.5c-0.3-0.1-0.7-0.1-1.1-0.1c-0.8,0-1.4,0.2-1.8,0.5
	c-0.4,0.3-0.6,0.7-0.6,1.1v0.5h0.1c0.2-0.2,0.4-0.4,0.8-0.5c0.4-0.2,0.8-0.2,1.4-0.2c0.5,0,0.9,0.1,1.1,0.3c0.2,0.2,0.3,0.5,0.3,1
	v0.1h-0.6c-1.2,0-2,0.2-2.6,0.6c-0.5,0.4-0.8,0.9-0.8,1.5s0.3,1.1,0.8,1.5s1.1,0.6,1.9,0.6h0.3c0.8,0,1.4-0.2,1.8-0.7
	c0.5-0.4,0.7-1,0.7-1.7v-1.6c0-0.6-0.1-1-0.2-1.4C-148.8,395.8-149,395.4-149.3,395.2z M-150.1,399.2c0,0.7-0.4,1-1.1,1
	c-0.4,0-0.7-0.1-0.9-0.2s-0.3-0.4-0.3-0.6c0-0.3,0.1-0.5,0.4-0.6c0.2-0.1,0.7-0.2,1.3-0.2h0.6V399.2L-150.1,399.2z"/>
<path style="fill:#4B647C;" d="M-154,394.4c0.1-0.6,0.3-1.5-0.3-1.8c-0.3-0.2-0.8-0.1-1.2-0.1c0.1,0.9-0.2,2.6,1,2.8
	C-154,395.4-154,394.9-154,394.4z"/>
</svg>
