<?xml version="1.0" encoding="utf-8" standalone="yes"?><svg xmlns="http://www.w3.org/2000/svg" style="zoom: 8;" xml:space="preserve" version="1.1" x="0px" enable-background="new 0 0 132.57 60" y="0px" width="132.56px" height="60px" cursor="default" viewBox="0 0 132.57 60"><path fill="#00aeef" d="M60.166801,16.865395 c-1.878,0 -3.664,0.398 -5.281,1.11 V9.371403 c0,-2.912 2.369,-5.28 5.281,-5.28 c2.91,0 5.276,2.364 5.281,5.272 h-0.003 v5.098 h4.085 v-5.09 h0.002 C69.530807,4.208405 65.330803,0.008415 60.166801,0.008415 C55.0028,0.008415 50.8018,4.208405 50.8018,9.371403 v11.423 C48.463802,23.169395 47.017799,26.425396 47.017799,30.0144 c0,7.251 5.898,13.149 13.149,13.149 c1.878,0 3.664,-0.398 5.281,-1.11 v8.591 c0,2.912 -2.368,5.281 -5.281,5.281 c-2.912,0 -5.281,-2.369 -5.281,-5.281 h0.003 v-5.098 H50.8018 v5.098 c0,5.163 4.201,9.364 9.364,9.364 c5.164,0 9.365,-4.201 9.365,-9.364 V39.233398 c2.338,-2.375 3.785,-5.631 3.785,-9.219 C73.315804,22.764397 67.417801,16.865395 60.166801,16.865395 M60.166801,39.080399 c-5,0 -9.066,-4.067 -9.066,-9.066 c0,-3.009 1.479,-5.673 3.742,-7.322 h0.043 V22.658394 c1.489,-1.072 3.311,-1.711 5.281,-1.711 c5,0 9.066,4.067 9.066,9.066 S65.165802,39.080399 60.166801,39.080399 "></path><path fill="#1b325f" d="M62.3848,27.676388 c0,-1.225 -0.993,-2.217 -2.218,-2.217 c-1.225,0 -2.219,0.992 -2.219,2.217 c0,0.873 0.503,1.623 1.234,1.986 l-0.881,4.895 h3.73 l-0.881,-4.895 C61.880802,29.299389 62.3848,28.549389 62.3848,27.676388 "></path><path d="M154.09613,131.866043 c0,1.475 -0.22,2.771 -0.659,3.891 c-0.439,1.119 -1.04,2.055 -1.802,2.809 c-0.763,0.755 -1.67,1.322 -2.722,1.703 c-1.053,0.381 -2.184,0.572 -3.394,0.572 c-1.177,0 -2.287,-0.191 -3.332,-0.572 c-1.044,-0.381 -1.956,-0.948 -2.734,-1.703 c-0.78,-0.754 -1.392,-1.689 -1.84,-2.809 s-0.671,-2.416 -0.671,-3.891 c0,-1.476 0.231,-2.772 0.696,-3.891 c0.464,-1.119 1.089,-2.06 1.877,-2.822 c0.787,-0.762 1.699,-1.334 2.734,-1.716 C143.285156,123.056107 144.375153,122.866119 145.519135,122.866119 c1.177,0 2.287,0.19 3.331,0.571 c1.045,0.382 1.956,0.954 2.735,1.716 c0.779,0.763 1.393,1.703 1.84,2.822 C153.872131,129.093033 154.09613,130.39003 154.09613,131.866043 M140.944153,131.866043 c0,0.845 0.104,1.607 0.311,2.287 s0.505,1.264 0.895,1.753 c0.389,0.488 0.866,0.866 1.43,1.13 c0.563,0.266 1.209,0.398 1.939,0.398 c0.712,0 1.354,-0.133 1.927,-0.398 c0.572,-0.264 1.052,-0.642 1.442,-1.13 c0.389,-0.489 0.688,-1.073 0.895,-1.753 s0.311,-1.442 0.311,-2.287 c0,-0.846 -0.104,-1.611 -0.311,-2.3 c-0.207,-0.688 -0.506,-1.276 -0.895,-1.765 c-0.39,-0.489 -0.87,-0.867 -1.442,-1.132 c-0.572,-0.265 -1.214,-0.397 -1.927,-0.397 c-0.729,0 -1.376,0.137 -1.939,0.41 c-0.564,0.273 -1.041,0.654 -1.43,1.144 c-0.39,0.489 -0.688,1.077 -0.895,1.765 C141.048126,130.279037 140.944153,131.037033 140.944153,131.866043 "></path></svg>