<?xml version="1.0" encoding="utf-8"?>
<svg version="1.1" xmlns="http://www.w3.org/2000/svg" x="0px" y="0px"
	 width="170px" height="60px" viewBox="0 0 170 60" enable-background="new 0 0 170 60" xml:space="preserve">
<path fill="#003863" d="M53.356,17.688c0,1.469-0.222,2.759-0.658,3.872c-0.437,1.115-1.036,2.046-1.794,2.796
  c-0.758,0.751-1.661,1.316-2.709,1.694c-1.047,0.38-2.173,0.57-3.376,0.57c-1.17,0-2.274-0.19-3.315-0.57
  c-1.039-0.378-1.945-0.943-2.722-1.694c-0.774-0.75-1.384-1.681-1.83-2.796c-0.445-1.112-0.668-2.402-0.668-3.872
  c0-1.467,0.23-2.758,0.693-3.873c0.46-1.113,1.083-2.047,1.868-2.807c0.783-0.757,1.691-1.328,2.722-1.706
  c1.03-0.379,2.115-0.57,3.252-0.57c1.171,0,2.277,0.19,3.316,0.57c1.039,0.378,1.944,0.949,2.721,1.706
  c0.775,0.759,1.385,1.694,1.83,2.807C53.132,14.93,53.356,16.221,53.356,17.688 M40.268,17.688c0,0.841,0.103,1.601,0.309,2.276
  c0.206,0.677,0.502,1.259,0.89,1.745c0.387,0.486,0.862,0.861,1.422,1.125c0.56,0.265,1.204,0.396,1.93,0.396
  c0.71,0,1.349-0.131,1.917-0.396c0.569-0.264,1.048-0.639,1.434-1.125c0.388-0.485,0.685-1.067,0.89-1.745
  c0.208-0.675,0.312-1.436,0.312-2.276s-0.104-1.603-0.312-2.287c-0.205-0.685-0.502-1.271-0.89-1.758
  c-0.386-0.486-0.865-0.861-1.434-1.125c-0.568-0.264-1.208-0.396-1.917-0.396c-0.726,0-1.37,0.137-1.93,0.409
  c-0.561,0.271-1.036,0.651-1.422,1.138c-0.387,0.485-0.684,1.072-0.89,1.755C40.371,16.11,40.268,16.864,40.268,17.688"/>
<polygon fill="#003863" points="68.742,9.129 68.742,12.419 63.573,12.419 63.573,26.273 59.713,26.273 59.713,12.419
  54.542,12.419 54.542,9.129 	"/>
<path fill="#003863" d="M77.132,26.273c-0.682-1.439-1.355-2.935-2.019-4.483c-0.664-1.55-1.294-3.082-1.893-4.597
  c-0.598-1.515-1.146-2.966-1.647-4.353c-0.501-1.386-0.933-2.624-1.298-3.711h4.256c0.319,0.992,0.676,2.062,1.069,3.206
  c0.393,1.144,0.794,2.285,1.201,3.421c0.407,1.136,0.797,2.225,1.17,3.267c0.375,1.041,0.732,1.941,1.075,2.698
  c0.321-0.752,0.672-1.648,1.054-2.689c0.383-1.042,0.777-2.131,1.184-3.268c0.408-1.137,0.809-2.277,1.201-3.422
  c0.392-1.144,0.749-2.214,1.073-3.213h4.109c-0.385,1.094-0.826,2.332-1.326,3.715c-0.5,1.383-1.047,2.834-1.64,4.35
  c-0.595,1.519-1.221,3.053-1.88,4.604c-0.66,1.549-1.329,3.041-2.009,4.475H77.132z"/>
<path fill="#003863" d="M105.604,17.688c0,1.469-0.218,2.759-0.656,3.872c-0.438,1.115-1.035,2.046-1.793,2.796
  c-0.759,0.751-1.662,1.316-2.707,1.694c-1.05,0.38-2.176,0.57-3.379,0.57c-1.172,0-2.276-0.19-3.315-0.57
  c-1.038-0.378-1.946-0.943-2.722-1.694c-0.775-0.75-1.386-1.681-1.83-2.796c-0.446-1.112-0.668-2.402-0.668-3.872
  c0-1.467,0.23-2.758,0.691-3.873c0.463-1.113,1.087-2.047,1.869-2.807c0.782-0.757,1.691-1.328,2.721-1.706
  c1.031-0.379,2.117-0.57,3.254-0.57c1.17,0,2.275,0.19,3.314,0.57c1.039,0.378,1.945,0.949,2.721,1.706
  c0.775,0.759,1.387,1.694,1.831,2.807C105.379,14.93,105.604,16.221,105.604,17.688 M92.516,17.688
  c0,0.841,0.104,1.601,0.311,2.276c0.205,0.677,0.502,1.259,0.889,1.745c0.389,0.486,0.863,0.861,1.424,1.125
  c0.563,0.265,1.203,0.396,1.93,0.396c0.707,0,1.349-0.131,1.918-0.396c0.568-0.264,1.045-0.639,1.434-1.125
  c0.388-0.485,0.685-1.067,0.891-1.745c0.207-0.675,0.309-1.436,0.309-2.276s-0.102-1.603-0.309-2.287
  c-0.206-0.685-0.503-1.271-0.891-1.758c-0.389-0.486-0.865-0.861-1.434-1.125c-0.569-0.264-1.211-0.396-1.918-0.396
  c-0.727,0-1.367,0.137-1.93,0.409c-0.561,0.271-1.035,0.651-1.424,1.138c-0.387,0.485-0.684,1.072-0.889,1.755
  C92.619,16.11,92.516,16.864,92.516,17.688"/>
<path fill="#003863" d="M112.605,8.931c2.57,0,4.543,0.458,5.912,1.373c1.369,0.917,2.053,2.338,2.053,4.269
  c0,1.203-0.276,2.18-0.828,2.931c-0.553,0.75-1.35,1.34-2.387,1.769c0.346,0.431,0.707,0.918,1.088,1.472
  c0.379,0.553,0.755,1.13,1.127,1.732c0.369,0.602,0.728,1.229,1.074,1.879c0.347,0.652,0.668,1.291,0.965,1.917h-4.314
  c-0.313-0.56-0.633-1.128-0.957-1.706c-0.32-0.577-0.652-1.14-0.991-1.683c-0.341-0.545-0.676-1.06-1.007-1.546
  c-0.332-0.487-0.662-0.928-0.994-1.324h-1.904v6.258h-3.859V9.376c0.842-0.165,1.713-0.28,2.609-0.347
  C111.092,8.965,111.895,8.931,112.605,8.931 M112.827,12.221c-0.282,0-0.531,0.008-0.755,0.025
  c-0.224,0.016-0.432,0.033-0.631,0.049v4.652h1.088c1.451,0,2.492-0.181,3.118-0.544c0.626-0.364,0.94-0.981,0.94-1.855
  c0-0.842-0.318-1.439-0.954-1.794C115,12.399,114.064,12.221,112.827,12.221"/>
<polygon fill="#003863" points="124.107,26.273 124.107,9.129 135.686,9.129 135.686,12.37 127.968,12.37 127.968,15.735
  134.82,15.735 134.82,18.901 127.968,18.901 127.968,23.033 136.256,23.033 136.256,26.273 	"/>
<path fill="#003863" d="M150.627,26.273c-1.104-1.962-2.299-3.9-3.586-5.813c-1.287-1.914-2.656-3.719-4.107-5.418v11.231h-3.81
  V9.129h3.142c0.545,0.544,1.146,1.212,1.807,2.004c0.659,0.792,1.332,1.636,2.016,2.536c0.686,0.899,1.366,1.831,2.043,2.794
  c0.676,0.966,1.311,1.892,1.902,2.784V9.129h3.838v17.144H150.627z"/>
<path fill="#003863" d="M157.851,26.273V9.129h11.579v3.241h-7.718v3.365h6.853v3.166h-6.853v4.132H170v3.24H157.851z
   M166.758,4.626l-4.07,3.44l-1.693-1.51l3.5-4.007L166.758,4.626z"/>
<path fill="#003863" d="M41.702,48.045c0.543,0,0.994-0.045,1.349-0.137c0.354-0.09,0.639-0.213,0.853-0.371
  c0.214-0.156,0.363-0.342,0.446-0.557c0.081-0.213,0.123-0.453,0.123-0.717c0-0.561-0.264-1.027-0.791-1.398
  c-0.529-0.371-1.436-0.77-2.723-1.199c-0.56-0.197-1.121-0.426-1.681-0.682c-0.563-0.254-1.065-0.576-1.51-0.965
  c-0.445-0.387-0.808-0.855-1.088-1.41c-0.281-0.551-0.421-1.223-0.421-2.016c0-0.791,0.149-1.504,0.446-2.141
  c0.297-0.633,0.716-1.174,1.262-1.619c0.543-0.445,1.204-0.787,1.979-1.027c0.774-0.238,1.649-0.357,2.621-0.357
  c1.156,0,2.153,0.123,2.995,0.371c0.84,0.246,1.534,0.518,2.077,0.816l-1.112,3.041c-0.479-0.246-1.011-0.465-1.596-0.654
  c-0.587-0.191-1.291-0.283-2.117-0.283c-0.921,0-1.587,0.125-1.99,0.381c-0.405,0.256-0.607,0.648-0.607,1.176
  c0,0.313,0.076,0.578,0.223,0.793c0.149,0.213,0.359,0.406,0.631,0.58s0.585,0.33,0.94,0.471s0.745,0.285,1.175,0.434
  c0.891,0.33,1.666,0.654,2.326,0.977c0.658,0.32,1.208,0.697,1.646,1.125c0.436,0.43,0.762,0.932,0.978,1.51
  c0.212,0.578,0.321,1.279,0.321,2.104c0,1.6-0.562,2.842-1.682,3.723c-1.121,0.883-2.812,1.322-5.072,1.322
  c-0.759,0-1.443-0.045-2.054-0.135c-0.61-0.092-1.15-0.203-1.62-0.334c-0.471-0.133-0.875-0.273-1.212-0.422
  c-0.338-0.148-0.625-0.287-0.855-0.42l1.089-3.066c0.511,0.281,1.142,0.531,1.893,0.754C39.694,47.934,40.615,48.045,41.702,48.045
  "/>
<path fill="#003863" d="M58.152,51.334c-1.204,0-2.244-0.168-3.117-0.508c-0.874-0.336-1.596-0.807-2.163-1.408
  c-0.57-0.602-0.991-1.32-1.263-2.152c-0.27-0.832-0.407-1.752-0.407-2.76V33.844h3.858v10.342c0,0.693,0.079,1.283,0.234,1.768
  c0.158,0.488,0.372,0.883,0.644,1.188c0.272,0.307,0.602,0.525,0.992,0.656c0.386,0.133,0.812,0.199,1.274,0.199
  c0.938,0,1.702-0.289,2.287-0.867c0.585-0.576,0.878-1.557,0.878-2.943V33.844h3.86v10.662c0,1.008-0.141,1.93-0.421,2.771
  c-0.28,0.842-0.708,1.563-1.287,2.164c-0.577,0.604-1.311,1.068-2.202,1.398C60.429,51.17,59.375,51.334,58.152,51.334
   M61.568,29.341l-4.069,3.44l-1.695-1.51l3.5-4.009L61.568,29.341z"/>
<path fill="#003863" d="M83.982,42.404c0,1.484-0.232,2.779-0.693,3.885c-0.463,1.105-1.119,2.02-1.967,2.746
  c-0.851,0.725-1.884,1.27-3.104,1.633c-1.22,0.361-2.59,0.543-4.107,0.543c-0.693,0-1.5-0.029-2.426-0.086
  c-0.921-0.059-1.831-0.178-2.721-0.359V34.066c0.89-0.164,1.818-0.275,2.783-0.334c0.967-0.057,1.794-0.086,2.487-0.086
  c1.468,0,2.798,0.164,3.996,0.494c1.193,0.332,2.223,0.85,3.08,1.559c0.857,0.709,1.517,1.617,1.98,2.723
  C83.75,39.527,83.982,40.855,83.982,42.404 M72.824,47.848c0.182,0.016,0.392,0.027,0.631,0.035
  c0.239,0.01,0.525,0.014,0.853,0.014c1.93,0,3.36-0.486,4.292-1.461c0.931-0.973,1.399-2.316,1.399-4.031
  c0-1.799-0.445-3.158-1.337-4.082c-0.891-0.924-2.3-1.385-4.23-1.385c-0.264,0-0.538,0.004-0.817,0.012
  c-0.281,0.008-0.543,0.029-0.792,0.063V47.848z"/>
<path fill="#003863" d="M92.387,40.875c0.694-1.166,1.355-2.334,1.984-3.504c0.624-1.166,1.203-2.344,1.731-3.527h4.255
  c-0.939,1.848-1.911,3.637-2.918,5.369c-1.006,1.73-2.07,3.471-3.191,5.219v6.557h-3.861v-6.506
  c-1.119-1.748-2.188-3.496-3.203-5.244c-1.014-1.75-1.99-3.547-2.93-5.395h4.479c0.525,1.184,1.094,2.361,1.703,3.527
  C91.044,38.541,91.695,39.709,92.387,40.875"/>
<path fill="#00B4EF" d="M13.066,16.941c-1.868,0-3.642,0.396-5.248,1.105V9.497c0-2.895,2.353-5.248,5.248-5.248
  c2.891,0,5.241,2.35,5.246,5.24h-0.004v5.065h4.059V9.497h0.003c0-5.13-4.174-9.305-9.304-9.305c-5.132,0-9.305,4.175-9.305,9.305
  v11.349C1.437,23.206,0,26.44,0,30.007c0,7.204,5.86,13.065,13.066,13.065c1.866,0,3.64-0.396,5.246-1.104v8.535
  c0,2.895-2.353,5.25-5.246,5.25c-2.895,0-5.248-2.355-5.248-5.25H7.82v-5.064H3.761v5.064c0,5.131,4.173,9.305,9.305,9.305
  c5.13,0,9.304-4.174,9.304-9.305V39.168c2.323-2.361,3.759-5.596,3.759-9.161C26.13,22.803,20.27,16.941,13.066,16.941
   M13.066,39.016c-4.968,0-9.008-4.041-9.008-9.008c0-2.99,1.469-5.637,3.717-7.277h0.043v-0.033c1.479-1.064,3.289-1.7,5.248-1.7
  c4.966,0,9.008,4.043,9.008,9.01C22.075,34.975,18.032,39.016,13.066,39.016"/>
<path fill="#003863" d="M15.27,27.684c0-1.218-0.987-2.203-2.203-2.203c-1.218,0-2.206,0.985-2.206,2.203
  c0,0.867,0.502,1.611,1.227,1.974l-0.874,4.864h3.706l-0.877-4.864C14.768,29.295,15.27,28.551,15.27,27.684"/>
</svg>
