<?xml version="1.0" encoding="utf-8"?>
<svg version="1.1" xmlns="http://www.w3.org/2000/svg" x="0px" y="0px"
	 width="154px" height="54.1px" viewBox="-228 369.9 154 54.1" style="enable-background:new -228 369.9 154 54.1;"
	 xml:space="preserve">
<path style="fill:#CF2529;" d="M-228,418.2l5.9-14.5c2.7,1.9,5,3.2,7.1,4.1s4,1.3,5.8,1.3c1.3,0,2.3-0.2,3-0.7s1.1-1.1,1.1-2
	c0-1.4-1.8-2.5-5.5-3.3c-1.2-0.3-2.1-0.5-2.8-0.6c-3.8-0.9-6.8-2.6-8.8-5s-3.1-5.4-3.1-8.9c0-5.5,2-10,5.9-13.5
	c4-3.5,9.2-5.2,15.6-5.2c3,0,5.9,0.4,8.7,1.2c2.9,0.8,5.8,1.9,8.7,3.5l-5.6,13.5c-1.8-1.3-3.6-2.3-5.4-3s-3.5-1-5.2-1
	c-1.3,0-2.3,0.2-3,0.7c-0.7,0.4-1.1,1-1.1,1.8c0,1.5,2.6,2.7,7.7,3.8c0.8,0.2,1.5,0.3,1.9,0.4c3.5,0.8,6.3,2.4,8.4,4.9
	c2,2.5,3.1,5.4,3.1,8.9c0,5.7-2.1,10.4-6.2,14s-9.5,5.4-16.1,5.4c-3.4,0-6.8-0.5-10.1-1.4C-221.3,421.5-224.6,420.1-228,418.2z"/>
<path style="fill:#CF2529;" d="M-132.2,422.6l-2.3-20.4c-0.1-1.6-0.3-3.1-0.4-4.7c-0.1-1.6-0.3-3.1-0.4-4.7c-0.2,1.5-0.5,3-0.9,4.7
	s-0.9,3.4-1.4,5.3l-5.9,19.8h-11l-5.9-19.9c-0.6-1.9-1.1-3.6-1.4-5.3c-0.4-1.7-0.7-3.2-0.9-4.7c-0.1,1.6-0.2,3.2-0.4,4.7
	c-0.1,1.5-0.3,3.1-0.4,4.7l-2.3,20.4h-18.1l8.8-51.5h19.1l3.7,12.7c0.1,0.4,0.3,1,0.5,1.8c1.6,5.4,2.5,9.8,2.9,13.3h0.3
	c0.3-2.2,0.7-4.5,1.3-7s1.3-5.2,2.3-8.3l3.8-12.5h19.1l8.2,51.5L-132.2,422.6C-132.2,422.5-132.2,422.6-132.2,422.6z"/>
<path style="fill:#CF2529;" d="M-108.9,422.6V371h34.5v14h-16.3v5h14.8v13.2h-14.8v5.4H-74v14L-108.9,422.6L-108.9,422.6z"/>
</svg>
