<?xml version="1.0" encoding="utf-8"?>
<svg version="1.1" xmlns="http://www.w3.org/2000/svg" x="0px" y="0px"
	 width="125px" height="30px" viewBox="0 0 125 30" enable-background="new 0 0 125 30" xml:space="preserve">
<path d="M37.185,27.803c0.21,0.147,0.447,0.273,0.715,0.383c0.263,0.107,0.496,0.16,0.699,0.16
  c0.393,0,0.704-0.107,0.938-0.328c0.229-0.221,0.347-0.496,0.347-0.827c0-0.31-0.106-0.546-0.318-0.712
  c-0.212-0.167-0.546-0.347-1-0.539c-0.317-0.14-0.576-0.262-0.777-0.37c-0.2-0.108-0.393-0.249-0.579-0.423
  c-0.185-0.174-0.334-0.392-0.444-0.652c-0.113-0.266-0.17-0.582-0.17-0.951c0-0.324,0.064-0.629,0.191-0.914
  s0.309-0.535,0.546-0.746c0.233-0.213,0.518-0.377,0.851-0.492c0.331-0.116,0.695-0.175,1.087-0.175
  c0.379,0,0.758,0.061,1.135,0.18c0.378,0.12,0.753,0.283,1.123,0.491l-0.625,1.065l-0.081-0.046
  c-0.293-0.162-0.544-0.283-0.754-0.363c-0.206-0.082-0.434-0.123-0.682-0.123c-0.364,0-0.671,0.095-0.927,0.284
  c-0.254,0.188-0.381,0.454-0.381,0.793c0,0.309,0.112,0.552,0.336,0.729c0.223,0.178,0.571,0.371,1.04,0.579
  c0.301,0.139,0.559,0.265,0.771,0.377c0.213,0.111,0.411,0.254,0.597,0.428c0.185,0.174,0.334,0.387,0.445,0.637
  c0.112,0.25,0.169,0.545,0.169,0.887c0,0.339-0.064,0.655-0.191,0.948s-0.311,0.55-0.551,0.771
  c-0.239,0.219-0.52,0.39-0.844,0.514c-0.324,0.123-0.68,0.186-1.066,0.186c-0.756,0-1.479-0.205-2.175-0.612L37.185,27.803z"/>
<path d="M42.986,21.378h1.479l-0.068,6.737h3.138v1.273h-4.621L42.986,21.378z"/>
<path d="M48.593,23.756c0.222-0.504,0.528-0.949,0.92-1.33c0.396-0.383,0.854-0.679,1.38-0.892
  c0.523-0.212,1.08-0.318,1.666-0.318c0.642,0,1.226,0.106,1.754,0.318c0.528,0.213,0.981,0.508,1.36,0.886
  c0.377,0.379,0.671,0.822,0.875,1.331c0.205,0.511,0.307,1.054,0.307,1.633c0,0.58-0.109,1.121-0.325,1.626
  c-0.214,0.506-0.521,0.949-0.913,1.332c-0.395,0.382-0.854,0.679-1.374,0.891c-0.519,0.213-1.082,0.318-1.684,0.318
  c-0.603,0-1.166-0.103-1.692-0.307c-0.523-0.203-0.979-0.492-1.37-0.869c-0.389-0.373-0.691-0.816-0.907-1.33
  c-0.218-0.513-0.324-1.066-0.324-1.661C48.265,24.805,48.374,24.264,48.593,23.756z M50.012,26.582
  c0.133,0.367,0.318,0.682,0.555,0.943c0.241,0.263,0.53,0.465,0.868,0.607c0.341,0.145,0.714,0.213,1.124,0.213
  c0.403,0,0.772-0.075,1.111-0.23c0.339-0.154,0.631-0.371,0.874-0.648c0.244-0.276,0.43-0.596,0.563-0.954
  c0.131-0.358,0.197-0.735,0.197-1.129c0-0.425-0.066-0.817-0.197-1.181c-0.133-0.363-0.318-0.677-0.558-0.943
  c-0.238-0.266-0.53-0.473-0.873-0.619s-0.714-0.221-1.117-0.221c-0.34,0-0.671,0.068-0.995,0.203s-0.62,0.332-0.886,0.59
  c-0.267,0.259-0.477,0.572-0.631,0.943s-0.232,0.779-0.232,1.228C49.814,25.816,49.881,26.216,50.012,26.582z"/>
<path d="M57.118,21.69l1.495-0.475l2.05,6.298h0.022l2.304-6.298l1.437,0.475l-3.057,7.698h-1.388L57.118,21.69z"/>
<path d="M65.593,21.378h4.284v1.274h-2.802l-0.022,2.061h2.778v1.203H67.04l-0.011,2.199h2.848v1.273h-4.365
  L65.593,21.378z"/>
<path d="M71.37,21.633l1.377-0.417l3.74,6.136h0.022l-0.093-5.974h1.481l-0.069,7.758l-1.494,0.415l-3.645-6.102
  l-0.023,0.025l0.115,5.914H71.3L71.37,21.633z"/>
<path d="M79.797,27.803c0.21,0.147,0.445,0.273,0.713,0.383c0.265,0.107,0.5,0.16,0.7,0.16
  c0.394,0,0.705-0.107,0.938-0.328c0.231-0.221,0.347-0.496,0.347-0.827c0-0.31-0.107-0.546-0.318-0.712
  c-0.212-0.167-0.546-0.347-1-0.539c-0.318-0.14-0.576-0.262-0.777-0.37s-0.393-0.249-0.578-0.423s-0.335-0.392-0.447-0.652
  c-0.111-0.266-0.168-0.582-0.168-0.951c0-0.324,0.064-0.629,0.192-0.914s0.307-0.535,0.544-0.746
  c0.234-0.213,0.519-0.377,0.852-0.492c0.331-0.116,0.695-0.175,1.088-0.175c0.376,0,0.755,0.061,1.134,0.18
  c0.377,0.12,0.753,0.283,1.123,0.491l-0.625,1.065l-0.081-0.046c-0.294-0.162-0.545-0.283-0.754-0.363
  c-0.207-0.082-0.434-0.123-0.683-0.123c-0.361,0-0.671,0.095-0.926,0.284c-0.254,0.188-0.382,0.454-0.382,0.793
  c0,0.309,0.112,0.552,0.336,0.729c0.224,0.178,0.57,0.371,1.042,0.579c0.302,0.139,0.56,0.265,0.77,0.377
  c0.212,0.111,0.411,0.254,0.597,0.428s0.332,0.387,0.445,0.637c0.111,0.25,0.169,0.545,0.169,0.887
  c0,0.339-0.064,0.655-0.192,0.948c-0.126,0.293-0.31,0.55-0.549,0.771c-0.24,0.219-0.522,0.39-0.845,0.514
  c-0.324,0.123-0.681,0.186-1.066,0.186c-0.757,0-1.481-0.205-2.176-0.612L79.797,27.803z"/>
<path d="M85.504,21.378h1.482l-0.022,3.739h0.058l3.275-3.901l1.1,0.88l-2.858,3.16l2.824,3.438l-1.205,0.857
  l-3.171-4.027h-0.022l-0.035,3.865h-1.482L85.504,21.378z"/>
<path d="M91.651,23.756c0.22-0.504,0.527-0.949,0.921-1.33c0.393-0.383,0.853-0.679,1.377-0.892
  c0.523-0.212,1.079-0.318,1.666-0.318c0.641,0,1.227,0.106,1.755,0.318c0.529,0.213,0.98,0.508,1.359,0.886
  c0.379,0.379,0.67,0.822,0.875,1.331c0.204,0.511,0.306,1.054,0.306,1.633c0,0.58-0.106,1.121-0.323,1.626
  c-0.217,0.506-0.521,0.949-0.915,1.332c-0.393,0.382-0.852,0.679-1.372,0.891c-0.521,0.213-1.083,0.318-1.685,0.318
  c-0.601,0-1.165-0.103-1.69-0.307c-0.524-0.203-0.982-0.492-1.371-0.869c-0.39-0.373-0.691-0.816-0.908-1.33
  c-0.216-0.513-0.323-1.066-0.323-1.661C91.322,24.805,91.431,24.264,91.651,23.756z M93.067,26.582
  c0.132,0.367,0.318,0.682,0.558,0.943c0.238,0.263,0.527,0.465,0.868,0.607c0.34,0.145,0.713,0.213,1.122,0.213
  c0.402,0,0.772-0.075,1.112-0.23c0.339-0.154,0.631-0.371,0.873-0.648c0.242-0.276,0.431-0.596,0.561-0.954
  c0.131-0.358,0.198-0.735,0.198-1.129c0-0.425-0.067-0.817-0.198-1.181c-0.13-0.363-0.316-0.677-0.555-0.943
  c-0.24-0.266-0.528-0.473-0.873-0.619c-0.344-0.146-0.716-0.221-1.118-0.221c-0.339,0-0.671,0.068-0.995,0.203
  s-0.62,0.332-0.887,0.59c-0.267,0.259-0.475,0.572-0.631,0.943c-0.153,0.371-0.23,0.779-0.23,1.228
  C92.872,25.816,92.938,26.216,93.067,26.582z"/>
<path d="M37.994,1.884h-2.247l0.011-1.273h5.939l-0.012,1.273h-2.211l-0.058,6.738h-1.481L37.994,1.884z"/>
<path d="M43.329,0.611h2.535c0.472,0,0.88,0.059,1.228,0.179c0.347,0.12,0.631,0.285,0.851,0.492
  c0.22,0.209,0.383,0.452,0.487,0.729c0.104,0.279,0.156,0.583,0.156,0.915c0,0.501-0.138,0.932-0.416,1.291
  c-0.278,0.358-0.657,0.624-1.136,0.793l2.28,2.986l-1.319,0.788l-2.223-3.091c-0.131-0.186-0.309-0.279-0.533-0.279h-0.463
  l-0.011,3.208h-1.517L43.329,0.611z M45.715,4.21c0.132,0,0.269-0.016,0.417-0.052c0.146-0.034,0.289-0.097,0.43-0.19
  c0.137-0.092,0.251-0.22,0.341-0.381c0.087-0.162,0.132-0.367,0.132-0.614c0-0.37-0.126-0.656-0.382-0.856
  c-0.255-0.201-0.579-0.3-0.972-0.3h-0.857L44.8,4.21H45.715z"/>
<path d="M51.456,8.784L50.08,8.366l3.078-7.755h1.366l2.859,7.755l-1.447,0.418l-0.787-2.292h-2.79L51.456,8.784z
   M53.819,2.163h-0.026l-1.006,3.125h1.955L53.819,2.163z"/>
<path d="M58.749,0.865l1.378-0.416l3.738,6.135h0.024l-0.094-5.973h1.482l-0.07,7.755l-1.492,0.418l-3.647-6.102
  l-0.022,0.023l0.117,5.917H58.68L58.749,0.865z"/>
<path d="M67.604,7.036c0.209,0.148,0.447,0.273,0.711,0.381c0.268,0.109,0.5,0.162,0.703,0.162
  c0.393,0,0.705-0.11,0.938-0.329c0.231-0.221,0.347-0.498,0.347-0.828c0-0.309-0.105-0.545-0.318-0.712
  c-0.214-0.166-0.545-0.345-1.002-0.538c-0.316-0.138-0.574-0.261-0.774-0.37c-0.201-0.108-0.395-0.249-0.58-0.423
  c-0.184-0.173-0.336-0.392-0.445-0.653c-0.111-0.264-0.169-0.579-0.169-0.949c0-0.326,0.063-0.63,0.191-0.915
  c0.127-0.286,0.309-0.535,0.544-0.747c0.236-0.212,0.52-0.376,0.851-0.492c0.334-0.116,0.695-0.173,1.09-0.173
  c0.377,0,0.756,0.06,1.133,0.179c0.38,0.12,0.754,0.285,1.124,0.493l-0.625,1.064l-0.08-0.047
  c-0.296-0.16-0.546-0.282-0.754-0.364c-0.207-0.08-0.435-0.12-0.683-0.12c-0.364,0-0.672,0.094-0.927,0.282
  c-0.256,0.189-0.383,0.454-0.383,0.794c0,0.308,0.114,0.551,0.338,0.729c0.222,0.177,0.57,0.37,1.042,0.577
  c0.299,0.141,0.557,0.267,0.769,0.378c0.213,0.11,0.41,0.254,0.598,0.429c0.184,0.173,0.333,0.386,0.445,0.636
  c0.111,0.25,0.168,0.545,0.168,0.885c0,0.34-0.066,0.657-0.191,0.95c-0.129,0.293-0.313,0.55-0.551,0.77
  c-0.239,0.22-0.52,0.392-0.844,0.514c-0.325,0.124-0.68,0.187-1.066,0.187c-0.756,0-1.481-0.204-2.177-0.614L67.604,7.036z"/>
<path d="M73.751,0.611h2.259c1.012,0,1.751,0.212,2.224,0.637c0.469,0.425,0.704,1.025,0.704,1.806
  c0,0.402-0.076,0.754-0.229,1.059c-0.156,0.305-0.368,0.56-0.639,0.765c-0.27,0.204-0.58,0.357-0.931,0.457
  c-0.353,0.1-0.725,0.149-1.116,0.149h-0.824l-0.011,3.139h-1.516L73.751,0.611z M75.976,4.281c0.407,0,0.745-0.114,1.012-0.342
  c0.268-0.228,0.399-0.526,0.399-0.896c0-0.138-0.021-0.277-0.063-0.418c-0.042-0.138-0.114-0.27-0.221-0.393
  c-0.102-0.123-0.244-0.224-0.422-0.301c-0.179-0.076-0.393-0.114-0.647-0.114h-0.787l-0.024,2.465H75.976z"/>
<path d="M80.327,8.784l-1.378-0.418l3.081-7.755h1.364l2.859,7.755l-1.447,0.418l-0.786-2.292h-2.791
  L80.327,8.784z M82.689,2.163h-0.024l-1.006,3.125h1.956L82.689,2.163z"/>
<path d="M88.061,0.611h2.535c0.471,0,0.88,0.059,1.228,0.179c0.347,0.12,0.631,0.285,0.85,0.492
  c0.22,0.209,0.383,0.452,0.486,0.729c0.103,0.279,0.156,0.583,0.156,0.915c0,0.501-0.139,0.932-0.417,1.291
  c-0.278,0.358-0.654,0.624-1.133,0.793l2.28,2.986l-1.32,0.788l-2.222-3.091c-0.133-0.186-0.312-0.279-0.534-0.279h-0.463
  l-0.012,3.208h-1.516L88.061,0.611z M90.444,4.21c0.131,0,0.271-0.016,0.418-0.052c0.147-0.034,0.289-0.097,0.428-0.19
  c0.14-0.092,0.254-0.22,0.341-0.381c0.09-0.162,0.135-0.367,0.135-0.614c0-0.37-0.129-0.656-0.383-0.856s-0.578-0.3-0.972-0.3
  h-0.856L89.531,4.21H90.444z"/>
<path d="M95.886,0.611h4.284v1.273h-2.804l-0.023,2.061h2.779v1.205h-2.79l-0.01,2.198h2.848v1.275h-4.365
  L95.886,0.611z"/>
<path d="M102.208,0.865l1.376-0.416l3.739,6.135h0.023l-0.093-5.973h1.479l-0.068,7.755l-1.492,0.418
  l-3.646-6.102l-0.023,0.023l0.115,5.917h-1.481L102.208,0.865z"/>
<path d="M117.267,8.008c-0.363,0.255-0.763,0.448-1.197,0.578c-0.437,0.133-0.887,0.198-1.349,0.198
  c-0.587,0-1.135-0.103-1.645-0.307c-0.51-0.205-0.953-0.494-1.331-0.869c-0.378-0.373-0.67-0.816-0.874-1.325
  c-0.206-0.51-0.308-1.057-0.308-1.645c0-0.609,0.101-1.172,0.302-1.689c0.2-0.517,0.483-0.96,0.851-1.332
  c0.365-0.37,0.803-0.657,1.309-0.861c0.506-0.205,1.051-0.307,1.638-0.307c0.486,0,0.954,0.08,1.399,0.236
  c0.447,0.159,0.855,0.39,1.217,0.69l-0.647,1.029c-0.241-0.208-0.538-0.373-0.896-0.498c-0.362-0.124-0.703-0.186-1.025-0.186
  c-0.386,0-0.738,0.072-1.059,0.214c-0.322,0.143-0.597,0.344-0.822,0.602c-0.228,0.259-0.405,0.562-0.526,0.909
  c-0.125,0.348-0.188,0.722-0.188,1.123c0,0.378,0.063,0.744,0.188,1.1c0.121,0.354,0.301,0.671,0.532,0.949
  c0.229,0.278,0.503,0.497,0.816,0.654c0.312,0.159,0.647,0.238,1.012,0.238c0.464,0,0.84-0.044,1.136-0.134
  c0.293-0.087,0.585-0.217,0.88-0.386L117.267,8.008z"/>
<path d="M120.717,5.299l-2.652-4.086l1.354-0.763l2.096,3.427l2.178-3.427L125,1.202l-2.733,4.051l-0.045,3.369
  h-1.552L120.717,5.299z"/>
<path d="M37.798,10.837h1.482l-0.072,8.011h-1.479L37.798,10.837z"/>
<path d="M41.062,11.092l1.377-0.417l3.742,6.136h0.022l-0.095-5.974h1.482l-0.068,7.756l-1.494,0.417l-3.648-6.1
  l-0.022,0.023l0.117,5.915h-1.481L41.062,11.092z"/>
<path d="M50.961,12.112h-2.247l0.012-1.275h5.938l-0.012,1.275H52.44l-0.057,6.735h-1.481L50.961,12.112z"/>
<path d="M55.868,10.837h4.283v1.275H57.35l-0.022,2.058h2.779v1.204h-2.791l-0.012,2.2h2.848v1.273h-4.364
  L55.868,10.837z"/>
<path d="M62.119,10.837h2.535c0.471,0,0.88,0.06,1.228,0.181c0.347,0.118,0.631,0.282,0.852,0.491
  c0.218,0.208,0.382,0.451,0.485,0.729c0.104,0.277,0.157,0.582,0.157,0.914c0,0.502-0.141,0.931-0.419,1.291
  c-0.276,0.358-0.655,0.625-1.133,0.792l2.28,2.987l-1.32,0.787l-2.222-3.09c-0.131-0.186-0.31-0.278-0.533-0.278h-0.464
  l-0.01,3.206h-1.518L62.119,10.837z M64.505,14.438c0.131,0,0.27-0.017,0.415-0.051c0.148-0.037,0.29-0.1,0.429-0.192
  c0.141-0.093,0.254-0.22,0.341-0.383c0.09-0.162,0.135-0.366,0.135-0.613c0-0.37-0.129-0.655-0.383-0.856
  c-0.254-0.201-0.578-0.301-0.972-0.301h-0.856l-0.022,2.396H64.505z"/>
<path d="M69.505,11.092l1.378-0.417l3.74,6.136h0.022l-0.093-5.974h1.481l-0.07,7.756L74.47,19.01l-3.646-6.1
  l-0.021,0.023l0.113,5.915h-1.481L69.505,11.092z"/>
<path d="M78.5,19.01l-1.378-0.417l3.078-7.756h1.366l2.859,7.756l-1.446,0.417l-0.786-2.292h-2.79L78.5,19.01z
   M80.86,12.388h-0.023l-1.007,3.125h1.956L80.86,12.388z"/>
<path d="M86.429,12.112h-2.245l0.011-1.275h5.939l-0.01,1.275H87.91l-0.058,6.735h-1.481L86.429,12.112z"/>
<path d="M91.278,10.837h1.482l-0.068,8.011h-1.483L91.278,10.837z"/>
<path d="M94.446,13.216c0.219-0.506,0.526-0.949,0.919-1.331c0.394-0.382,0.853-0.679,1.379-0.893
  c0.524-0.211,1.08-0.318,1.667-0.318c0.641,0,1.225,0.106,1.753,0.318c0.528,0.213,0.981,0.508,1.36,0.887
  c0.377,0.378,0.669,0.821,0.873,1.331c0.205,0.51,0.31,1.054,0.31,1.632c0,0.58-0.11,1.121-0.326,1.626
  c-0.216,0.506-0.521,0.95-0.915,1.332s-0.85,0.678-1.372,0.891c-0.521,0.213-1.081,0.318-1.683,0.318
  c-0.603,0-1.166-0.102-1.689-0.307c-0.526-0.204-0.982-0.493-1.374-0.868c-0.388-0.374-0.693-0.817-0.909-1.331
  c-0.214-0.513-0.322-1.068-0.322-1.662C94.116,14.264,94.227,13.721,94.446,13.216z M95.864,16.041
  c0.131,0.365,0.317,0.682,0.557,0.942c0.238,0.265,0.528,0.466,0.865,0.608c0.341,0.144,0.715,0.216,1.125,0.216
  c0.4,0,0.771-0.078,1.111-0.233c0.339-0.154,0.631-0.37,0.875-0.648c0.241-0.277,0.429-0.596,0.56-0.954
  c0.131-0.359,0.198-0.736,0.198-1.129c0-0.425-0.067-0.817-0.198-1.18c-0.131-0.362-0.317-0.677-0.556-0.944
  c-0.239-0.267-0.531-0.473-0.874-0.62c-0.344-0.146-0.716-0.219-1.116-0.219c-0.341,0-0.672,0.068-0.996,0.203
  c-0.323,0.135-0.619,0.332-0.886,0.59c-0.267,0.259-0.477,0.572-0.631,0.943c-0.154,0.37-0.232,0.78-0.232,1.227
  C95.666,15.275,95.732,15.674,95.864,16.041z"/>
<path d="M104.174,11.092l1.379-0.417l3.739,6.136h0.023l-0.093-5.974h1.481l-0.068,7.756l-1.494,0.417l-3.647-6.1
  l-0.023,0.023l0.118,5.915h-1.482L104.174,11.092z"/>
<path d="M113.171,19.01l-1.379-0.417l3.08-7.756h1.364l2.861,7.756l-1.447,0.417l-0.787-2.292h-2.791
  L113.171,19.01z M115.531,12.388h-0.023l-1.006,3.125h1.956L115.531,12.388z"/>
<path d="M120.336,10.837h1.481l-0.068,6.737h3.137v1.273h-4.62L120.336,10.837z"/>
<path d="M11.422,9.137c0,1.336,1.104,2.42,2.469,2.42s2.469-1.084,2.469-2.42c0-1.335-1.104-2.418-2.469-2.418
  S11.422,7.802,11.422,9.137"/>
<path d="M1.41,14.565c0-0.435,0.022-0.864,0.062-1.288c0.403,0.688,1.189,1.359,2.11,1.963
  c-0.054,2.042,0.057,5.461,0.619,7.595C2.454,20.553,1.41,17.684,1.41,14.565 M17.647,18.434c3.815-0.58,6.625-2.361,8.174-3.776
  c0.593-0.542,1.771-2.528,1.778-3.21c0.185,0.955,0.273,1.983,0.273,3.118c0,6.477-4.18,11.607-10.157,13.098
  c-0.29-0.003-0.54,0.004-0.872-0.116c-0.257-0.095-0.553-0.453-0.609-0.523c-1.24-1.571-1.592-3.692-1.7-4.107
  c-0.204-0.774-0.194-2.169-0.111-3.281c0.002-0.03-4.51-0.801-4.538-0.608c-0.119,0.811,0.04,2.421,0.222,3.194
  c0.215,0.9,0.688,2.379,1.067,3.351c0.318,0.819,0.96,1.712,1.574,2.32c-0.356-0.013-0.683-0.054-1.028-0.192
  c-0.635-0.253-1.358-1.354-1.543-1.631c-0.524-0.787-0.959-2.311-1.161-3.236c-0.235-1.073-0.532-3.512-0.415-4.605
  c0.021-0.197,0.047-0.407,0.078-0.629c1.831,0.51,4.986,0.939,7.306,0.939C16.615,18.537,17.184,18.504,17.647,18.434
   M2.701,8.761C4.365,5.22,7.506,2.535,11.31,1.53c-0.726,0.426-1.438,0.958-1.84,1.344C8.31,3.998,6.488,6.36,5.779,7.812
  C5.529,8.324,5.218,9.031,4.91,9.81C3.907,9.34,3.063,8.936,2.701,8.761 M0,15c0,8.037,6.497,14.551,14.514,14.551
  S29.13,23.059,29.13,15.021c0-4.562-1.192-9.064-4.706-11.167c-0.17-0.1-0.855-0.45-0.896-0.255
  c-0.076,0.373,2.188,1.686,2.254,3.507c0.033,0.851-0.765,3.553-5.45,5.074c-1.149,0.374-3.759,0.622-4.97,0.619
  c-1.478-0.005-4.2-0.404-5.603-0.88c-0.055-0.02-0.115-0.041-0.178-0.064c0.458-3.761,2.421-7.3,3.82-8.274
  c2.264-1.578,3.927-1.911,4.515-1.905c0.486,0.005,1.135,0.064,1.783,0.263c0.251,0.079,0.982,0.369,1.109,0.229
  c0.228-0.247-0.856-0.747-1.203-0.893c-1.014-0.425-3.031-0.827-5.093-0.827C6.497,0.449,0,6.963,0,15"/>
</svg>
