<?xml version="1.0" encoding="utf-8"?>
<svg version="1.1" xmlns="http://www.w3.org/2000/svg" x="0px" y="0px"
	 width="125px" height="30px" viewBox="0 0 125 30" enable-background="new 0 0 125 30" xml:space="preserve">
<path d="M37.994,1.884h-2.246l0.011-1.273h5.938l-0.012,1.273h-2.211l-0.058,6.738h-1.481L37.994,1.884z"/>
<path d="M43.33,0.611h2.535c0.471,0,0.88,0.06,1.228,0.179c0.347,0.12,0.631,0.285,0.85,0.493
  c0.22,0.209,0.383,0.452,0.487,0.729c0.104,0.278,0.156,0.583,0.156,0.915c0,0.501-0.139,0.931-0.417,1.29
  c-0.277,0.359-0.656,0.625-1.134,0.793l2.281,2.986l-1.32,0.788l-2.223-3.09c-0.131-0.187-0.309-0.278-0.532-0.278h-0.463
  l-0.011,3.207h-1.517L43.33,0.611z M45.715,4.21c0.131,0,0.269-0.016,0.417-0.052c0.146-0.034,0.29-0.098,0.428-0.19
  s0.252-0.22,0.341-0.383c0.089-0.162,0.134-0.366,0.134-0.613c0-0.369-0.127-0.655-0.382-0.856c-0.255-0.2-0.579-0.3-0.973-0.3
  h-0.855L44.8,4.21H45.715z"/>
<path d="M51.456,8.783l-1.378-0.417l3.081-7.755h1.364l2.859,7.755l-1.446,0.417l-0.787-2.291h-2.79L51.456,8.783
  z M53.818,2.163h-0.023l-1.007,3.125h1.955L53.818,2.163z"/>
<path d="M58.75,0.865l1.377-0.416l3.739,6.135h0.023l-0.094-5.973h1.483l-0.07,7.755l-1.493,0.417l-3.646-6.102
  l-0.023,0.024l0.116,5.916h-1.482L58.75,0.865z"/>
<path d="M67.605,7.036c0.208,0.147,0.445,0.272,0.711,0.381c0.268,0.108,0.5,0.162,0.701,0.162
  c0.393,0,0.706-0.11,0.938-0.328c0.232-0.222,0.348-0.498,0.348-0.829c0-0.309-0.106-0.545-0.317-0.712
  c-0.213-0.166-0.547-0.345-1.003-0.539c-0.316-0.138-0.574-0.262-0.774-0.37c-0.201-0.108-0.395-0.249-0.579-0.423
  c-0.185-0.174-0.335-0.392-0.445-0.654c-0.112-0.263-0.168-0.579-0.168-0.949c0-0.326,0.063-0.629,0.19-0.915
  c0.128-0.285,0.309-0.534,0.543-0.746c0.237-0.212,0.521-0.377,0.852-0.493c0.332-0.116,0.694-0.173,1.089-0.173
  c0.378,0,0.757,0.06,1.133,0.178c0.38,0.121,0.755,0.285,1.125,0.493l-0.626,1.064L71.24,2.138
  c-0.294-0.161-0.545-0.283-0.752-0.365c-0.209-0.081-0.437-0.121-0.684-0.121c-0.362,0-0.672,0.095-0.925,0.283
  c-0.256,0.189-0.384,0.455-0.384,0.793c0,0.308,0.112,0.552,0.336,0.729s0.571,0.37,1.043,0.578c0.3,0.14,0.557,0.267,0.77,0.378
  c0.212,0.11,0.41,0.254,0.596,0.429c0.185,0.173,0.335,0.385,0.445,0.635c0.113,0.251,0.168,0.546,0.168,0.886
  c0,0.339-0.063,0.656-0.19,0.949c-0.128,0.293-0.312,0.551-0.551,0.771c-0.238,0.22-0.521,0.391-0.845,0.514
  c-0.324,0.124-0.679,0.186-1.065,0.186c-0.755,0-1.481-0.204-2.176-0.613L67.605,7.036z"/>
<path d="M73.752,0.611h2.258c1.011,0,1.752,0.212,2.224,0.637c0.47,0.425,0.705,1.025,0.705,1.806
  c0,0.401-0.077,0.754-0.231,1.06c-0.154,0.305-0.367,0.56-0.637,0.764c-0.271,0.204-0.579,0.357-0.932,0.457
  c-0.352,0.1-0.724,0.149-1.116,0.149H75.2l-0.012,3.139h-1.518L73.752,0.611z M75.975,4.28c0.408,0,0.746-0.114,1.012-0.342
  c0.267-0.228,0.4-0.526,0.4-0.896c0-0.139-0.021-0.278-0.063-0.418c-0.043-0.138-0.116-0.269-0.221-0.392
  c-0.103-0.125-0.244-0.225-0.424-0.302c-0.177-0.076-0.392-0.115-0.646-0.115h-0.787L75.222,4.28H75.975z"/>
<path d="M80.327,8.783L78.95,8.366l3.08-7.755h1.365l2.859,7.755l-1.447,0.417l-0.786-2.291H81.23L80.327,8.783z
   M82.689,2.163h-0.024l-1.006,3.125h1.957L82.689,2.163z"/>
<path d="M88.06,0.611h2.535c0.471,0,0.881,0.06,1.228,0.179c0.347,0.12,0.631,0.285,0.85,0.493
  c0.221,0.209,0.383,0.452,0.486,0.729c0.104,0.278,0.157,0.583,0.157,0.915c0,0.501-0.139,0.931-0.417,1.29
  c-0.278,0.359-0.656,0.625-1.134,0.793l2.28,2.986l-1.32,0.788l-2.223-3.09c-0.131-0.187-0.309-0.278-0.532-0.278h-0.463
  l-0.012,3.207h-1.517L88.06,0.611z M90.445,4.21c0.131,0,0.27-0.016,0.418-0.052c0.146-0.034,0.289-0.098,0.428-0.19
  s0.253-0.22,0.341-0.383c0.089-0.162,0.134-0.366,0.134-0.613c0-0.369-0.129-0.655-0.383-0.856c-0.255-0.2-0.578-0.3-0.972-0.3
  h-0.857L89.531,4.21H90.445z"/>
<path d="M95.886,0.611h4.283v1.273h-2.803l-0.022,2.061h2.779v1.204h-2.791l-0.011,2.199h2.848v1.275h-4.364
  L95.886,0.611z"/>
<path d="M102.208,0.865l1.377-0.416l3.739,6.135h0.023l-0.094-5.973h1.481l-0.069,7.755l-1.492,0.417
  l-3.646-6.102l-0.024,0.024l0.116,5.916h-1.482L102.208,0.865z"/>
<path d="M117.267,8.008c-0.363,0.255-0.763,0.448-1.198,0.579c-0.437,0.132-0.886,0.197-1.349,0.197
  c-0.587,0-1.135-0.103-1.644-0.306c-0.51-0.206-0.954-0.495-1.331-0.87c-0.379-0.374-0.671-0.816-0.874-1.325
  c-0.206-0.51-0.307-1.058-0.307-1.644c0-0.61,0.1-1.173,0.301-1.69c0.2-0.517,0.483-0.96,0.85-1.331
  c0.366-0.37,0.804-0.658,1.31-0.862c0.505-0.205,1.051-0.307,1.638-0.307c0.486,0,0.953,0.079,1.4,0.236
  c0.447,0.159,0.853,0.389,1.216,0.689l-0.648,1.03c-0.239-0.208-0.538-0.374-0.897-0.499c-0.36-0.124-0.7-0.185-1.024-0.185
  c-0.385,0-0.738,0.072-1.058,0.214c-0.322,0.143-0.596,0.344-0.823,0.602c-0.227,0.259-0.404,0.562-0.526,0.91
  c-0.124,0.347-0.186,0.722-0.186,1.123c0,0.378,0.062,0.744,0.186,1.099c0.122,0.354,0.301,0.671,0.533,0.948
  c0.23,0.279,0.502,0.497,0.816,0.654c0.312,0.159,0.647,0.238,1.012,0.238c0.463,0,0.841-0.044,1.135-0.134
  c0.293-0.087,0.586-0.217,0.881-0.386L117.267,8.008z"/>
<path d="M120.717,5.299l-2.651-4.087l1.355-0.763l2.095,3.426l2.178-3.426L125,1.201l-2.731,4.052l-0.046,3.369
  h-1.552L120.717,5.299z"/>
<path d="M37.185,27.802c0.209,0.147,0.446,0.274,0.713,0.383c0.266,0.108,0.499,0.162,0.7,0.162
  c0.393,0,0.706-0.11,0.938-0.329c0.231-0.221,0.347-0.498,0.347-0.828c0-0.31-0.105-0.546-0.318-0.712
  c-0.212-0.167-0.546-0.347-1.001-0.538c-0.316-0.14-0.575-0.264-0.776-0.371c-0.2-0.108-0.393-0.249-0.579-0.422
  c-0.185-0.174-0.334-0.392-0.445-0.654c-0.113-0.264-0.168-0.58-0.168-0.949c0-0.324,0.063-0.63,0.191-0.915
  c0.127-0.286,0.309-0.534,0.544-0.746c0.235-0.212,0.519-0.377,0.852-0.491c0.332-0.116,0.694-0.174,1.087-0.174
  c0.378,0,0.757,0.059,1.135,0.178c0.377,0.121,0.751,0.284,1.122,0.492l-0.625,1.064l-0.081-0.044
  c-0.293-0.163-0.544-0.284-0.753-0.364c-0.208-0.083-0.435-0.123-0.683-0.123c-0.363,0-0.671,0.096-0.926,0.284
  c-0.254,0.188-0.381,0.453-0.381,0.792c0,0.31,0.112,0.553,0.335,0.729c0.224,0.178,0.572,0.371,1.042,0.58
  c0.301,0.138,0.558,0.264,0.77,0.376c0.212,0.11,0.411,0.255,0.597,0.429c0.185,0.174,0.333,0.386,0.446,0.637
  c0.111,0.25,0.168,0.546,0.168,0.886c0,0.339-0.064,0.656-0.191,0.947c-0.127,0.295-0.311,0.552-0.551,0.771
  c-0.239,0.221-0.521,0.391-0.844,0.515c-0.324,0.124-0.68,0.187-1.066,0.187c-0.755,0-1.48-0.205-2.175-0.613L37.185,27.802z"/>
<path d="M42.985,21.378h1.481l-0.069,6.737h3.138v1.273h-4.62L42.985,21.378z"/>
<path d="M48.594,23.757c0.221-0.505,0.528-0.949,0.92-1.331c0.395-0.383,0.853-0.678,1.378-0.893
  c0.524-0.212,1.08-0.316,1.667-0.316c0.642,0,1.226,0.104,1.754,0.316c0.528,0.215,0.982,0.509,1.36,0.887
  c0.379,0.379,0.67,0.821,0.874,1.331s0.307,1.054,0.307,1.633s-0.108,1.121-0.324,1.626c-0.215,0.505-0.521,0.949-0.914,1.33
  c-0.393,0.384-0.851,0.68-1.372,0.892c-0.521,0.214-1.082,0.319-1.685,0.319c-0.602,0-1.165-0.103-1.691-0.307
  c-0.524-0.205-0.981-0.493-1.371-0.869c-0.39-0.373-0.692-0.817-0.908-1.332c-0.217-0.512-0.324-1.066-0.324-1.659
  C48.265,24.805,48.374,24.264,48.594,23.757z M50.011,26.581c0.132,0.368,0.317,0.683,0.555,0.942
  c0.24,0.265,0.529,0.467,0.869,0.609c0.339,0.144,0.713,0.214,1.123,0.214c0.402,0,0.772-0.077,1.111-0.231
  c0.341-0.154,0.631-0.371,0.875-0.649c0.243-0.276,0.43-0.595,0.562-0.953c0.131-0.358,0.196-0.735,0.196-1.129
  c0-0.425-0.065-0.818-0.196-1.181c-0.132-0.363-0.317-0.677-0.556-0.943c-0.24-0.268-0.531-0.473-0.875-0.619
  c-0.343-0.146-0.715-0.221-1.117-0.221c-0.338,0-0.671,0.069-0.995,0.203c-0.324,0.135-0.619,0.331-0.886,0.589
  c-0.266,0.26-0.475,0.573-0.63,0.944c-0.155,0.369-0.232,0.779-0.232,1.228C49.815,25.815,49.881,26.215,50.011,26.581z"/>
<path d="M57.12,21.691l1.493-0.475l2.049,6.297h0.023l2.304-6.297l1.436,0.475l-3.056,7.697H59.98L57.12,21.691z"/>
<path d="M72.394,21.377h1.482l-0.023,3.738h0.059l3.275-3.9l1.101,0.879l-2.86,3.16l2.825,3.438l-1.204,0.857
  l-3.172-4.029h-0.023l-0.034,3.867h-1.482L72.394,21.377z"/>
<path d="M65.192,29.469l-1.378-0.419l3.079-7.755h1.365l2.859,7.755l-1.446,0.419l-0.786-2.293h-2.792
  L65.192,29.469z M67.552,22.846h-0.023l-1.006,3.125h1.956L67.552,22.846z"/>
<path d="M83.824,29.469l-1.377-0.419l3.079-7.755h1.366l2.859,7.755l-1.446,0.419l-0.788-2.293h-2.79L83.824,29.469
  z M86.186,22.846h-0.023l-1.007,3.125h1.956L86.186,22.846z"/>
<path d="M79.772,21.376h1.481l-0.069,8.011h-1.482L79.772,21.376z"/>
<path d="M37.798,10.837h1.482l-0.07,8.011h-1.481L37.798,10.837z"/>
<path d="M41.063,11.092l1.376-0.418l3.741,6.135h0.022l-0.092-5.973h1.481l-0.069,7.755l-1.495,0.418l-3.646-6.101
  l-0.023,0.023l0.116,5.916h-1.481L41.063,11.092z"/>
<path d="M50.96,12.111h-2.247l0.012-1.274h5.939l-0.013,1.274h-2.211l-0.058,6.736h-1.481L50.96,12.111z"/>
<path d="M55.868,10.837h4.283v1.274h-2.802l-0.023,2.059h2.779v1.204h-2.79l-0.012,2.2h2.848v1.273h-4.364
  L55.868,10.837z"/>
<path d="M62.119,10.837h2.536c0.47,0,0.88,0.06,1.227,0.181c0.348,0.119,0.632,0.282,0.852,0.491
  c0.22,0.208,0.382,0.451,0.484,0.729c0.104,0.277,0.158,0.582,0.158,0.914c0,0.502-0.14,0.932-0.417,1.292
  c-0.278,0.358-0.657,0.623-1.135,0.792l2.281,2.987l-1.321,0.787l-2.222-3.092c-0.132-0.186-0.309-0.277-0.533-0.277h-0.463
  l-0.012,3.207h-1.517L62.119,10.837z M64.504,14.438c0.131,0,0.271-0.018,0.417-0.052c0.146-0.036,0.289-0.1,0.429-0.192
  c0.139-0.093,0.252-0.22,0.342-0.383c0.088-0.161,0.133-0.366,0.133-0.613c0-0.37-0.127-0.654-0.383-0.856
  c-0.254-0.201-0.577-0.3-0.972-0.3h-0.856l-0.023,2.396H64.504z"/>
<path d="M69.506,11.092l1.376-0.418l3.74,6.135h0.022l-0.093-5.973h1.483l-0.07,7.755L74.47,19.01l-3.646-6.101
  l-0.022,0.023l0.114,5.916h-1.48L69.506,11.092z"/>
<path d="M78.5,19.01l-1.378-0.418l3.079-7.755h1.366l2.858,7.755l-1.446,0.418l-0.786-2.291h-2.791L78.5,19.01z
  M80.861,12.388h-0.023l-1.006,3.125h1.956L80.861,12.388z"/>
<path d="M86.428,12.111h-2.244l0.01-1.274h5.939l-0.011,1.274h-2.212l-0.058,6.736h-1.482L86.428,12.111z"/>
<path d="M91.28,10.837h1.481l-0.068,8.011H91.21L91.28,10.837z"/>
<path d="M94.446,13.216c0.22-0.506,0.527-0.949,0.92-1.332c0.394-0.382,0.854-0.679,1.378-0.892
  c0.525-0.212,1.081-0.318,1.667-0.318c0.642,0,1.225,0.106,1.754,0.318c0.529,0.213,0.981,0.508,1.359,0.887
  c0.379,0.377,0.669,0.821,0.875,1.331c0.204,0.51,0.307,1.054,0.307,1.632c0,0.58-0.108,1.121-0.324,1.627
  s-0.521,0.949-0.915,1.331s-0.851,0.679-1.372,0.892c-0.521,0.211-1.082,0.318-1.684,0.318c-0.603,0-1.166-0.103-1.69-0.307
  c-0.524-0.205-0.981-0.494-1.372-0.868c-0.39-0.374-0.692-0.818-0.908-1.332c-0.216-0.513-0.323-1.067-0.323-1.661
  C94.117,14.264,94.226,13.721,94.446,13.216z M95.865,16.041c0.131,0.365,0.315,0.68,0.556,0.942
  c0.238,0.264,0.528,0.466,0.867,0.608c0.34,0.143,0.714,0.214,1.123,0.214c0.4,0,0.771-0.076,1.111-0.231
  c0.339-0.154,0.631-0.371,0.875-0.648c0.242-0.277,0.43-0.596,0.561-0.955c0.131-0.358,0.197-0.735,0.197-1.129
  c0-0.425-0.066-0.817-0.197-1.18c-0.131-0.363-0.316-0.677-0.557-0.943c-0.238-0.267-0.531-0.473-0.873-0.619
  c-0.344-0.147-0.717-0.22-1.117-0.22c-0.339,0-0.672,0.067-0.995,0.203c-0.324,0.134-0.62,0.331-0.886,0.589
  c-0.267,0.259-0.477,0.572-0.631,0.943c-0.154,0.37-0.232,0.78-0.232,1.227C95.667,15.274,95.733,15.674,95.865,16.041z"/>
<path d="M104.175,11.092l1.379-0.418l3.739,6.135h0.023l-0.094-5.973h1.481l-0.068,7.755l-1.494,0.418
  l-3.646-6.101l-0.023,0.023l0.116,5.916h-1.481L104.175,11.092z"/>
<path d="M113.17,19.01l-1.377-0.418l3.08-7.755h1.365l2.86,7.755l-1.447,0.418l-0.787-2.291h-2.791L113.17,19.01z
  M115.532,12.388h-0.023l-1.006,3.125h1.956L115.532,12.388z"/>
<path d="M120.337,10.837h1.48l-0.068,6.737h3.138v1.273h-4.62L120.337,10.837z"/>
<path d="M11.422,9.137c0,1.336,1.105,2.419,2.469,2.419c1.363,0,2.469-1.083,2.469-2.419
  c0-1.335-1.105-2.418-2.469-2.418C12.527,6.718,11.422,7.801,11.422,9.137"/>
<path d="M1.411,14.565c0-0.435,0.021-0.864,0.061-1.288c0.403,0.688,1.188,1.359,2.111,1.963
  c-0.054,2.042,0.056,5.461,0.618,7.595C2.453,20.553,1.411,17.682,1.411,14.565 M17.646,18.434
  c3.817-0.58,6.626-2.363,8.175-3.776c0.594-0.542,1.771-2.527,1.779-3.209c0.184,0.954,0.272,1.982,0.272,3.117
  c0,6.476-4.178,11.607-10.157,13.098c-0.291-0.003-0.54,0.003-0.871-0.118c-0.256-0.094-0.553-0.451-0.609-0.523
  c-1.241-1.569-1.592-3.689-1.701-4.105c-0.204-0.775-0.196-2.17-0.111-3.282c0.002-0.03-4.508-0.802-4.537-0.608
  c-0.121,0.812,0.039,2.422,0.222,3.195c0.212,0.9,0.688,2.379,1.065,3.35c0.317,0.82,0.961,1.713,1.575,2.321
  c-0.356-0.014-0.682-0.054-1.03-0.194c-0.632-0.251-1.356-1.354-1.541-1.629c-0.524-0.789-0.96-2.311-1.162-3.236
  c-0.235-1.074-0.533-3.513-0.416-4.605c0.021-0.196,0.048-0.408,0.078-0.629c1.832,0.509,4.989,0.939,7.308,0.939
  C16.615,18.537,17.184,18.504,17.646,18.434 M2.7,8.76C4.365,5.22,7.505,2.535,11.31,1.529C10.585,1.955,9.87,2.487,9.471,2.874
  C8.31,3.997,6.488,6.36,5.779,7.811c-0.251,0.513-0.562,1.22-0.87,1.999C3.907,9.34,3.062,8.935,2.7,8.76 M0,15
  c0,8.038,6.499,14.551,14.514,14.551s14.617-6.492,14.617-14.53c0-4.562-1.192-9.064-4.707-11.166
  c-0.17-0.101-0.855-0.451-0.896-0.256c-0.076,0.374,2.188,1.687,2.254,3.508c0.031,0.85-0.765,3.552-5.45,5.074
  c-1.151,0.374-3.76,0.622-4.97,0.619c-1.479-0.004-4.201-0.404-5.601-0.88c-0.056-0.02-0.116-0.04-0.18-0.064
  c0.459-3.761,2.421-7.299,3.821-8.274c2.264-1.578,3.926-1.911,4.514-1.905c0.486,0.005,1.135,0.064,1.785,0.263
  c0.25,0.079,0.981,0.367,1.109,0.23c0.228-0.247-0.857-0.748-1.204-0.894c-1.014-0.425-3.03-0.826-5.093-0.826
  C6.498,0.449,0,6.963,0,15"/>
</svg>
