<?xml version="1.0" encoding="UTF-8" standalone="no"?>
<svg
   xmlns:dc="http://purl.org/dc/elements/1.1/"
   xmlns:cc="http://creativecommons.org/ns#"
   xmlns:rdf="http://www.w3.org/1999/02/22-rdf-syntax-ns#"
   xmlns:svg="http://www.w3.org/2000/svg"
   xmlns="http://www.w3.org/2000/svg"
   viewBox="0 0 1269.5239 400"
   height="400"
   width="1269.5239"
   xml:space="preserve"
   id="svg2"
   version="1.1"><metadata
     id="metadata8"><rdf:RDF><cc:Work
         rdf:about=""><dc:format>image/svg+xml</dc:format><dc:type
           rdf:resource="http://purl.org/dc/dcmitype/StillImage" /><dc:title></dc:title></cc:Work></rdf:RDF></metadata><defs
     id="defs6"><clipPath
       id="clipPath18"
       clipPathUnits="userSpaceOnUse"><path
         id="path16"
         d="M 0,500 H 1200 V 0 H 0 Z" /></clipPath><clipPath
       id="clipPath30"
       clipPathUnits="userSpaceOnUse"><path
         id="path28"
         d="m 1057.02,286.836 h 19.05 v -19.199 h -19.05 z" /></clipPath></defs><g
     transform="matrix(1.3333333,0,0,-1.3333333,-165.236,533.33385)"
     id="g10"><g
       id="g12"><g
         clip-path="url(#clipPath18)"
         id="g14"><g
           transform="translate(1041.125,222.3174)"
           id="g20"><path
             id="path22"
             style="stroke:none"
             d="m 0,0 c -3.914,-3.914 -10.208,-7.126 -16.918,-7.126 -13.421,0 -22.225,8.946 -22.225,22.367 v 33.271 h -5.032 c -3.355,0 -6.014,2.653 -6.014,6.008 0,3.355 2.659,6.015 6.014,6.015 h 5.032 v 23.901 c 0,4.194 2.933,7.413 6.711,7.413 3.771,0 6.71,-3.219 6.71,-7.413 V 60.535 h 15.235 c 3.354,0 6.014,-2.66 6.014,-6.015 0,-3.355 -2.66,-6.008 -6.014,-6.008 H -25.722 V 15.241 c 0,-6.99 4.188,-10.345 8.804,-10.345 4.33,0 6.431,1.814 9.506,4.61 2.939,2.516 6.294,2.1 8.388,0 C 2.796,7.692 3.492,3.498 0,0 m -60.813,54.52 c 0,-3.355 -2.66,-6.008 -6.015,-6.008 -11.184,0 -16.912,-9.09 -16.912,-20.69 V 1.398 c 0,-4.194 -2.933,-7.406 -6.71,-7.406 -3.778,0 -6.71,3.212 -6.71,7.406 v 51.724 c 0,4.194 2.932,7.413 6.71,7.413 3.777,0 6.71,-3.219 6.71,-7.413 v -1.255 c 4.051,5.312 9.506,8.668 16.08,8.668 4.187,0 6.847,-2.66 6.847,-6.015 m -67.102,-27.257 c 0,13.141 -8.108,22.367 -19.994,22.367 -12.302,0 -19.845,-9.226 -19.845,-22.367 0,-13.284 7.686,-22.367 19.845,-22.367 11.886,0 19.994,9.083 19.994,22.367 m 13.699,0 c 0,-18.875 -13.979,-34.389 -33.693,-34.389 -19.845,0 -33.551,15.514 -33.551,34.389 0,18.869 13.706,34.39 33.551,34.39 19.714,0 33.693,-15.521 33.693,-34.39 m -96.595,0 c 0,13.278 -8.387,22.367 -20.13,22.367 -12.165,0 -21.113,-9.089 -21.113,-22.367 0,-13.42 8.811,-22.367 21.113,-22.367 11.743,0 20.13,8.947 20.13,22.367 m 13.694,0 c 0,-18.875 -13.694,-34.389 -32.289,-34.389 -9.227,0 -16.633,3.491 -21.809,9.226 v -31.457 c 0,-4.194 -2.938,-7.406 -6.71,-7.406 -3.771,0 -6.71,3.212 -6.71,7.406 v 82.479 c 0,4.194 2.939,7.413 6.71,7.413 3.772,0 6.71,-3.219 6.71,-7.413 v -0.696 c 5.176,5.729 12.582,9.227 21.809,9.227 18.595,0 32.289,-15.378 32.289,-34.39 m -98.273,0 c 0,13.278 -8.387,22.367 -20.131,22.367 -12.158,0 -21.105,-9.089 -21.105,-22.367 0,-13.42 8.804,-22.367 21.105,-22.367 11.744,0 20.131,8.947 20.131,22.367 m 13.701,0 c 0,-18.875 -13.701,-34.389 -32.296,-34.389 -9.221,0 -16.633,3.491 -21.809,9.226 v -31.457 c 0,-4.194 -2.933,-7.406 -6.71,-7.406 -3.771,0 -6.71,3.212 -6.71,7.406 v 82.479 c 0,4.194 2.939,7.413 6.71,7.413 3.777,0 6.71,-3.219 6.71,-7.413 v -0.696 c 5.176,5.729 12.588,9.227 21.809,9.227 18.595,0 32.296,-15.378 32.296,-34.39 m -85.978,25.859 V 22.367 c 0,-17.751 -13.134,-29.493 -29.493,-29.493 -16.36,0 -29.637,11.742 -29.637,29.493 v 30.755 c 0,4.194 2.939,7.413 6.71,7.413 3.772,0 6.71,-3.219 6.71,-7.413 V 22.367 c 0,-11.742 7.27,-17.471 16.217,-17.471 8.946,0 16.073,5.729 16.073,17.471 v 30.755 c 0,4.194 2.939,7.413 6.71,7.413 3.777,0 6.71,-3.219 6.71,-7.413 m -76.185,-40.397 c 0,-11.886 -11.463,-19.851 -24.181,-19.851 -10.066,0 -18.453,4.05 -22.654,7.548 -3.068,2.517 -3.068,6.568 -0.559,8.948 2.523,2.373 5.735,2.093 8.674,0.136 3.492,-2.373 9.084,-4.61 14.539,-4.61 6.424,0 10.481,3.076 10.481,7.27 0,11.599 -35.085,7.269 -35.085,30.195 0,10.904 10.065,19.292 23.486,19.292 7.405,0 13.133,-1.821 17.893,-4.896 3.914,-2.517 4.474,-6.99 2.094,-9.363 -2.517,-2.517 -5.872,-2.517 -8.947,-0.703 -3.355,1.821 -6.853,2.939 -11.04,2.939 -5.735,0 -9.793,-2.796 -9.793,-7.269 0,-11.743 35.092,-6.573 35.092,-29.636 m -78.565,14.538 c 0,13.278 -8.387,22.367 -20.13,22.367 -12.159,0 -21.106,-9.089 -21.106,-22.367 0,-13.42 8.804,-22.367 21.106,-22.367 11.743,0 20.13,8.947 20.13,22.367 m 13.7,0 c 0,-18.875 -13.7,-34.389 -32.296,-34.389 -9.219,0 -16.632,3.491 -21.808,9.226 V 1.398 c 0,-4.194 -2.932,-7.406 -6.71,-7.406 -3.771,0 -6.71,3.212 -6.71,7.406 v 86.393 c 0,4.194 2.939,7.413 6.71,7.413 3.778,0 6.71,-3.219 6.71,-7.413 V 52.426 c 5.176,5.729 12.589,9.227 21.808,9.227 18.596,0 32.296,-15.378 32.296,-34.39 m -135.322,5.872 h 37.466 c -1.678,10.761 -7.692,16.495 -18.174,16.495 -10.344,0 -17.334,-6.573 -19.292,-16.495 m 50.606,-6.99 c -0.143,-2.517 -2.236,-4.194 -4.753,-4.194 h -45.989 c 1.534,-10.345 7.965,-17.055 20.267,-17.055 5.455,0 11.88,2.094 15.657,4.89 3.076,2.1 6.288,2.236 8.668,-0.137 2.379,-2.379 1.677,-6.71 -1.398,-9.227 -6.431,-5.312 -14.962,-7.548 -22.927,-7.548 -21.945,0 -34.389,15.514 -34.389,34.389 0,18.869 14.538,34.39 33.55,34.39 20.274,0 33.135,-16.496 31.314,-35.508 m -76.191,26.002 -24.321,-52.706 c -1.957,-4.194 -5.871,-6.567 -10.345,-6.567 -4.473,0 -8.388,2.373 -10.345,6.567 l -21.109,46.412 -21.109,-46.412 c -1.957,-4.194 -5.871,-6.567 -10.345,-6.567 -4.473,0 -8.387,2.373 -10.344,6.567 l -21.109,46.412 -21.11,-46.412 c -1.957,-4.194 -5.871,-6.567 -10.344,-6.567 -4.474,0 -8.388,2.373 -10.345,6.567 l -24.324,52.706 c -1.538,3.355 -0.141,7.269 3.215,8.804 3.495,1.677 7.409,0.143 8.947,-3.212 l 22.507,-50.749 21.528,48.232 c 1.817,3.915 5.592,6.431 9.926,6.431 4.333,0 8.247,-2.516 9.925,-6.431 l 21.528,-48.232 21.529,48.232 c 1.817,3.915 5.591,6.431 9.925,6.431 4.334,0 8.248,-2.516 9.926,-6.431 l 21.528,-48.232 22.507,50.749 c 1.538,3.355 5.449,4.889 8.947,3.212 3.355,-1.535 4.753,-5.449 3.212,-8.804 m 41.106,-82.063 c -21.535,-53.402 -75.492,-92.401 -138.68,-92.401 -82.759,0 -150,67.238 -150,149.996 0,82.759 67.241,150.004 150,150.004 63.188,0 117.145,-39.006 138.68,-92.408 1.814,-4.474 -0.286,-7.549 -3.082,-8.668 -2.51,-1.118 -6.71,-0.838 -8.804,4.194 -20.546,49.351 -69.617,84.3 -126.794,84.3 -75.769,0 -137.418,-61.653 -137.418,-137.422 0,-75.768 61.649,-137.415 137.418,-137.415 57.177,0 106.248,34.949 126.794,84.293 2.094,5.033 6.294,5.313 8.947,4.194 2.653,-1.118 4.753,-4.194 2.939,-8.667" /></g><g
           id="g24"><g
             id="g26" /><g
             id="g38"><g
               style="opacity:0.5"
               id="g36"
               clip-path="url(#clipPath30)"><g
                 id="g34"
                 transform="translate(1067.2939,277.1621)"><path
                   id="path32"
                   style="stroke:none"
                   d="M 0,0 C 1.19,0 2.081,0.895 2.081,1.937 2.081,2.98 1.19,3.722 0,3.722 H -2.828 V 0 Z M 1.038,-1.191 3.421,-5.057 H 1.784 l -2.086,3.718 H -2.828 V -5.057 H -4.167 V 5.062 H 0 c 1.933,0 3.421,-1.488 3.421,-3.125 0,-1.487 -0.891,-2.679 -2.383,-3.128 m 6.55,1.339 c 0,4.469 -3.871,8.186 -8.334,8.186 -4.612,0 -8.334,-3.717 -8.334,-8.186 0,-4.612 3.722,-8.334 8.334,-8.334 4.616,0 8.334,3.722 8.334,8.334 m 1.19,0 c 0,-5.354 -4.314,-9.673 -9.524,-9.673 -5.21,0 -9.525,4.319 -9.525,9.673 0,5.21 4.315,9.526 9.525,9.526 5.21,0 9.524,-4.316 9.524,-9.526" /></g></g></g></g></g></g></g></svg>
