<?xml version="1.0" encoding="utf-8"?>
<svg version="1.1" xmlns="http://www.w3.org/2000/svg" x="0px" y="0px"
	 width="64px" height="64px" viewBox="0 0 64 64" enable-background="new 0 0 64 64" xml:space="preserve">
<path d="M60,58c0-2.209-1.791-4-4-4h-2V25h6c1.794,0,3.368-1.193,3.852-2.922c0.484-1.727-0.242-3.566-1.775-4.497
  l-28-17C33.438,0.194,32.719,0,32,0s-1.438,0.193-2.076,0.581l-28,17c-1.533,0.931-2.26,2.771-1.775,4.497
  C0.632,23.807,2.207,25,4,25h6v29H8c-2.209,0-4,1.791-4,4c-2.209,0-4,1.791-4,4v2h64v-2C64,59.791,62.209,58,60,58z M4,23
  c-0.893,0-1.686-0.601-1.926-1.462c-0.241-0.858,0.124-1.784,0.888-2.247l28-17C31.275,2.1,31.634,2,32,2s0.725,0.1,1.038,0.291
  l28,17c0.764,0.463,1.129,1.389,0.888,2.248C61.685,22.399,60.893,23,60,23H4z M52,25v29h-4V25H52z M46,25v29h-4V25H46z M40,25v29
  h-4V25H40z M34,25v29h-4V25H34z M28,25v29h-4V25H28z M22,25v29h-4V25H22z M16,25v29h-4V25H16z M8,56h48c1.104,0,2,0.896,2,2H6
  C6,56.896,6.896,56,8,56z M2,62c0-1.104,0.896-2,2-2h56c1.104,0,2,0.896,2,2H2z"/>
<path d="M32,9c-2.762,0-5,2.238-5,5s2.238,5,5,5s5-2.238,5-5S34.762,9,32,9z M32,17c-1.657,0-3-1.343-3-3
  s1.343-3,3-3s3,1.343,3,3S33.657,17,32,17z"/>
</svg>
