<?xml version="1.0" encoding="utf-8"?>
<svg version="1.1" xmlns="http://www.w3.org/2000/svg" x="0px" y="0px"
	 width="64px" height="64px" viewBox="0 0 64 64" enable-background="new 0 0 64 64" xml:space="preserve">
<path d="M14,24c0,0.553,0.447,1,1,1h34c0.553,0,1-0.447,1-1s-0.447-1-1-1H15C14.447,23,14,23.447,14,24z"/>
<path d="M27,35H15c-0.553,0-1,0.447-1,1s0.447,1,1,1h12c0.553,0,1-0.447,1-1S27.553,35,27,35z"/>
<path d="M24,41h-9c-0.553,0-1,0.447-1,1s0.447,1,1,1h9c0.553,0,1-0.447,1-1S24.553,41,24,41z"/>
<path d="M50,30c0-0.553-0.447-1-1-1H15c-0.553,0-1,0.447-1,1s0.447,1,1,1h34C49.553,31,50,30.553,50,30z"/>
<path d="M15,18h16c0.553,0,1-0.447,1-1s-0.447-1-1-1H15c-0.553,0-1,0.447-1,1S14.447,18,15,18z"/>
<path d="M59.706,14.292L45.708,0.294C45.527,0.112,45.277,0,45,0H8C5.789,0,4,1.789,4,4v56c0,2.211,1.789,4,4,4h48
  c2.211,0,4-1.789,4-4V15C60,14.723,59.889,14.473,59.706,14.292z M46,3.414L56.586,14H46V3.414z M58,60c0,1.104-0.896,2-2,2H8
  c-1.104,0-2-0.896-2-2V4c0-1.104,0.896-2,2-2h36v13c0,0.553,0.447,1,1,1h13V60z"/>
<path d="M45.404,43.332c0.391-0.391,0.391-1.023,0-1.414l-3.536-3.535c-0.188-0.188-0.441-0.293-0.707-0.293
  c-0.265,0-0.52,0.105-0.707,0.293l-7.07,7.071c-0.391,0.392-0.391,1.023,0,1.414l3.535,3.535c0.391,0.391,1.023,0.391,1.414,0
  l1.768-1.768l7.071,7.071c0.391,0.391,1.023,0.391,1.414,0l2.121-2.121C50.896,53.397,51,53.144,51,52.878
  c0-0.265-0.104-0.519-0.293-0.707l-7.071-7.07L45.404,43.332z M37.626,48.282l-2.121-2.121l5.656-5.657l2.121,2.121L37.626,48.282z
   M48.586,52.878l-0.707,0.708l-6.364-6.364l0.707-0.707L48.586,52.878z"/>
<path d="M31.614,46.514c-0.391-0.391-1.023-0.391-1.414,0s-0.391,1.023,0,1.414l5.657,5.657
  c0.391,0.391,1.023,0.391,1.414,0s0.391-1.023,0-1.414L31.614,46.514z"/>
<path d="M41.515,35.2c-0.392,0.391-0.392,1.023,0,1.414l5.655,5.656c0.392,0.391,1.023,0.391,1.415,0
  c0.391-0.391,0.391-1.023,0-1.414L42.929,35.2C42.537,34.81,41.905,34.81,41.515,35.2z"/>
</svg>
