<?xml version="1.0" encoding="utf-8"?>
<svg version="1.1" xmlns="http://www.w3.org/2000/svg" x="0px" y="0px"
	 width="24px" height="24px" viewBox="0 0 24 24" enable-background="new 0 0 24 24" xml:space="preserve">
<path d="M12,0C5.372,0,0,5.372,0,12c0,6.627,5.372,12,12,12s12-5.373,12-12C24,5.372,18.628,0,12,0z M15.813,6.804
	h-1.808c-0.355,0-0.717,0.37-0.717,0.646v1.842h2.52c-0.101,1.412-0.307,2.703-0.307,2.703h-2.227v8.004H9.961v-8.004H8.346V9.303
	h1.615V7.1c0-0.403-0.082-3.1,3.396-3.1h2.456V6.804z"/>
</svg>
