<?xml version="1.0" encoding="utf-8"?>
<svg version="1.1" xmlns="http://www.w3.org/2000/svg" xmlns:xlink="http://www.w3.org/1999/xlink" x="0px" y="0px"
	 width="500px" height="461.3px" viewBox="-55 166.7 500 461.3" enable-background="new -55 166.7 500 461.3" xml:space="preserve">
<path fill="#010101" d="M118.1,493.8c0,42.5-34.4,76.9-76.9,76.9s-76.9-34.4-76.9-76.9c0,0,19.2,38.5,76.9,38.5
	C98.8,532.3,118.1,493.8,118.1,493.8z"/>
<path fill="#010101" d="M41.2,590c-53,0-96.2-43.1-96.2-96.2c0-8.9,6.1-16.7,14.8-18.7c8.8-2,17.6,2.1,21.6,10.1
	c0.5,0.9,15.5,27.8,59.7,27.8c44.6,0,59.6-27.6,59.7-27.8c4-8,12.9-12.2,21.6-10.1c8.7,2,14.8,9.8,14.8,18.7
	C137.3,546.8,94.2,590,41.2,590z"/>
<path fill="#010101" d="M118.1,513c-10.6,0-19.2-8.6-19.2-19.2c0-22.8-30.6-101.2-57.7-164.1C14.1,392.6-16.5,471-16.5,493.8
	c0,10.6-8.6,19.2-19.2,19.2s-19.2-8.6-19.2-19.2c0-44.4,65.5-190.7,78.7-219.6c3.1-6.9,10-11.3,17.5-11.3s14.4,4.4,17.5,11.3
	c13.1,28.9,78.6,175.2,78.6,219.6C137.3,504.4,128.7,513,118.1,513z"/>
<path fill="#010101" d="M233.5,205.2c0-21.2-17.2-38.5-38.5-38.5c-21.2,0-38.5,17.2-38.5,38.5c0,14.2,7.8,26.5,19.2,33.1v380.1
	c0,5.3,4.3,9.6,9.6,9.6h19.2c5.3,0,9.6-4.3,9.6-9.6V238.3C225.7,231.7,233.5,219.4,233.5,205.2z"/>
<path fill="#010101" d="M246.3,302.3c-12.6,0-24.6-2.3-35.4-8.4c-6-3.3-11.3-7.6-15.9-12.8c-4.6,5.2-9.9,9.4-15.9,12.8
	c-31.4,17.5-72.4,4.1-108.6-7.8c-49.7-16.3-63.9-16.9-69-3.1c-3.7,10-14.8,15.1-24.7,11.4c-10-3.7-15.1-14.7-11.4-24.7
	c19.2-52.2,75.8-33.7,117-20.2c28.7,9.4,61.2,20,77.9,10.7c7.4-4.1,12.6-12.7,15.9-26.3c2.1-8.6,9.8-14.7,18.7-14.7
	c8.9,0,16.6,6.1,18.7,14.7c3.3,13.6,8.5,22.2,15.9,26.3c16.7,9.3,49.3-1.3,77.9-10.7c41.3-13.5,97.8-32,117.1,20.2
	c3.7,10-1.4,21-11.4,24.7c-10,3.7-21-1.4-24.7-11.4c-5.1-13.8-19.3-13.1-69,3.1C295.8,293.9,270.1,302.3,246.3,302.3z"/>
<path fill="#010101" d="M425.8,493.8c0,42.5-34.4,76.9-76.9,76.9S272,536.3,272,493.8c0,0,19.2,38.5,76.9,38.5
	C406.5,532.3,425.8,493.8,425.8,493.8z"/>
<path fill="#010101" d="M348.8,590c-53,0-96.2-43.1-96.2-96.2c0-8.9,6.1-16.7,14.8-18.7c8.8-2,17.6,2.1,21.6,10.1
	c0.5,0.9,15.5,27.8,59.7,27.8c44.6,0,59.6-27.6,59.7-27.8c4-8,12.9-12.2,21.6-10.1c8.7,2,14.8,9.8,14.8,18.7
	C445,546.8,401.9,590,348.8,590z"/>
<path fill="#010101" d="M425.8,513c-10.6,0-19.2-8.6-19.2-19.2c0-22.7-30.6-101.2-57.7-164.1c-27.1,62.9-57.7,141.3-57.7,164.1
	c0,10.6-8.6,19.2-19.2,19.2s-19.2-8.6-19.2-19.2c0-44.4,65.5-190.7,78.7-219.6c3.1-6.9,10-11.3,17.5-11.3s14.4,4.4,17.5,11.3
	c13,28.9,78.5,175.2,78.5,219.6C445,504.4,436.4,513,425.8,513z"/>
</svg>
