<?xml version="1.0" encoding="utf-8"?>
<svg version="1.1" xmlns="http://www.w3.org/2000/svg" x="0px" y="0px"
	 width="64px" height="64px" viewBox="0 0 64 64" enable-background="new 0 0 64 64" xml:space="preserve">
<path fill="#1B325F" d="M15.907,9.162c2.528,0,4.585-2.055,4.585-4.581S18.436,0,15.907,0s-4.586,2.055-4.586,4.581
  S13.379,9.162,15.907,9.162z M15.907,2c1.426,0,2.585,1.158,2.585,2.581s-1.159,2.581-2.585,2.581s-2.586-1.158-2.586-2.581
  S14.481,2,15.907,2z"/>
<path fill="#1B325F" d="M26.664,9.162c2.528,0,4.585-2.055,4.585-4.581S29.192,0,26.664,0s-4.586,2.055-4.586,4.581
  S24.136,9.162,26.664,9.162z M26.664,2c1.426,0,2.585,1.158,2.585,2.581s-1.159,2.581-2.585,2.581s-2.586-1.158-2.586-2.581
  S25.238,2,26.664,2z"/>
<path fill="#1B325F" d="M37.42,9.162c2.528,0,4.586-2.055,4.586-4.581S39.948,0,37.42,0s-4.585,2.055-4.585,4.581
  S34.892,9.162,37.42,9.162z M37.42,2c1.426,0,2.586,1.158,2.586,2.581s-1.16,2.581-2.586,2.581s-2.585-1.158-2.585-2.581
  S35.994,2,37.42,2z"/>
<path fill="#1B325F" d="M11.126,18.712c2.528,0,4.586-2.055,4.586-4.581S13.654,9.55,11.126,9.55s-4.585,2.055-4.585,4.581
  S8.598,18.712,11.126,18.712z M11.126,11.55c1.426,0,2.586,1.158,2.586,2.581s-1.16,2.581-2.586,2.581s-2.585-1.158-2.585-2.581
  S9.7,11.55,11.126,11.55z"/>
<path fill="#1B325F" d="M17.298,14.131c0,2.526,2.057,4.581,4.585,4.581s4.586-2.055,4.586-4.581S24.411,9.55,21.883,9.55
  S17.298,11.604,17.298,14.131z M21.883,11.55c1.426,0,2.586,1.158,2.586,2.581s-1.16,2.581-2.586,2.581s-2.585-1.158-2.585-2.581
  S20.457,11.55,21.883,11.55z"/>
<path fill="#1B325F" d="M28.054,14.131c0,2.526,2.058,4.581,4.586,4.581s4.586-2.055,4.586-4.581S35.168,9.55,32.64,9.55
  S28.054,11.604,28.054,14.131z M32.64,11.55c1.426,0,2.586,1.158,2.586,2.581s-1.16,2.581-2.586,2.581s-2.586-1.158-2.586-2.581
  S31.214,11.55,32.64,11.55z"/>
<path fill="#1B325F" d="M38.811,14.131c0,2.526,2.058,4.581,4.586,4.581s4.586-2.055,4.586-4.581S45.925,9.55,43.396,9.55
  S38.811,11.604,38.811,14.131z M43.396,11.55c1.426,0,2.586,1.158,2.586,2.581s-1.16,2.581-2.586,2.581s-2.586-1.158-2.586-2.581
  S41.971,11.55,43.396,11.55z"/>
<path fill="#1B325F" d="M48.177,9.162c2.528,0,4.586-2.055,4.586-4.581S50.705,0,48.177,0s-4.585,2.055-4.585,4.581
  S45.648,9.162,48.177,9.162z M48.177,2c1.426,0,2.586,1.158,2.586,2.581s-1.16,2.581-2.586,2.581s-2.585-1.158-2.585-2.581
  S46.751,2,48.177,2z"/>
<path fill="#1B325F" d="M49.567,14.131c0,2.526,2.057,4.581,4.585,4.581s4.586-2.055,4.586-4.581S56.681,9.55,54.152,9.55
  S49.567,11.604,49.567,14.131z M54.152,11.55c1.426,0,2.586,1.158,2.586,2.581s-1.16,2.581-2.586,2.581s-2.585-1.158-2.585-2.581
  S52.727,11.55,54.152,11.55z"/>
<path fill="#1B325F" d="M2.12,28.982h16.733c0.553,0,1-0.447,1-1v-4.724c0-1.783-1.452-3.234-3.236-3.234H4.356
  c-1.784,0-3.236,1.451-3.236,3.234v4.724C1.12,28.535,1.567,28.982,2.12,28.982z M3.12,23.259c0-0.681,0.555-1.234,1.236-1.234
  h12.261c0.682,0,1.236,0.554,1.236,1.234v3.724H3.12V23.259z"/>
<path fill="#1B325F" d="M25.87,20.024c-1.784,0-3.236,1.451-3.236,3.234v4.724c0,0.553,0.447,1,1,1h16.732c0.553,0,1-0.447,1-1
  v-4.724c0-1.783-1.452-3.234-3.236-3.234H25.87z M39.366,23.259v3.724H24.634v-3.724c0-0.681,0.555-1.234,1.236-1.234h12.26
  C38.812,22.024,39.366,22.578,39.366,23.259z"/>
<path fill="#1B325F" d="M44.146,23.259v4.724c0,0.553,0.447,1,1,1H61.88c0.553,0,1-0.447,1-1v-4.724
  c0-1.783-1.452-3.234-3.236-3.234H47.383C45.599,20.024,44.146,21.476,44.146,23.259z M60.88,23.259v3.724H46.146v-3.724
  c0-0.681,0.555-1.234,1.236-1.234h12.261C60.325,22.024,60.88,22.578,60.88,23.259z"/>
<path fill="#1B325F" d="M63,31.112H1c-0.553,0-1,0.447-1,1v5.521c0,0.553,0.447,1,1,1h4.976V63c0,0.553,0.447,1,1,1h50.049
  c0.553,0,1-0.447,1-1V38.633H63c0.553,0,1-0.447,1-1v-5.521C64,31.56,63.553,31.112,63,31.112z M62,36.633h-4.976
  c-0.553,0-1,0.447-1,1V62H7.976V37.633c0-0.553-0.447-1-1-1H2v-3.521h60V36.633z"/>
<path fill="#1B325F" d="M18.634,50.144c-0.001,0.016-0.009,0.028-0.009,0.044c0,0.024,0.007,0.046,0.007,0.069
  c0.001,0.062,0.006,0.122,0.018,0.183c0.13,2.584,2.167,4.186,5.413,4.186c3.242,0,5.279-1.6,5.412-4.18
  c0.013-0.062,0.018-0.123,0.019-0.187c0-0.024,0.007-0.046,0.007-0.071c0-0.012-0.006-0.021-0.007-0.032
  c-0.003-0.04-0.015-0.078-0.023-0.117c-0.018-0.114-0.048-0.22-0.101-0.317l-3.679-9.846h5.185V56H24.25c-0.552,0-1,0.447-1,1
  s0.448,1,1,1h15.5c0.552,0,1-0.447,1-1s-0.448-1-1-1h-6.875V39.875h5.264l-3.996,9.829c-0.056,0.097-0.089,0.202-0.109,0.316
  c-0.01,0.041-0.02,0.081-0.024,0.123C34.008,50.159,34,50.172,34,50.188c0,0.024,0.007,0.046,0.007,0.069
  c0.001,0.062,0.006,0.122,0.018,0.183c0.13,2.584,2.167,4.186,5.413,4.186c3.242,0,5.279-1.6,5.412-4.18
  c0.013-0.062,0.018-0.123,0.019-0.187c0-0.024,0.007-0.046,0.007-0.071c0-0.012-0.006-0.021-0.007-0.032
  c-0.003-0.04-0.015-0.078-0.023-0.117c-0.018-0.114-0.048-0.22-0.101-0.317l-4.183-11.195c-0.13-0.351-0.446-0.585-0.812-0.632
  v-0.019h-6.875v-1c0-0.553-0.448-1-1-1s-1,0.447-1,1v1H24.25v0.002c-0.396-0.018-0.773,0.244-0.927,0.621l-4.556,11.206
  c-0.056,0.097-0.089,0.202-0.109,0.316C18.648,50.062,18.639,50.102,18.634,50.144z M39.438,52.625c-1.24,0-2.662-0.27-3.206-1.375
  h6.412C42.1,52.355,40.678,52.625,39.438,52.625z M42.41,49.188h-5.898l3.074-7.561L42.41,49.188z M24.063,52.625
  c-1.24,0-2.662-0.27-3.206-1.375h6.412C26.725,52.355,25.303,52.625,24.063,52.625z M24.211,41.627l2.824,7.561h-5.898
  L24.211,41.627z"/>
</svg>
