<?xml version="1.0" encoding="utf-8"?>
<svg version="1.1" xmlns="http://www.w3.org/2000/svg" x="0px" y="0px"
	 width="64px" height="64px" viewBox="0 0 64 64" enable-background="new 0 0 64 64" xml:space="preserve">
<path fill="#1B325F" d="M25.882,22.467C25.91,22.419,26.18,22,26.998,22c0.808,0,1.096,0.436,1.111,0.458
  C28.287,22.803,28.637,23,28.999,23c0.153,0,0.311-0.035,0.457-0.111c0.49-0.253,0.684-0.856,0.431-1.347
  C29.592,20.969,28.651,20,26.998,20c-1.691,0-2.618,0.984-2.9,1.564c-0.234,0.482-0.034,1.045,0.439,1.299
  C25.012,23.117,25.61,22.931,25.882,22.467z"/>
<path fill="#1B325F" d="M34.539,22.862c0.475,0.255,1.073,0.068,1.345-0.396C35.912,22.419,36.182,22,37,22
  c0.809,0,1.096,0.436,1.111,0.458C38.289,22.803,38.639,23,39.001,23c0.154,0,0.311-0.035,0.457-0.111
  c0.491-0.253,0.685-0.856,0.431-1.347C39.594,20.969,38.653,20,37,20c-1.691,0-2.618,0.983-2.9,1.564
  C33.866,22.047,34.065,22.609,34.539,22.862z"/>
<path fill="#1B325F" d="M62.242,47.758l0.014-0.014c-3.239-2.634-6.865-4.874-10.839-6.643l-2.355-0.99
  c-2.771-1.063-5.709-1.887-8.798-2.461c1.385-1.498,2.631-3.353,3.605-5.503c-0.165,0.496-0.276,1.018-0.276,1.569
  c0,2.757,2.243,5,5,5s5-2.243,5-5c0-1.439-0.62-2.729-1.598-3.643c1.54-0.853,2.598-2.476,2.598-4.357
  c0-1.907-1.086-3.549-2.66-4.392c0.954-0.911,1.557-2.188,1.557-3.608c0-2.35-1.636-4.313-3.823-4.846C48.209,5.536,41.763,0,34,0
  h-4c-7.735,0-14.165,5.496-15.652,12.792c-2.401,0.364-4.254,2.423-4.254,4.925c0,1.501,0.679,2.834,1.73,3.752
  c-1.432,0.88-2.397,2.447-2.397,4.248c0,1.882,1.058,3.505,2.598,4.357c-0.978,0.913-1.598,2.203-1.598,3.643c0,2.757,2.243,5,5,5
  s5-2.243,5-5c0-0.504-0.097-0.98-0.236-1.438c0.975,2.112,2.209,3.937,3.579,5.411c-3.2,0.605-6.121,1.425-8.838,2.443
  l-2.347,0.963c-3.979,1.745-7.526,3.953-10.841,6.648l0.014,0.014C0.672,48.844,0,50.344,0,52v8c0,2.211,1.789,4,4,4h56
  c2.211,0,4-1.789,4-4v-8C64,50.344,63.328,48.844,62.242,47.758z M44.193,31.391c0.419-1.019,0.777-2.1,1.061-3.237
  c0.253,0.448,0.563,0.856,0.937,1.206C45.341,29.83,44.649,30.533,44.193,31.391z M48.593,36.717c-1.654,0-3-1.346-3-3s1.346-3,3-3
  s3,1.346,3,3S50.247,36.717,48.593,36.717z M49.593,28.717c-1.654,0-3-1.346-3-3s1.346-3,3-3s3,1.346,3,3
  S51.247,28.717,49.593,28.717z M15.094,14.717c0.319,0,0.622,0.063,0.911,0.157c0-0.263,0.141-0.664,0.257-1.417
  C17.462,6.944,23.14,2,30,2h4c6.834,0,12.494,4.906,13.724,11.383c0.092,0.763,0.164,1.123,0.16,1.396
  c0.161-0.027,0.438-0.063,0.605-0.063c1.654,0,3,1.346,3,3s-1.346,3-3,3c-1.548,0-2.811-1.183-2.969-2.689
  c-0.399-0.888-0.904-1.591-1.336-2.101c-0.014-0.017-0.028-0.032-0.042-0.049c-0.065-0.076-0.134-0.161-0.194-0.227
  c-0.001,0.003-0.002,0.006-0.003,0.009C42.48,14.031,40.363,13,38,13h-4c-2.209,0-4-1.791-4-4c0-0.553-0.447-1-1-1s-1,0.447-1,1
  c0,2.209-1.791,4-4,4c-3.097,0-5.645,2.348-5.965,5.358l-0.01-0.016c-0.289,1.354-1.492,2.374-2.932,2.374c-1.654,0-3-1.346-3-3
  S13.439,14.717,15.094,14.717z M14.427,22.717c1.654,0,3,1.346,3,3s-1.346,3-3,3s-3-1.346-3-3S12.772,22.717,14.427,22.717z
   M15.427,36.717c-1.654,0-3-1.346-3-3s1.346-3,3-3s3,1.346,3,3S17.081,36.717,15.427,36.717z M17.829,29.359
  c0.366-0.343,0.672-0.742,0.923-1.181c0.268,1.067,0.598,2.085,0.984,3.048C19.281,30.441,18.624,29.8,17.829,29.359z M20,22v-3
  c0-2.209,1.791-4,4-4c2.088,0,3.926-1.068,5-2.687C30.074,13.932,31.912,15,34,15h4c3.313,0,6,2.688,6,6v1c0,12-7.469,18-12,18
  S20,34,20,22z M25.677,39.439C27.76,41.084,29.99,42,32,42s4.24-0.916,6.323-2.561c2.743,0.378,5.399,1.018,7.966,1.857
  L32.598,54.988c-0.43,0.43-0.748,0.447-1.183,0.013L17.711,41.297C20.277,40.457,22.934,39.817,25.677,39.439z M62,60
  c0,1.104-0.896,2-2,2H4c-1.104,0-2-0.896-2-2v-8c0-1.104,0.447-2.104,1.172-2.828l-0.004-0.004c3.716-2.994,7.918-5.4,12.453-7.133
  l14.172,14.172c1.5,1.5,2.914,1.5,4.414,0l14.172-14.172c4.535,1.732,8.737,4.139,12.453,7.133l-0.004,0.004
  C61.553,49.896,62,50.896,62,52V60z"/>
</svg>
