<?xml version="1.0" encoding="utf-8"?>
<svg version="1.1" xmlns="http://www.w3.org/2000/svg" x="0px" y="0px"
	 width="64px" height="64px" viewBox="0 0 64 64" enable-background="new 0 0 64 64" xml:space="preserve">
<path fill="#1B325F" d="M14,24c0,0.553,0.447,1,1,1h34c0.553,0,1-0.447,1-1s-0.447-1-1-1H15C14.447,23,14,23.447,14,24z"/>
<path fill="#1B325F" d="M27,35H15c-0.553,0-1,0.447-1,1s0.447,1,1,1h12c0.553,0,1-0.447,1-1S27.553,35,27,35z"/>
<path fill="#1B325F" d="M24,41h-9c-0.553,0-1,0.447-1,1s0.447,1,1,1h9c0.553,0,1-0.447,1-1S24.553,41,24,41z"/>
<path fill="#1B325F" d="M15,31h34c0.553,0,1-0.447,1-1s-0.447-1-1-1H15c-0.553,0-1,0.447-1,1S14.447,31,15,31z"/>
<path fill="#1B325F" d="M15,18h16c0.553,0,1-0.447,1-1s-0.447-1-1-1H15c-0.553,0-1,0.447-1,1S14.447,18,15,18z"/>
<path fill="#1B325F" d="M59.706,14.292L45.708,0.294C45.527,0.112,45.277,0,45,0H8C5.789,0,4,1.789,4,4v56c0,2.211,1.789,4,4,4h48
  c2.211,0,4-1.789,4-4V15C60,14.723,59.889,14.473,59.706,14.292z M46,3.414L56.586,14H46V3.414z M58,60c0,1.104-0.896,2-2,2H8
  c-1.104,0-2-0.896-2-2V4c0-1.104,0.896-2,2-2h36v13c0,0.553,0.447,1,1,1h13V60z"/>
<path fill="#1B325F" d="M53.97,50.038c-0.018-0.114-0.048-0.22-0.101-0.317l-4.183-11.195c-0.13-0.351-0.446-0.585-0.812-0.632
  v-0.019H42v-1c0-0.553-0.448-1-1-1s-1,0.447-1,1v1h-6.625v0.002c-0.396-0.018-0.773,0.244-0.927,0.621l-4.556,11.206
  c-0.056,0.097-0.089,0.202-0.109,0.316c-0.01,0.041-0.02,0.081-0.024,0.123c-0.001,0.016-0.009,0.028-0.009,0.044
  c0,0.024,0.007,0.046,0.007,0.069c0.001,0.062,0.006,0.122,0.018,0.183c0.13,2.583,2.167,4.186,5.413,4.186
  c3.242,0,5.279-1.6,5.412-4.179c0.013-0.063,0.018-0.124,0.019-0.188c0-0.024,0.007-0.046,0.007-0.071
  c0-0.012-0.006-0.021-0.007-0.032c-0.003-0.04-0.015-0.078-0.023-0.117c-0.018-0.114-0.048-0.22-0.101-0.317l-3.679-9.846H40V56
  h-6.625c-0.552,0-1,0.447-1,1s0.448,1,1,1h15.5c0.552,0,1-0.447,1-1s-0.448-1-1-1H42V39.875h5.264l-3.996,9.829
  c-0.056,0.097-0.089,0.202-0.109,0.316c-0.01,0.041-0.02,0.081-0.024,0.123c-0.001,0.016-0.009,0.028-0.009,0.044
  c0,0.024,0.007,0.046,0.007,0.069c0.001,0.062,0.006,0.122,0.018,0.183c0.13,2.583,2.167,4.186,5.413,4.186
  c3.242,0,5.279-1.6,5.412-4.179c0.013-0.063,0.018-0.124,0.019-0.188c0-0.024,0.007-0.046,0.007-0.071
  c0-0.012-0.006-0.021-0.007-0.032C53.99,50.115,53.979,50.077,53.97,50.038z M33.336,41.627l2.824,7.561h-5.898L33.336,41.627z
   M33.188,52.625c-1.24,0-2.662-0.269-3.206-1.375h6.412C35.85,52.356,34.428,52.625,33.188,52.625z M51.535,49.188h-5.898
  l3.074-7.561L51.535,49.188z M48.563,52.625c-1.24,0-2.662-0.269-3.206-1.375h6.412C51.225,52.356,49.803,52.625,48.563,52.625z"/>
</svg>
