<?xml version="1.0" encoding="utf-8"?>
<svg version="1.1" xmlns="http://www.w3.org/2000/svg" x="0px" y="0px"
	 width="12px" height="12px" viewBox="0 0 12 12" enable-background="new 0 0 12 12" xml:space="preserve">
<g>
	<path fill="#E19E41" d="M8.991,1.823c-0.1-0.329-0.278-0.635-0.53-0.908c-0.25-0.271-0.588-0.494-1.002-0.663
		C7.05,0.084,6.538,0,5.936,0C5.468,0,4.981,0.063,4.493,0.188c-0.494,0.124-0.936,0.31-1.311,0.549L2.868,0.938l0.848,2.28
		l0.463-0.237c0.299-0.154,0.575-0.268,0.819-0.337c0.233-0.065,0.484-0.098,0.747-0.098c0.128,0,0.298,0.017,0.381,0.092
		c0.074,0.069,0.09,0.125,0.09,0.188c0,0.139-0.043,0.252-0.134,0.36C5.928,3.369,5.759,3.555,5.573,3.739
		C5.428,3.884,5.289,4.031,5.156,4.182C5.011,4.346,4.879,4.527,4.765,4.72c-0.115,0.196-0.21,0.41-0.278,0.634
		c-0.073,0.232-0.11,0.496-0.11,0.784c0,0.084,0.001,0.184,0.006,0.29c0.005,0.134,0.02,0.252,0.039,0.358l0.071,0.376h2.612
		L7.019,6.627C7.013,6.598,7.011,6.562,7.011,6.521V6.369c0-0.084,0.017-0.164,0.053-0.248C7.109,6.012,7.17,5.904,7.242,5.8
		c0.075-0.108,0.159-0.21,0.254-0.309C7.604,5.38,7.707,5.273,7.809,5.174c0.139-0.139,0.282-0.288,0.433-0.445
		c0.163-0.174,0.307-0.357,0.434-0.551c0.133-0.205,0.241-0.425,0.321-0.65c0.09-0.247,0.136-0.521,0.136-0.815
		C9.132,2.426,9.085,2.127,8.991,1.823z"/>
	<path fill="#E19E41" d="M5.745,8.724c-0.417,0-0.793,0.14-1.122,0.414c-0.242,0.203-0.529,0.579-0.529,1.224
		s0.287,1.021,0.529,1.223C4.95,11.859,5.327,12,5.745,12c0.415,0,0.793-0.141,1.12-0.416c0.347-0.29,0.529-0.713,0.529-1.223
		c0-0.509-0.183-0.933-0.529-1.224C6.536,8.863,6.159,8.724,5.745,8.724z"/>
</g>
</svg>
