<?xml version="1.0" encoding="utf-8"?>
<svg version="1.1" xmlns="http://www.w3.org/2000/svg" x="0px" y="0px"
	 width="16px" height="16px" viewBox="0 0 16 16" enable-background="new 0 0 16 16" xml:space="preserve">
<path d="M15.707,14.292l-3.106-3.105C13.476,10.018,14,8.572,14,7c0-3.866-3.134-7-7-7S0,3.134,0,7
	s3.134,6.999,7,6.999c1.572,0,3.019-0.523,4.187-1.398l3.106,3.105c0.391,0.392,1.023,0.392,1.414,0
	C16.098,15.315,16.098,14.684,15.707,14.292 M7,11.999c-2.762,0-5-2.237-5-4.999s2.238-5,5-5s5,2.238,5,5S9.762,11.999,7,11.999"/>
</svg>
