<?xml version="1.0" encoding="utf-8"?>
<svg version="1.1" xmlns="http://www.w3.org/2000/svg" x="0px" y="0px"
	 width="64px" height="64px" viewBox="0 0 64 64" enable-background="new 0 0 64 64" xml:space="preserve">
<path d="M63.937,28.063c-0.146-0.391-0.519-0.65-0.937-0.65H42.09l6.137-5.319c0.315-0.273,0.428-0.714,0.281-1.105
  c-0.146-0.391-0.52-0.65-0.937-0.65h-4.366v-5.355c0-0.553-0.447-1-1-1h-7.973c-0.553,0-1,0.447-1,1v5.355H15.34v-8.533
  c0-0.553-0.447-1-1-1H6.366c-0.553,0-1,0.447-1,1v8.533H1c-0.423,0-0.8,0.266-0.941,0.664c-0.143,0.397-0.02,0.842,0.308,1.109
  l20.617,16.885v16.93c0,0.42,0.262,0.794,0.655,0.938c0.112,0.042,0.229,0.062,0.345,0.062c0.288,0,0.569-0.125,0.763-0.354
  l5.761-6.794c0.153-0.181,0.237-0.409,0.237-0.646v-9.341l7.668,6.279V63c0,0.42,0.262,0.794,0.655,0.938
  C37.18,63.98,37.297,64,37.412,64c0.288,0,0.569-0.125,0.763-0.354l5.761-6.793c0.153-0.181,0.237-0.409,0.237-0.646V46.054
  l19.482-16.885C63.971,28.896,64.083,28.455,63.937,28.063z M35.232,15.982h5.973v4.355h-5.973V15.982z M7.366,12.805h5.974v7.533
  H7.366V12.805z M26.744,38.522v10.242L22.983,53.2V38.522c0-0.3-0.135-0.584-0.366-0.773L3.8,22.338h2.566h7.974h19.893h7.973
  h2.686l-5.855,5.075H16.429c-0.423,0-0.8,0.266-0.941,0.664c-0.143,0.397-0.02,0.842,0.308,1.109l11.014,9.019
  C26.773,38.307,26.744,38.41,26.744,38.522z M42.518,44.841c-0.219,0.19-0.345,0.466-0.345,0.756V55.84l-3.761,4.435V45.597
  c0-0.3-0.135-0.584-0.366-0.773l-18.817-15.41h41.091L42.518,44.841z"/>
<path d="M11.992,9.825h0.076c0.553,0,1-0.447,1-1V3.721c0-0.553-0.523-1-1.076-1s-1,0.447-1,1v5.104
  C10.992,9.378,11.439,9.825,11.992,9.825z"/>
<path d="M45.979,7.61h0.078c0.553,0,1-0.447,1-1V1.507c0-0.553-0.525-1-1.078-1s-1,0.447-1,1V6.61
  C44.979,7.163,45.426,7.61,45.979,7.61z"/>
<path d="M35.47,11.929h0.077c0.553,0,1-0.447,1-1V5.824c0-0.553-0.524-1-1.077-1s-1,0.447-1,1v5.104
  C34.47,11.481,34.917,11.929,35.47,11.929z"/>
<path d="M20.3,17.89h7.972c0.553,0,1-0.447,1-1V1c0-0.553-0.447-1-1-1H20.3c-0.553,0-1,0.447-1,1v15.89
  C19.3,17.442,19.747,17.89,20.3,17.89z M21.3,2h5.972v13.89H21.3V2z"/>
<path d="M51.381,24.755h7.972c0.553,0,1-0.447,1-1V7.866c0-0.553-0.447-1-1-1h-7.972c-0.553,0-1,0.447-1,1v15.889
  C50.381,24.308,50.828,24.755,51.381,24.755z M52.381,8.866h5.972v13.889h-5.972V8.866z"/>
</svg>
