<?xml version="1.0" encoding="utf-8"?>
<svg version="1.1" xmlns="http://www.w3.org/2000/svg" x="0px" y="0px"
	 width="24px" height="24px" viewBox="0 0 24 24" enable-background="new 0 0 24 24" xml:space="preserve">
<path fill="#00AEEF" d="M15.241,0.45c-6.38-1.79-13.004,1.93-14.792,8.31c-1.79,6.379,1.932,13,8.312,14.791
	c6.377,1.791,13-1.931,14.791-8.31C25.34,8.862,21.62,2.239,15.241,0.45z M18.091,12.295c-1.306,5.284-10.06,7.527-14.088,2.039
	c1.542,1.473,4.228,1.602,5.932-0.159c-0.998,0.147-1.725-0.833-0.497-1.361c-1.104,0.119-1.718-0.467-1.969-0.964
	c0.258-0.271,0.544-0.398,1.095-0.434c-1.207-0.285-1.654-0.877-1.791-1.594c0.336-0.082,0.755-0.149,0.984-0.119
	C6.698,9.152,6.332,8.319,6.389,7.693C8.28,8.396,9.484,8.958,10.492,9.5c0.361,0.191,0.76,0.536,1.212,0.975
	c0.576-1.521,1.287-3.089,2.503-3.866c-0.019,0.176-0.114,0.34-0.239,0.475c0.348-0.313,0.795-0.529,1.252-0.592
	c-0.054,0.342-0.546,0.535-0.844,0.646c0.225-0.07,1.423-0.604,1.554-0.3c0.155,0.346-0.827,0.506-0.993,0.566
	c-0.125,0.042-0.249,0.087-0.373,0.137c1.519-0.15,2.97,1.102,3.392,2.655c0.03,0.112,0.061,0.236,0.089,0.367
	c0.556,0.206,1.561-0.011,1.885-0.21c-0.234,0.555-0.844,0.963-1.742,1.037c0.434,0.181,1.247,0.279,1.813,0.184
	C19.643,11.956,19.068,12.303,18.091,12.295z"/>
</svg>
